<svg xmlns="http://www.w3.org/2000/svg" fill="none" viewBox="0 0 16 16" width="1em" height="1em">
  <path stroke="currentColor" d="M3.9 12.175c-1.25-.983-1.762-2.554-1.995-4.384-.115-.907-.16-1.848-.204-2.78v-.008a37.296 37.296 0 0 0-.147-2.208c.909-.176 1.997-.389 3.084-.703C5.798 1.757 6.99 1.296 8 .613c1.01.683 2.203 1.144 3.362 1.479 1.087.314 2.175.527 3.084.703a37.246 37.246 0 0 0-.147 2.208v.007c-.044.933-.088 1.874-.204 2.78-.233 1.831-.744 3.402-1.995 4.385-1.06.832-2.123 1.658-3.187 2.484L8 15.37l-.913-.71c-1.064-.826-2.128-1.652-3.187-2.484Z"/>
  <path fill="currentColor" d="M10.51 4h.992c.296.002.498.213.498.522v2.083c0 .306-.198.516-.49.517-.623.002-1.247 0-1.872 0-.313 0-.487.185-.487.515v1.206c0 .279.178.471.444.476.185.004.371 0 .557.002.307.003.5.206.503.529.001.21.001.42-.002.632-.005.308-.188.504-.481.512a12.25 12.25 0 0 1-.624 0c-.298-.008-.482-.206-.486-.52-.003-.192.002-.383 0-.574-.003-.298-.182-.493-.465-.496a48.873 48.873 0 0 0-1.193 0c-.284.003-.464.198-.464.496 0 .195.002.39 0 .585-.003.287-.182.494-.452.507-.231.01-.462.01-.691 0-.271-.012-.448-.218-.45-.507V9.84c0-.305.195-.513.488-.52.182-.003.364 0 .546 0 .296-.002.466-.185.466-.497V7.607c0-.29-.182-.483-.46-.484h-1.85c-.35 0-.537-.194-.537-.561V4.549c0-.341.195-.547.519-.548h1.939c.333 0 .523.202.523.554v1.907c0 .352.173.534.506.534h1.048c.305 0 .486-.187.486-.507V4.592c0-.399.179-.59.555-.59h.937L10.51 4ZM5.48 6.367h.466c.214-.002.366-.157.368-.38.003-.331.003-.662 0-.992-.002-.217-.151-.375-.36-.378-.315-.004-.63-.004-.945 0-.212.003-.363.163-.364.386-.002.327-.002.654 0 .982.002.222.155.38.366.383l.468-.001Zm5.006 0h.457c.222-.002.377-.15.382-.38.005-.332.005-.663 0-.995-.004-.22-.156-.374-.365-.375a42.361 42.361 0 0 0-.947 0 .356.356 0 0 0-.357.368c-.005.34-.004.679.002 1.018.003.21.157.362.36.364h.468ZM7.544 8.225c0 .094-.002.188 0 .281.005.132.085.223.21.227.181.006.363.006.546 0 .124-.003.21-.09.215-.22.006-.187.006-.375.001-.562-.004-.137-.091-.225-.221-.228a10.804 10.804 0 0 0-.535 0c-.13.004-.212.096-.216.233-.003.09 0 .18 0 .27Z"/>
</svg>