<svg xmlns="http://www.w3.org/2000/svg" fill="none" viewBox="0 0 16 16" width="1em" height="1em">
  <path fill="currentColor" d="M11.557 9.783c.149.364.052.586-.235.792-.546.39-1.133.7-1.737.983-.042.02-.09.046-.12-.01-.007-.015.033-.055.05-.082.46-.791.35-1.137-.467-1.423-.272-.094-.552-.163-.828-.244-.692-.282-1.165-.794-1.44-1.496a16.603 16.603 0 0 1-.377-1.08c-.19-.606-.597-.852-1.21-.71-.484.112-.951.289-1.416.463-.127.046-.253.156-.42.03.519-.262 1.018-.533 1.53-.77.24-.11.403-.257.524-.503.413-.846 1.21-1.112 2.059-.719.25.116.47.297.748.35.196.097.397.188.588.299.29.166.471.114.672-.187.616-.928 1.383-1.718 2.25-2.403.364-.289.62-.217.767.214.04.118.09.232.139.363l1.016-.686c.45-.303.465-.526.05-.89a1.116 1.116 0 0 0-.63-.294c-.267-.025-.505-.13-.748-.227C10.98 1.003 9.643.433 8.227.11c-.504-.168-1.007-.124-1.51.002-.954.242-1.873.582-2.789.94-.58.227-1.141.528-1.739.671-.499.121-.9.308-1.189.738v3.831c.153.59.123 1.202.157 1.8.076 1.385.503 2.578 1.45 3.607 1.307 1.416 2.71 2.717 4.156 3.975.517.449 1.025.434 1.526-.044l.018-.037c1.652-1.401 3.236-2.873 4.634-4.55.973-1.165.92-2.566 1.051-4.04-.942.846-1.978 1.233-3.113 1.435.282.442.493.885.682 1.343l-.004.002ZM2.489 7.835c-.193.106-.374.129-.505-.083-.127-.206-.107-.4.087-.564.334-.282.642-.29 1.052-.01-.193.24-.354.507-.634.659v-.002Z"/>
</svg>