<svg xmlns="http://www.w3.org/2000/svg" fill="none" viewBox="0 0 16 16">
  <path fill="currentColor" d="M5.101 6.208c.509-.05.997-.084 1.48-.153.425-.06.842-.168 1.266-.235.105-.017.29.01.317.07.04.092.01.257-.052.348-.576.859-1.34 1.508-2.235 2.003l-.163.09c.667 1.715 1.604 3.261 2.743 4.719.37-.375.654-.792.871-1.253.55-1.167.487-2.305-.174-3.412-.19-.32-.4-.638-.537-.982-.447-1.123-.41-2.218.332-3.213.455-.609 1.117-.896 1.835-1.045a6.063 6.063 0 0 1 1.01-.12c1.097-.039 1.847-.626 2.394-1.533.16-.266.276-.559.411-.84.062-.13.131-.259.301-.216.17.042.188.184.164.33-.18 1.068-.329 2.143-.551 3.202-.41 1.953-1.1 3.809-1.996 5.585-.974 1.934-2.17 3.71-3.691 5.249-.086.086-.174.17-.264.252-.23.21-.288.213-.513.006-1.216-1.118-2.242-2.399-3.13-3.793-.436-.686-.828-1.402-1.259-2.137-.427.136-.89.264-1.34.434-.241.092-.403.039-.556-.146A3.593 3.593 0 0 1 .959 7.48C.907 7.014.937 6.536.955 6.064c.01-.282.117-.376.392-.348.343.034.682.106 1.057.168-.052-.203-.1-.397-.153-.59a20.398 20.398 0 0 1-.64-3.65c-.018-.213.046-.376.236-.447.36-.133.72-.276 1.093-.353C4.832.455 6.744.37 8.664.531c.606.05 1.204.197 1.805.302.06.01.13.02.17.057.064.062.156.158.145.222-.015.081-.115.196-.19.207-.192.027-.39.002-.586.002-1.222.003-2.425.13-3.58.561-.707.265-1.063.847-1.3 1.523-.255.72-.188 1.463-.117 2.204.017.182.053.361.09.6Zm4.786-.474a1.197 1.197 0 0 0 1.188 1.213 1.215 1.215 0 0 0 1.202-1.207c0-.665-.534-1.19-1.207-1.187a1.165 1.165 0 0 0-1.182 1.18Z"/>
</svg>