<svg viewBox="0 0 103 35" fill="none" xmlns="http://www.w3.org/2000/svg">
    <path fill-rule="evenodd" clip-rule="evenodd" d="M101.442 26.484C101.535 26.484 101.58 26.4168 101.58 26.3383V26.2114C101.58 26.1252 101.531 26.0732 101.442 26.0732H101.086V26.484H101.442ZM101.087 26.6779V27.1449H100.844V25.8752H101.428C101.686 25.8752 101.832 26.0208 101.832 26.2785C101.832 26.5026 101.708 26.6256 101.554 26.667L101.835 27.1449H101.566L101.304 26.6779H101.087ZM101.223 27.5887C101.905 27.6445 102.455 27.0956 102.398 26.4145C102.357 25.903 101.926 25.4732 101.414 25.4308C100.731 25.375 100.182 25.9242 100.238 26.6057C100.28 27.1168 100.711 27.5466 101.223 27.5887ZM101.058 25.2094C101.994 25.0316 102.799 25.8361 102.621 26.7703C102.523 27.2884 102.098 27.7129 101.579 27.8109C100.644 27.9879 99.8393 27.1842 100.016 26.251C100.115 25.7325 100.539 25.308 101.058 25.2094Z" fill="currentColor"/>
    <path fill-rule="evenodd" clip-rule="evenodd" d="M50.8909 19.7958L50.6919 19.8555C49.182 20.3115 47.5166 20.3069 46.0159 19.8428L45.8177 19.7813L48.1821 12.0592C48.2398 11.8712 48.5066 11.8719 48.5633 12.0599L50.8909 19.7958ZM45.4795 8.64902L38.936 27.8352H43.3516L44.7805 23.1706L44.9801 23.2318C47.1516 23.8973 49.5419 23.9026 51.7109 23.2477L51.9109 23.1876L53.3104 27.8352H57.7189L51.2086 8.65326C50.798 7.44266 49.6604 6.62793 48.3805 6.62793H48.3062C47.0281 6.62793 45.8915 7.44054 45.4795 8.64902Z" fill="currentColor"/>
    <path fill-rule="evenodd" clip-rule="evenodd" d="M90.9047 11.9256H86.2202L81.6464 18.0723V6.62793H77.6931V27.8356H81.6464V20.2033L86.995 27.8356H91.4024L85.5547 19.5936C85.3502 19.3055 85.3604 18.9171 85.5799 18.6399L90.9047 11.9256Z" fill="currentColor"/>
    <path fill-rule="evenodd" clip-rule="evenodd" d="M70.1764 11.9248H64.2336H63.8262C61.8677 11.9248 60.2803 13.5101 60.2803 15.4658V27.8348H64.2336V16.3749C64.2336 15.8726 64.641 15.4658 65.1439 15.4658H69.2661C69.769 15.4658 70.1764 15.8726 70.1764 16.3749V27.8348H74.1294V15.4658C74.1294 13.5101 72.5422 11.9248 70.5838 11.9248H70.1764Z" fill="currentColor"/>
    <path fill-rule="evenodd" clip-rule="evenodd" d="M102.647 11.9248H97.6762H97.2688C95.3104 11.9248 93.7229 13.5101 93.7229 15.4658V27.8348H97.6762V16.3749C97.6762 15.8726 98.0836 15.4658 98.5865 15.4658H102.647V11.9248Z" fill="currentColor"/>
    <path fill-rule="evenodd" clip-rule="evenodd" d="M18.1301 0.883972L29.2343 6.57399C30.8512 7.40285 31.8557 9.04503 31.8557 10.8597V13.4541H27.7612V10.8597C27.7612 10.5858 27.609 10.3373 27.3644 10.2118L16.2609 4.52215C16.0528 4.41575 15.804 4.4154 15.5951 4.5225L4.49094 10.2118C4.24671 10.3373 4.09487 10.5858 4.09487 10.8597V13.4541H0V10.8597C0 9.04503 1.00452 7.40285 2.62101 6.57399L13.7259 0.883972C15.1045 0.176697 16.7504 0.176697 18.1301 0.883972ZM19.4314 17.1279C19.4314 15.1977 17.8591 13.6279 15.9266 13.6279C13.994 13.6279 12.4217 15.1977 12.4217 17.1279C12.4217 19.0574 13.994 20.6279 15.9266 20.6279C17.8591 20.6279 19.4314 19.0574 19.4314 17.1279ZM27.3652 24.39C27.6091 24.2649 27.7613 24.0168 27.7613 23.7425V21.1477H31.8558V23.7425C31.8558 25.5571 30.8512 27.1993 29.2351 28.0278L18.1302 33.7178C17.4538 34.0642 16.6921 34.248 15.9279 34.248C15.1641 34.248 14.402 34.0642 13.7256 33.7178L2.62147 28.0278C1.00461 27.1993 9.89691e-05 25.5571 9.89691e-05 23.7425V21.1477H4.09461V23.7425C4.09461 24.0168 4.24681 24.2649 4.49139 24.39L13.8807 29.2013V24.4345C10.682 23.5396 8.32823 20.6037 8.32823 17.1278C8.32823 12.9432 11.7375 9.53864 15.9279 9.53864C20.1184 9.53864 23.5276 12.9432 23.5276 17.1278C23.5276 20.6037 21.1739 23.5396 17.9752 24.4345V29.2017L27.3652 24.39Z" fill="currentColor"/>
</svg>
