<svg width="50" height="50" viewBox="0 0 50 50" fill="none" xmlns="http://www.w3.org/2000/svg">
  <path d="M25 50C38.8071 50 50 38.8071 50 25C50 11.1929 38.8071 0 25 0C11.1929 0 0 11.1929 0 25C0 38.8071 11.1929 50 25 50Z" fill="#2E6CF6"/>
  <path fill-rule="evenodd" clip-rule="evenodd" d="M23.7132 7.606C24.6629 7.10022 25.8108 7.14179 26.7214 7.71494L33.7834 12.1597C34.6559 12.7089 35.1854 13.6676 35.1854 14.6987V36.0247C35.1854 37.1275 34.5803 38.1413 33.6097 38.6649L26.7031 42.391C25.7652 42.8969 24.6292 42.8674 23.7189 42.3133L15.0207 37.0192C14.1263 36.4748 13.5804 35.5036 13.5804 34.4565V14.8036C13.5804 13.695 14.1918 12.6768 15.1702 12.1557L23.7132 7.606ZM15.2423 14.9241L22.7337 19.2462L15.2423 23.5683V14.9241ZM15.2423 26.4301V35.2241L23.7692 40.4139C24.6795 40.9679 25.8154 40.9975 26.7533 40.4915L33.5234 36.8392V26.4301L25.8821 30.8387C24.9543 31.374 23.8115 31.374 22.8837 30.8387L15.2423 26.4301ZM33.5234 23.5683L26.032 19.2462L33.5234 14.9241V23.5683ZM32.7581 13.4627L24.3829 18.2948L16.1102 13.5219L23.6431 9.51019C24.5928 9.00441 25.7407 9.04598 26.6513 9.61912L32.7581 13.4627ZM23.5519 20.6771L16.0605 24.9992L23.5519 29.3213V20.6771ZM25.2138 29.3213L32.7052 24.9992L25.2138 20.6771V29.3213ZM39.2088 14.1882C39.2088 11.9421 37.9819 9.87538 36.0101 8.79982L34.6693 11.2579C35.7416 11.8428 36.4088 12.9668 36.4088 14.1882V14.3078H39.2088V14.1882ZM12.7559 40.2703C10.784 39.1947 9.55713 37.128 9.55713 34.8819V34.7623H12.3571V34.8819C12.3571 36.1033 13.0243 37.2273 14.0967 37.8122L12.7559 40.2703Z" fill="white"/>
</svg>
