<svg width="21" height="20" viewBox="0 0 21 20" fill="none" xmlns="http://www.w3.org/2000/svg">
<path d="M14.2783 18.5497C12.9023 19.3441 12.2143 19.7414 11.4828 19.8968C10.8356 20.0344 10.1667 20.0344 9.51955 19.8968C8.78809 19.7414 8.10009 19.3441 6.72407 18.5497L4.98548 17.5459C3.60946 16.7515 2.92145 16.3542 2.42108 15.7985C1.97835 15.3068 1.64392 14.7276 1.43945 14.0983C1.20837 13.3871 1.20837 12.5927 1.20837 11.0038L1.20837 8.99622C1.20837 7.40734 1.20837 6.6129 1.43946 5.9017C1.64392 5.27244 1.97836 4.69317 2.42108 4.20147C2.92146 3.64575 3.60946 3.24853 4.98548 2.45409L6.72408 1.45031C8.10009 0.655869 8.7881 0.258648 9.51955 0.103173C10.1667 -0.0343912 10.8356 -0.0343911 11.4828 0.103173C12.2143 0.258648 12.9023 0.655869 14.2783 1.45031L16.0169 2.45409C17.3929 3.24853 18.0809 3.64575 18.5813 4.20147C19.024 4.69317 19.3584 5.27244 19.5629 5.9017C19.794 6.6129 19.794 7.40734 19.794 8.99622V11.0038C19.794 12.5927 19.794 13.3871 19.5629 14.0983C19.3584 14.7276 19.024 15.3068 18.5813 15.7985C18.0809 16.3542 17.3929 16.7515 16.0169 17.5459L14.2783 18.5497Z" fill="#356DF3"/>
<path fill-rule="evenodd" clip-rule="evenodd" d="M11.3291 3.77159L15.5184 5.93327C16.1284 6.24816 16.5073 6.87204 16.5073 7.56144V8.54707H14.9626V7.56144C14.9626 7.45737 14.9052 7.36297 14.8129 7.3153L10.624 5.15376C10.5454 5.11334 10.4516 5.11321 10.3728 5.15389L6.18355 7.3153C6.09141 7.36297 6.03413 7.45737 6.03413 7.56144V8.54707H4.48928V7.56144C4.48928 6.87204 4.86825 6.24816 5.4781 5.93327L9.66759 3.77159C10.1877 3.50289 10.8086 3.50289 11.3291 3.77159ZM14.8132 12.7018C14.9052 12.6543 14.9626 12.56 14.9626 12.4558V11.47H16.5073V12.4558C16.5073 13.1452 16.1283 13.7691 15.5186 14.0838L11.3291 16.2455C11.0739 16.3771 10.7866 16.4469 10.4983 16.4469C10.2101 16.4469 9.92262 16.3771 9.66745 16.2455L5.47821 14.0838C4.86823 13.7691 4.48926 13.1452 4.48926 12.4558V11.47H6.03398V12.4558C6.03398 12.56 6.09139 12.6543 6.18367 12.7018L9.72594 14.5296V12.7187C8.51917 12.3787 7.63117 11.2633 7.63117 9.94283C7.63117 8.35304 8.91737 7.05965 10.4983 7.05965C12.0792 7.05965 13.3654 8.35304 13.3654 9.94283C13.3654 11.2633 12.4774 12.3787 11.2706 12.7187V14.5298L14.8132 12.7018ZM11.8201 9.94315C11.8201 9.20985 11.227 8.61347 10.4979 8.61347C9.76882 8.61347 9.17565 9.20985 9.17565 9.94315C9.17565 10.6762 9.76882 11.2728 10.4979 11.2728C11.227 11.2728 11.8201 10.6762 11.8201 9.94315Z" fill="white"/>
</svg>
