<svg xmlns="http://www.w3.org/2000/svg" width="2000" height="2000" xml:space="preserve"
  version="1.1"> <g> <title>Layer 1</title> <path id="svg_1" fill="#EF8220" d="m693.83,320.06l-183.17,0c-12.65,0 -23.94,7.91 -28.28,19.79l-481.46,1319.88c-3.58,9.82 3.69,20.21 14.14,20.21l183.17,0c12.65,0 23.94,-7.91 28.28,-19.78l481.46,-1319.89c3.58,-9.82 -3.69,-20.21 -14.14,-20.21zm222.79,553.04c-4.81,-13.19 -23.46,-13.19 -28.28,0l-94.96,260.36c-2.43,6.66 -2.43,13.97 0,20.63l184.6,506.06c4.33,11.88 15.63,19.78 28.28,19.78l183.17,0c10.45,0 17.72,-10.39 14.14,-20.21l-286.95,-786.62zm466.95,254.84c4.81,13.19 23.46,13.19 28.27,0l287.32,-787.67c3.58,-9.82 -3.69,-20.21 -14.14,-20.21l-183.17,0c-12.65,0 -23.94,7.9 -28.28,19.79l-184.97,507.09c-2.43,6.66 -2.43,13.96 0,20.62l94.97,260.38zm-361.16,-788.23c-4.29,-11.8 -15.51,-19.65 -28.06,-19.65l-183.79,0c-12.64,0 -23.93,7.9 -28.27,19.78l-481.45,1319.89c-3.58,9.82 3.69,20.21 14.14,20.21l183.18,0c12.65,0 23.94,-7.9 28.28,-19.78l368.62,-1010.58c2.42,-6.63 11.79,-6.63 14.2,0l368.63,1010.58c4.33,11.88 15.63,19.78 28.28,19.78l183.18,0c10.45,0 17.72,-10.39 14.14,-20.2l-481.08,-1320.03zm962.53,-19.65l-183.19,0c-12.64,0 -23.94,7.9 -28.27,19.78l-334.93,918.2c-2.43,6.66 -2.43,13.96 0,20.62l94.98,260.38c4.81,13.19 23.46,13.19 28.27,0l331.55,-908.93l105.73,-289.85c3.58,-9.81 -3.69,-20.2 -14.14,-20.2z" class="st0"/> </g> </svg>