<svg xmlns="http://www.w3.org/2000/svg" width="50" height="50">
  <g>
    <title>Layer 1</title>
    <g stroke="null" id="svg_1" fill="none">
      <circle stroke="null" id="svg_2" fill="#00D4D5" r="25.006639" cy="24.874189" cx="25.006639" />
      <g stroke="null" id="svg_3" fill="#FFF">
        <path stroke="null" id="svg_4" d="m25.817792,7.682125l0,8.528827l7.405091,-4.258943l-7.405091,-4.269884z" />
        <path stroke="null" id="svg_5" d="m33.222883,11.952008l0,8.528827l7.403528,-4.269884l-7.403528,-4.258943z" opacity="0.9" />
        <path stroke="null" id="svg_6" d="m25.817792,16.210951l0,8.528827l7.405091,-4.258943l-7.405091,-4.269884zm14.810182,8.54133l0,8.527264l7.403528,-4.269884l-7.403528,-4.25738z" opacity="0.8" />
        <path stroke="null" id="svg_7" d="m25.817792,24.739778l0,8.528827l7.405091,-4.258943l-7.405091,-4.269884z" opacity="0.8" />
        <path stroke="null" id="svg_8" d="m33.222883,29.009662l0,8.528827l7.403528,-4.269884l-7.403528,-4.258943z" />
        <path stroke="null" id="svg_9" d="m6.678336,15.923375l0,8.528827l7.405091,-4.269884l-7.405091,-4.258943z" opacity="0.4" />
        <path stroke="null" id="svg_10" d="m16.019878,19.09453l0,8.528827l7.392588,-4.258943l-7.392588,-4.269884z" opacity="0.2" />
        <path stroke="null" id="svg_11" d="m10.530921,24.488149l0,8.528827l7.403528,-4.269884l-7.403528,-4.258943z" opacity="0.3" />
        <path stroke="null" id="svg_12" d="m15.410342,30.924233l0,8.528827l7.392588,-4.269884l-7.392588,-4.258943z" opacity="0.9" />
        <path stroke="null" id="svg_13" d="m25.756839,34.59552l0,8.53039l7.392588,-4.271447l-7.392588,-4.258943z" opacity="0.7" />
        <path stroke="null" id="svg_14" d="m17.253018,14.882474l0,8.53039l7.392588,-4.258943l-7.392588,-4.271447z" opacity="0.9" />
        <path stroke="null" id="svg_15" d="m25.817792,7.682125l0,8.528827l-7.405091,-4.258943l7.405091,-4.269884z" opacity="0.8" />
        <path stroke="null" id="svg_16" d="m17.253018,11.308087l0,8.527264l-7.406654,-4.269884l7.406654,-4.25738z" opacity="0.6" />
        <path stroke="null" id="svg_17" d="m24.658109,15.527958l0,8.53039l-7.405091,-4.271447l7.405091,-4.258943z" opacity="0.6" />
        <path stroke="null" id="svg_18" d="m15.985494,19.09453l0,8.528827l-7.405091,-4.258943l7.405091,-4.269884z" opacity="0.95" />
        <path stroke="null" id="svg_19" d="m25.817792,24.739778l0,8.528827l-7.392588,-4.258943l7.392588,-4.269884z" opacity="0.6" />
        <path stroke="null" id="svg_20" d="m10.530921,26.726243l0,8.528827l-7.405091,-4.271447l7.405091,-4.25738z" opacity="0.55" />
        <path stroke="null" id="svg_21" d="m40.626412,16.210951l0,8.528827l-7.403528,-4.258943l7.403528,-4.269884z" />
        <path stroke="null" id="svg_22" d="m33.222883,20.482398l0,8.527264l-7.405091,-4.269884l7.405091,-4.25738z" opacity="0.95" />
        <path stroke="null" id="svg_23" d="m40.626412,24.739778l0,8.528827l-7.403528,-4.258943l7.403528,-4.269884z" opacity="0.9" />
        <path stroke="null" id="svg_24" d="m33.222883,29.009662l0,8.528827l-7.405091,-4.269884l7.405091,-4.258943z" opacity="0.7" />
        <path stroke="null" id="svg_25" d="m24.178295,32.563731l0,8.528827l-7.403528,-4.258943l7.403528,-4.269884z" opacity="0.4" />
        <path stroke="null" id="svg_26" d="m33.222883,11.952008l0,8.528827l-7.405091,-4.269884l7.405091,-4.258943z" />
      </g>
    </g>
  </g>
</svg>