<svg width="64" height="64" viewBox="0 0 64 64" fill="none" xmlns="http://www.w3.org/2000/svg">
<path d="M53.1944 19.5497C52.4722 18.9864 51.6111 18.217 50.0417 18.0247C48.5694 17.8323 47.0694 18.8078 46.0556 19.4535C45.0417 20.0992 43.125 21.9952 42.3333 22.5722C41.5417 23.1493 39.5139 23.6851 36.25 25.6223C32.9861 27.5595 20.1806 35.6929 20.1806 35.6929L23.5139 35.7341L8.65278 43.3042H10.1389L8 44.9117C8 44.9117 9.88889 45.4063 11.4722 44.4171V44.8705C11.4722 44.8705 29.1667 37.9735 32.5833 39.7596L30.5 40.3641C30.6806 40.3641 34.0417 40.5839 34.0417 40.5839C34.0417 40.5839 34.1528 42.6585 36.1806 43.9912C38.2083 45.3101 38.25 46.0383 38.25 46.0383C38.25 46.0383 37.1944 46.4642 37.1944 47C37.1944 47 38.75 46.5329 40.1944 46.5741C41.6389 46.6153 42.9028 47 42.9028 47C42.9028 47 42.7917 46.423 41.3889 46.0383C39.9722 45.6398 38.5972 44.1423 37.9167 43.318C37.2361 42.4936 36.7639 41.0236 37.3472 39.5535C37.8333 38.3033 39.5278 37.6163 43.0278 35.8303C47.1528 33.7145 48.0972 32.1483 48.6806 30.9255C49.2639 29.7027 50.125 27.2709 50.6111 26.1306C51.2222 24.6606 51.9722 23.8774 52.5972 23.4103C53.2083 22.9432 56 21.9128 56 21.9128C56 21.9128 53.875 20.0855 53.1944 19.5497Z" fill="black"/>
</svg>