<svg xmlns="http://www.w3.org/2000/svg" fill="none" viewBox="0 0 44 44">
  <circle cx="22" cy="22" r="22" fill="#F2F5FA"/>
  <path fill="url(#stMatic-a)" d="M9.625 15.456c.024-.097.031-.198.06-.293.113-.384.34-.67.686-.869.515-.297 1.024-.605 1.536-.909 1.253-.744 2.506-1.489 3.76-2.23a.975.975 0 0 1 .552-.155l.596.001a.66.66 0 0 1 .322.075c.214.108.417.239.623.362 1.43.851 2.86 1.703 4.29 2.557.18.107.367.202.53.336.387.316.606.725.613 1.23.01.738.003 1.476.004 2.215 0 .035-.014.052-.041.068l-2.355 1.38-.06.032v-.074c0-.677.002-1.354 0-2.032-.003-.625-.26-1.11-.791-1.436-.914-.561-1.827-1.123-2.743-1.68a1.533 1.533 0 0 0-.59-.196 1.487 1.487 0 0 0-.9.139c-.18.092-.352.201-.527.305-.766.451-1.535.897-2.296 1.357-.524.316-.807.788-.81 1.413a395.8 395.8 0 0 0 0 3.233c.003.616.27 1.09.79 1.41.908.558 1.816 1.12 2.727 1.67.302.182.638.244.99.211a1.58 1.58 0 0 0 .69-.244c1.143-.699 2.285-1.398 3.433-2.087.473-.283.959-.546 1.441-.81 1.188-.653 2.342-1.368 3.507-2.059.379-.224.746-.465 1.134-.672.525-.28 1.067-.308 1.592 0 1.659.97 3.312 1.949 4.97 2.922.198.117.398.23.56.4.286.303.441.663.455 1.082.004.111.001.223.001.334 0 1.969.003 3.938-.001 5.905-.001.566-.233 1.023-.697 1.343-.22.151-.458.277-.687.412-1.071.63-2.144 1.26-3.215 1.892l-1.372.806c-.434.258-1.17.27-1.598.016-1.73-1.02-3.463-2.035-5.191-3.06-.526-.311-.803-.79-.807-1.414-.005-.69 0-1.38-.003-2.07 0-.054.02-.08.064-.105l2.043-1.2.351-.205v2.108c0 .072.005.144.017.213.084.514.343.908.792 1.17.804.474 1.607.947 2.41 1.422.261.155.52.31.823.364.383.068.746.022 1.083-.18.887-.533 1.773-1.068 2.658-1.603.235-.142.432-.33.577-.567.162-.266.236-.555.236-.866v-3.157c0-.063-.002-.126-.008-.19-.048-.563-.308-.995-.79-1.282-.757-.45-1.514-.895-2.272-1.34-.205-.12-.401-.26-.623-.348-.486-.192-.967-.199-1.427.07-1.29.756-2.576 1.517-3.863 2.276-1.876 1.106-3.749 2.213-5.627 3.312-.478.28-.986.321-1.5.095-.173-.077-.332-.187-.496-.284-1.593-.936-3.184-1.873-4.776-2.81-.394-.23-.67-.558-.793-1.009-.025-.089-.037-.183-.055-.274-.002-2.141-.002-4.284-.002-6.426Z"/>
  <defs>
    <linearGradient id="stMatic-a" x1="10" x2="34" y1="29.5" y2="29.5" gradientUnits="userSpaceOnUse">
      <stop stop-color="#28CAFF"/>
      <stop offset="1" stop-color="#0FB2FF"/>
    </linearGradient>
  </defs>
</svg>