<svg xmlns="http://www.w3.org/2000/svg" fill="none" viewBox="0 0 30 30">
  <circle cx="15" cy="15" r="15" fill="#F2F5FA"/>
  <path fill="#00A3FF" d="m7.668 13.685-.208.32c-2.346 3.598-1.822 8.311 1.26 11.33A9.356 9.356 0 0 0 15.285 28L7.668 13.685Z"/>
  <path fill="#00A3FF" d="m15.283 18.036-7.617-4.35L15.283 28v-9.964.001Zm7.627-4.35.208.32c2.346 3.597 1.822 8.31-1.26 11.33A9.355 9.355 0 0 1 15.293 28l7.617-14.315Z" opacity=".6"/>
  <path fill="#00A3FF" d="m15.293 18.036 7.616-4.35L15.293 28v-9.964.001Zm.002-9.719v7.503l6.56-3.749-6.56-3.754Z" opacity=".2"/>
  <path fill="#00A3FF" d="m15.293 8.317-6.566 3.754 6.566 3.75V8.317Z" opacity=".6"/>
  <path fill="#00A3FF" d="M15.293 2.006 8.727 12.073l6.566-3.764V2.006Z"/>
  <path fill="#00A3FF" d="m15.295 8.307 6.566 3.765L15.295 2v6.307Z" opacity=".6"/>
</svg>
