<svg width="24" height="24" viewBox="0 0 24 24" fill="none" xmlns="http://www.w3.org/2000/svg">
<path d="M20.9992 2.00623L18.0336 2.00391L18.913 4.71854L13.3262 8.77598L17.7492 11.9971L22.9996 8.18356L20.9992 2.00623Z" fill="#FFC800"/>
<path d="M5.08312 4.70767L5.96378 2.00233L3.00849 2L1 8.17501L6.24457 11.9955L10.6735 8.77904L5.08312 4.70767Z" fill="#E1AA00"/>
<path d="M11.4907 5.27261L7.00261 2.00391L6.24609 4.33056L11.4907 8.15104L11.493 8.14987V5.27029L11.4907 5.27261Z" fill="#E1AA00"/>
<path d="M16.9968 2.00391L12.5029 5.26681V8.14639L17.751 4.33522L16.9968 2.00391Z" fill="#FFC800"/>
<path d="M6.25653 13.2093L6.24609 13.243L11.4907 17.0646L11.493 17.0623V9.40625L6.25653 13.2093Z" fill="#E1AA00"/>
<path d="M17.7383 13.2163L12.5087 9.40625L12.5029 9.41089V17.0669L17.751 13.2558L17.7383 13.2163Z" fill="#FFC800"/>
<path d="M11.4895 18.2932L7.22075 15.1836L6.24609 18.1805L11.4907 22.001L11.493 21.9987V18.2909L11.4895 18.2932Z" fill="#E1AA00"/>
<path d="M16.7787 15.1836L12.5029 18.2897V21.9975L17.751 18.1863L16.7787 15.1836Z" fill="#FFC800"/>
</svg>
