<svg width="24" height="24" viewBox="0 0 24 24" fill="none" xmlns="http://www.w3.org/2000/svg">
<circle cx="12" cy="12" r="12" fill="#4729FF"/>
<path d="M20.886 10.7025C20.8057 10.215 20.6771 9.74372 20.5164 9.28869C20.3557 8.83365 20.1629 8.37862 19.9379 7.93984C19.6969 7.50106 19.4398 7.07853 19.1345 6.67225C18.8935 6.34722 18.6203 6.03845 18.331 5.74593C18.315 5.72968 18.2989 5.71343 18.2668 5.68092C18.2186 5.63217 18.1543 5.56717 18.1061 5.51841C18.0739 5.48591 18.0579 5.46966 18.0418 5.45341C17.6561 5.09588 17.2383 4.77086 16.8045 4.47834C16.3706 4.20207 15.9207 3.9583 15.4547 3.74704C14.9887 3.53577 14.5066 3.38951 14.0245 3.2595C13.5425 3.12949 13.0443 3.04823 12.5623 3.01573C11.7427 2.98323 9.70197 2.88572 7.48445 4.16957C7.22734 4.31583 6.97024 4.49459 6.71314 4.67335C-0.341167 10.5075 3.5154 20.2907 11.1 21.087C16.5313 21.7046 21.0949 17.3168 20.9985 11.9864C20.9824 11.5638 20.9503 11.1413 20.886 10.7025ZM16.5313 13.319C15.8885 16.1142 13.0925 17.723 10.3769 16.8942C8.0308 16.1629 6.42389 13.7415 6.92203 11.2551C6.97024 11.0113 7.03452 10.7675 7.11486 10.54C7.96652 8.23236 10.5054 6.93227 12.8997 7.48481C15.5511 8.0861 17.158 10.6375 16.5313 13.319ZM12.964 18.6494C16.3063 17.9506 18.2507 15.0904 18.2186 12.1164C18.4917 13.254 18.6524 15.1229 17.3348 16.9917C13.9121 21.8508 6.45603 20.177 5.42761 14.3265C5.37941 14.034 5.34727 13.7415 5.3312 13.4652C5.57223 14.4728 6.05431 15.4641 6.79348 16.3254C8.48073 18.3243 11.116 18.9256 12.964 18.6494ZM19.6969 14.4728C20.0665 12.0676 19.3273 9.41869 17.1741 7.33854C16.9973 7.15978 16.8045 6.98102 16.6117 6.80226C14.6994 5.17714 12.0802 4.60835 9.62163 5.33965C6.69707 6.18471 4.73665 8.65489 4.17423 11.4338C4.41526 7.12728 7.85404 3.48702 12.4176 3.71453C12.8676 3.74704 13.3175 3.82829 13.7674 3.94205C14.2174 4.05581 14.6512 4.20207 15.069 4.38083C15.4868 4.55959 15.9046 4.78711 16.3063 5.04713C16.7081 5.30715 17.0777 5.59967 17.4472 5.94094C17.4472 5.94094 17.4633 5.95719 17.4955 5.9897C17.6401 6.11971 17.7686 6.26597 17.8972 6.39598C18.09 6.59099 18.2668 6.80226 18.4275 7.02977C18.7006 7.3873 18.9577 7.77733 19.1666 8.16735C19.3755 8.57363 19.5523 8.97991 19.6969 9.40244C19.8415 9.82497 19.954 10.2475 20.0344 10.6863C20.179 12.0839 20.0504 13.3515 19.6969 14.4728Z" fill="white"/>
</svg>
