<svg width="24" height="24" viewBox="0 0 24 24" fill="none" xmlns="http://www.w3.org/2000/svg">
<path fill-rule="evenodd" clip-rule="evenodd" d="M15.5376 6.3921C15.5502 6.34094 15.5669 6.29398 15.5796 6.24282C16.1754 4.0714 15.8984 2.87273 14.7529 2.64243C14.8872 3.07756 14.9628 3.53396 14.9836 4.00326C15.0257 5.03557 14.8578 6.07217 14.4761 7.10028C14.518 7.13016 14.5642 7.16003 14.606 7.1941L15.5376 6.3921ZM17.153 19.4413L16.339 17.2402L14.2076 19.0403L12.2564 22.4019C14.2076 21.86 15.4494 20.8661 15.9823 19.4285C16.1963 20.3542 16.1754 21.1818 15.9194 21.907C15.89 21.988 15.8606 22.0649 15.8271 22.1416C16.7879 21.523 17.2285 20.6187 17.153 19.4413M9.52916 7.10028C9.1474 6.07217 8.97946 5.03557 9.02145 4.00316C9.0382 3.53396 9.11798 3.07746 9.24803 2.64233C8.10255 2.87273 7.8256 4.0715 8.42567 6.24282C8.43405 6.29398 8.45499 6.34094 8.46765 6.3921L9.39912 7.1941C9.4411 7.16003 9.48718 7.13016 9.52916 7.10018M7.66205 17.2401L6.84806 19.4413C6.77257 20.6187 7.21726 21.5231 8.17814 22.1416C8.14463 22.0648 8.11521 21.988 8.08161 21.9069C7.8257 21.1818 7.80466 20.3542 8.01868 19.4285C8.55581 20.8662 9.79354 21.86 11.7445 22.4018L9.79354 19.0404L7.66205 17.2401V17.2401Z" fill="#FFA042"/>
<path fill-rule="evenodd" clip-rule="evenodd" d="M13.8462 1C14.1524 1.39246 14.4001 1.80201 14.5888 2.23284C14.8364 2.78736 14.979 3.37615 15.0253 4.00311C15.1091 5.06959 14.9664 6.13177 14.6014 7.19405C14.551 7.15988 14.5049 7.12581 14.4587 7.09594C14.1441 6.88262 13.8041 6.71197 13.4391 6.60536C13.3343 6.24697 13.137 5.9783 12.8391 5.78627C12.6629 5.67966 12.4656 5.61142 12.2517 5.57305C12.1719 5.56446 12.0881 5.55606 11.9999 5.55606C11.6853 5.56016 11.4042 5.637 11.1609 5.78627C10.8588 5.9783 10.6615 6.24697 10.5566 6.60536C10.1927 6.71921 9.84654 6.88585 9.52863 7.10023C9.48674 7.13001 9.44057 7.15988 9.39858 7.19405C9.03357 6.13177 8.89086 5.06959 8.97065 4.00321C9.00416 3.53401 9.10069 3.07751 9.24759 2.64238C9.44476 2.06208 9.74683 1.51196 10.1496 1C8.66428 1.80201 7.55241 2.94102 6.81392 4.42544C6.79716 4.44253 6.79298 4.4724 6.78031 4.49368C6.29782 5.58144 6.26431 6.58398 6.66702 7.50109C6.24756 7.79983 6.03773 8.25194 6.04202 8.85771C6.05868 9.49336 6.31458 10.0522 6.82649 10.5384C6.82649 10.5427 6.82649 10.5427 6.8223 10.5514C6.68555 10.8782 6.55962 11.2096 6.44472 11.5452C5.15663 11.6049 4.26296 12.185 3.77619 13.2942L3 15.2608L3.40689 15.5296C3.74006 15.2707 4.09377 15.041 4.46431 14.8427C5.19024 14.4546 5.70205 14.3052 5.99575 14.399L4.72441 16.2974L4.92995 16.4296L3.94403 17.688L4.1371 17.8885L3.31464 19.4627C3.26847 19.8082 3.33987 20.1835 3.53704 20.5974C3.7342 21.0154 4.0279 21.4036 4.40557 21.762C5.30762 22.6064 6.36494 23.0203 7.58173 22.999H7.60706C7.83773 22.9562 8.03908 22.8923 8.20693 22.807C8.29927 22.76 8.38734 22.7089 8.45445 22.6491C8.44279 22.6372 8.43416 22.6226 8.42932 22.6064C8.39976 22.5644 8.37313 22.5203 8.34964 22.4744L8.18179 22.1458C7.73701 21.1861 7.67408 20.0555 7.99301 18.7545C8.19436 19.6759 8.64762 20.4608 9.36926 21.122C10.007 21.7022 10.8001 22.1289 11.7441 22.4018C11.8195 22.4231 11.8993 22.4445 11.9706 22.4659L11.9958 22.4573H12L12.0251 22.4659C12.1007 22.4445 12.172 22.4231 12.2518 22.4018C13.1957 22.1289 13.993 21.7022 14.6265 21.122C15.3483 20.4608 15.8055 19.6759 16.0028 18.7545C16.3763 20.2732 16.2378 21.5571 15.5706 22.6064C15.558 22.6192 15.5496 22.6363 15.5413 22.6491C15.7469 22.807 16.0279 22.9265 16.3889 22.999H16.4182C17.6309 23.0203 18.6881 22.6064 19.5902 21.762C19.9721 21.4036 20.2657 21.0154 20.463 20.5974C20.6559 20.1835 20.7315 19.8082 20.6812 19.4627L19.8588 17.8885L20.0518 17.688L19.0615 16.4296L19.2713 16.2974L18 14.399C18.2979 14.3052 18.8098 14.4546 19.5356 14.8427C19.9216 15.0518 20.2741 15.2821 20.5888 15.5296L21 15.2608L20.2196 13.2942C19.7328 12.185 18.8434 11.6049 17.5511 11.5452C17.4362 11.2096 17.3102 10.8781 17.1734 10.5513C17.1692 10.5427 17.1692 10.5427 17.1692 10.5384C17.6769 10.0522 17.9413 9.49326 17.9497 8.85771C17.9623 8.25194 17.7525 7.79983 17.3329 7.50119C17.7358 6.58398 17.698 5.58144 17.2154 4.49378C17.207 4.4724 17.1986 4.44253 17.1861 4.42544C16.7497 3.55519 16.1832 2.79585 15.4867 2.1603L15.2602 1.95987C14.9748 1.71238 14.6684 1.49058 14.3328 1.28156C14.1734 1.17915 14.014 1.08962 13.8462 1" fill="black"/>
<path fill-rule="evenodd" clip-rule="evenodd" d="M13.0102 7.06175C12.8801 7.03617 12.7416 7.01049 12.6074 6.9978C13.2032 7.79122 13.4592 8.66996 13.3542 9.62553C13.3542 9.65541 13.3459 9.68099 13.3459 9.70656C13.329 9.86013 13.2998 10.0137 13.262 10.1716L13.2409 10.2398V10.2441L13.2242 10.3123C13.1403 10.2824 13.0522 10.2612 12.964 10.2356C12.6494 10.1503 12.3347 10.1117 12.0116 10.1076C11.6885 10.1118 11.3738 10.1503 11.0591 10.2355C10.9753 10.2612 10.883 10.2825 10.799 10.3123L10.7822 10.2441V10.2398L10.7612 10.1716C10.7248 10.0185 10.6982 9.86317 10.6815 9.70656C10.6774 9.68099 10.6689 9.65541 10.6689 9.62553C10.564 8.66996 10.82 7.79122 11.4157 6.9978C11.2815 7.01049 11.1431 7.03617 11.0131 7.06175C10.6322 7.14791 10.2659 7.29169 9.92627 7.48838C9.90533 7.50107 9.8802 7.52245 9.86334 7.53094C9.82983 7.54803 9.80879 7.56511 9.78366 7.5779C9.55708 7.72298 9.33897 7.89783 9.12495 8.09406C9.11648 8.10255 9.10391 8.11114 9.09553 8.12403C8.961 8.2487 8.83351 8.38114 8.71367 8.52069C8.0424 9.29282 7.48442 10.3123 7.03125 11.5921C7.19072 11.6689 7.34599 11.7457 7.50536 11.8097C7.77202 11.9324 8.04363 12.0434 8.31944 12.1425C9.51529 12.5819 10.7109 12.8036 11.9111 12.8207C11.9488 12.8121 11.9823 12.8121 12.0117 12.8207C12.0447 12.8121 12.0793 12.8121 12.1123 12.8207C13.3124 12.8036 14.5082 12.5819 15.704 12.1425C15.981 12.0427 16.2539 11.9317 16.5223 11.8097C16.6775 11.7457 16.8369 11.6689 16.9921 11.5921C16.5391 10.3122 15.981 9.29282 15.3138 8.52079C15.1879 8.37991 15.0621 8.24762 14.9279 8.12393C14.9195 8.11114 14.9069 8.10255 14.8984 8.09406C14.6845 7.89783 14.4662 7.72298 14.2397 7.5779C14.2145 7.56511 14.1935 7.54803 14.1642 7.53094C14.1432 7.52245 14.118 7.50107 14.1012 7.48838C13.7488 7.28785 13.3879 7.14707 13.0103 7.06175" fill="#FF0A1C"/>
<path fill-rule="evenodd" clip-rule="evenodd" d="M12.3777 7.17265C12.3354 7.10834 12.2906 7.04574 12.2435 6.98501C12.1722 6.98501 12.0882 6.98921 12.0127 6.98921C11.9372 6.98921 11.8574 6.98501 11.7819 6.98501C11.7348 7.04574 11.69 7.10833 11.6476 7.17265H12.3777ZM12.9651 9.87302C13.0364 9.4294 13.0364 9.00277 12.9609 8.58893C12.8729 8.08986 12.6799 7.62056 12.3777 7.17265H11.6477C11.3498 7.62056 11.1526 8.08986 11.0687 8.58893C10.989 9.00277 10.989 9.4294 11.0603 9.87302C11.3718 9.79217 11.6915 9.74922 12.0128 9.74503C12.334 9.74919 12.6537 9.79212 12.9651 9.87292M12.0128 6.09338C11.5092 6.17871 11.1945 6.41341 11.0603 6.80577C11.1945 6.43469 11.5092 6.25984 12.0127 6.27253C12.5163 6.25984 12.8309 6.43469 12.9651 6.80577C12.8309 6.41341 12.5162 6.17871 12.0127 6.09338" fill="#FF0A1C"/>
<path fill-rule="evenodd" clip-rule="evenodd" d="M12.0146 6.27263C11.511 6.25984 11.1963 6.43479 11.0621 6.80587C11.3764 6.74955 11.6964 6.73377 12.0145 6.75891C12.3326 6.73366 12.6526 6.74943 12.9669 6.80587C12.8327 6.43469 12.518 6.25984 12.0145 6.27263M9.25781 14.591C9.52219 14.9067 9.89558 14.992 10.3781 14.8427C10.2397 14.7659 10.0592 14.7019 9.84102 14.6465C9.61444 14.5952 9.42147 14.574 9.25791 14.591" fill="#FF0A1C"/>
<path fill-rule="evenodd" clip-rule="evenodd" d="M10.3676 15.7854C9.97731 15.8238 9.67523 15.7641 9.44446 15.6019C9.71303 15.6361 9.9815 15.6062 10.2543 15.5209C10.5144 15.4356 10.7829 15.2948 11.0472 15.1029C10.0697 15.4356 9.23045 15.2948 8.53813 14.6678C8.50871 14.6464 8.48358 14.6208 8.45845 14.5952C8.45416 14.6336 8.45416 14.6762 8.45416 14.7104C8.39971 15.5081 8.59687 16.0201 9.03747 16.2376C9.49483 16.4637 9.93533 16.3101 10.3676 15.7854M11.2948 15.538C11.299 15.6361 11.341 15.7342 11.4165 15.8323C11.5801 16.0457 11.6557 16.2632 11.6431 16.4851C11.5005 16.1523 11.2823 15.9475 10.9802 15.8622C10.85 15.8281 10.7326 15.828 10.6402 15.8536C10.5102 15.892 10.4095 15.9901 10.3466 16.1523C10.271 16.3442 10.2921 16.5192 10.4095 16.6684C10.5354 16.8348 10.7284 16.9159 10.9969 16.9201C10.9424 16.7879 10.9424 16.6428 10.9802 16.4936L10.9843 16.4808C10.9886 16.4594 10.9969 16.4466 11.0053 16.4338C11.0389 16.3998 11.0935 16.4124 11.1732 16.4722C11.2612 16.5362 11.3115 16.6471 11.3326 16.805C11.3745 17.2315 11.6054 17.4576 12.0124 17.4832C12.4235 17.4576 12.6501 17.2315 12.6962 16.805C12.713 16.6471 12.7633 16.5362 12.8514 16.4722C12.9311 16.4124 12.9899 16.3998 13.0192 16.4338C13.0277 16.4466 13.036 16.4594 13.0402 16.4808L13.0444 16.4936C13.0822 16.6428 13.0822 16.7879 13.0277 16.9201C13.2962 16.9159 13.4892 16.8348 13.6151 16.6684C13.7326 16.5192 13.7535 16.3442 13.6779 16.1523C13.6151 15.9901 13.5186 15.892 13.3843 15.8536C13.2919 15.828 13.1787 15.8281 13.0444 15.8622C12.7423 15.9475 12.5242 16.1523 12.3815 16.4851C12.3689 16.2632 12.4445 16.0457 12.6081 15.8323C12.6835 15.7342 12.7255 15.6361 12.7339 15.538C12.7339 15.4484 12.6961 15.3715 12.6417 15.3162C12.4823 15.1583 12.2725 15.1925 12.0124 15.4228C11.7522 15.1925 11.5425 15.1583 11.3872 15.3162C11.3284 15.3715 11.2948 15.4484 11.2948 15.538" fill="#FF0A1C"/>
<path fill-rule="evenodd" clip-rule="evenodd" d="M8.94925 14.0365C9.97725 14.3137 10.9969 14.446 12.0122 14.446C13.0276 14.446 14.0473 14.3137 15.0752 14.0365C16.0192 13.7933 16.5144 13.2942 16.5731 12.5221C16.5857 12.4922 16.5857 12.4496 16.5857 12.3941C16.5773 12.3344 16.5773 12.2918 16.5773 12.2661C14.9661 12.889 13.4472 13.2046 12.0122 13.2004C10.5773 13.2046 9.05835 12.889 7.44724 12.2661C7.44724 12.2918 7.44724 12.3344 7.44305 12.3941C7.43886 12.4496 7.44305 12.4922 7.45143 12.5221C7.51017 13.2942 8.00951 13.7933 8.94925 14.0365" fill="#E9A043"/>
<path fill-rule="evenodd" clip-rule="evenodd" d="M5.03456 12.8889C5.11843 12.8463 5.19821 12.8335 5.26104 12.842C5.32826 12.8548 5.35758 12.8889 5.35758 12.9487C5.35758 13.0083 5.32816 13.0724 5.26114 13.1406C5.19821 13.2132 5.11843 13.2686 5.03456 13.3113C4.94231 13.3539 4.86671 13.3667 4.80369 13.3539C4.74086 13.341 4.70725 13.3113 4.70725 13.2515C4.70725 13.1918 4.74086 13.1278 4.80369 13.0553C4.86916 12.9847 4.94763 12.9282 5.03456 12.8889M7.03591 12.3514C7.03172 12.2661 7.02753 12.1807 7.03172 12.0954C5.99534 12.0741 5.23591 12.313 4.74086 12.8207C4.5436 13.0169 4.38842 13.26 4.27931 13.5459L3.85547 14.6251C4.49333 14.0791 5.13937 13.8146 5.7897 13.806C6.44013 13.8018 6.85969 14.1389 7.04848 14.8043C7.23726 15.4741 7.21213 16.4893 6.96879 17.8458C6.61226 19.8679 6.77163 21.3993 7.44709 22.4445C7.44709 22.4488 7.42615 22.2355 7.38835 21.8131C7.04848 21.1519 7.04848 19.9873 7.37579 18.3109L7.39254 18.2212C7.41348 18.1231 7.43034 18.0292 7.45128 17.9397C7.45128 17.9311 7.45128 17.9226 7.45966 17.9226L7.44709 17.9055L7.46385 17.9098C7.90863 16.2675 7.94224 15.0517 7.55201 14.2668L8.39112 14.3137C8.19815 14.2498 8.01774 14.1644 7.86246 14.062C7.58142 13.8701 7.37578 13.6184 7.23726 13.2985C7.11978 13.0254 7.04848 12.714 7.03591 12.3514" fill="#FF0A1C"/>
<path fill-rule="evenodd" clip-rule="evenodd" d="M7.46151 17.9225C7.46151 17.9183 7.46151 17.9183 7.4657 17.9097L7.44895 17.9056L7.46151 17.9225ZM6.68523 14.8427C6.67266 14.8171 6.66429 14.7872 6.65172 14.7574C6.62689 14.696 6.59595 14.6374 6.55937 14.5825L5.46844 16.2546C5.68665 16.3655 5.87543 16.4935 6.04328 16.6428C6.16504 16.7324 6.26567 16.8348 6.35802 16.9414C6.40409 16.9926 6.44608 17.0523 6.49225 17.112C6.5468 17.1888 6.60136 17.2656 6.64324 17.3509C6.84051 16.1991 6.85726 15.3587 6.68523 14.8427M6.40409 17.4661C6.35792 17.4064 6.31175 17.3467 6.26986 17.287C6.16913 17.1633 6.05584 17.0523 5.93836 16.95C5.79146 16.8263 5.63638 16.7239 5.47263 16.6258L4.67969 17.6837C4.86974 18.0171 5.07412 18.3416 5.29222 18.6563C5.45589 18.8945 5.62804 19.1265 5.80832 19.3517C5.91742 19.4797 6.02652 19.6119 6.13972 19.7399C6.20693 19.8209 6.27824 19.9019 6.35373 19.9745C6.33698 19.3175 6.40409 18.5796 6.56775 17.7605C6.57194 17.752 6.57194 17.7434 6.57613 17.7349C6.52576 17.641 6.46283 17.5473 6.40409 17.4661M10.7342 17.2785C10.6587 17.2614 10.579 17.2443 10.516 17.2315C9.55103 17.0695 9.03493 17.3212 8.95515 17.9865C8.83767 18.9548 9.03503 19.6886 9.54265 20.1707L9.55103 20.1579L9.57197 20.1536C9.44611 19.9318 9.43764 19.5734 9.54265 19.0743L9.74819 18.0718C9.90347 17.6325 10.2308 17.368 10.7342 17.2785" fill="#FF0A1C"/>
<path fill-rule="evenodd" clip-rule="evenodd" d="M9.60114 20.2049C9.59277 20.1879 9.5802 20.1708 9.57172 20.1537L9.55078 20.158C9.57173 20.1708 9.58858 20.1836 9.60114 20.2049" fill="#FF0A1C"/>
<path fill-rule="evenodd" clip-rule="evenodd" d="M9.60171 20.2049C9.58904 20.1835 9.57229 20.1707 9.55135 20.1579L9.54297 20.1707C9.55135 20.1835 9.57219 20.2049 9.58914 20.2134L9.60171 20.2049V20.2049ZM10.105 18.9336V18.9037L9.98347 19.5223L9.99604 19.5393V19.5435H9.98337C9.94996 20.4565 10.6296 21.1646 12.0143 21.6766C13.3989 21.1646 14.0785 20.4565 14.045 19.5435H14.0324V19.5393L14.045 19.5223L13.9232 18.9037V18.9336C13.9149 18.9634 13.9149 18.989 13.9149 19.0146C13.894 19.1383 13.852 19.2493 13.789 19.3474C13.6213 19.5905 13.3107 19.727 12.8492 19.7527H12.8198C12.6604 19.7568 12.5094 19.7568 12.3668 19.7611V20.2901C12.3709 20.4607 12.3415 20.593 12.2827 20.6826C12.2785 20.6953 12.2743 20.7039 12.2577 20.7167C12.2324 20.7551 12.1947 20.7807 12.1528 20.802C12.1108 20.8191 12.0688 20.8276 12.0143 20.8447C11.964 20.8276 11.9178 20.8191 11.8799 20.802C11.8338 20.7807 11.7961 20.7551 11.7708 20.7167C11.7583 20.7039 11.75 20.6953 11.7458 20.6826C11.687 20.593 11.6577 20.4607 11.6618 20.2901V19.7611C11.5234 19.7568 11.3681 19.7568 11.2087 19.7527H11.1793C10.7178 19.727 10.4073 19.5905 10.2393 19.3474C10.1764 19.2493 10.1387 19.1383 10.1177 19.0146C10.1135 18.989 10.1135 18.9634 10.105 18.9336" fill="#FF0A1C"/>
<path fill-rule="evenodd" clip-rule="evenodd" d="M9.99304 19.5394L9.98047 19.5223V19.5436H9.99313V19.5394H9.99304ZM14.0294 19.5437H14.0421V19.5224L14.0294 19.5395V19.5437ZM12.0113 18.8569H11.0336L11.2937 19.2963H12.7328L12.9888 18.8569H12.0112H12.0113ZM10.7945 17.8927L10.4713 18.4686H13.5511L13.228 17.8927H10.7945V17.8927Z" fill="#FF0A1C"/>
<path fill-rule="evenodd" clip-rule="evenodd" d="M4.65773 18.1572L3.84375 19.6887C3.90668 20.1409 4.09547 20.5673 4.41858 20.9598C4.55701 21.139 4.73323 21.3096 4.93049 21.4718C5.24117 21.7294 5.5841 21.9431 5.95011 22.1073C6.17022 22.2099 6.39915 22.2913 6.63395 22.3505C6.77248 22.3847 6.91509 22.4145 7.04942 22.4358C6.69698 21.9239 6.47878 21.2925 6.39062 20.5461C6.31931 20.482 6.25638 20.4138 6.18926 20.3412C6.03399 20.1793 5.89137 20.0043 5.74866 19.8295C5.53292 19.573 5.3339 19.3023 5.15289 19.019C4.97185 18.7417 4.80652 18.454 4.65773 18.1572" fill="#E9A043"/>
<path fill-rule="evenodd" clip-rule="evenodd" d="M18.763 12.842C18.83 12.8335 18.9056 12.8462 18.9896 12.889C19.0765 12.9282 19.1549 12.9847 19.2202 13.0553C19.2833 13.1278 19.3169 13.1918 19.3169 13.2516C19.3169 13.3112 19.2833 13.3411 19.2202 13.354C19.1574 13.3667 19.0818 13.354 18.9896 13.3112C18.9047 13.2687 18.828 13.2109 18.763 13.1407C18.6959 13.0724 18.6665 13.0084 18.6665 12.9486C18.6665 12.889 18.6959 12.8548 18.763 12.842M19.7448 13.5459C19.6357 13.26 19.4804 13.0169 19.2833 12.8207C18.7881 12.3132 18.0287 12.0742 16.9923 12.0956C16.9965 12.1809 16.9923 12.2662 16.9881 12.3515C16.9755 12.7141 16.9042 13.0255 16.7867 13.2984C16.6524 13.6184 16.4427 13.8701 16.1616 14.0621C16.0063 14.1645 15.8301 14.2497 15.6328 14.3137L16.4719 14.2668C16.0818 15.0517 16.1153 16.2676 16.5644 17.9099L16.5769 17.9056L16.5644 17.9227C16.5728 17.9227 16.5728 17.9312 16.5728 17.9397C16.5937 18.0293 16.6146 18.1231 16.6314 18.2213L16.6524 18.3109C16.9755 19.9873 16.9755 21.1519 16.6357 21.8132C16.5979 22.2355 16.5769 22.4487 16.5769 22.4444C17.2566 21.3993 17.4119 19.8678 17.0552 17.8459C16.8119 16.4894 16.7867 15.474 16.9755 14.8043C17.1643 14.1388 17.5839 13.8018 18.2342 13.8061C18.8847 13.8146 19.5308 14.0791 20.1687 14.6252L19.7448 13.5459V13.5459Z" fill="#FF0A1C"/>
<path fill-rule="evenodd" clip-rule="evenodd" d="M16.5664 17.9098V17.9226L16.579 17.9056L16.5664 17.9098ZM18.7398 18.6564C18.9551 18.3406 19.1581 18.0162 19.3482 17.6838L18.5551 16.6259C18.3915 16.724 18.2363 16.8264 18.0895 16.9501C17.972 17.0524 17.8587 17.1634 17.7622 17.2871C17.7202 17.3468 17.6699 17.4065 17.6279 17.4662C17.562 17.5507 17.503 17.6406 17.4516 17.735C17.4558 17.7435 17.4558 17.7521 17.4601 17.7606C17.6237 18.5796 17.6907 19.3176 17.6783 19.9746C17.7514 19.8994 17.8213 19.8211 17.888 19.74C18.0013 19.612 18.1104 19.4798 18.2195 19.3517C18.3999 19.1255 18.5734 18.8936 18.7398 18.6564" fill="#FF0A1C"/>
<path fill-rule="evenodd" clip-rule="evenodd" d="M19.3682 18.1572C19.2208 18.4539 19.0569 18.7416 18.8774 19.019C18.6935 19.3013 18.4931 19.572 18.2773 19.8295C18.1389 20.0043 17.992 20.1793 17.8367 20.3412C17.7696 20.4138 17.7067 20.482 17.6354 20.5461C17.5473 21.2925 17.329 21.9239 16.9766 22.4358C17.1163 22.414 17.2549 22.3855 17.392 22.3505C17.6268 22.2913 17.8558 22.2099 18.0759 22.1073C18.4419 21.9431 18.7848 21.7294 19.0955 21.4718C19.2928 21.3096 19.469 21.139 19.6116 20.9598C19.9347 20.5673 20.1235 20.1409 20.1822 19.6887L19.3682 18.1572V18.1572Z" fill="#E9A043"/>
<path fill-rule="evenodd" clip-rule="evenodd" d="M15.5695 14.7104C15.5695 14.6763 15.5695 14.6336 15.5653 14.5952C15.5402 14.6209 15.515 14.6464 15.4856 14.6677C14.7933 15.2949 13.9541 15.4356 12.9766 15.1029C13.2408 15.2949 13.5094 15.4356 13.7695 15.5209C14.0423 15.6062 14.3107 15.6361 14.5793 15.6019C14.3527 15.7641 14.0465 15.8238 13.6562 15.7854C14.0884 16.3101 14.5289 16.4637 14.9864 16.2376C15.4269 16.0201 15.6242 15.5081 15.5695 14.7104M17.3737 14.7574C17.3611 14.7872 17.3527 14.8171 17.3402 14.8427C17.1682 15.3587 17.185 16.1991 17.3822 17.3509C17.4242 17.2656 17.4786 17.1888 17.5374 17.112C17.5793 17.0523 17.6255 16.9926 17.6717 16.9414C17.7639 16.8348 17.8647 16.7324 17.9821 16.6428C18.15 16.4935 18.3388 16.3655 18.557 16.2546L17.466 14.5825C17.4325 14.6337 17.4031 14.6933 17.3737 14.7574" fill="#FF0A1C"/>
<path fill-rule="evenodd" clip-rule="evenodd" d="M14.7699 14.591C14.6063 14.5739 14.4133 14.5952 14.1867 14.6465C13.9685 14.7019 13.7881 14.7659 13.6497 14.8427C14.1322 14.992 14.5056 14.9066 14.7699 14.591ZM13.5154 17.2315C13.4482 17.2443 13.3685 17.2614 13.293 17.2785C13.7965 17.368 14.1238 17.6325 14.2791 18.0719L14.4888 19.0744C14.5894 19.5734 14.5811 19.9317 14.4594 20.1536L14.4762 20.1579L14.4888 20.1365L14.5056 20.1536C15.0007 19.6672 15.1896 18.9464 15.072 17.9866C14.9965 17.321 14.4762 17.0694 13.5154 17.2315ZM14.4258 20.2049C14.4426 20.1835 14.4594 20.1707 14.4762 20.1579L14.4594 20.1536C14.4468 20.1707 14.4385 20.1878 14.4258 20.2049Z" fill="#FF0A1C"/>
<path fill-rule="evenodd" clip-rule="evenodd" d="M14.4762 20.158C14.4574 20.1712 14.4404 20.187 14.4258 20.205L14.4426 20.2135C14.4594 20.205 14.4762 20.1836 14.4888 20.1708L14.5056 20.1537L14.4888 20.1367L14.4762 20.158V20.158Z" fill="#FF0A1C"/>
<path fill-rule="evenodd" clip-rule="evenodd" d="M12.3785 7.17262C12.3362 7.10831 12.2914 7.04572 12.2443 6.98499C12.173 6.98499 12.089 6.98918 12.0135 6.98918C11.938 6.98918 11.8583 6.98499 11.7828 6.98499C11.7356 7.04571 11.6908 7.1083 11.6484 7.17262H12.3785ZM14.1661 7.53101C14.145 7.52252 14.1198 7.50104 14.1032 7.48835C13.7506 7.28782 13.3898 7.14705 13.0121 7.06172C12.8821 7.03614 12.7436 7.01056 12.6094 6.99777C13.2052 7.79109 13.4612 8.66993 13.3563 9.6255C13.5702 8.86616 13.4904 8.08983 13.1254 7.29642C13.4696 7.28782 13.8095 7.36466 14.1661 7.53101ZM16.5241 11.8096C16.6793 11.7456 16.8387 11.6688 16.994 11.592C16.5408 10.3123 15.9827 9.29269 15.3157 8.52066C16.008 9.42927 16.4108 10.5299 16.5241 11.8096ZM20.1828 19.6886L19.3688 18.1572C19.2214 18.4539 19.0575 18.7415 18.8779 19.0189C18.6941 19.3013 18.4937 19.5719 18.2779 19.8294C18.1395 20.0043 17.9927 20.1792 17.8374 20.3413C17.7745 21.203 17.6277 21.8727 17.3926 22.3506C17.6274 22.2914 17.8564 22.2099 18.0765 22.1073C18.4425 21.9431 18.7854 21.7294 19.0961 21.4718C19.2932 21.3097 19.4695 21.1391 19.6122 20.9599C19.9353 20.5674 20.124 20.1408 20.1828 19.6886" fill="#FFA042"/>
<path fill-rule="evenodd" clip-rule="evenodd" d="M17.392 22.3506C17.627 21.8728 17.7739 21.2031 17.8367 20.3414C17.7696 20.414 17.7067 20.4822 17.6354 20.5462C17.5473 21.2926 17.3291 21.924 16.9766 22.4359C17.1163 22.414 17.2549 22.3855 17.392 22.3506" fill="#FFFCAB"/>
<path fill-rule="evenodd" clip-rule="evenodd" d="M17.3738 14.7575C17.3612 14.7873 17.3528 14.8172 17.3403 14.8428C17.1682 15.3588 17.1851 16.1992 17.3823 17.351C17.4243 17.2657 17.4787 17.1889 17.5375 17.1121C17.3528 16.3186 17.2983 15.5338 17.3738 14.7575ZM15.6325 14.3138L16.4716 14.2668C16.0814 15.0517 16.115 16.2719 16.5641 17.9227L16.5766 17.9056C16.2535 15.939 16.3585 14.5612 16.8913 13.7634C16.6773 13.9261 16.4257 14.029 16.1613 14.0621C16.006 14.1645 15.8297 14.2497 15.6325 14.3138M12.9766 15.103C13.2409 15.2949 13.5095 15.4357 13.7697 15.521C14.5921 15.5551 15.1668 15.2693 15.4857 14.6678C14.7934 15.2949 13.9542 15.4357 12.9766 15.103Z" fill="#FFA042"/>
<path fill-rule="evenodd" clip-rule="evenodd" d="M14.7702 14.591C14.6066 14.5739 14.4136 14.5952 14.187 14.6465C13.9688 14.7019 13.7884 14.7659 13.65 14.8427C14.1324 14.992 14.5058 14.9066 14.7702 14.591ZM14.7995 17.7988C14.7995 17.803 14.7995 17.8116 14.8037 17.8201C14.9421 18.234 14.9799 18.6648 14.9086 19.117C14.8541 19.5307 14.7115 19.8763 14.489 20.1365L14.4765 20.1579C14.4577 20.1711 14.4407 20.1869 14.426 20.2049L14.4429 20.2134C14.9841 19.727 15.194 18.989 15.0723 17.9865C14.9967 17.3211 14.4765 17.0695 13.5156 17.2315C14.2248 17.1974 14.6484 17.3723 14.7869 17.7733C14.7912 17.7818 14.7953 17.7945 14.7995 17.7988" fill="#FFA042"/>
<path fill-rule="evenodd" clip-rule="evenodd" d="M14.4242 20.2049C14.4411 20.1835 14.4578 20.1707 14.4747 20.1579L14.4578 20.1536C14.4453 20.1707 14.4369 20.1878 14.4242 20.2049ZM12.3641 19.7612V20.2901C12.3683 20.4608 12.3389 20.5931 12.2804 20.6826C12.4103 20.5717 12.4859 20.3328 12.5067 19.9659V19.9574H12.8928C12.9138 19.9531 12.9305 19.9531 12.9473 19.9531L13.0145 19.9403C13.5725 19.8507 13.8704 19.5436 13.9124 19.0146C13.8915 19.1383 13.8495 19.2492 13.7866 19.3473C13.6187 19.5905 13.3082 19.727 12.8466 19.7527H12.8172C12.6578 19.7569 12.5067 19.7569 12.3642 19.7612M14.0426 19.5437V19.5224L14.0299 19.5395V19.5437H14.0426ZM18.0074 18.1274C17.9415 18.2119 17.8825 18.3018 17.8311 18.3962C17.8352 18.4047 17.8352 18.4132 17.8395 18.4217C18.0032 19.2408 18.0703 19.9788 18.0577 20.6357C18.1308 20.5606 18.2008 20.4823 18.2675 20.4011C18.2591 19.6589 18.1752 18.9208 18.0241 18.1785L18.0074 18.1274V18.1274ZM9.92637 7.48838C9.90542 7.50117 9.8802 7.52235 9.86344 7.53104C10.2159 7.36469 10.5599 7.28785 10.8998 7.29644C10.5348 8.08976 10.455 8.86629 10.6689 9.62563C10.5641 8.67006 10.8201 7.79122 11.4159 6.9978C11.2817 7.01059 11.1432 7.03617 11.0131 7.06175C10.6322 7.14791 10.266 7.29169 9.92637 7.48838M12.0118 6.09338C11.5082 6.17871 11.1935 6.41341 11.0593 6.80577C11.1935 6.43469 11.5082 6.25984 12.0117 6.27253C12.5153 6.25984 12.8299 6.43469 12.9641 6.80577C12.8299 6.41341 12.5152 6.17871 12.0117 6.09338M7.50546 11.8096C7.61456 10.5299 8.01727 9.4294 8.71377 8.52079C8.0424 9.29282 7.48442 10.3123 7.03125 11.592C7.19072 11.6689 7.34589 11.7456 7.50536 11.8096M10.2537 15.5209C10.5138 15.4356 10.7823 15.2948 11.0466 15.1029C10.0691 15.4356 9.22986 15.2948 8.53755 14.6678C8.85648 15.2693 9.43132 15.555 10.2537 15.5209Z" fill="#FFA042"/>
<path fill-rule="evenodd" clip-rule="evenodd" d="M10.3745 14.8427C10.2362 14.7659 10.0557 14.7019 9.83754 14.6465C9.61096 14.5952 9.41798 14.5739 9.25433 14.591C9.51861 14.9066 9.89209 14.992 10.3746 14.8427M7.55077 14.2668L8.38998 14.3138C8.19691 14.2497 8.0165 14.1645 7.86132 14.0621C7.59275 14.0279 7.34523 13.9255 7.1354 13.7634C7.66406 14.5611 7.76897 15.9389 7.44585 17.9055L7.45852 17.9225C7.90749 16.2717 7.94101 15.0516 7.55077 14.2668M6.68223 14.8427C6.66967 14.8171 6.66129 14.7872 6.64872 14.7574C6.72841 15.5337 6.66967 16.3185 6.48926 17.112C6.54381 17.1888 6.59836 17.2656 6.64025 17.3509C6.83751 16.1991 6.85426 15.3587 6.68223 14.8427M6.56475 17.7605C6.56894 17.752 6.56894 17.7434 6.57313 17.7349C6.52277 17.641 6.45984 17.5472 6.4011 17.4661L6.38015 17.5173C6.22916 18.2595 6.14519 18.9976 6.13672 19.7399C6.20393 19.8209 6.27524 19.9019 6.35074 19.9745C6.33398 19.3175 6.4011 18.5795 6.56475 17.7605M9.22501 17.7988C9.2291 17.7945 9.23329 17.7818 9.23748 17.7733C9.38019 17.3723 9.79974 17.1974 10.513 17.2315C9.54793 17.0695 9.03193 17.3212 8.95215 17.9865C8.83048 18.989 9.04021 19.727 9.58573 20.2134L9.59839 20.2049C9.58573 20.1835 9.56897 20.1707 9.54793 20.1579L9.53546 20.1365C9.31297 19.8763 9.17455 19.5307 9.11581 19.117C9.0445 18.6648 9.0823 18.234 9.22072 17.8201C9.22491 17.8116 9.22491 17.803 9.22491 17.7988" fill="#FFA042"/>
<path fill-rule="evenodd" clip-rule="evenodd" d="M9.55078 20.158C9.57173 20.1707 9.58858 20.1835 9.60105 20.2049C9.59277 20.1878 9.5801 20.1707 9.57172 20.1537L9.55078 20.158ZM10.2389 19.3475C10.1759 19.2493 10.1381 19.1384 10.1171 19.0146C10.1549 19.5437 10.4528 19.8508 11.0109 19.9404L11.0781 19.9532C11.0948 19.9532 11.1115 19.9532 11.1327 19.9574H11.5228V19.966C11.5396 20.3329 11.6151 20.5718 11.7451 20.6827C11.6864 20.5931 11.657 20.4609 11.6613 20.2902V19.7613C11.5228 19.757 11.3675 19.757 11.2081 19.7527H11.1787C10.7172 19.7271 10.4067 19.5907 10.2388 19.3475M9.99547 19.5394L9.98291 19.5223V19.5436H9.99557V19.5394H9.99547Z" fill="#FFA042"/>
<path fill-rule="evenodd" clip-rule="evenodd" d="M7.44922 12.2661C8.38906 12.9529 9.90793 13.3454 12.0143 13.435C14.1206 13.3454 15.6437 12.9529 16.5794 12.2661C14.9682 12.889 13.4492 13.2046 12.0143 13.2004C10.5794 13.2046 9.06043 12.889 7.44922 12.2661" fill="#FFFCAB"/>
<path fill-rule="evenodd" clip-rule="evenodd" d="M4.65773 18.1572L3.84375 19.6887C3.90668 20.1409 4.09547 20.5673 4.41858 20.9598C4.55701 21.139 4.73323 21.3096 4.93049 21.4718C5.24117 21.7294 5.5841 21.9431 5.95011 22.1073C6.17022 22.2099 6.39915 22.2913 6.63395 22.3505C6.40309 21.8727 6.25219 21.203 6.18926 20.3412C6.03399 20.1793 5.89137 20.0043 5.74866 19.8295C5.53292 19.573 5.3339 19.3023 5.15289 19.019C4.97185 18.7417 4.80652 18.454 4.65773 18.1572" fill="#FFA042"/>
<path fill-rule="evenodd" clip-rule="evenodd" d="M6.38885 20.5462C6.31755 20.4821 6.25462 20.4139 6.1875 20.3414C6.25043 21.2031 6.40142 21.8728 6.63229 22.3507C6.76957 22.3848 6.90814 22.4133 7.04766 22.4359C6.69522 21.9241 6.47701 21.2927 6.38885 20.5462" fill="#FFFCAB"/>
<path fill-rule="evenodd" clip-rule="evenodd" d="M14.6715 1.61841C15.024 2.25416 15.2254 3.0135 15.2841 3.90074C15.3387 4.754 15.2589 5.63694 15.0407 6.55405C14.8225 7.47555 14.4952 8.32022 14.059 9.09235C13.6101 9.86868 13.0688 10.4957 12.431 10.9777C12.3043 10.8147 12.1638 10.6634 12.0114 10.5255C11.8589 10.6634 11.7185 10.8147 11.5918 10.9777C10.954 10.4957 10.417 9.86868 9.96374 9.09235C9.52743 8.32022 9.20012 7.47555 8.98192 6.55405C8.76381 5.63694 8.68403 4.7539 8.73858 3.90074C8.79732 3.0135 8.99877 2.25416 9.35131 1.61851C8.15108 2.68499 7.33719 3.76006 6.90507 4.84342C6.49389 5.88862 6.49808 6.79724 6.91345 7.55658C5.99874 8.19223 6.04491 9.25871 7.06444 10.773C7.224 10.0392 7.42535 9.6212 7.67298 9.51029C7.94145 9.39509 8.27713 9.69793 8.67146 10.4275C9.47288 12.0613 10.2994 13.2515 11.1428 14.0065C11.403 14.1559 11.6883 14.2283 12.0114 14.2198C12.3345 14.2283 12.6198 14.1559 12.8799 14.0065C13.7233 13.2515 14.5498 12.0613 15.3513 10.4274C15.7456 9.69803 16.0813 9.39519 16.3499 9.51039C16.5975 9.6213 16.7988 10.0392 16.9625 10.773C17.9778 9.25871 18.024 8.19223 17.1135 7.55658C17.5288 6.79724 17.5288 5.88862 17.1177 4.84342C16.6897 3.75996 15.8715 2.68499 14.6715 1.61851" fill="black"/>
<path fill-rule="evenodd" clip-rule="evenodd" d="M15.4433 2.92606C15.5272 3.31423 15.5943 3.6982 15.6279 4.08207C15.674 4.96091 15.5314 5.97613 15.2126 7.12364C14.7174 8.88971 13.8783 10.2335 12.695 11.155C12.7957 11.2957 12.8629 11.4023 12.8964 11.4621C13.0853 11.8076 13.2111 12.119 13.274 12.3962C13.3251 12.5799 13.3575 12.7687 13.3706 12.9593C13.9369 12.1916 14.5035 11.2659 15.0699 10.1907C15.8042 8.94097 16.4041 8.71476 16.8823 9.52107C16.9475 9.62836 17.0036 9.7411 17.0503 9.85808C17.6292 8.84705 17.5033 8.10899 16.6643 7.6313C17.4069 6.2406 17.0712 4.72201 15.6615 3.07963C15.5734 2.97722 15.4895 2.8834 15.4014 2.78099C15.4139 2.81946 15.4223 2.85353 15.4349 2.89199C15.4349 2.90478 15.4391 2.90898 15.4433 2.92606M8.4069 4.08217C8.44041 3.6982 8.50344 3.31423 8.58731 2.92606C8.59569 2.90898 8.59988 2.90478 8.59988 2.89199C8.61244 2.85363 8.62092 2.81946 8.63348 2.78109C8.54113 2.8834 8.45726 2.97722 8.37329 3.07963C6.96353 4.72201 6.62784 6.2405 7.36633 7.6313C6.52712 8.10909 6.40126 8.84705 6.98447 9.85808C7.03106 9.74112 7.08721 9.62842 7.15232 9.52117C7.63061 8.71487 8.23068 8.94097 8.96079 10.1909C9.53134 11.2658 10.0978 12.1915 10.6643 12.9593C10.6768 12.7674 10.7061 12.5796 10.7566 12.3962C10.8237 12.1189 10.9495 11.8075 11.1385 11.462C11.1677 11.4022 11.239 11.2956 11.3355 11.1549C10.1565 10.2335 9.31742 8.88971 8.82227 7.12364C8.49915 5.97613 8.36073 4.96081 8.4069 4.08217M12.0195 11.7009C12.2042 11.9056 12.3426 12.1275 12.4475 12.3536C12.4475 12.3664 12.4558 12.3749 12.4558 12.3877C12.5021 12.4901 12.5314 12.5839 12.5398 12.6607C12.5775 12.8869 12.5482 13.0745 12.4475 13.2239C12.3971 13.2921 12.3426 13.3433 12.2755 13.3731C12.1958 13.3987 12.1202 13.4201 12.0363 13.4201H11.9942C11.9103 13.4201 11.8348 13.3987 11.7593 13.3731C11.6921 13.3433 11.6375 13.2921 11.5872 13.2239C11.4865 13.0745 11.4572 12.8869 11.4907 12.6607C11.5033 12.5839 11.5326 12.4901 11.5747 12.3877C11.5789 12.3749 11.5831 12.3664 11.5872 12.3536C11.6937 12.1133 11.8383 11.8927 12.0152 11.7009H12.0194H12.0195ZM14.516 3.84747C14.4741 4.09925 14.4867 4.31676 14.5455 4.5044C14.5706 4.58553 14.6126 4.66656 14.663 4.7391C14.7888 4.90975 14.9567 5.01206 15.1707 5.03774C15.2629 5.05902 15.3553 5.06332 15.4392 5.06761C15.5229 5.06332 15.6197 5.05902 15.7119 5.03774C15.9217 5.01206 16.0896 4.90975 16.2154 4.7391C16.2676 4.66845 16.3073 4.58903 16.3329 4.5044C16.3958 4.31676 16.4084 4.09925 16.3665 3.84747C16.3413 3.71528 16.2951 3.55742 16.2196 3.36549C16.0476 2.97302 15.7874 2.59755 15.4392 2.23926C15.0909 2.59755 14.8308 2.97302 14.663 3.36549C14.5874 3.55742 14.5371 3.71528 14.5161 3.84747" fill="#FFA042"/>
<path fill-rule="evenodd" clip-rule="evenodd" d="M16.6603 7.68461C16.5512 7.79122 16.3457 7.84247 16.0267 7.83398C17.1386 8.11124 17.4785 8.80235 17.0464 9.91129C17.6254 8.90036 17.4995 8.1624 16.6603 7.68461M15.624 4.13538C15.6702 5.01412 15.5275 6.02944 15.2086 7.17695C14.7135 8.94302 13.8743 10.2867 12.6911 11.2082C12.7918 11.3489 12.8589 11.4556 12.8925 11.5153C13.3415 11.2422 13.7737 10.7943 14.1849 10.1588C14.5708 9.57008 14.8939 8.90885 15.1499 8.17089C15.6072 6.86132 15.7666 5.51748 15.624 4.13538M7.996 7.83388C7.68136 7.84237 7.47153 7.79122 7.36243 7.68451C6.52321 8.1624 6.39735 8.90046 6.98057 9.91129C6.54425 8.80225 6.88413 8.11114 7.996 7.83388ZM8.40299 4.13538C8.26038 5.51748 8.41975 6.86132 8.87291 8.17089C9.12892 8.90885 9.45194 9.57008 9.83799 10.1588C10.2491 10.7943 10.6813 11.2422 11.1346 11.5153C11.1638 11.4556 11.2351 11.3489 11.3316 11.2082C10.1526 10.2867 9.31351 8.94302 8.81836 7.17695C8.49534 6.02944 8.35682 5.01412 8.40299 4.13538M11.0883 12.6757C11.0464 12.9273 11.0589 13.1448 11.1176 13.3325C11.017 12.6629 11.3149 12.0188 12.0114 11.3788C12.7121 12.0188 13.01 12.6629 12.9051 13.3325C12.968 13.1448 12.9806 12.9273 12.9386 12.6757C12.9135 12.5434 12.8673 12.3855 12.7918 12.1936C12.6197 11.8012 12.3596 11.4258 12.0114 11.0674C11.6631 11.4258 11.4029 11.8012 11.2351 12.1936C11.1596 12.3855 11.1092 12.5434 11.0883 12.6757" fill="#FFFCAB"/>
<path fill-rule="evenodd" clip-rule="evenodd" d="M11.5829 13.2771C11.4821 13.1277 11.4528 12.9401 11.4863 12.714C11.499 12.6373 11.5282 12.5435 11.5703 12.441C11.3101 12.97 11.3394 13.3326 11.6541 13.5373C11.7632 13.6098 11.8766 13.6482 12.0109 13.6525C12.145 13.6482 12.2626 13.6098 12.3674 13.5373C12.6864 13.3326 12.7158 12.97 12.4514 12.441C12.4976 12.5435 12.5269 12.6373 12.5352 12.714C12.5731 12.9401 12.5436 13.1277 12.443 13.2771C12.3927 13.3454 12.3381 13.3965 12.2709 13.4264C12.1912 13.452 12.1158 13.4733 12.0317 13.4733H11.9899C11.9059 13.4733 11.8304 13.452 11.7549 13.4264C11.6877 13.3965 11.6331 13.3454 11.5829 13.2771" fill="#FFFCAB"/>
</svg>
