<svg width="24" height="24" viewBox="0 0 24 24" fill="none" xmlns="http://www.w3.org/2000/svg">
<g clip-path="url(#clip0_7016_37346)">
<path d="M10.1739 5.46124C9.91389 5.42409 9.9015 5.4117 10.0253 5.39932C10.2606 5.36217 10.8055 5.41171 11.1894 5.49839C12.0811 5.70892 12.886 6.25381 13.7405 7.20737L13.9634 7.46743L14.2854 7.4179C15.66 7.19499 17.0718 7.36836 18.2483 7.91325C18.5702 8.06186 19.078 8.35907 19.1399 8.43338C19.1647 8.45814 19.2018 8.61914 19.2266 8.78013C19.3133 9.36217 19.2761 9.79561 19.0904 10.13C18.9913 10.3157 18.9913 10.3653 19.0532 10.5263C19.1027 10.6501 19.2513 10.7368 19.3876 10.7368C19.6848 10.7368 19.9944 10.2662 20.143 9.60985L20.2049 9.34979L20.3164 9.47362C20.9479 10.1795 21.4433 11.1578 21.5176 11.8513L21.5424 12.0371L21.4309 11.8761C21.2452 11.5913 21.0718 11.4055 20.8365 11.2445C20.4154 10.9597 19.9696 10.873 18.7931 10.8111C17.7281 10.7492 17.1213 10.6625 16.5269 10.4643C15.5114 10.13 14.9913 9.69654 13.79 8.09901C13.2575 7.39313 12.9232 7.00923 12.5888 6.68725C11.8582 5.98136 11.1275 5.60985 10.1739 5.46124Z" fill="#FF007A"/>
<path d="M19.3991 7.03409C19.4239 6.5635 19.4858 6.2539 19.622 5.96907C19.6716 5.85762 19.7211 5.75854 19.7335 5.75854C19.7459 5.75854 19.7211 5.84523 19.6839 5.9443C19.5849 6.21675 19.5725 6.60065 19.6344 7.03409C19.7211 7.59136 19.7582 7.66567 20.3527 8.27248C20.6251 8.55731 20.9471 8.91644 21.0709 9.06505L21.2815 9.33749L21.0709 9.13935C20.8109 8.89167 20.2164 8.42108 20.0802 8.35916C19.9935 8.30963 19.9812 8.30963 19.9192 8.37155C19.8697 8.42108 19.8573 8.49539 19.8573 8.85452C19.8449 9.4118 19.7706 9.75854 19.5849 10.1177C19.4858 10.3034 19.4734 10.2663 19.5601 10.0558C19.622 9.89477 19.6344 9.82046 19.6344 9.28796C19.6344 8.21056 19.5106 7.9505 18.7551 7.51706C18.5694 7.4056 18.2474 7.24461 18.0616 7.15793C17.8635 7.07124 17.7149 6.99694 17.7273 6.99694C17.7521 6.97217 18.4827 7.18269 18.7675 7.30653C19.201 7.47991 19.2753 7.49229 19.3248 7.47991C19.362 7.44276 19.3867 7.34368 19.3991 7.03409Z" fill="#FF007A"/>
<path d="M10.6811 8.87927C10.161 8.161 9.82663 7.04645 9.90093 6.21673L9.9257 5.95667L10.0495 5.98143C10.2724 6.01858 10.6563 6.16719 10.8421 6.27865C11.3375 6.57586 11.5604 6.98453 11.7709 8.00001C11.8328 8.29722 11.9195 8.64397 11.9567 8.75543C12.0186 8.94118 12.2539 9.37462 12.452 9.64707C12.5882 9.84521 12.5016 9.94428 12.192 9.91951C11.7214 9.86998 11.0898 9.43654 10.6811 8.87927Z" fill="#FF007A"/>
<path d="M18.7681 14.2663C16.3161 13.2756 15.4492 12.4211 15.4492 10.9722C15.4492 10.7616 15.4616 10.5883 15.4616 10.5883C15.474 10.5883 15.5607 10.6626 15.6721 10.7492C16.1675 11.1455 16.7248 11.3189 18.2727 11.5418C19.1768 11.678 19.6969 11.7771 20.1675 11.9381C21.6659 12.4335 22.5947 13.4489 22.8176 14.8236C22.8796 15.2198 22.8424 15.9753 22.7433 16.3715C22.6566 16.6811 22.409 17.2508 22.3471 17.2632C22.3347 17.2632 22.3099 17.2013 22.3099 17.1022C22.2851 16.5821 22.0251 16.0867 21.5916 15.7028C21.0715 15.257 20.4028 14.9226 18.7681 14.2663Z" fill="#FF007A"/>
<path d="M17.0338 14.6749C17.0091 14.4891 16.9471 14.2538 16.91 14.1548L16.8481 13.969L16.9595 14.1052C17.1205 14.291 17.2444 14.5139 17.3558 14.8235C17.4425 15.0588 17.4425 15.1331 17.4425 15.517C17.4425 15.8885 17.4301 15.9752 17.3558 16.1857C17.232 16.5201 17.0834 16.7554 16.8357 17.0154C16.3899 17.4736 15.8078 17.7213 14.9781 17.8328C14.8295 17.8452 14.4084 17.8823 14.0369 17.9071C13.1081 17.9566 12.4889 18.0557 11.9317 18.2538C11.8574 18.2786 11.7831 18.3034 11.7707 18.291C11.7459 18.2662 12.1298 18.0433 12.4394 17.8947C12.8728 17.6842 13.3187 17.5727 14.297 17.3993C14.78 17.325 15.2753 17.226 15.3992 17.1764C16.6252 16.7925 17.232 15.839 17.0338 14.6749Z" fill="#FF007A"/>
<path d="M18.1616 16.6687C17.8396 15.9628 17.7653 15.2941 17.9387 14.6625C17.9634 14.6006 17.9882 14.5387 18.013 14.5387C18.0377 14.5387 18.1121 14.5758 18.1864 14.6254C18.335 14.7245 18.6446 14.8978 19.4371 15.3313C20.4402 15.8762 21.0099 16.2972 21.4062 16.7802C21.7529 17.2012 21.9634 17.6842 22.0625 18.2786C22.1244 18.613 22.0873 19.418 22.0006 19.7523C21.7282 20.8049 21.109 21.6471 20.2049 22.13C20.0687 22.2043 19.9573 22.2539 19.9449 22.2539C19.9325 22.2539 19.982 22.13 20.0563 21.9814C20.3535 21.3498 20.3907 20.743 20.1678 20.0619C20.0316 19.6409 19.7467 19.1331 19.1771 18.2786C18.496 17.2879 18.335 17.0279 18.1616 16.6687Z" fill="#FF007A"/>
<path d="M8.93584 20.4582C9.85225 19.6904 10.9792 19.1455 12.0194 18.9722C12.4653 18.8979 13.2083 18.9226 13.617 19.0341C14.2733 19.2075 14.8677 19.579 15.1773 20.0372C15.4745 20.483 15.6108 20.8669 15.747 21.7214C15.7965 22.0558 15.8584 22.4025 15.8708 22.4768C15.9699 22.9226 16.168 23.2694 16.4157 23.4551C16.7996 23.74 17.4684 23.7523 18.1247 23.5047C18.2362 23.4675 18.3352 23.4304 18.3352 23.4427C18.36 23.4675 18.0256 23.6904 17.8027 23.8019C17.4931 23.9629 17.2454 24.0124 16.9111 24.0124C16.3166 24.0124 15.8089 23.7028 15.4002 23.0836C15.3136 22.9598 15.1402 22.6006 14.9916 22.2663C14.5581 21.2632 14.3352 20.966 13.8275 20.6316C13.3817 20.3468 12.812 20.2849 12.3786 20.4954C11.8089 20.7678 11.6603 21.4985 12.0566 21.9443C12.2176 22.1301 12.5148 22.2787 12.7625 22.3158C13.2207 22.3777 13.617 22.0186 13.617 21.5604C13.617 21.2632 13.5055 21.0898 13.2083 20.9536C12.812 20.7802 12.3786 20.9784 12.391 21.3623C12.391 21.5232 12.4653 21.6223 12.6262 21.6966C12.7253 21.7462 12.7253 21.7462 12.651 21.7338C12.2919 21.6595 12.2052 21.2136 12.49 20.9288C12.8368 20.5821 13.5674 20.7307 13.8151 21.2136C13.9142 21.4118 13.9266 21.8081 13.8399 22.0558C13.6293 22.6006 13.0349 22.8855 12.4281 22.7245C12.0194 22.613 11.8461 22.5016 11.3507 21.9938C10.4838 21.1022 10.1495 20.9288 8.91108 20.7431L8.67578 20.7059L8.93584 20.4582Z" fill="#FF007A"/>
<path fill-rule="evenodd" clip-rule="evenodd" d="M2.4216 0.532508C5.30705 4.03715 9.75287 9.48607 9.97578 9.78328C10.1615 10.031 10.0872 10.2663 9.77764 10.4396C9.60427 10.5387 9.24513 10.6378 9.07176 10.6378C8.87362 10.6378 8.63832 10.5387 8.47733 10.3777C8.36588 10.2663 7.8829 9.56037 6.79312 7.86378C5.9634 6.56347 5.25752 5.48607 5.24513 5.47368C5.1956 5.44892 5.1956 5.44892 6.70643 8.14861C7.65999 9.8452 7.96959 10.452 7.96959 10.5263C7.96959 10.6873 7.92006 10.774 7.72191 10.9969C7.38755 11.3684 7.23894 11.7895 7.12749 12.6687C7.00365 13.6471 6.66928 14.3406 5.71572 15.517C5.15845 16.2105 5.07176 16.3344 4.93554 16.6192C4.76216 16.9659 4.71263 17.1641 4.68786 17.6099C4.66309 18.0805 4.71263 18.3777 4.84885 18.8235C4.97269 19.2198 5.10891 19.4799 5.44328 19.9876C5.7281 20.4334 5.90148 20.7678 5.90148 20.8916C5.90148 20.9907 5.92625 20.9907 6.37207 20.8916C7.43708 20.644 8.31634 20.2229 8.79931 19.7028C9.09653 19.3808 9.17083 19.2074 9.17083 18.7616C9.17083 18.4768 9.15845 18.4149 9.08414 18.2415C8.9603 17.969 8.72501 17.7461 8.21727 17.3994C7.54854 16.9412 7.26371 16.5697 7.18941 16.0743C7.12749 15.6533 7.20179 15.3684 7.57331 14.5882C7.95721 13.7833 8.05628 13.4489 8.1182 12.6316C8.15535 12.1115 8.21727 11.9009 8.36588 11.7399C8.52687 11.5666 8.66309 11.5046 9.04699 11.4551C9.67857 11.3684 10.0872 11.2074 10.4092 10.8978C10.694 10.6378 10.8179 10.3777 10.8303 9.99381L10.8427 9.70898L10.6817 9.5356C10.0996 8.86687 2.0377 0 2.00055 0C1.98817 0 2.18631 0.235294 2.4216 0.532508ZM6.22346 18.1424C6.35968 17.9071 6.28538 17.6099 6.06247 17.4613C5.85194 17.3251 5.52996 17.387 5.52996 17.5728C5.52996 17.6223 5.55473 17.6718 5.62903 17.6966C5.74049 17.7585 5.75287 17.8204 5.66619 17.9567C5.5795 18.0929 5.5795 18.2167 5.69095 18.3034C5.86433 18.4396 6.09962 18.3653 6.22346 18.1424Z" fill="#FF007A"/>
<path fill-rule="evenodd" clip-rule="evenodd" d="M11.2369 11.6285C10.9397 11.7152 10.6549 12.0372 10.5682 12.3592C10.5187 12.5573 10.5434 12.9165 10.6301 13.0279C10.7664 13.2013 10.8902 13.2508 11.2369 13.2508C11.9181 13.2508 12.5001 12.9536 12.562 12.5945C12.6239 12.2973 12.3639 11.8886 12.0047 11.7028C11.819 11.6038 11.4351 11.5666 11.2369 11.6285ZM12.0295 12.2477C12.1286 12.0991 12.0914 11.9381 11.9057 11.8267C11.5713 11.6162 11.0636 11.7895 11.0636 12.1115C11.0636 12.2725 11.3236 12.4459 11.5713 12.4459C11.7323 12.4459 11.9552 12.3468 12.0295 12.2477Z" fill="#FF007A"/>
</g>
<defs>
<clipPath id="clip0_7016_37346">
<rect width="20.8421" height="24" fill="white" transform="translate(2)"/>
</clipPath>
</defs>
</svg>
