<svg width="24" height="24" viewBox="0 0 24 24" fill="none" xmlns="http://www.w3.org/2000/svg">
<path d="M13.1859 3H1L7.47352 10.4637C7.8625 10.9147 8.43926 11.1744 9.0462 11.1744H11.6316L6.81124 5.61554H13.0584C16.8962 5.61554 20.1372 8.5118 20.2814 12.2225C20.3702 14.4536 19.3324 16.5856 17.4981 17.9404L14.5238 14.5103C14.1348 14.0592 13.558 13.7997 12.9511 13.7997H10.3657L14.9899 19.1491C14.4014 19.2985 13.7945 19.3747 13.1859 19.3747H4.23425C3.6273 19.3747 3.05221 19.6343 2.66155 20.0838L1 22H13.0383C18.432 22 22.9304 17.8495 22.9992 12.6314C23.068 7.38254 18.7272 3.07302 13.3015 3.00649C13.263 3.00649 13.2244 3.00649 13.1859 3.00486" fill="#0B5E8E"/>
</svg>
