<svg width="24" height="24" viewBox="0 0 24 24" fill="none" xmlns="http://www.w3.org/2000/svg">
<g clip-path="url(#clip0_7155_39745)">
<path d="M20.8927 9.46156C20.9712 9.66479 21.0516 9.85075 21.1151 10.0427C21.2146 10.3471 21.2576 10.6676 21.2422 10.988C21.2082 11.7691 21.1691 12.55 21.1301 13.331C21.0983 13.9725 21.0627 14.6137 21.0287 15.255C20.9829 16.1135 20.9372 16.9721 20.8914 17.8308C20.8681 18.271 20.8438 18.711 20.8247 19.1512C20.8043 19.6194 20.4238 19.9977 19.9618 19.9989C19.2097 20.0007 18.4577 20.0007 17.7056 19.9989C17.5066 20.0001 17.3132 19.9319 17.1577 19.8057C17.0022 19.6796 16.8941 19.503 16.8513 19.3056C16.7211 18.7109 16.597 18.1149 16.4699 17.5194C16.4637 17.4907 16.4572 17.462 16.4496 17.4281H11.8948C11.8413 17.6702 11.7871 17.9135 11.734 18.1566C11.6495 18.544 11.5677 18.9328 11.4811 19.3201C11.3902 19.7257 11.0549 19.9961 10.6441 19.9966C9.89729 19.9977 9.15053 19.9918 8.40377 19.9987C7.89041 20.0034 7.52656 19.5951 7.51019 19.1109C7.48413 18.3401 7.46697 17.569 7.44394 16.798C7.42805 16.2876 7.41216 15.7774 7.38944 15.2673C7.38483 15.1678 7.35289 15.0684 7.32477 14.9715C7.29426 14.8669 7.21736 14.8159 7.11012 14.8132C6.99635 14.8103 6.88259 14.8061 6.76867 14.8062C6.21527 14.8062 5.65996 14.8401 5.10895 14.803C4.03519 14.7307 3.18738 14.2122 2.79191 13.1454C2.68443 12.8558 2.62989 12.5488 2.63096 12.2393C2.63096 10.8713 2.63096 9.50321 2.6335 8.13515C2.6335 8.04734 2.60665 8.00602 2.5307 7.96437C1.80713 7.57502 1.35129 6.96145 1.10835 6.17743C1.06082 6.02402 1.02658 5.86668 1.00603 5.70721C0.958365 5.3382 1.19781 5.03408 1.56372 5.01939C2.0318 5.00066 2.50115 5.00712 2.96939 5.00324C3.02706 5.00324 3.08474 5.00324 3.1529 5.00324C3.1529 4.86394 3.15179 4.73302 3.1529 4.60227C3.15528 4.37451 3.13812 4.14609 3.20056 3.92172C3.27899 3.6349 3.4549 3.38559 3.69708 3.21804C3.93926 3.05048 4.23204 2.97552 4.52345 3.00645C4.81363 3.03346 5.08483 3.16464 5.2884 3.37646C5.49197 3.58828 5.61458 3.86687 5.63422 4.16224C5.65011 4.39226 5.64296 4.62406 5.64598 4.85506C5.64598 4.89735 5.64598 4.93948 5.64598 4.98597H7.02527C7.02527 4.87766 7.02178 4.77112 7.02606 4.6649C7.03512 4.43891 7.02749 4.21098 7.06404 3.99C7.15699 3.42777 7.67337 3.01452 8.23646 3C8.74108 2.98757 9.3288 3.318 9.4656 3.95239C9.51327 4.17515 9.50262 4.41131 9.51327 4.6415C9.51899 4.75885 9.51422 4.87669 9.51422 5.00341C9.5506 5.00341 9.57889 5.00341 9.60717 5.00341C10.0838 5.00712 10.5605 5.00486 11.0371 5.01616C11.4644 5.02633 11.7029 5.31495 11.6638 5.74772C11.6295 6.12852 11.4788 6.46766 11.3025 6.79697C11.1031 7.17232 10.8245 7.49829 10.4868 7.75162C10.4744 7.76082 10.4631 7.77147 10.4391 7.79229C10.4772 7.79472 10.5017 7.79762 10.5262 7.79762C12.0355 7.80171 13.5449 7.80564 15.0544 7.8094C16.7437 7.81489 18.4331 7.81731 20.1229 7.83055C20.7947 7.83499 21.4441 8.07698 21.9594 8.51494C22.4748 8.95291 22.8239 9.55951 22.9469 10.2306C22.9807 10.4154 22.9979 10.603 22.9984 10.791C23.003 11.8768 23.0008 12.9626 23.0003 14.0485C22.9999 14.0917 22.9973 14.1348 22.9924 14.1777C22.9765 14.3244 22.9164 14.4374 22.7815 14.5129C22.6663 14.5775 22.5642 14.666 22.4522 14.7372C22.412 14.76 22.3669 14.7725 22.3209 14.7736C22.2715 14.7762 22.2213 14.7635 22.1716 14.7559C21.8274 14.7044 21.6936 14.4692 21.6545 14.1325C21.6245 13.8752 21.6379 13.6122 21.6374 13.3517C21.6358 12.5024 21.6401 11.653 21.6356 10.8038C21.6317 10.2231 21.3587 9.79264 20.8927 9.46156ZM15.2487 16.2873H17.3413C17.3495 16.3196 17.3554 16.3396 17.3602 16.3603C17.5402 17.158 17.7199 17.9558 17.8993 18.7537C17.9167 18.8328 17.9449 18.8591 18.0286 18.8584C18.5607 18.8534 19.0931 18.8558 19.6251 18.8558H19.7123C19.7165 18.8203 19.7207 18.7939 19.7223 18.7674C19.7605 18.1102 19.8003 17.4531 19.8356 16.7958C19.882 15.9318 19.9248 15.0686 19.9691 14.2037C20.0218 13.1731 20.077 12.1429 20.1267 11.1123C20.1518 10.5922 20.0024 10.1234 19.6767 9.72129C19.4919 9.49336 19.2875 9.2819 19.0908 9.06398C19.0342 9.00135 18.9611 8.9739 18.8775 8.97261C18.4976 8.96648 18.1176 8.95905 17.7377 8.95389C17.5656 8.95163 17.3934 8.95389 17.2213 8.95389C17.1957 8.95389 17.1701 8.95647 17.1446 8.95776C17.1106 9.47431 16.8177 9.80006 16.3992 10.0282C15.952 10.2721 15.4707 10.3273 14.9735 10.2516C14.8342 10.2303 14.6976 10.1892 14.5631 10.1581C14.4419 10.9097 14.0471 11.4295 13.3044 11.6054C12.6689 11.7562 12.1128 11.557 11.7142 11.0324C11.2024 10.3579 11.2423 9.65365 11.7032 8.95147C11.6741 8.94969 11.649 8.94678 11.6238 8.94678C11.0624 8.94603 10.501 8.94539 9.93956 8.94485C9.79418 8.94485 9.77924 8.96002 9.77924 9.10417C9.77924 10.1147 9.78035 11.1252 9.77622 12.1357C9.77527 12.3418 9.77622 12.553 9.73587 12.7531C9.60717 13.3815 9.26064 13.864 8.72376 14.2022C8.61922 14.2681 8.57679 14.3475 8.57838 14.4721C8.58839 15.219 8.59427 15.9661 8.59888 16.7133C8.60349 17.377 8.60507 18.0408 8.60921 18.7046C8.61 18.8499 8.62112 18.8602 8.76364 18.8604C9.27208 18.8604 9.78051 18.8604 10.2889 18.8604C10.4103 18.8604 10.421 18.8495 10.4478 18.7291C10.53 18.3601 10.6091 17.9903 10.6947 17.6222C10.806 17.1452 10.9302 16.6715 11.0341 16.1932C11.2269 15.3071 11.9156 14.6224 12.7895 14.4782C13.6316 14.3389 14.4669 14.7165 14.9345 15.459C15.0916 15.7088 15.1925 15.9807 15.2487 16.2873ZM2.55167 6.31383C2.55646 6.32635 2.56225 6.33844 2.56899 6.34999C2.60299 6.39454 2.63604 6.44006 2.67227 6.48268C2.86579 6.71044 3.10714 6.86315 3.389 6.95338C3.60318 7.02199 3.7654 7.15339 3.83007 7.37825C3.85427 7.47182 3.86555 7.56836 3.8636 7.66509C3.8655 9.14598 3.86582 10.6268 3.86455 12.1076C3.86455 12.2995 3.87933 12.4884 3.94304 12.671C4.1221 13.1831 4.57048 13.5081 5.14835 13.5147C5.94278 13.5239 6.73721 13.5234 7.53164 13.5133C8.15606 13.5047 8.63352 13.1087 8.75141 12.4963C8.79399 12.2755 8.77159 12.0419 8.78223 11.8143C8.78493 11.7588 8.76333 11.7389 8.71502 11.7174C8.46287 11.6014 8.19658 11.5055 7.96572 11.3542C6.50651 10.3978 5.80487 8.98779 5.63708 7.27026C5.61166 7.0094 5.63025 6.74402 5.62866 6.4809C5.62866 6.42586 5.62866 6.37097 5.62866 6.31415L2.55167 6.31383ZM7.53529 9.40248C7.54705 9.71774 7.73819 9.91483 8.02323 9.90612C8.28317 9.89821 8.48813 9.66511 8.47924 9.38763C8.47671 9.32314 8.46163 9.2598 8.43485 9.20127C8.40807 9.14274 8.37013 9.09019 8.32323 9.04665C8.27633 9.00312 8.2214 8.96946 8.16162 8.94764C8.10183 8.92581 8.03838 8.91625 7.97493 8.9195C7.91483 8.92183 7.85578 8.93618 7.80114 8.96172C7.7465 8.98726 7.69736 9.0235 7.65653 9.06836C7.61569 9.11322 7.58397 9.16582 7.56316 9.22316C7.54236 9.28049 7.53289 9.34142 7.53529 9.40248ZM4.69123 4.59081C4.69123 4.47782 4.69489 4.36482 4.69044 4.25182C4.68727 4.16486 4.65158 4.0824 4.59065 4.02125C4.52972 3.96009 4.44812 3.92484 4.3625 3.92269C4.18184 3.91526 4.01057 4.04698 4.00151 4.22471C3.98927 4.46313 3.99643 4.70251 3.9969 4.94142C3.9969 5.00147 4.02312 5.02923 4.09001 5.02713C4.25398 5.02181 4.41843 5.02068 4.58256 5.02713C4.66518 5.03036 4.69187 4.99485 4.69187 4.9206C4.69092 4.81099 4.69107 4.7009 4.69076 4.59081H4.69123ZM8.60603 4.57628C8.60603 4.47152 8.6073 4.36643 8.60603 4.26199C8.60578 4.17492 8.5727 4.09126 8.51359 4.02821C8.45448 3.96515 8.37385 3.92751 8.28826 3.92301C8.11237 3.90993 7.93871 4.03471 7.92282 4.20792C7.90566 4.38548 7.91027 4.56708 7.90693 4.74691C7.90582 4.81373 7.91106 4.88072 7.91376 4.94771C7.91599 5.00744 7.94411 5.02843 8.0048 5.02681C8.17163 5.02245 8.33846 5.021 8.50514 5.02681C8.58648 5.02988 8.60635 4.99178 8.60587 4.92221C8.60492 4.80792 8.60555 4.69186 8.60555 4.57628H8.60603Z" fill="black"/>
<path d="M15.2479 16.2874C15.1916 15.9807 15.0907 15.7089 14.9335 15.4591C14.4657 14.7166 13.6306 14.339 12.7885 14.4783C11.9146 14.6228 11.2262 15.3072 11.0338 16.1928C10.9298 16.6711 10.8054 17.1452 10.6944 17.6219C10.6087 17.9899 10.5296 18.3597 10.4475 18.7287C10.4206 18.8492 10.41 18.8598 10.2886 18.86C9.78014 18.8609 9.27171 18.8609 8.76327 18.86C8.62027 18.86 8.60963 18.8493 8.60883 18.7042C8.6047 18.0404 8.60311 17.3767 8.59851 16.7129C8.59406 15.9662 8.58802 15.2197 8.57817 14.4722C8.57658 14.3477 8.619 14.2682 8.72355 14.2023C9.26042 13.8633 9.60695 13.3816 9.73565 12.7532C9.77665 12.5531 9.77506 12.3419 9.77601 12.1358C9.78014 11.1253 9.77855 10.1148 9.77903 9.10427C9.77903 8.96012 9.79396 8.94479 9.93934 8.94495C10.5007 8.94495 11.0621 8.94559 11.6235 8.94688C11.6486 8.94688 11.6737 8.94979 11.703 8.95157C11.2422 9.65375 11.2022 10.358 11.7139 11.0325C12.1121 11.5569 12.6687 11.7563 13.3042 11.6055C14.0462 11.4296 14.4411 10.9098 14.5623 10.158C14.6967 10.1892 14.8334 10.2302 14.9727 10.2515C15.4699 10.3272 15.9511 10.272 16.3984 10.0281C16.8169 9.8 17.1097 9.47377 17.1437 8.9577C17.1693 8.95641 17.1949 8.95383 17.2205 8.95383C17.3925 8.95383 17.5648 8.95173 17.7368 8.95383C18.1167 8.95899 18.4968 8.96642 18.8767 8.97255C18.9603 8.97384 19.0333 9.00128 19.0899 9.06392C19.2866 9.28184 19.4911 9.4933 19.6759 9.72123C20.0016 10.1233 20.151 10.5921 20.1258 11.1122C20.0761 12.1429 20.021 13.1731 19.9682 14.2036C19.9239 15.0677 19.8812 15.9318 19.8348 16.7957C19.7995 17.453 19.7596 18.1102 19.7215 18.7673C19.7199 18.7938 19.7156 18.8203 19.7115 18.8558H19.6242C19.0921 18.8558 18.5597 18.8534 18.0278 18.8584C17.944 18.8584 17.9165 18.8327 17.8984 18.7536C17.7208 17.9554 17.5411 17.1576 17.3593 16.3602C17.3546 16.3395 17.3487 16.319 17.3404 16.2872L15.2479 16.2874ZM16.1801 13.5153C16.1777 14.2851 16.7767 14.9058 17.5235 14.9077C18.2702 14.9097 18.874 14.2943 18.8799 13.5261C18.8849 12.7634 18.2775 12.1342 17.5343 12.1322C16.7869 12.1301 16.1825 12.7476 16.1801 13.5153Z" fill="white"/>
<path d="M2.55078 6.31384H5.62713C5.62713 6.37066 5.62713 6.42555 5.62713 6.48059C5.62872 6.74371 5.61013 7.00909 5.63555 7.26995C5.80254 8.98731 6.50498 10.3973 7.96419 11.3539C8.19505 11.5052 8.46134 11.6011 8.7135 11.7171C8.76116 11.7394 8.78341 11.7593 8.7807 11.814C8.77006 12.0416 8.79246 12.2752 8.74988 12.496C8.63199 13.1076 8.15453 13.5036 7.53011 13.5129C6.73568 13.5237 5.94125 13.5242 5.14682 13.5144C4.56895 13.5078 4.12058 13.1828 3.94151 12.6706C3.87796 12.4881 3.86302 12.2994 3.86302 12.1073C3.86366 10.6264 3.86334 9.14556 3.86207 7.66478C3.86398 7.56821 3.85269 7.47184 3.82854 7.37842C3.76388 7.15356 3.60165 7.02216 3.38748 6.95356C3.10561 6.86332 2.86426 6.71143 2.67074 6.48285C2.63451 6.44024 2.60147 6.39472 2.56746 6.35016C2.56093 6.33854 2.55535 6.32639 2.55078 6.31384ZM4.32173 9.39797C4.33666 9.7234 4.53146 9.92114 4.82206 9.90581C5.08041 9.89225 5.28076 9.65383 5.26694 9.37634C5.25391 9.11193 5.02543 8.90628 4.7585 8.91936C4.50953 8.93162 4.31029 9.15019 4.32173 9.39797Z" fill="white"/>
<path d="M7.53553 9.4025C7.53309 9.34139 7.54254 9.28039 7.56334 9.223C7.58414 9.16561 7.61589 9.11296 7.65676 9.06806C7.69764 9.02316 7.74683 8.9869 7.80152 8.96136C7.85622 8.93581 7.91534 8.92149 7.97549 8.9192C8.03894 8.91595 8.10239 8.92551 8.16217 8.94733C8.22196 8.96916 8.27689 9.00281 8.32379 9.04635C8.37069 9.08988 8.40863 9.14243 8.4354 9.20096C8.46218 9.25949 8.47727 9.32283 8.47979 9.38732C8.48869 9.66481 8.28373 9.8979 8.02379 9.90581C7.73843 9.91485 7.54729 9.71775 7.53553 9.4025Z" fill="white"/>
<path d="M4.6895 4.59087C4.6895 4.70096 4.6895 4.81105 4.6895 4.92131C4.6895 4.9954 4.66281 5.03107 4.58019 5.02784C4.41638 5.02123 4.25193 5.02236 4.08764 5.02784C4.02075 5.02994 3.99469 5.00218 3.99454 4.94213C3.99454 4.70322 3.98691 4.46384 3.99914 4.22542C4.0082 4.04785 4.17948 3.91597 4.36013 3.92339C4.44576 3.92555 4.52735 3.9608 4.58829 4.02196C4.64922 4.08311 4.68491 4.16557 4.68807 4.25253C4.693 4.36504 4.68934 4.47804 4.6895 4.59087Z" fill="white"/>
<path d="M8.60534 4.57638C8.60534 4.69196 8.60534 4.80754 8.60534 4.92312C8.60534 4.99269 8.58596 5.03078 8.50461 5.02772C8.3381 5.02158 8.17095 5.02304 8.00428 5.02772C7.94358 5.02933 7.91546 5.00835 7.91323 4.94862C7.91053 4.88163 7.90529 4.81464 7.9064 4.74781C7.9091 4.56799 7.9045 4.38719 7.92229 4.20882C7.93897 4.03562 8.11295 3.91084 8.28773 3.92391C8.37332 3.92841 8.45396 3.96606 8.51306 4.02911C8.57217 4.09216 8.60525 4.17583 8.6055 4.2629C8.60661 4.36686 8.60534 4.47162 8.60534 4.57638Z" fill="white"/>
<path d="M16.1797 13.5153C16.1821 12.7475 16.7865 12.1301 17.5336 12.1322C18.2768 12.1341 18.8841 12.7634 18.8792 13.5261C18.8739 14.2946 18.2702 14.9096 17.5228 14.9077C16.7754 14.9058 16.1773 14.2851 16.1797 13.5153Z" fill="black"/>
<path d="M4.32078 9.39803C4.30934 9.14944 4.50859 8.93168 4.75851 8.91941C5.02481 8.90634 5.25328 9.11199 5.26695 9.3764C5.28045 9.65388 5.0801 9.89295 4.82207 9.90586C4.53051 9.9212 4.33572 9.72346 4.32078 9.39803Z" fill="black"/>
</g>
<defs>
<clipPath id="clip0_7155_39745">
<rect width="22" height="17" fill="white" transform="translate(1 3)"/>
</clipPath>
</defs>
</svg>
