<svg xmlns="http://www.w3.org/2000/svg" fill="none" viewBox="0 0 24 24" width="24" height="24">
  <g clip-path="url(#a)">
    <path fill="url(#b)" d="m5.048 2.27 18.514 12.718-4.613 6.756L.436 9.025 5.048 2.27Z"/>
    <path fill="url(#c)" d="M23.566 14.981c-1.584 2.32-7.012 1.353-12.125-2.159-5.112-3.512-7.973-8.24-6.39-10.56C6.637-.056 12.065.91 17.178 4.423c5.112 3.512 7.973 8.24 6.389 10.56Z"/>
    <path fill="url(#d)" d="M18.953 21.74c-1.584 2.319-7.013 1.352-12.125-2.16-5.113-3.512-7.973-8.24-6.39-10.56 1.584-2.32 7.013-1.352 12.125 2.16 5.113 3.512 7.973 8.24 6.39 10.56Z"/>
    <path fill="#0E0F23" d="m23.565 14.98-.003.006-4.611 6.753-.002.003c-1.588 2.313-7.013 1.345-12.121-2.165a23.938 23.938 0 0 1-2.754-2.2c.672-.134 1.643-.546 2.55-1.548 1.572-1.738 2.42-2.053 3.123-2.02.703.034 1.503.693 2.761 2.377 1.258 1.685 3.106 2.165 4.177 1.275l.261-.214c.858-.7 1.182-.963 2.937-4.153.422-.752 1.773-2.097 3.74-1.458.506 1.32.523 2.494-.058 3.345Z"/>
    <path fill="#fff" fill-rule="evenodd" d="M22.853 14.578c-1.355 1.985-6.297.954-11.038-2.303-4.741-3.257-7.486-7.507-6.131-9.492C7.039.798 11.981 1.83 16.722 5.087c4.742 3.257 7.486 7.506 6.131 9.491Zm-4.325-2.98c-.67.982-3.113.471-5.458-1.14-2.344-1.61-3.702-3.71-3.032-4.692.67-.98 3.113-.47 5.457 1.14 2.345 1.611 3.702 3.712 3.033 4.693Z" clip-rule="evenodd"/>
    <path fill="#fff" d="M4.62 4.644a.191.191 0 1 0-.37.095c.058.225.125.45.202.679a.19.19 0 1 0 .362-.124 8.91 8.91 0 0 1-.194-.65ZM5.149 6.157a.19.19 0 1 0-.35.155c1.115 2.522 3.355 5.152 6.395 7.24a.19.19 0 0 0 .266-.05.192.192 0 0 0-.05-.266C8.416 11.18 6.23 8.602 5.15 6.157ZM17.21 16.015a.192.192 0 0 0-.103.369c.347.098.69.183 1.03.255a.192.192 0 0 0 .079-.375c-.331-.07-.667-.153-1.006-.249ZM18.995 16.405a.191.191 0 0 0-.058.379c.842.128 1.651.171 2.41.126a.192.192 0 0 0-.023-.382 11.17 11.17 0 0 1-2.329-.123Z"/>
  </g>
  <defs>
    <linearGradient id="b" x1="6.512" x2="10.2" y1="1.118" y2="13.784" gradientUnits="userSpaceOnUse">
      <stop stop-color="#03B8FF"/>
      <stop offset="1" stop-color="#FA52A0"/>
    </linearGradient>
    <linearGradient id="c" x1="6.512" x2="10.2" y1="1.116" y2="13.782" gradientUnits="userSpaceOnUse">
      <stop stop-color="#03B8FF"/>
      <stop offset="1" stop-color="#FA52A0"/>
    </linearGradient>
    <linearGradient id="d" x1="6.511" x2="10.2" y1="1.118" y2="13.784" gradientUnits="userSpaceOnUse">
      <stop stop-color="#03B8FF"/>
      <stop offset="1" stop-color="#FA52A0"/>
    </linearGradient>
    <clipPath id="a">
      <path fill="#fff" d="M0 0h24v24H0z"/>
    </clipPath>
  </defs>
</svg>