<svg xmlns="http://www.w3.org/2000/svg" fill="none" viewBox="0 0 89 89" width="24" height="24">
  <path fill="#7E49FC" d="M2.5 40.2 30.4 0l14.1 20.4-14.3 20.3H2.8c-.1 0-.1 0-.2-.1-.1 0-.1-.1-.1-.1v-.2c-.1 0 0 0 0-.1Zm83.9 0L58.5 0l-14 20.4 14.2 20.4h27.4c.1 0 .1 0 .2-.1.1 0 .1-.1.1-.1v-.2c.1-.1 0-.1 0-.2Z"/>
  <path fill="#06F" d="M86.9 46c.1 5.6-1 11.2-3.1 16.4-2.1 5.2-5.2 10-9.2 14-4 4-8.7 7.2-13.8 9.3-5.1 2.1-10.7 3.3-16.4 3.3-5.6 0-11.2-1.1-16.4-3.3-5.2-2.2-9.9-5.3-13.8-9.3-3.9-4-7.1-8.7-9.2-14C3 57.2 1.9 51.6 2 46h27c0 2.1.3 4.1 1.1 6 .8 1.9 1.9 3.7 3.3 5.1 1.4 1.5 3.2 2.6 5.1 3.4 1.9.8 3.9 1.2 6 1.2s4.1-.4 6-1.2c1.9-.8 3.6-2 5.1-3.4 1.4-1.5 2.6-3.2 3.3-5.1.8-1.9 1.1-4 1.1-6h26.9Z"/>
</svg>