<svg width="24" height="24" viewBox="0 0 24 24" fill="none" xmlns="http://www.w3.org/2000/svg">
<path fill-rule="evenodd" clip-rule="evenodd" d="M11.9928 21C9.21733 20.998 6.98161 20.3631 5.41949 19.2228C3.83863 18.0688 3 16.4311 3 14.578C3 12.7924 3.8368 11.5049 4.78363 10.6346C5.52565 9.95261 6.34449 9.51581 6.91465 9.26455C6.78571 8.88735 6.62485 8.39354 6.48093 7.8835C6.28836 7.201 6.09943 6.40025 6.09943 5.81346C6.09943 5.11891 6.25828 4.4214 6.6866 3.8794C7.13912 3.30677 7.82038 3 8.63995 3C9.28048 3 9.82428 3.22649 10.25 3.61721C10.657 3.99068 10.9278 4.48666 11.1148 5.00369C11.4434 5.91221 11.5714 7.05361 11.6073 8.19267H12.3923C12.4282 7.05361 12.5561 5.91221 12.8848 5.00369C13.0718 4.48666 13.3426 3.99068 13.7496 3.61721C14.1753 3.22649 14.7191 3 15.3596 3C16.1792 3 16.8604 3.30677 17.313 3.8794C17.7413 4.4214 17.9002 5.11891 17.9002 5.81346C17.9002 6.40025 17.7112 7.201 17.5186 7.8835C17.3747 8.39354 17.2138 8.88735 17.0849 9.26455C17.6551 9.51581 18.474 9.95261 19.2159 10.6346C20.1628 11.5049 20.9995 12.7924 20.9995 14.578C20.9995 16.4311 20.161 18.0688 18.5801 19.2228C17.018 20.3631 14.7822 20.998 12.0067 21H11.9928Z" fill="#633001"/>
<path d="M8.63755 3.66077C7.43716 3.66077 6.88459 4.52316 6.88459 5.71582C6.88459 6.66381 7.52662 8.56239 7.79005 9.30147C7.8493 9.46771 7.7562 9.64984 7.58641 9.71431C6.62433 10.0796 3.78516 11.4171 3.78516 14.4804C3.78516 17.7071 6.67041 20.1401 11.991 20.144C11.9932 20.144 11.9953 20.1439 11.9974 20.1439C11.9995 20.1439 12.0016 20.144 12.0037 20.144C17.3243 20.1401 20.2096 17.7071 20.2096 14.4804C20.2096 11.4171 17.3704 10.0796 16.4084 9.71431C16.2386 9.64984 16.1455 9.46771 16.2047 9.30147C16.4682 8.56239 17.1102 6.66381 17.1102 5.71582C17.1102 4.52316 16.5576 3.66077 15.3572 3.66077C13.6293 3.66077 13.1985 6.01783 13.1678 8.54753C13.1658 8.71641 13.024 8.85344 12.8487 8.85344H11.1461C10.9707 8.85344 10.829 8.71641 10.8269 8.54753C10.7962 6.01783 10.3655 3.66077 8.63755 3.66077Z" fill="#D1884F"/>
<path d="M12.0037 19.11C8.0944 19.11 3.79192 17.0948 3.78518 14.4862C3.78517 14.4902 3.78516 14.4943 3.78516 14.4984C3.78516 17.7277 6.675 20.162 12.0037 20.162C17.3325 20.162 20.2223 17.7277 20.2223 14.4984C20.2223 14.4943 20.2223 14.4902 20.2223 14.4862C20.2156 17.0948 15.913 19.11 12.0037 19.11Z" fill="#FEDC90"/>
<path d="M9.83314 13.685C9.83314 14.5658 9.40092 15.0245 8.86774 15.0245C8.33456 15.0245 7.90234 14.5658 7.90234 13.685C7.90234 12.8043 8.33456 12.3456 8.86774 12.3456C9.40092 12.3456 9.83314 12.8043 9.83314 13.685Z" fill="#633001"/>
<path d="M16.1066 13.685C16.1066 14.5658 15.6744 15.0245 15.1412 15.0245C14.608 15.0245 14.1758 14.5658 14.1758 13.685C14.1758 12.8043 14.608 12.3456 15.1412 12.3456C15.6744 12.3456 16.1066 12.8043 16.1066 13.685Z" fill="#633001"/>
</svg>
