<svg width="24" height="24" viewBox="0 0 24 24" fill="none" xmlns="http://www.w3.org/2000/svg">
<path d="M4.67346 9.26567C4.5126 9.8643 4.4302 10.4817 4.42763 11.1023C4.42763 11.1459 4.42763 11.1887 4.42763 11.2312C4.43274 11.9813 4.35029 12.7293 4.18184 13.4592C3.84281 13.3365 3.49356 13.0877 3.16043 12.6572C2.28318 11.5244 2.57481 9.70788 3.65637 9.2803C4.06524 9.11897 4.40764 9.15293 4.67494 9.25892C4.67417 9.261 4.6739 9.26335 4.67346 9.26567Z" fill="#A16552"/>
<path d="M4.67346 9.26567C4.5126 9.8643 4.4302 10.4817 4.42763 11.1023C4.42763 11.1459 4.42763 11.1887 4.42763 11.2312C4.43274 11.9813 4.35029 12.7293 4.18184 13.4592C3.84281 13.3365 3.49356 13.0877 3.16043 12.6572C2.28318 11.5244 2.57481 9.70788 3.65637 9.2803C4.06524 9.11897 4.40764 9.15293 4.67494 9.25892C4.67417 9.261 4.6739 9.26335 4.67346 9.26567Z" fill="#F5DCB4"/>
<path d="M20.8361 12.6568C20.5033 13.0865 20.1538 13.335 19.8145 13.4588C19.6462 12.7288 19.5638 11.9812 19.5687 11.2313C19.5687 11.1885 19.5687 11.146 19.5687 11.1023C19.5664 10.4794 19.4829 9.85943 19.3203 9.25866C19.5879 9.15297 19.93 9.11898 20.3391 9.2804C21.4207 9.70689 21.7126 11.5235 20.8361 12.6568Z" fill="#A16552"/>
<path d="M20.8361 12.6568C20.5033 13.0865 20.1538 13.335 19.8145 13.4588C19.6462 12.7288 19.5638 11.9812 19.5687 11.2313C19.5687 11.1885 19.5687 11.146 19.5687 11.1023C19.5664 10.4794 19.4829 9.85943 19.3203 9.25866C19.5879 9.15297 19.93 9.11898 20.3391 9.2804C21.4207 9.70689 21.7126 11.5235 20.8361 12.6568Z" fill="#F5DCB4"/>
<path d="M17.4662 13.4807C17.1433 13.9887 17.0642 14.6189 17.2509 15.1938C17.395 15.6259 17.5239 16.1151 17.5239 16.479C17.5228 19.1417 15.0503 21.2971 11.9995 21.2971C8.94832 21.2971 6.47464 19.1417 6.47464 16.478C6.47464 16.1141 6.60343 15.6259 6.74728 15.1928C6.93425 14.6181 6.8554 13.9882 6.53249 13.4802C6.22166 12.9839 6.05596 12.4077 6.05469 11.819C6.05469 10.052 7.52956 8.61878 9.34857 8.61878C9.93677 8.61749 10.5149 8.77099 11.0275 9.06497C11.6285 9.41371 12.3654 9.41371 12.9663 9.06497C13.4787 8.77123 14.0571 8.61773 14.6447 8.61932C16.4638 8.61932 17.9417 10.0526 17.9417 11.8194C17.943 12.2609 17.8505 12.6974 17.6703 13.0989C17.6112 13.231 17.543 13.3584 17.4662 13.4807Z" fill="#A16552"/>
<path d="M17.4662 13.4807C17.1433 13.9887 17.0642 14.6189 17.2509 15.1938C17.395 15.6259 17.5239 16.1151 17.5239 16.479C17.5228 19.1417 15.0503 21.2971 11.9995 21.2971C8.94832 21.2971 6.47464 19.1417 6.47464 16.478C6.47464 16.1141 6.60343 15.6259 6.74728 15.1928C6.93425 14.6181 6.8554 13.9882 6.53249 13.4802C6.22166 12.9839 6.05596 12.4077 6.05469 11.819C6.05469 10.052 7.52956 8.61878 9.34857 8.61878C9.93677 8.61749 10.5149 8.77099 11.0275 9.06497C11.6285 9.41371 12.3654 9.41371 12.9663 9.06497C13.4787 8.77123 14.0571 8.61773 14.6447 8.61932C16.4638 8.61932 17.9417 10.0526 17.9417 11.8194C17.943 12.2609 17.8505 12.6974 17.6703 13.0989C17.6112 13.231 17.543 13.3584 17.4662 13.4807Z" fill="#F5DCB4"/>
<path d="M9.1891 17.0763C8.99728 17.0758 8.84876 17.2478 8.87387 17.4418C9.07049 18.8677 10.3979 19.9705 12.0031 19.9705C13.6083 19.9705 14.9364 18.8677 15.1323 17.4418C15.1571 17.2481 15.0092 17.0761 14.8176 17.0763H9.1891Z" fill="#4E3F3F"/>
<path d="M10.1797 19.4385C11.2917 20.1463 12.7023 20.1463 13.8146 19.4385C13.5864 18.6334 12.8574 18.819 11.9956 18.819C11.1337 18.819 10.4075 18.6334 10.1797 19.4385Z" fill="#E6646E"/>
<path d="M20.8374 12.6571C20.5046 13.0868 20.1551 13.3353 19.8158 13.4591C19.6475 12.7291 19.5651 11.9815 19.57 11.2316C19.57 11.1888 19.57 11.1463 19.57 11.1027C19.5677 10.4797 19.4842 9.85975 19.3216 9.25898C19.5892 9.15329 19.9313 9.11929 20.3404 9.28072C21.422 9.70721 21.7139 11.5238 20.8374 12.6571ZM17.6713 13.1001C17.6122 13.2322 17.5441 13.3596 17.4673 13.4818C17.1444 13.9898 17.0653 14.6201 17.2519 15.1949C17.3961 15.627 17.5249 16.1163 17.5249 16.4802C17.5238 19.1429 15.0514 21.2982 12.0005 21.2982C8.94937 21.2982 6.47569 19.1429 6.47569 16.4792C6.47569 16.1152 6.60448 15.627 6.74833 15.1939C6.9353 14.6193 6.85645 13.9893 6.53354 13.4813C6.22271 12.985 6.05701 12.4088 6.05574 11.8201C6.05574 10.0532 7.53061 8.61993 9.34962 8.61993C9.93782 8.61864 10.5159 8.77214 11.0286 9.06612C11.6295 9.41486 12.3664 9.41486 12.9674 9.06612C13.4798 8.77238 14.0582 8.61888 14.6458 8.62048C16.4648 8.62048 17.9428 10.0537 17.9428 11.8206C17.944 12.2621 17.8516 12.6986 17.6713 13.1001ZM4.67717 9.265C4.51631 9.86363 4.43391 10.4811 4.43134 11.1017C4.43134 11.1452 4.43134 11.1881 4.43134 11.2305C4.43645 11.9806 4.354 12.7286 4.18555 13.4585C3.84652 13.3358 3.49727 13.087 3.16414 12.6565C2.28689 11.5238 2.57852 9.70721 3.66008 9.27963C4.06895 9.1183 4.41135 9.15226 4.67865 9.25825C4.67788 9.26033 4.67761 9.26268 4.67717 9.265ZM20.7145 8.68467C20.0605 8.42587 19.542 8.56242 19.1772 8.7763C19.088 8.50898 18.9856 8.24656 18.8699 7.98995C18.7854 7.80221 18.694 7.61685 18.5961 7.43417C17.5955 5.56802 15.9133 4.01908 13.9826 3.36432L13.9447 2.30469L12.6952 3.06957L12.5446 3.05262C12.4522 3.044 12.3607 3.03744 12.2673 3.03355L12.085 2.23155L12.0315 2C11.969 2 11.908 2 11.8486 2.00699C10.686 2.10337 10.1072 3.18056 10.0169 3.36487C8.08673 4.01966 6.40522 5.57036 5.40482 7.4342C5.30648 7.61667 5.21537 7.80176 5.13105 7.98998C5.01538 8.24659 4.91263 8.50928 4.82333 8.77633L4.77646 8.74992C4.41469 8.55179 3.91231 8.4377 3.2865 8.6847C1.90997 9.22793 1.54179 11.5368 2.65533 12.9753C3.1096 13.5609 3.58941 13.8818 4.04748 14.0246C4.04155 14.0507 4.03567 14.077 4.0303 14.1037C3.94737 14.4911 3.90564 14.8866 3.90591 15.2832C3.90591 18.0314 5.89387 20.396 8.74247 21.435C9.41126 21.6789 10.1049 21.8449 10.8101 21.9298C11.1765 21.9742 11.5447 21.9977 11.9134 22H12.001C16.4711 22 20.0951 18.9925 20.0951 15.2832C20.0953 14.8869 20.0536 14.4919 19.9706 14.1047C19.9647 14.0781 19.9594 14.0518 19.953 14.0256C20.4136 13.8828 20.8914 13.562 21.3451 12.9759C22.4592 11.5368 22.0879 9.22745 20.7145 8.68467Z" fill="#A16552"/>
<path d="M10.6212 14.6829L10.6276 14.6682C10.687 14.5359 10.8394 14.478 10.9692 14.5385L11.597 14.8309C11.7268 14.8912 11.7835 15.0465 11.7243 15.1789L11.7176 15.1935C11.6584 15.3259 11.5061 15.3836 11.3763 15.3233L10.7485 15.0309C10.6186 14.9703 10.5618 14.8152 10.6212 14.6829Z" fill="#4E3F3F"/>
<path d="M12.2801 15.1935L12.2734 15.1789C12.2142 15.0465 12.2711 14.8914 12.4009 14.8308L13.0288 14.5384C13.1586 14.4781 13.3106 14.5358 13.3701 14.6682L13.3765 14.6828C13.4359 14.8152 13.379 14.9705 13.2492 15.0308L12.6214 15.3232C12.4915 15.3838 12.3395 15.3258 12.2801 15.1935Z" fill="#4E3F3F"/>
<path d="M9.16517 13.0978C8.64254 13.0978 8.21875 12.6887 8.21875 12.1833V11.8786C8.21875 11.374 8.64254 10.9644 9.16517 10.9644C9.68772 10.9644 10.1109 11.374 10.1109 11.8786V12.1833C10.1109 12.6887 9.68772 13.0978 9.16517 13.0978Z" fill="#4E3F3F"/>
<path d="M9.16406 10.9644V12.0311C9.17552 12.2888 9.38372 12.4919 9.63693 12.4919C9.88994 12.4919 10.0984 12.2888 10.1099 12.0311V11.8807C10.1098 11.3719 9.68661 10.9644 9.16406 10.9644Z" fill="#5D5360"/>
<path d="M9.47885 11.5764C9.47885 11.7445 9.33751 11.8811 9.16342 11.8811C8.98897 11.8811 8.84766 11.7445 8.84766 11.5764C8.84766 11.408 8.98897 11.2715 9.16342 11.2715C9.33748 11.2715 9.47885 11.408 9.47885 11.5764Z" fill="white"/>
<path d="M14.8404 13.0978C14.3178 13.0978 13.8945 12.6887 13.8945 12.1833V11.8786C13.8945 11.374 14.3178 10.9644 14.8404 10.9644C15.3631 10.9644 15.7868 11.374 15.7868 11.8786V12.1833C15.7868 12.6887 15.362 13.0978 14.8404 13.0978Z" fill="#4E3F3F"/>
<path d="M14.8398 10.9644V12.0311C14.854 12.2869 15.0616 12.4872 15.3131 12.4872C15.5645 12.4872 15.7722 12.2869 15.7862 12.0311V11.8807C15.7862 11.3719 15.3614 10.9644 14.8398 10.9644Z" fill="#5D5360"/>
<path d="M15.1548 11.5764C15.1548 11.7445 15.0135 11.8811 14.8391 11.8811C14.6647 11.8811 14.5234 11.7445 14.5234 11.5764C14.5234 11.408 14.6647 11.2715 14.8391 11.2715C15.0135 11.2715 15.1548 11.408 15.1548 11.5764Z" fill="white"/>
<path opacity="0.35" d="M12.0877 2.23268C11.876 2.21157 11.4123 2.55092 10.8586 3.13986C10.7206 3.28665 10.576 3.44952 10.4285 3.62603C9.34107 4.92925 8.08004 6.97788 7.64804 9.0826C6.92314 12.6164 6.6287 16.7168 7.90798 18.991C8.99205 20.9179 10.8139 21.9277 10.8139 21.9277C10.1087 21.8429 9.41507 21.6768 8.74625 21.433C5.89639 20.395 3.90866 18.0297 3.90866 15.2822C3.90866 14.8859 3.95042 14.4909 4.03361 14.1037C4.03895 14.0771 4.04486 14.0507 4.05077 14.0246C3.59062 13.8818 3.11282 13.561 2.65838 12.9754C1.54504 11.5369 1.91561 9.228 3.28984 8.68471C3.91557 8.4375 4.418 8.55183 4.77977 8.75002L4.82664 8.77637C4.91597 8.50929 5.01869 8.2466 5.1344 7.99005C5.21886 7.80207 5.31005 7.61698 5.4081 7.43421C6.40854 5.56887 8.09002 4.01967 10.0201 3.36494C10.1105 3.18033 10.6892 2.1032 11.8517 2.00709C11.9114 2.00212 11.9723 1.99953 12.0348 2.00007L12.0877 2.23268Z" fill="#4E3F3F"/>
</svg>
