<svg width="14" height="16" viewBox="0 0 21 24" fill="none" xmlns="http://www.w3.org/2000/svg"><path d="M10.342 24l-1.624-1.282c-1.63-1.288-3.263-2.57-4.886-3.866-1.363-1.087-2.156-2.491-2.38-4.213C1.225 12.883.99 11.127.76 9.37.584 8.025.414 6.68.24 5.334.164 4.753.086 4.171.004 3.59c-.018-.123.023-.167.145-.182a25.164 25.164 0 004.52-.997c1.93-.605 3.786-1.379 5.545-2.37.096-.055.164-.054.26 0a28.967 28.967 0 008.67 3.152c.461.088.929.15 1.395.214.13.019.163.064.145.194-.16 1.18-.312 2.36-.466 3.54l-.514 3.954c-.154 1.18-.304 2.36-.462 3.541-.224 1.683-.979 3.09-2.315 4.16-2.143 1.718-4.307 3.41-6.462 5.114l-.123.09zM1.135 4.07l.662 4.867.64 4.74c.198 1.499.909 2.708 2.11 3.632 1.872 1.44 3.754 2.868 5.627 4.307.127.097.204.11.337.007 1.877-1.443 3.764-2.874 5.64-4.318 1.15-.886 1.865-2.039 2.078-3.472.172-1.16.318-2.325.476-3.488l.83-6.105a1.132 1.132 0 000-.161c-.69-.123-1.373-.224-2.046-.368a26.289 26.289 0 01-7.024-2.574c-.1-.054-.168-.038-.259.01a26.489 26.489 0 01-7.52 2.668c-.51.1-1.026.17-1.551.256z" fill="currentColor"/><path d="M14.372 4.5h1.59c.474.002.799.32.799.787v3.14c0 .461-.318.778-.784.78-1.001.003-2.002 0-3.003 0-.503 0-.782.279-.781.777v1.818c0 .42.284.71.71.718.298.006.596-.002.894.002.492.005.802.311.806.798.003.317.003.635-.003.953-.008.465-.301.76-.77.771-.334.008-.668.008-1.002 0-.477-.01-.772-.31-.779-.784-.004-.288.003-.576 0-.864-.005-.45-.291-.744-.746-.748a83.5 83.5 0 00-1.912 0c-.457.005-.744.299-.745.747 0 .294.003.588 0 .882-.004.432-.291.745-.725.765-.37.016-.74.016-1.108 0-.434-.019-.717-.33-.72-.765a58.345 58.345 0 010-.97c0-.46.312-.774.78-.783.292-.005.584 0 .876 0 .475-.004.749-.28.749-.751V9.938c0-.437-.292-.728-.739-.729H4.792c-.562 0-.86-.294-.86-.847V5.327c0-.514.312-.825.831-.825h3.11c.534 0 .84.304.84.835v2.876c0 .53.277.804.811.804h1.68c.49 0 .779-.282.78-.765.002-.953.002-1.906 0-2.859 0-.602.287-.891.89-.891h1.502l-.004-.001zM6.304 8.07h.749c.343-.003.587-.237.59-.574.004-.499.004-.997 0-1.496a.56.56 0 00-.578-.568 64.004 64.004 0 00-1.515 0 .566.566 0 00-.584.581c-.004.493-.004.987 0 1.48.003.336.248.575.586.578l.752-.001zm8.028 0h.733c.357-.003.606-.226.613-.574.009-.5.009-1 0-1.5-.006-.332-.25-.563-.584-.565a72.297 72.297 0 00-1.52 0c-.326.004-.569.235-.572.555-.007.512-.007 1.023.002 1.535.006.318.253.546.578.55l.75-.001zM9.614 10.87h.002c0 .142-.004.283 0 .424.008.2.135.336.335.342.292.01.584.009.876 0 .2-.004.336-.136.344-.332.01-.282.01-.565.003-.847-.006-.206-.146-.339-.355-.343a18.425 18.425 0 00-.858 0c-.208.005-.34.144-.346.35-.005.136 0 .271 0 .406z" fill="currentColor"/></svg>