<svg width="48" height="48" fill="none" xmlns="http://www.w3.org/2000/svg"><circle cx="24" cy="24" r="24" fill="#F3BA2F"/><path d="M18.064 21.556l5.93-5.93 5.932 5.933 3.45-3.45-9.382-9.382-9.38 9.379 3.45 3.45zm-9.336 2.437l3.45-3.451 3.45 3.45-3.45 3.45-3.45-3.45zm9.336 2.436l5.93 5.93 5.932-5.933 3.452 3.449-.002.001-9.382 9.382-9.38-9.379-.005-.005 3.455-3.445zm14.295-2.435l3.45-3.45 3.45 3.45-3.45 3.45-3.45-3.45z" fill="#fff"/><path d="M27.492 23.991h.002l-3.501-3.5-2.587 2.586-.298.297-.613.614-.005.004.005.005 3.498 3.499 3.5-3.501.003-.002-.004-.002" fill="#fff"/></svg>