<svg width="34" height="32" viewBox="0 0 32 34" fill="none"><path d="M18.016.532L29.05 6.24a4.818 4.818 0 012.605 4.299v2.603h-4.069v-2.603a.73.73 0 00-.394-.65L16.158 4.182a.721.721 0 00-.661 0L4.463 9.889a.73.73 0 00-.394.65v2.603H0v-2.603c0-1.82.998-3.468 2.604-4.3L13.64.533a4.766 4.766 0 014.377 0zm1.293 16.294c0-1.936-1.562-3.51-3.483-3.51-1.92 0-3.482 1.574-3.482 3.51 0 1.936 1.562 3.511 3.482 3.511 1.92 0 3.483-1.575 3.483-3.51zm7.884 7.284a.729.729 0 00.393-.65v-2.602h4.069v2.603c0 1.82-.998 3.467-2.604 4.299l-11.035 5.707a4.786 4.786 0 01-2.188.532 4.787 4.787 0 01-2.189-.532L2.605 27.76A4.817 4.817 0 010 23.46v-2.602h4.069v2.603c0 .275.151.524.394.65l9.33 4.826v-4.782a7.616 7.616 0 01-5.517-7.33c0-4.197 3.388-7.612 7.552-7.612 4.163 0 7.551 3.415 7.551 7.612a7.616 7.616 0 01-5.517 7.33v4.782l9.33-4.827z" fill="currentColor"/></svg>