<svg width="22" height="22" fill="none" xmlns="http://www.w3.org/2000/svg"><path d="M18.927 2.45l-6.87 5.104 1.27-3.01 5.6-2.093z" fill="#E2761B" stroke="#E2761B" stroke-width=".052" stroke-linecap="round" stroke-linejoin="round"/><path d="M3.066 2.45L9.88 7.603 8.673 4.543 3.066 2.451zM16.455 14.28l-1.83 2.803 3.915 1.078 1.126-3.82-3.211-.061zM2.34 14.342l1.12 3.818 3.915-1.077-1.83-2.803-3.204.062z" fill="#E4761B" stroke="#E4761B" stroke-width=".052" stroke-linecap="round" stroke-linejoin="round"/><path d="M7.154 9.543l-1.091 1.65 3.888.173-.138-4.178-2.659 2.355zM14.84 9.545l-2.694-2.403-.09 4.226 3.881-.173-1.098-1.65zM7.375 17.081l2.333-1.139-2.016-1.574-.317 2.713zM12.285 15.942l2.34 1.14-.324-2.714-2.016 1.574z" fill="#E4761B" stroke="#E4761B" stroke-width=".052" stroke-linecap="round" stroke-linejoin="round"/><path d="M14.625 17.082l-2.34-1.139.186 1.526-.021.642 2.175-1.029zM7.375 17.082l2.175 1.03-.014-.643.172-1.526-2.333 1.14z" fill="#D7C1B3" stroke="#D7C1B3" stroke-width=".052" stroke-linecap="round" stroke-linejoin="round"/><path d="M9.584 13.362l-1.947-.573 1.374-.629.573 1.202zM12.408 13.362l.573-1.202 1.381.629-1.954.573z" fill="#233447" stroke="#233447" stroke-width=".052" stroke-linecap="round" stroke-linejoin="round"/><path d="M7.374 17.084l.332-2.804-2.162.062 1.83 2.742zM14.293 14.28l.332 2.804 1.83-2.742-2.161-.062zM15.937 11.193l-3.88.173.358 1.996.573-1.202 1.381.629 1.568-1.596zM7.637 12.789l1.38-.629.567 1.202.366-1.996-3.887-.173 1.574 1.596z" fill="#CD6116" stroke="#CD6116" stroke-width=".052" stroke-linecap="round" stroke-linejoin="round"/><path d="M6.063 11.193l1.63 3.177-.056-1.581-1.574-1.596zM14.37 12.789l-.07 1.58 1.637-3.176-1.567 1.596zM9.95 11.365l-.365 1.996.456 2.354.103-3.1-.193-1.25zM12.057 11.365l-.186 1.243.082 3.107.463-2.354-.359-1.996z" fill="#E4751F" stroke="#E4751F" stroke-width=".052" stroke-linecap="round" stroke-linejoin="round"/><path d="M12.416 13.36l-.463 2.355.332.228 2.016-1.575.069-1.581-1.954.573zM7.637 12.787l.055 1.581 2.017 1.575.331-.228-.456-2.355-1.947-.573z" fill="#F6851B" stroke="#F6851B" stroke-width=".052" stroke-linecap="round" stroke-linejoin="round"/><path d="M12.45 18.113l.02-.643-.172-.151H9.695l-.16.151.015.643-2.175-1.03.76.622 1.539 1.07h2.645l1.546-1.07.76-.621-2.175 1.029z" fill="#C0AD9E" stroke="#C0AD9E" stroke-width=".052" stroke-linecap="round" stroke-linejoin="round"/><path d="M12.284 15.944l-.331-.228H10.04l-.331.228-.173 1.526.159-.152h2.603l.173.152-.187-1.526z" fill="#161616" stroke="#161616" stroke-width=".052" stroke-linecap="round" stroke-linejoin="round"/><path d="M19.218 7.885l.587-2.817-.877-2.617-6.643 4.93 2.555 2.162 3.611 1.056.802-.932-.346-.249.553-.504-.428-.331.552-.421-.366-.277zM2.196 5.068l.587 2.817-.373.276.553.422-.421.331.552.504-.345.249.794.932 3.611-1.057L9.71 7.381l-6.643-4.93-.87 2.617z" fill="#763D16" stroke="#763D16" stroke-width=".052" stroke-linecap="round" stroke-linejoin="round"/><path d="M18.45 10.6l-3.61-1.057 1.097 1.65-1.636 3.177 2.154-.028h3.211l-1.215-3.743zM7.154 9.543l-3.612 1.056-1.201 3.743h3.204l2.147.027-1.63-3.176 1.092-1.65zM12.057 11.366l.228-3.984 1.05-2.838H8.672L9.71 7.382l.242 3.984.083 1.257.007 3.094h1.912l.014-3.094.09-1.257z" fill="#F6851B" stroke="#F6851B" stroke-width=".052" stroke-linecap="round" stroke-linejoin="round"/></svg>