<svg width="49" height="49" viewBox="0 0 49 49" fill="none" xmlns="http://www.w3.org/2000/svg">
  <rect x="0.75" y="0.445312" width="48" height="48" rx="24" fill="#FCF2E2" />
  <path d="M23.7654 15.9937C24.203 15.2625 25.297 15.2625 25.7346 15.9937L34.596 30.8002C35.0336 31.5313 34.4866 32.4453 33.6114 32.4453H15.8886C15.0134 32.4453 14.4664 31.5313 14.904 30.8002L23.7654 15.9937Z" stroke="#EEA941" stroke-width="1.8" stroke-linecap="square" stroke-linejoin="round" />
  <circle cx="24.7507" cy="28.9207" r="1.19995" fill="#EEA941" />
  <path d="M23.5974 20.7741C23.5828 20.5992 23.7208 20.4492 23.8964 20.4492H25.6242C25.7997 20.4492 25.9378 20.5992 25.9232 20.7741L25.4732 26.1741C25.4602 26.3296 25.3303 26.4492 25.1742 26.4492H24.3464C24.1903 26.4492 24.0603 26.3296 24.0474 26.1741L23.5974 20.7741Z" fill="#EEA941" />
</svg>
