<svg width="24" height="24" viewBox="0 0 24 24" fill="none" xmlns="http://www.w3.org/2000/svg">
<path d="M10.4413 0.418094C11.406 -0.139364 12.5944 -0.139365 13.559 0.418094L21.2413 4.85775C22.206 5.41521 22.8002 6.44543 22.8002 7.56035V16.4397C22.8002 17.5546 22.206 18.5848 21.2413 19.1423L13.559 23.5819C12.5944 24.1394 11.406 24.1394 10.4413 23.5819L2.75904 19.1423C1.79442 18.5848 1.2002 17.5546 1.2002 16.4397V7.56035C1.2002 6.44543 1.79442 5.41521 2.75904 4.85775L10.4413 0.418094Z" fill="#006DFF"/>
<path opacity="0.6" d="M11.9972 14.6255L15.9416 12.2413L11.9972 10.4106L8.05762 12.2413L11.9972 14.6255Z" fill="white"/>
<path opacity="0.45" d="M11.9972 10.4105V5.5498L8.05762 12.2412L11.9972 14.6254V10.4105Z" fill="white"/>
<path opacity="0.8" d="M11.9971 14.6254L15.9415 12.2412L11.9971 5.5498V10.4105V14.6254Z" fill="white"/>
<path opacity="0.45" d="M11.9972 15.3877L8.05762 13.0083L11.9972 18.6897V15.3877Z" fill="white"/>
<path opacity="0.8" d="M15.9415 13.0088L11.9971 15.3882V18.6901L15.9415 13.0088Z" fill="white"/>
</svg>
