<svg width="24" height="24" viewBox="0 0 24 24" fill="none" xmlns="http://www.w3.org/2000/svg">
<path d="M7.757 11.7664C7.32574 11.4214 6.69645 11.4913 6.35144 11.9225C6.00643 12.3538 6.07635 12.9831 6.50761 13.3281L7.757 11.7664ZM11.0415 15.6746L10.4168 16.4555C10.6386 16.6329 10.9253 16.7076 11.2054 16.6611C11.4856 16.6145 11.7327 16.4511 11.8852 16.2115L11.0415 15.6746ZM17.3581 7.61122C17.6546 7.14528 17.5172 6.52719 17.0513 6.23068C16.5854 5.93417 15.9673 6.07153 15.6708 6.53747L17.3581 7.61122ZM6.50761 13.3281L10.4168 16.4555L11.6662 14.8937L7.757 11.7664L6.50761 13.3281ZM11.8852 16.2115L17.3581 7.61122L15.6708 6.53747L10.1979 15.1377L11.8852 16.2115Z" fill="#356DF3"/>
</svg>
