<svg width="24" height="24" viewBox="0 0 24 24" fill="none" xmlns="http://www.w3.org/2000/svg">
<path fill-rule="evenodd" clip-rule="evenodd" d="M7.50553 12C9.98826 11.997 12 9.98342 12 7.49999C12 5.01471 9.98527 3 7.49999 3C5.01471 3 3 5.01471 3 7.49999C3 9.98342 5.01172 11.997 7.49445 12C5.01172 12.003 3 14.0165 3 16.5C3 18.9852 5.01471 21 7.49999 21C9.98527 21 12 18.9852 12 16.5C12 14.0165 9.98826 12.003 7.50553 12ZM12 7.49999C12 9.98527 14.0147 12 16.5 12C14.0147 12 12 14.0147 12 16.5C12 18.9852 14.0147 21 16.5 21C18.9853 21 21 18.9852 21 16.5C21 14.0158 18.9871 12.0018 16.5034 12C18.9871 11.9981 21 9.98413 21 7.49999C21 5.01471 18.9853 3 16.5 3C14.0147 3 12 5.01471 12 7.49999Z" fill="#68E19B"/>
</svg>
