<svg width="24" height="24" viewBox="0 0 24 24" fill="none" xmlns="http://www.w3.org/2000/svg">
<path fill-rule="evenodd" clip-rule="evenodd" d="M3 9.49749C3 7.19919 3 6.05004 3.45437 5.17535C3.83726 4.43825 4.43825 3.83726 5.17535 3.45437C6.05004 3 7.19919 3 9.49749 3H14.5008C16.7991 3 17.9483 3 18.823 3.45437C19.5601 3.83726 20.1611 4.43825 20.544 5.17535C20.9983 6.05004 20.9983 7.19919 20.9983 9.49749V14.5008C20.9983 16.7991 20.9983 17.9483 20.544 18.823C20.1611 19.5601 19.5601 20.1611 18.823 20.544C17.9483 20.9983 16.7991 20.9983 14.5008 20.9983H9.49749C7.19919 20.9983 6.05004 20.9983 5.17535 20.544C4.43825 20.1611 3.83726 19.5601 3.45437 18.823C3 17.9483 3 16.7991 3 14.5008V9.49749Z" fill="white"/>
<path d="M10.4239 9.95811C10.1678 9.95811 9.96007 10.1658 9.96007 10.422V13.5763C9.96007 13.8325 10.1678 14.0402 10.4239 14.0402H13.5783C13.8345 14.0402 14.0422 13.8325 14.0422 13.5763V10.422C14.0422 10.1658 13.8345 9.95811 13.5783 9.95811H10.4239Z" fill="#2560F6"/>
<path fill-rule="evenodd" clip-rule="evenodd" d="M3.00195 9.49749C3.00195 7.19919 3.00195 6.05004 3.45632 5.17535C3.83921 4.43825 4.44021 3.83726 5.1773 3.45437C6.05199 3 7.20114 3 9.49944 3H14.5028C16.8011 3 17.9502 3 18.8249 3.45437C19.562 3.83726 20.163 4.43825 20.5459 5.17535C21.0003 6.05004 21.0003 7.19919 21.0003 9.49749V14.5008C21.0003 16.7991 21.0003 17.9483 20.5459 18.823C20.163 19.5601 19.562 20.1611 18.8249 20.544C17.9502 20.9983 16.8011 20.9983 14.5028 20.9983H9.49944C7.20114 20.9983 6.05199 20.9983 5.1773 20.544C4.44021 20.1611 3.83921 19.5601 3.45632 18.823C3.00195 17.9483 3.00195 16.7991 3.00195 14.5008V9.49749ZM18.3098 11.9992C18.3098 15.4834 15.4853 18.3079 12.0011 18.3079C8.51692 18.3079 5.69242 15.4834 5.69242 11.9992C5.69242 8.51497 8.51692 5.69047 12.0011 5.69047C15.4853 5.69047 18.3098 8.51497 18.3098 11.9992Z" fill="#2560F6"/>
</svg>
