<svg width="24" height="24" viewBox="0 0 24 24" fill="none" xmlns="http://www.w3.org/2000/svg">
<circle cx="12" cy="12" r="12" fill="#356DF3"/>
<path d="M7.757 12.5462C7.32574 12.2011 6.69645 12.2711 6.35144 12.7023C6.00643 13.1336 6.07635 13.7629 6.50761 14.1079L7.757 12.5462ZM11.0415 16.4544L10.4168 17.2353C10.6386 17.4127 10.9253 17.4874 11.2054 17.4409C11.4856 17.3943 11.7327 17.2309 11.8852 16.9913L11.0415 16.4544ZM17.3581 8.391C17.6546 7.92506 17.5172 7.30697 17.0513 7.01047C16.5854 6.71396 15.9673 6.85131 15.6708 7.31725L17.3581 8.391ZM6.50761 14.1079L10.4168 17.2353L11.6662 15.6735L7.757 12.5462L6.50761 14.1079ZM11.8852 16.9913L17.3581 8.391L15.6708 7.31725L10.1979 15.9175L11.8852 16.9913Z" fill="white"/>
</svg>
