<svg width="24" height="24" viewBox="0 0 24 24" fill="none" xmlns="http://www.w3.org/2000/svg">
<path fill-rule="evenodd" clip-rule="evenodd" d="M6.5 4C6.5 5.38071 5.38071 6.5 4 6.5C2.61929 6.5 1.5 5.38071 1.5 4C1.5 2.61929 2.61929 1.5 4 1.5C5.38071 1.5 6.5 2.61929 6.5 4ZM6.5 12C6.5 13.3807 5.38071 14.5 4 14.5C2.61929 14.5 1.5 13.3807 1.5 12C1.5 10.6193 2.61929 9.5 4 9.5C5.38071 9.5 6.5 10.6193 6.5 12ZM4 22.5C5.38071 22.5 6.5 21.3807 6.5 20C6.5 18.6193 5.38071 17.5 4 17.5C2.61929 17.5 1.5 18.6193 1.5 20C1.5 21.3807 2.61929 22.5 4 22.5ZM14.5 4C14.5 5.38071 13.3807 6.5 12 6.5C10.6193 6.5 9.5 5.38071 9.5 4C9.5 2.61929 10.6193 1.5 12 1.5C13.3807 1.5 14.5 2.61929 14.5 4ZM12 14.5C13.3807 14.5 14.5 13.3807 14.5 12C14.5 10.6193 13.3807 9.5 12 9.5C10.6193 9.5 9.5 10.6193 9.5 12C9.5 13.3807 10.6193 14.5 12 14.5ZM14.5 20C14.5 21.3807 13.3807 22.5 12 22.5C10.6193 22.5 9.5 21.3807 9.5 20C9.5 18.6193 10.6193 17.5 12 17.5C13.3807 17.5 14.5 18.6193 14.5 20ZM20 6.5C21.3807 6.5 22.5 5.38071 22.5 4C22.5 2.61929 21.3807 1.5 20 1.5C18.6193 1.5 17.5 2.61929 17.5 4C17.5 5.38071 18.6193 6.5 20 6.5ZM22.5 12C22.5 13.3807 21.3807 14.5 20 14.5C18.6193 14.5 17.5 13.3807 17.5 12C17.5 10.6193 18.6193 9.5 20 9.5C21.3807 9.5 22.5 10.6193 22.5 12ZM20 22.5C21.3807 22.5 22.5 21.3807 22.5 20C22.5 18.6193 21.3807 17.5 20 17.5C18.6193 17.5 17.5 18.6193 17.5 20C17.5 21.3807 18.6193 22.5 20 22.5Z" fill="#1F2226"/>
</svg>
