<svg width="24" height="24" viewBox="0 0 24 24" fill="none" xmlns="http://www.w3.org/2000/svg">
<path d="M20.1024 3.75049L13.0791 8.96686L14.3778 5.88927L20.1024 3.75049Z" fill="#E2761B" stroke="#E2761B" stroke-width="0.0517891" stroke-linecap="round" stroke-linejoin="round"/>
<path d="M3.88867 3.75049L10.8556 9.01626L9.62032 5.88927L3.88867 3.75049Z" fill="#E4761B" stroke="#E4761B" stroke-width="0.0517891" stroke-linecap="round" stroke-linejoin="round"/>
<path d="M17.5757 15.8423L15.7051 18.7081L19.7074 19.8092L20.8579 15.9058L17.5757 15.8423Z" fill="#E4761B" stroke="#E4761B" stroke-width="0.0517891" stroke-linecap="round" stroke-linejoin="round"/>
<path d="M3.14746 15.9058L4.29096 19.8092L8.29324 18.7081L6.42269 15.8423L3.14746 15.9058Z" fill="#E4761B" stroke="#E4761B" stroke-width="0.0517891" stroke-linecap="round" stroke-linejoin="round"/>
<path d="M8.06839 10.9998L6.95312 12.6869L10.9272 12.8633L10.786 8.59277L8.06839 10.9998Z" fill="#E4761B" stroke="#E4761B" stroke-width="0.0517891" stroke-linecap="round" stroke-linejoin="round"/>
<path d="M15.9238 11.0018L13.1709 8.54541L13.0791 12.8653L17.0462 12.6889L15.9238 11.0018Z" fill="#E4761B" stroke="#E4761B" stroke-width="0.0517891" stroke-linecap="round" stroke-linejoin="round"/>
<path d="M8.29297 18.7061L10.6788 17.5415L8.61767 15.9321L8.29297 18.7061Z" fill="#E4761B" stroke="#E4761B" stroke-width="0.0517891" stroke-linecap="round" stroke-linejoin="round"/>
<path d="M13.3125 17.5415L15.7053 18.7061L15.3736 15.9321L13.3125 17.5415Z" fill="#E4761B" stroke="#E4761B" stroke-width="0.0517891" stroke-linecap="round" stroke-linejoin="round"/>
<path d="M15.7053 18.7072L13.3125 17.5425L13.503 19.1025L13.4819 19.7589L15.7053 18.7072Z" fill="#D7C1B3" stroke="#D7C1B3" stroke-width="0.0517891" stroke-linecap="round" stroke-linejoin="round"/>
<path d="M8.29297 18.7066L10.5165 19.7584L10.5023 19.1019L10.6788 17.542L8.29297 18.7066Z" fill="#D7C1B3" stroke="#D7C1B3" stroke-width="0.0517891" stroke-linecap="round" stroke-linejoin="round"/>
<path d="M10.5521 14.9035L8.56152 14.3176L9.96619 13.6753L10.5521 14.9035Z" fill="#233447" stroke="#233447" stroke-width="0.0517891" stroke-linecap="round" stroke-linejoin="round"/>
<path d="M13.4385 14.9035L14.0243 13.6753L15.4361 14.3176L13.4385 14.9035Z" fill="#233447" stroke="#233447" stroke-width="0.0517891" stroke-linecap="round" stroke-linejoin="round"/>
<path d="M8.2934 18.7081L8.63222 15.8423L6.42285 15.9059L8.2934 18.7081Z" fill="#CD6116" stroke="#CD6116" stroke-width="0.0517891" stroke-linecap="round" stroke-linejoin="round"/>
<path d="M15.3662 15.8423L15.705 18.7081L17.5755 15.9059L15.3662 15.8423Z" fill="#CD6116" stroke="#CD6116" stroke-width="0.0517891" stroke-linecap="round" stroke-linejoin="round"/>
<path d="M17.0461 12.687L13.0791 12.8634L13.4461 14.9034L14.032 13.6752L15.4437 14.3176L17.0461 12.687Z" fill="#CD6116" stroke="#CD6116" stroke-width="0.0517891" stroke-linecap="round" stroke-linejoin="round"/>
<path d="M8.56153 14.3176L9.97327 13.6752L10.5521 14.9034L10.9262 12.8634L6.95215 12.687L8.56153 14.3176Z" fill="#CD6116" stroke="#CD6116" stroke-width="0.0517891" stroke-linecap="round" stroke-linejoin="round"/>
<path d="M6.95312 12.687L8.61898 15.934L8.56251 14.3176L6.95312 12.687Z" fill="#E4751F" stroke="#E4751F" stroke-width="0.0517891" stroke-linecap="round" stroke-linejoin="round"/>
<path d="M15.4436 14.3176L15.373 15.934L17.0459 12.687L15.4436 14.3176Z" fill="#E4751F" stroke="#E4751F" stroke-width="0.0517891" stroke-linecap="round" stroke-linejoin="round"/>
<path d="M10.9268 12.8628L10.5527 14.9027L11.0186 17.3098L11.1245 14.1405L10.9268 12.8628Z" fill="#E4751F" stroke="#E4751F" stroke-width="0.0517891" stroke-linecap="round" stroke-linejoin="round"/>
<path d="M13.0802 12.8628L12.8896 14.1334L12.9744 17.3098L13.4473 14.9027L13.0802 12.8628Z" fill="#E4751F" stroke="#E4751F" stroke-width="0.0517891" stroke-linecap="round" stroke-linejoin="round"/>
<path d="M13.4466 14.9018L12.9736 17.3088L13.3125 17.5417L15.3736 15.9324L15.4441 14.3159L13.4466 14.9018Z" fill="#F6851B" stroke="#F6851B" stroke-width="0.0517891" stroke-linecap="round" stroke-linejoin="round"/>
<path d="M8.56152 14.3159L8.61799 15.9324L10.6791 17.5417L11.0179 17.3088L10.5521 14.9018L8.56152 14.3159Z" fill="#F6851B" stroke="#F6851B" stroke-width="0.0517891" stroke-linecap="round" stroke-linejoin="round"/>
<path d="M13.4811 19.7603L13.5023 19.1038L13.3258 18.9485H10.6647L10.5023 19.1038L10.5165 19.7603L8.29297 18.7085L9.06943 19.3438L10.6435 20.4379H13.3469L14.9281 19.3438L15.7046 18.7085L13.4811 19.7603Z" fill="#C0AD9E" stroke="#C0AD9E" stroke-width="0.0517891" stroke-linecap="round" stroke-linejoin="round"/>
<path d="M13.3123 17.543L12.9735 17.3101H11.0182L10.6794 17.543L10.5029 19.1029L10.6653 18.9477H13.3264L13.5028 19.1029L13.3123 17.543Z" fill="#161616" stroke="#161616" stroke-width="0.0517891" stroke-linecap="round" stroke-linejoin="round"/>
<path d="M20.4004 9.30567L21.0003 6.42573L20.1039 3.75049L13.3135 8.79039L15.9252 10.9998L19.6168 12.0798L20.4356 11.1268L20.0828 10.8727L20.6474 10.3574L20.2097 10.0186L20.7745 9.58802L20.4004 9.30567Z" fill="#763D16" stroke="#763D16" stroke-width="0.0517891" stroke-linecap="round" stroke-linejoin="round"/>
<path d="M3 6.42525L3.59999 9.30519L3.21882 9.58753L3.78352 10.0181L3.35293 10.3569L3.91763 10.8722L3.5647 11.1263L4.37644 12.0792L8.06814 10.9993L10.6799 8.7899L3.8894 3.75L3 6.42525Z" fill="#763D16" stroke="#763D16" stroke-width="0.0517891" stroke-linecap="round" stroke-linejoin="round"/>
<path d="M19.6153 12.0795L15.9236 10.9995L17.0459 12.6866L15.373 15.9336L17.5753 15.9053H20.8576L19.6153 12.0795Z" fill="#F6851B" stroke="#F6851B" stroke-width="0.0517891" stroke-linecap="round" stroke-linejoin="round"/>
<path d="M8.06736 10.9995L4.37568 12.0795L3.14746 15.9053H6.42269L8.61795 15.9336L6.95209 12.6866L8.06736 10.9995Z" fill="#F6851B" stroke="#F6851B" stroke-width="0.0517891" stroke-linecap="round" stroke-linejoin="round"/>
<path d="M13.0799 12.8636L13.3128 8.79077L14.3858 5.88965H9.62109L10.6799 8.79077L10.9269 12.8636L11.0117 14.1483L11.0187 17.3106H12.974L12.9881 14.1483L13.0799 12.8636Z" fill="#F6851B" stroke="#F6851B" stroke-width="0.0517891" stroke-linecap="round" stroke-linejoin="round"/>
</svg>
