<svg width="24" height="24" viewBox="0 0 24 24" fill="none" xmlns="http://www.w3.org/2000/svg">
<path d="M7.91886 21.1802C9.60857 21.1917 11.2838 20.8709 12.8471 20.2367C14.4105 19.6025 15.8308 18.6674 17.0256 17.4856C18.2205 16.3039 19.166 14.8992 19.8073 13.3531C20.4486 11.8069 20.7728 10.1501 20.7612 8.47895C20.7612 8.28553 20.7574 8.09313 20.7485 7.90178C21.6318 7.26963 22.3943 6.48691 23 5.59026C22.1765 5.95154 21.3027 6.18847 20.4081 6.29313C21.3505 5.73525 22.0558 4.85763 22.3927 3.82371C21.5068 4.34359 20.5375 4.71014 19.5269 4.90754C18.8465 4.19175 17.9464 3.71772 16.966 3.55883C15.9858 3.39993 14.9799 3.56503 14.104 4.02857C13.2281 4.49211 12.5311 5.22825 12.1209 6.12305C11.7107 7.01785 11.6102 8.02142 11.8348 8.97845C10.0401 8.88973 8.28435 8.42864 6.68155 7.62514C5.07875 6.82163 3.66477 5.69368 2.53144 4.31453C1.95403 5.29723 1.77709 6.46064 2.03667 7.56783C2.29624 8.67503 2.97279 9.64273 3.92854 10.2738C3.21177 10.2523 2.51071 10.0608 1.88429 9.71562C1.88326 9.73427 1.88326 9.75293 1.88326 9.77259C1.88347 10.8033 2.2442 11.8022 2.90421 12.5998C3.56422 13.3974 4.48291 13.9447 5.50442 14.1488C4.83984 14.3281 4.14253 14.3543 3.4661 14.2254C3.75441 15.1125 4.31585 15.8882 5.0719 16.4442C5.82794 17 6.74079 17.3084 7.68274 17.3259C6.08386 18.5671 4.10931 19.2402 2.07676 19.2371C1.71692 19.2372 1.35738 19.2165 1 19.1749C3.06389 20.4863 5.46578 21.1824 7.91886 21.1802Z" fill="#479AE9"/>
</svg>
