<svg width="48" height="48" viewBox="0 0 48 48" fill="none" xmlns="http://www.w3.org/2000/svg">
<path d="M24 48C37.2548 48 48 37.2548 48 24C48 10.7452 37.2548 0 24 0C10.7452 0 0 10.7452 0 24C0 37.2548 10.7452 48 24 48Z" fill="#E7EBF3"/>
<path d="M36.3419 27.7327C36.6852 26.6029 36.8721 25.4054 36.8721 24.1652C36.8721 24.0275 36.867 23.8922 36.8619 23.7543C31.9363 20.9035 28.2222 14.7955 26.6674 11.897C25.8273 11.7267 24.9565 11.6389 24.0651 11.6389C23.1737 11.6389 22.3617 11.7242 21.5472 11.8819C20.8531 13.1646 19.7338 15.0812 18.2635 17.0678C16.5678 19.3601 14.137 22.1009 11.2683 23.7645C11.2632 23.8972 11.2581 24.03 11.2581 24.1652C11.2581 25.4079 11.445 26.6079 11.7908 27.7403C13.9193 26.7607 15.8507 25.3102 17.5488 23.6742C16.3373 26.4776 14.9874 29.1983 13.5812 31.3553C14.3394 32.4125 15.2615 33.3496 16.3092 34.1312C17.8459 31.9315 19.3982 29.038 20.9555 25.463C20.4049 29.1408 19.6056 32.36 18.453 35.4289C19.5955 35.975 20.8351 36.3584 22.1388 36.5512C22.9636 34.4919 23.6143 32.4451 24.1265 29.782C24.6413 32.4352 25.2946 34.477 26.1194 36.5288C27.418 36.3232 28.65 35.9275 29.7846 35.3713C28.6705 32.4125 27.8868 29.311 27.3335 25.741C28.8447 29.1783 30.3534 31.9717 31.8441 34.1112C32.8917 33.327 33.8112 32.385 34.5669 31.3253C33.1709 29.1758 31.8313 26.4751 30.6274 23.6917C32.3129 25.3177 34.2262 26.7582 36.3394 27.7327H36.3419Z" fill="#171717"/>
<path fill-rule="evenodd" clip-rule="evenodd" d="M24.0007 7.93955C15.1305 7.93955 7.93979 15.1303 7.93979 24.0005C7.93979 32.8707 15.1305 40.0614 24.0007 40.0614C32.8709 40.0614 40.0617 32.8707 40.0617 24.0005C40.0617 15.1303 32.8709 7.93955 24.0007 7.93955ZM4.00073 24.0005C4.00073 12.9548 12.955 4.00049 24.0007 4.00049C35.0464 4.00049 44.0007 12.9548 44.0007 24.0005C44.0007 35.0462 35.0464 44.0005 24.0007 44.0005C12.955 44.0005 4.00073 35.0462 4.00073 24.0005Z" fill="#171717"/>
</svg>
