<svg width="48" height="48" viewBox="0 0 48 48" fill="none" xmlns="http://www.w3.org/2000/svg">
  <circle cx="24" cy="24" r="24" fill="white"/>
  <path d="M0.0895386 22.0298C0.256441 19.9757 0.682014 17.9946 1.33364 16.1194L24.6738 16.1194C25.1647 16.1194 25.6341 15.9179 25.9723 15.5619L28.0016 13.4257C28.4606 12.9426 29.2307 12.9426 29.6897 13.4257L31.719 15.5619C32.0572 15.9179 32.5266 16.1194 33.0176 16.1194H46.686C47.3377 17.9946 47.7632 19.9757 47.9301 22.0298H30.1488C29.6589 22.029 29.1908 21.8276 28.8534 21.4724L26.824 19.3362C26.365 18.8531 25.5949 18.8531 25.136 19.3362L23.1066 21.4724C22.7692 21.8276 22.301 22.029 21.8112 22.0298H0.0895386Z" fill="black"/>
  <path d="M2.41163 34.4776C1.4997 32.6012 0.82507 30.5882 0.426782 28.4776L16.1663 28.4776C16.6572 28.4776 17.1267 28.2761 17.4648 27.9201L19.4942 25.784C19.9531 25.3008 20.7232 25.3008 21.1822 25.784L23.2116 27.9201C23.5497 28.2761 24.0191 28.4776 24.5101 28.4776L47.5929 28.4776C47.1946 30.5882 46.52 32.6012 45.608 34.4776H21.6413C21.1515 34.4767 20.6833 34.2753 20.3459 33.9201L18.3165 31.784C17.8576 31.3008 17.0875 31.3008 16.6285 31.784L14.5991 33.9201C14.2617 34.2753 13.7936 34.4767 13.3038 34.4776H2.41163Z" fill="black"/>
  <path d="M41.5437 40.3881C37.1637 45.0722 30.9287 48 24.0098 48C17.091 48 10.8559 45.0722 6.47599 40.3881H6.76331C7.25425 40.3881 7.72367 40.1865 8.06181 39.8306L10.0912 37.6944C10.5502 37.2113 11.3203 37.2113 11.7792 37.6944L13.8086 39.8306C14.1467 40.1865 14.6162 40.3881 15.1071 40.3881L41.5437 40.3881Z" fill="black"/>
  <path d="M43.2652 9.67164H38.6593C38.1684 9.67164 37.699 9.47011 37.3608 9.11418L35.3315 6.978C34.8725 6.49487 34.1024 6.49487 33.6434 6.978L31.614 9.11418C31.2759 9.47011 30.8065 9.67164 30.3155 9.67164L4.75447 9.67164C9.12965 3.80157 16.1258 0 24.0098 0C31.8939 0 38.89 3.80157 43.2652 9.67164Z" fill="black"/>
</svg>
