<svg width="48" height="48" viewBox="0 0 48 48" fill="none" xmlns="http://www.w3.org/2000/svg">
<path d="M24 48C37.2548 48 48 37.2548 48 24C48 10.7452 37.2548 0 24 0C10.7452 0 0 10.7452 0 24C0 37.2548 10.7452 48 24 48Z" fill="#FE008C"/>
<path d="M30.2305 12.4606L24.6702 20.215L33.9044 21.0987C36.119 21.3107 37.0192 24.0587 35.3591 25.5399L20.798 38.5317C18.7753 40.3364 15.8693 37.7006 17.4687 35.512L23.1823 27.6928L13.8829 26.8487C11.6704 26.6479 10.755 23.9106 12.4016 22.4192L26.7877 9.38914C28.8486 7.52248 31.8508 10.2009 30.2305 12.4606Z" fill="white"/>
</svg>
