<svg width="48" height="48" viewBox="0 0 48 48" fill="none" xmlns="http://www.w3.org/2000/svg">
<path d="M24 48C37.2548 48 48 37.2548 48 24C48 10.7452 37.2548 0 24 0C10.7452 0 0 10.7452 0 24C0 37.2548 10.7452 48 24 48Z" fill="#171717"/>
<path fill-rule="evenodd" clip-rule="evenodd" d="M32.6278 29.3386V27.2289C33.9264 26.7835 34.872 25.4004 34.872 23.7634C34.872 22.1263 33.9264 20.7394 32.6278 20.2979V18.1881C33.8507 17.7701 34.7627 16.5159 34.8636 15H33.3758V15.6447C33.3758 16.1408 33.0733 16.5784 32.6278 16.7972V16.4964C32.6278 16.0549 32.2412 15.6954 31.7663 15.6954H31.6907C31.2158 15.6954 30.8291 16.0549 30.8291 16.4964V16.7972C30.3836 16.5784 30.081 16.1447 30.081 15.6447V15H28.5934C28.6943 16.5159 29.6061 17.7701 30.8291 18.1881V20.2979C29.5347 20.7394 28.585 22.1224 28.585 23.7634C28.585 25.4043 29.5305 26.7874 30.8291 27.2289V29.3386C29.6061 29.7567 28.6943 31.0108 28.5934 32.5267H30.081V31.882C30.081 31.3859 30.3836 30.9482 30.8291 30.7295V31.0304C30.8291 31.4719 31.2158 31.8313 31.6907 31.8313H31.7663C32.2412 31.8313 32.6278 31.4719 32.6278 31.0304V30.7295C33.0733 30.9482 33.3758 31.382 33.3758 31.882V32.5267H34.8636C34.7627 31.0108 33.8507 29.7567 32.6278 29.3386ZM30.081 24.6854V22.8374C30.081 22.3412 30.3836 21.9036 30.8291 21.6848V21.9857C30.8291 22.4272 31.2158 22.7866 31.6907 22.7866H31.7663C32.2412 22.7866 32.6278 22.4272 32.6278 21.9857V21.6848C33.0733 21.9036 33.3758 22.3373 33.3758 22.8374V24.6854C33.3758 25.1816 33.0733 25.6192 32.6278 25.838V25.5371C32.6278 25.0956 32.2412 24.7362 31.7663 24.7362H31.6907C31.2158 24.7362 30.8291 25.0956 30.8291 25.5371V25.838C30.3878 25.6192 30.081 25.1855 30.081 24.6854ZM41.7557 24.8847V22.6382C43.0544 22.1928 44 20.8097 44 19.1727C44 17.5356 43.0544 16.1487 41.7557 15.7072V15H39.9613V15.7072C38.6627 16.1526 37.7172 17.5356 37.7172 19.1727C37.7172 20.8097 38.6627 22.1967 39.9613 22.6382V24.8847C38.6627 25.3301 37.7172 26.7131 37.7172 28.3502C37.7172 29.9872 38.6627 31.3742 39.9613 31.8157V32.5228H41.7557V31.8157C43.0544 31.3703 44 29.9872 44 28.3502C44 26.7131 43.0544 25.3301 41.7557 24.8847ZM39.209 20.0947V18.2467C39.209 17.7505 39.5116 17.3129 39.9571 17.0941V17.395C39.9571 17.8365 40.3438 18.1959 40.8186 18.1959H40.8901C41.365 18.1959 41.7515 17.8365 41.7515 17.395V17.0941C42.1971 17.3129 42.4996 17.7466 42.4996 18.2467V20.0947C42.4996 20.5909 42.1971 21.0285 41.7515 21.2473V20.9464C41.7515 20.5049 41.365 20.1455 40.8901 20.1455H40.8144C40.3396 20.1455 39.9529 20.5049 39.9529 20.9464V21.2473C39.5158 21.0285 39.209 20.5948 39.209 20.0947ZM42.5038 29.2761C42.5038 29.7723 42.2013 30.2099 41.7557 30.4287V29.9872C41.7557 29.5457 41.3692 29.1863 40.8943 29.1863H40.8228C40.348 29.1863 39.9613 29.5457 39.9613 29.9872V30.4287C39.5158 30.2099 39.2132 29.7762 39.2132 29.2761V27.4281C39.2132 26.9319 39.5158 26.4943 39.9613 26.2755V26.4357C39.9613 26.8772 40.348 27.2367 40.8228 27.2367H40.8985C41.3734 27.2367 41.7599 26.8772 41.7599 26.4357V26.2755C42.2055 26.4943 42.508 26.928 42.508 27.4281V29.2761H42.5038ZM22.2728 21.7165C22.3065 21.7986 22.3275 21.8845 22.3443 21.9744C22.4555 22.5948 22.8282 23.0437 23.234 23.5324C23.8402 24.2625 24.5203 25.0815 24.5127 26.694C24.5127 29.4406 22.5249 31.605 18.4653 31.605H16.8011C16.7969 31.6167 16.1118 32.5193 14.704 32.5193C13.9979 32.5427 13.6912 32.5115 13.6912 32.5115C12.414 32.4627 11.7704 31.6731 11.7155 31.6056C11.7133 31.603 11.7121 31.6014 11.7117 31.6011H10.0475C5.98781 31.6011 4 29.4367 4 26.6901C4 25.0769 4.68173 24.2584 5.28871 23.5296C5.69606 23.0405 6.06975 22.5918 6.18113 21.9705C6.19795 21.8845 6.22317 21.7986 6.25258 21.7126C6.23997 21.697 3.45366 18.0791 6.03405 15.8443C8.59096 13.6298 11.5729 16.4716 11.6433 16.5386C11.6439 16.5392 11.6443 16.5396 11.6445 16.5398C12.1194 16.403 12.5985 16.3171 13.0734 16.278C13.0734 16.278 14.4518 16.1256 15.4352 16.278H15.4394C15.9185 16.3171 16.4018 16.403 16.8809 16.5437C16.8811 16.5435 16.8814 16.5432 16.8821 16.5426C16.9517 16.4762 19.9342 13.6335 22.4914 15.8482C25.0214 18.0359 22.4007 21.5452 22.2773 21.7105C22.2746 21.7141 22.2731 21.7161 22.2728 21.7165Z" fill="white"/>
</svg>
