<svg width="48" height="48" viewBox="0 0 48 48" fill="none" xmlns="http://www.w3.org/2000/svg">
<path d="M24 48C37.2548 48 48 37.2548 48 24C48 10.7452 37.2548 0 24 0C10.7452 0 0 10.7452 0 24C0 37.2548 10.7452 48 24 48Z" fill="black"/>
<path d="M35.7155 17.4146H8.5L13.7194 13.5H37.0204L40.5 16.0476L38.8223 21.3913L33.7272 24.001L37.0825 26.6107L35.2806 32.265L30.2476 34.8126H10.4262L15.7078 18.1602L19.2495 20.7699L16.0806 30.7117H31.4903L33.2301 25.2437H22.2942L23.2884 22.0126H34.2243L35.7155 17.4146Z" fill="#FCFC03"/>
</svg>
