<svg width="48" height="48" viewBox="0 0 48 48" fill="none" xmlns="http://www.w3.org/2000/svg">
<path d="M24 48C37.2548 48 48 37.2548 48 24C48 10.7452 37.2548 0 24 0C10.7452 0 0 10.7452 0 24C0 37.2548 10.7452 48 24 48Z" fill="#121212"/>
<path fill-rule="evenodd" clip-rule="evenodd" d="M23.711 9.73386L11.3691 16.8669V31.1331L23.711 38.2662L36.0529 31.1331V16.8669L23.711 9.73386ZM24.2293 6.13903C23.9085 5.95366 23.5133 5.95366 23.1926 6.13903L8.5183 14.6202C8.19755 14.8056 8 15.1482 8 15.5189V32.4811C8 32.8519 8.19755 33.1945 8.5183 33.3798L23.1926 41.8609C23.5133 42.0464 23.9085 42.0464 24.2293 41.8609L38.9037 33.3798C39.2244 33.1945 39.422 32.8519 39.422 32.4811V15.5189C39.422 15.1482 39.2244 14.8056 38.9037 14.6202L24.2293 6.13903Z" fill="#FF9211"/>
<path d="M23.711 14.9012L15.8394 19.4506V28.5495L23.6592 33.069C23.6913 33.0875 23.711 33.1218 23.711 33.1589V34.7167C23.711 34.7965 23.6246 34.8465 23.5556 34.8066L14.6732 29.6729C14.4326 29.5339 14.2844 29.2769 14.2844 28.9989V19.0012C14.2844 18.7231 14.4326 18.4662 14.6732 18.3271L23.3222 13.3284C23.5628 13.1894 23.8592 13.1894 24.0998 13.3284L33.0176 18.4639C33.0862 18.5033 33.0868 18.6021 33.0188 18.6426C32.4925 18.955 32.223 19.094 31.6342 19.4218C31.6023 19.4396 31.5633 19.4394 31.5317 19.4212L23.711 14.9012Z" fill="#FF9211"/>
<path d="M25.0068 24.1921C25.0068 24.1538 25.028 24.1186 25.0618 24.1005L32.8886 19.9303C32.9576 19.8935 33.0409 19.9435 33.0409 20.0219V30.1668C33.0409 30.2039 33.0213 30.238 32.9893 30.2566L25.1626 34.8059C25.0934 34.8461 25.0068 34.7962 25.0068 34.7162V24.1921Z" fill="#FF9211"/>
</svg>
