<svg width="50" height="50" viewBox="0 0 50 50" fill="none" xmlns="http://www.w3.org/2000/svg">
  <path d="M25 50C38.8071 50 50 38.8071 50 25C50 11.1929 38.8071 0 25 0C11.1929 0 0 11.1929 0 25C0 38.8071 11.1929 50 25 50Z" fill="#F2F5FA" />
  <path d="M24.9993 37.0837V26.3429M24.9993 37.0837L17.0145 31.4904C16.2312 30.9417 15.8396 30.6674 15.6278 30.2605C15.416 29.8536 15.416 29.3754 15.416 28.419V19.63M24.9993 37.0837L32.9842 31.4904C33.7675 30.9417 34.1591 30.6674 34.3709 30.2605C34.5827 29.8536 34.5827 29.3754 34.5827 28.419V19.63M24.9993 26.3429L15.416 19.63M24.9993 26.3429L34.5827 19.63M15.416 19.63L22.8479 14.4241C23.8879 13.6955 24.408 13.3312 24.9993 13.3312C25.5907 13.3312 26.1108 13.6955 27.1508 14.4241L34.5827 19.63" stroke="#BFC6D0" stroke-width="3.13125" stroke-linejoin="round" />
</svg>
