<svg width="48" height="48" viewBox="0 0 48 48" fill="none" xmlns="http://www.w3.org/2000/svg">
<path d="M32.4372 18.493L36.4193 21.5164L38.9449 23.4152L36.1427 24.8532L30.4831 27.7475L32.4188 29.0933L35.1288 30.9737L32.1976 32.4854L14.223 41.7585C24.0122 47.1416 36.3271 43.5836 41.7102 33.7759C45.7292 26.4755 44.8627 17.4606 39.5164 11.0635L32.4372 18.493Z" fill="#0C3548"/>
<path d="M15.5136 30.5685L11.5315 27.5451L9.00587 25.6463L11.8081 24.2083L17.4677 21.3139L15.532 19.9682L12.822 18.0877L15.7532 16.576L34.6864 6.80526C25.2106 0.887494 12.7114 3.78185 6.81206 13.2577C2.03728 20.9084 2.90375 30.7897 8.9137 37.5002L15.5136 30.5685Z" fill="#0C3548"/>
<path d="M7.69692 38.8273C-0.506846 29.8308 0.156829 15.8937 9.13488 7.70833C16.7303 0.795052 28.0865 0.0392002 36.5299 5.90166L38.5025 4.88772C27.939 -3.13169 12.8957 -1.06693 4.8763 9.49657C-2.1476 18.7512 -1.52079 31.7113 6.35113 40.2653L7.69692 38.8273Z" fill="#0C3548"/>
<path d="M40.7516 9.7363C48.6419 18.9909 47.5358 32.8912 38.2812 40.7816C30.9808 46.9943 20.491 47.787 12.3426 42.6988L10.3331 43.7312C21.2285 51.2713 36.1612 48.5613 43.7197 37.666C49.9509 28.6695 49.3056 16.5758 42.1158 8.29834L40.7516 9.7363Z" fill="#0C3548"/>
<path d="M12.7113 25.9779L18.4632 30.3287L5.46619 44.0262L31.2942 30.6974L26.63 27.4896L35.2394 23.0836L29.4691 18.7328L42.4661 5.05371L16.6565 18.3641L21.3206 21.5903L12.7113 25.9779Z" fill="#2AB1F3"/>
</svg>
