<svg width="48" height="48" viewBox="0 0 48 48" fill="none" xmlns="http://www.w3.org/2000/svg">
<path d="M24 48C37.2548 48 48 37.2548 48 24C48 10.7452 37.2548 0 24 0C10.7452 0 0 10.7452 0 24C0 37.2548 10.7452 48 24 48Z" fill="#00F58C"/>
<path d="M30.6613 12.2871L19.2656 23.6833C18.9829 23.9659 18.5989 24.1252 18.1992 24.1252C17.6161 24.1252 17.0854 23.7892 16.8359 23.2621L12.4208 13.9276C12.0602 13.1655 12.6164 12.2876 13.4593 12.2876H30.6617L30.6613 12.2871Z" fill="black"/>
<path d="M12.2871 38.3185V27.2305C12.2871 26.6392 12.7667 26.1597 13.3579 26.1597H24.4459L12.2871 38.3185Z" fill="black"/>
<path d="M25.3611 24.1252H21.6907L32.7365 13.0794C33.2434 12.5725 33.9311 12.2876 34.648 12.2876H38.3184L27.2726 23.3334C26.7657 23.8403 26.078 24.1252 25.3611 24.1252Z" fill="black"/>
</svg>
