<svg width="48" height="48" viewBox="0 0 48 48" fill="none" xmlns="http://www.w3.org/2000/svg">
<path d="M24 48C37.2548 48 48 37.2548 48 24C48 10.7452 37.2548 0 24 0C10.7452 0 0 10.7452 0 24C0 37.2548 10.7452 48 24 48Z" fill="url(#paint0_linear_10281_733)"/>
<path d="M41.8763 13.7478C41.6178 13.3011 41.0416 13.1539 40.6005 13.4221L16.9083 27.8116C16.3045 26.6837 15.9624 25.3949 15.9624 24.0263C15.9624 19.5828 19.5688 15.9806 24.0176 15.9806C25.9278 15.9806 27.6815 16.6465 29.0624 17.7561L24.0221 21.2119L37.1207 13.6581C37.403 13.4957 37.4996 13.1348 37.3362 12.8536C37.1644 12.5563 36.7754 12.4681 36.4916 12.6628L33.2841 14.8619C30.9205 12.4773 27.6424 11 24.0176 11C16.8147 11 10.9758 16.832 10.9758 24.0263C10.9758 26.3427 11.5819 28.5173 12.6429 30.4023L6 34.4367L12.8201 30.7073C15.0978 34.5079 19.2597 37.0527 24.0176 37.0527C31.2204 37.0527 37.0594 31.2207 37.0594 24.0263C37.0594 23.6202 37.0594 23.6894 37.0594 22.4708C37.0594 21.2522 37.5544 19.6931 39.3086 18.7545C39.4589 18.674 39.5135 18.4855 39.4283 18.3376C39.3447 18.1936 39.1606 18.1438 39.0164 18.2273L23.4637 27.1963C25.1998 26.4592 26.5269 26.0109 28.2861 25.6579C31.9507 24.9226 32.044 26.6676 30.6287 28.6359C29.6811 29.9538 27.5404 32.0705 24.0191 32.0705C21.1476 32.0705 18.6283 30.5702 17.2013 28.3112L41.5211 15.0144C41.9745 14.7669 42.1349 14.1945 41.8763 13.7478Z" fill="white"/>
<defs>
<linearGradient id="paint0_linear_10281_733" x1="6.5" y1="41.5" x2="41" y2="7" gradientUnits="userSpaceOnUse">
<stop stop-color="#E57536"/>
<stop offset="0.57" stop-color="#010101"/>
</linearGradient>
</defs>
</svg>
