<svg width="81" height="80" viewBox="0 0 81 80" fill="none" xmlns="http://www.w3.org/2000/svg">
<path d="M40.5 80C62.5914 80 80.5 62.0914 80.5 40C80.5 17.9086 62.5914 0 40.5 0C18.4086 0 0.5 17.9086 0.5 40C0.5 62.0914 18.4086 80 40.5 80Z" fill="#39F2B1"/>
<path d="M41.7969 12.5V26.1425L53.6419 19.33L41.7969 12.5Z" fill="#1A283C"/>
<path opacity="0.9" d="M53.6406 19.3301V32.9726L65.4831 26.1426L53.6406 19.3301Z" fill="#1A283C"/>
<path opacity="0.8" d="M41.7969 26.1426V39.7851L53.6419 32.9726L41.7969 26.1426ZM53.6419 32.9751V46.6151L65.4844 39.7851L53.6419 32.9751Z" fill="#1A283C"/>
<path opacity="0.8" d="M41.7969 39.7852V53.4277L53.6419 46.6152L41.7969 39.7852Z" fill="#1A283C"/>
<path d="M53.6406 46.6152V60.2577L65.4831 53.4277L53.6406 46.6152Z" fill="#1A283C"/>
<path opacity="0.4" d="M11.1836 25.6826V39.3251L23.0286 32.4951L11.1836 25.6826Z" fill="#1A283C"/>
<path opacity="0.2" d="M26.125 30.7549V44.3974L37.95 37.5849L26.125 30.7549Z" fill="#1A283C"/>
<path opacity="0.3" d="M17.3438 39.3828V53.0253L29.1863 46.1953L17.3438 39.3828Z" fill="#1A283C"/>
<path opacity="0.9" d="M25.1484 49.6777V63.3202L36.9734 56.4902L25.1484 49.6777Z" fill="#1A283C"/>
<path opacity="0.7" d="M41.6992 55.5498V69.1948L53.5242 62.3623L41.6992 55.5498Z" fill="#1A283C"/>
<path opacity="0.9" d="M28.0977 24.0176V37.6626L39.9227 30.8501L28.0977 24.0176Z" fill="#1A283C"/>
<path opacity="0.8" d="M41.7981 12.5V26.1425L29.9531 19.33L41.7981 12.5Z" fill="#1A283C"/>
<path opacity="0.6" d="M28.0975 18.2998V31.9398L16.25 25.1098L28.0975 18.2998Z" fill="#1A283C"/>
<path opacity="0.6" d="M39.9427 25.0498V38.6948L28.0977 31.8623L39.9427 25.0498Z" fill="#1A283C"/>
<path opacity="0.95" d="M26.0716 30.7549V44.3974L14.2266 37.5849L26.0716 30.7549Z" fill="#1A283C"/>
<path opacity="0.6" d="M41.7977 39.7852V53.4277L29.9727 46.6152L41.7977 39.7852Z" fill="#1A283C"/>
<path opacity="0.55" d="M17.345 42.9629V56.6054L5.5 49.7729L17.345 42.9629Z" fill="#1A283C"/>
<path d="M65.4831 26.1426V39.7851L53.6406 32.9726L65.4831 26.1426Z" fill="#1A283C"/>
<path opacity="0.95" d="M53.6419 32.9746V46.6146L41.7969 39.7846L53.6419 32.9746Z" fill="#1A283C"/>
<path opacity="0.9" d="M65.4831 39.7852V53.4277L53.6406 46.6152L65.4831 39.7852Z" fill="#1A283C"/>
<path opacity="0.7" d="M53.6419 46.6152V60.2577L41.7969 53.4277L53.6419 46.6152Z" fill="#1A283C"/>
<path opacity="0.4" d="M39.1745 52.2998V65.9423L27.332 59.1298L39.1745 52.2998Z" fill="#1A283C"/>
<path d="M53.6419 19.3301V32.9726L41.7969 26.1426L53.6419 19.3301Z" fill="#1A283C"/>
</svg>
