<svg width="48" height="48" viewBox="0 0 48 48" fill="none" xmlns="http://www.w3.org/2000/svg">
<path d="M24 48C37.2548 48 48 37.2548 48 24C48 10.7452 37.2548 0 24 0C10.7452 0 0 10.7452 0 24C0 37.2548 10.7452 48 24 48Z" fill="black"/>
<path d="M33.7051 33.7046C43.4333 31.2324 43.4294 16.7609 33.7032 14.2944C31.2386 4.56438 16.7595 4.57204 14.2968 14.2963C4.56679 16.7628 4.5687 31.2439 14.2968 33.7046C16.7633 43.4346 31.2425 43.4289 33.7051 33.7046ZM37.4853 17.5614C42.2804 22.1228 40.2084 30.7039 33.9349 32.6361C34.0116 32.1477 34.0536 31.6537 34.0575 31.1596C40.2965 28.7525 40.2965 19.2523 34.0575 16.8432C34.0517 16.3511 34.0096 15.857 33.9311 15.3668C35.2314 15.7977 36.4531 16.5311 37.4834 17.5633L37.4853 17.5614ZM31.1812 23.9995C32.265 22.8965 33.0426 21.602 33.5136 20.2251C36.21 21.9122 36.2118 26.0869 33.5136 27.7739C33.0444 26.399 32.2632 25.0987 31.1812 23.9995ZM30.6143 29.4457C32.38 35.8763 23.7817 40.7537 19.1838 35.8628C16.2654 33.0555 16.6906 28.1282 19.7928 25.6253C20.193 25.2347 21.0242 24.3863 21.4167 23.9995C22.4336 22.9846 23.6592 21.7571 24.6741 20.7421C25.7867 19.6525 26.9549 18.2488 28.439 17.7069C28.2953 18.5457 27.9161 19.3748 27.2881 20.0259C27.2536 20.0604 27.2134 20.0968 27.1789 20.1313C25.6201 21.6901 23.9234 23.3887 22.3646 24.9455C21.7155 25.5966 20.7809 26.5273 20.1317 27.1784C18.0138 29.2293 18.0119 32.8659 20.1317 34.9111C25.2256 39.8441 32.7572 32.5097 27.9698 27.2894L27.9296 27.2473L28.8775 26.2994C29.7488 27.1937 30.3252 28.2604 30.6125 29.4419L30.6143 29.4457ZM13.9828 30.1294C8.93295 27.8563 8.93486 20.1504 13.9808 17.8754C14.0249 18.3446 14.0996 18.8118 14.2087 19.2733C10.6162 21.2439 10.6181 26.7647 14.2087 28.7353C14.0996 29.1948 14.0249 29.6621 13.9828 30.1313V30.1294ZM13.7606 27.1918C11.7422 25.2194 12.108 21.7437 14.4826 20.227C14.9517 21.602 15.733 22.9022 16.8169 24.0015C15.733 25.1045 14.9556 26.399 14.4844 27.7778C14.2279 27.6112 13.9866 27.4139 13.7606 27.1899V27.1918ZM20.7484 20.07C20.0935 19.4246 19.7028 18.5667 19.5554 17.7126C20.3328 18.0325 21.0605 18.5016 21.6963 19.1221L20.7484 20.07ZM19.4998 16.669C19.5285 16.2209 19.6224 15.7747 19.7832 15.3495C21.0758 15.769 22.2899 16.4852 23.3202 17.4962L22.3742 18.4423C21.5316 17.6208 20.5473 17.029 19.4998 16.667V16.669ZM23.9981 16.8202C22.8951 15.7364 21.6005 14.9589 20.2236 14.4878C21.9108 11.7915 26.0854 11.7896 27.7726 14.4878C26.3976 14.957 25.0954 15.7402 23.9981 16.8222V16.8202ZM27.8664 13.0879C22.7687 8.15305 15.2447 15.4894 20.0264 20.7096L20.0686 20.7536L19.1206 21.7015C13.0329 15.2366 22.4202 5.95849 28.8143 12.14C31.4512 14.6927 31.4531 19.214 28.8143 21.7686C27.2574 23.3255 25.5607 25.0221 24.002 26.5809C22.6346 27.8601 21.3401 29.6047 19.5592 30.2902C19.7028 29.4495 20.0839 28.6299 20.7081 27.975H20.7101C22.3052 26.3818 24.0383 24.6506 25.6335 23.0535C26.2846 22.4024 27.2172 21.4717 27.8664 20.8206C29.9863 18.7735 29.9843 15.1312 27.8664 13.0879ZM27.2516 27.9348C27.2823 27.9654 27.3091 27.9923 27.3417 28.021C27.9372 28.674 28.3049 29.4668 28.4428 30.2921C27.6672 29.9705 26.9376 29.5032 26.3038 28.8846L27.2516 27.9367V27.9348ZM28.4983 31.3358C28.4715 31.7858 28.3776 32.2301 28.2149 32.6552C26.9242 32.2339 25.7081 31.5196 24.6779 30.5086L25.6239 29.5625C26.4665 30.384 27.4508 30.9758 28.4964 31.3358H28.4983ZM23.956 31.2266L24 31.1845C25.1031 32.2684 26.3976 33.0459 27.7744 33.517C26.0854 36.2152 21.9108 36.2171 20.2218 33.517C21.5814 33.0517 22.8587 32.2894 23.954 31.2266H23.956ZM34.9116 20.1351C34.5668 19.7904 34.1896 19.5031 33.7875 19.2715C33.8966 18.8099 33.9732 18.3446 34.0154 17.8735C39.0613 20.1504 39.0613 27.8506 34.0154 30.1275C33.9732 29.6583 33.8966 29.191 33.7875 28.7295C36.8572 27.006 37.4432 22.5939 34.9096 20.1351H34.9116ZM17.5599 10.5161C26.7787 1.95043 39.1533 15.5755 29.8292 24.0015C29.0709 24.7598 28.0157 25.8149 27.2574 26.5733C24.9364 28.6932 22.8855 31.7035 19.789 32.6533C19.6243 32.2301 19.5323 31.7839 19.5056 31.3339C20.5339 30.9758 21.5029 30.3975 22.3339 29.599C24.7124 27.2205 27.1808 24.754 29.5592 22.3756C32.5063 19.4361 32.4738 14.3595 29.4922 11.4621C22.1042 4.44948 11.522 14.9168 18.4408 22.3795L17.4948 23.3255C14.023 19.8746 14.0536 13.9363 17.5619 10.5161H17.5599ZM10.5128 30.4415C5.71769 25.882 7.7897 17.2952 14.067 15.3668C13.9904 15.8551 13.9483 16.3491 13.9406 16.8432C7.69969 19.2504 7.70161 28.7582 13.9425 31.1616C13.9464 31.6556 13.9885 32.1497 14.067 32.638C12.7648 32.2052 11.545 31.4756 10.5109 30.4415H10.5128ZM17.5619 37.4886C13.7548 33.8004 14.1512 27.3737 18.1708 24.0015C18.9292 23.2431 19.9843 22.1879 20.7426 21.4277C23.0655 19.3098 25.1107 16.2937 28.211 15.3477C28.3738 15.7728 28.4677 16.217 28.4944 16.667C27.4202 17.0367 26.3995 17.6609 25.5531 18.5092C23.9942 20.0681 22.2976 21.7667 20.7388 23.3235C19.2471 24.867 17.2995 26.3952 16.6637 28.4997C13.8927 36.0869 23.8354 42.3584 29.4883 36.5388C32.4719 33.6395 32.5044 28.5649 29.5554 25.6253L30.5014 24.6793C38.6477 33.4155 26.2175 45.7231 17.5561 37.4886H17.5619Z" fill="url(#paint0_linear_9239_10324)"/>
<defs>
<linearGradient id="paint0_linear_9239_10324" x1="3.96429" y1="10.3393" x2="36.75" y2="43.125" gradientUnits="userSpaceOnUse">
<stop stop-color="#6D6D6D"/>
<stop offset="0.365741" stop-color="white"/>
<stop offset="1" stop-color="#6D6D6D"/>
</linearGradient>
</defs>
</svg>
