<svg width="48" height="48" viewBox="0 0 48 48" fill="none" xmlns="http://www.w3.org/2000/svg">
<path d="M24 48C37.2548 48 48 37.2548 48 24C48 10.7452 37.2548 0 24 0C10.7452 0 0 10.7452 0 24C0 37.2548 10.7452 48 24 48Z" fill="#121212"/>
<mask id="mask0_9124_25651" style="mask-type:luminance" maskUnits="userSpaceOnUse" x="14" y="10" width="24" height="26">
<path d="M37.9617 10.5208H14V35.5503H37.9617V10.5208Z" fill="white"/>
</mask>
<g mask="url(#mask0_9124_25651)">
<path d="M33.9003 35.5503H14.0001V14.5823H18.5532V31.4867H33.9003V35.5481V35.5503Z" fill="white"/>
<path d="M33.9003 18.6437C36.1433 18.6437 37.9617 16.8253 37.9617 14.5822C37.9617 12.3391 36.1433 10.5208 33.9003 10.5208C31.657 10.5208 29.8388 12.3391 29.8388 14.5822C29.8388 16.8253 31.657 18.6437 33.9003 18.6437Z" fill="white"/>
</g>
</svg>
