<svg width="81" height="80" viewBox="0 0 81 80" fill="none" xmlns="http://www.w3.org/2000/svg">
<circle cx="40.5" cy="40" r="40" fill="#F6851B"/>
<path fill-rule="evenodd" clip-rule="evenodd" d="M27.5679 20.9519C31.0434 17.4681 35.7519 15.5028 40.667 15.4844C45.4083 15.5668 49.938 17.4669 53.3246 20.794C56.7112 24.1212 58.6974 28.6225 58.8748 33.3725C59.0522 38.1224 57.4073 42.76 54.2783 46.3316C51.1493 49.9033 46.7741 52.1375 42.0522 52.575C42.0522 52.575 39.6893 52.7383 39.1306 52.82C37.7991 53.0239 36.5619 53.6321 35.5859 54.5625C34.6098 55.4929 33.9417 56.7009 33.6715 58.0236C33.6715 58.0236 32.9382 61.6172 32.8568 61.9439C32.795 62.275 32.6667 62.5901 32.4797 62.87C32.2927 63.1499 32.0509 63.3888 31.7689 63.5722C31.4869 63.7555 31.1707 63.8794 30.8395 63.9365C30.5083 63.9935 30.1689 63.9825 29.8421 63.904C29.512 63.8423 29.1979 63.7136 28.9191 63.526C28.6403 63.3384 28.4026 63.0957 28.2207 62.8128C28.0387 62.5299 27.9162 62.2128 27.8608 61.8808C27.8054 61.5488 27.8181 61.209 27.8982 60.8821C27.8982 60.6371 33.7181 33.5455 33.7181 33.5455C33.8586 32.8848 34.2551 32.3072 34.8205 31.9396C35.3858 31.572 36.0737 31.4446 36.7328 31.5854C37.3919 31.7261 37.9682 32.1236 38.3349 32.6903C38.7016 33.257 38.8287 33.9465 38.6883 34.6072L36.2439 45.7029L35.8365 47.908C35.8113 47.9417 35.7991 47.9834 35.8021 48.0254C35.805 48.0674 35.823 48.107 35.8528 48.1368C35.8825 48.1666 35.9219 48.1846 35.9638 48.1876C36.0058 48.1906 36.0474 48.1783 36.081 48.153C36.5489 48.0341 37.023 47.9406 37.501 47.873C38.8047 47.7097 41.4003 47.5463 41.4003 47.5463C43.9917 47.389 46.4815 46.4798 48.5665 44.9294C50.6515 43.379 52.2417 41.2543 53.1435 38.8141C54.0453 36.3739 54.2197 33.7235 53.6455 31.1857C53.0713 28.6479 51.7732 26.3322 49.9095 24.5207C48.0457 22.7092 45.6966 21.4801 43.1483 20.983C40.6 20.4859 37.9625 20.7423 35.5571 21.721C33.1516 22.6996 31.0819 24.3584 29.6001 26.4951C28.1184 28.6318 27.2885 31.1544 27.2115 33.7555C27.1368 35.3668 27.3821 36.9769 27.9332 38.4924C28.1343 39.1366 28.0825 39.8335 27.7883 40.4407C27.494 41.0479 26.9796 41.5195 26.3501 41.7593C25.7016 41.9555 25.0027 41.8956 24.3967 41.5919C23.7908 41.2882 23.3236 40.7637 23.091 40.1259C22.4432 38.1771 22.113 36.1363 22.1133 34.0822C22.1317 29.1554 24.0924 24.4357 27.5679 20.9519ZM44.092 58.3109C44.4939 58.2317 44.9074 58.233 45.3088 58.3145C46.1049 58.5019 46.7997 58.9864 47.2518 59.6694C47.7039 60.3524 47.8792 61.1824 47.742 61.9905C47.6731 62.3973 47.5221 62.7857 47.2984 63.132C47.0746 63.4783 46.7827 63.7752 46.4405 64.0046C46.0984 64.234 45.7131 64.391 45.3084 64.466C44.9036 64.5411 44.4878 64.5326 44.0864 64.4411C43.6824 64.366 43.2975 64.2105 42.9545 63.9837C42.6114 63.7569 42.3173 63.4635 42.0893 63.1208C41.8614 62.7781 41.7044 62.3931 41.6275 61.9884C41.5506 61.5838 41.5554 61.1679 41.6416 60.7652C41.7209 60.3624 41.8788 59.9793 42.1063 59.6379C42.3337 59.2964 42.6262 59.0034 42.967 58.7757C43.3078 58.548 43.6901 58.39 44.092 58.3109Z" fill="white"/>
</svg>
