<svg width="48" height="48" viewBox="0 0 48 48" fill="none" xmlns="http://www.w3.org/2000/svg">
<path d="M24 48C37.2548 48 48 37.2548 48 24C48 10.7452 37.2548 0 24 0C10.7452 0 0 10.7452 0 24C0 37.2548 10.7452 48 24 48Z" fill="#FFEEDA"/>
<path d="M37.3409 29.3663L37.3439 11.6729C37.316 10.1912 36.1439 9 34.6578 9H16.1928C12.2099 9.06601 9.00012 12.3198 9.00012 16.3232C9.00012 17.6758 9.361 18.8274 9.91699 19.8367C10.3806 20.6787 11.117 21.4724 11.8476 22.0694C12.0471 22.2323 11.9532 22.1721 12.5796 22.5565C13.4436 23.0875 14.4353 23.3501 14.4353 23.3501L14.428 33.9315C14.4485 34.4318 14.5043 34.913 14.629 35.3604C15.0412 36.8494 16.0725 37.9966 17.4808 38.5526C18.0691 38.7844 18.7351 38.9413 19.4407 38.9457L34.1898 39C37.1312 39 39.5165 36.6117 39.5165 33.666C39.5165 31.9027 38.6612 30.3389 37.3439 29.3677L37.3409 29.3663Z" fill="#FFEEDA"/>
<path d="M37.6977 33.779C37.6375 35.6685 36.0884 37.181 34.1872 37.181L24.0341 37.1414C24.8454 36.2054 25.3339 34.9878 25.3339 33.6631C25.3339 31.5785 24.0913 30.1453 24.0913 30.1453H34.1872C36.1265 30.1453 37.6992 31.7193 37.6992 33.6631V33.779H37.6977Z" fill="#EBC28E"/>
<path d="M12.804 20.5643C11.6392 19.4611 10.8133 18.0293 10.8133 16.3232L10.8163 16.1428C10.9101 13.244 13.2969 10.9115 16.1913 10.8191H34.6578C35.1419 10.8352 35.5307 11.1829 35.5307 11.6729V27.2934C35.9576 27.3711 36.1615 27.4225 36.5708 27.5721C36.8906 27.688 37.3453 27.9462 37.3453 27.9462V11.6729C37.3175 10.1912 36.1453 9 34.6593 9H16.1928C12.2099 9.06601 9.00012 12.3198 9.00012 16.3232C9.00012 18.6484 10.0578 20.6289 11.7947 22.0254C11.9106 22.1178 12.0251 22.2396 12.3361 22.2381C12.8803 22.2367 13.2617 21.8098 13.2397 21.3359C13.2207 20.9457 13.0564 20.802 12.804 20.5628V20.5643Z" fill="#190602"/>
<path d="M34.1869 28.3305H19.7018C18.7292 28.3393 17.9429 29.13 17.9429 30.1041V32.1813C17.9708 33.1437 18.7908 33.9681 19.759 33.9681H20.8358V32.1813H19.759V30.1481H20.3458C22.1737 30.1481 23.5189 31.8498 23.5189 33.6659C23.5189 35.2737 22.0549 37.3363 19.5947 37.1706C17.4104 37.0239 16.2383 35.0845 16.2397 33.6659V16.0107C16.2397 15.2126 15.5928 14.5657 14.7947 14.5657H13.3512V16.3671H14.4251V33.663C14.3708 37.1808 16.9307 38.953 19.5962 38.953L34.1854 38.9955C37.1268 38.9955 39.5121 36.6072 39.5121 33.6615C39.5121 30.7158 37.1282 28.3275 34.1854 28.3275L34.1869 28.3305ZM37.6974 33.7803C37.6373 35.6698 36.0881 37.1823 34.1869 37.1823L24.0339 37.1427C24.8451 36.2067 25.3336 34.9891 25.3336 33.6644C25.3336 31.5798 24.0911 30.1466 24.0911 30.1466H34.1869C36.1263 30.1466 37.6989 31.7207 37.6989 33.6644V33.7803H37.6974Z" fill="#190602"/>
<path d="M30.2891 14.8914H19.3717V16.6928H30.2906C30.7879 16.6928 31.1913 16.2894 31.1913 15.7921C31.1913 15.2948 30.7879 14.8914 30.2906 14.8914H30.2891Z" fill="#190602"/>
<path d="M30.2891 23.3926H19.3717V25.194H30.2906C30.7879 25.194 31.1913 24.7906 31.1913 24.2933C31.1913 23.796 30.7879 23.3926 30.2906 23.3926H30.2891Z" fill="#190602"/>
<path d="M32.2109 19.1431H19.3717V20.9445H32.2109C32.7082 20.9445 33.1116 20.5411 33.1116 20.0438C33.1116 19.5465 32.7082 19.1431 32.2109 19.1431Z" fill="#190602"/>
</svg>
