<svg width="24" height="24" viewBox="0 0 24 24" fill="none" xmlns="http://www.w3.org/2000/svg">
<g clip-path="url(#clip0_13690_140227)">
<path d="M12 24C18.6274 24 24 18.6274 24 12C24 5.37258 18.6274 0 12 0C5.37258 0 0 5.37258 0 12C0 18.6274 5.37258 24 12 24Z" fill="#1F2226"/>
<path fill-rule="evenodd" clip-rule="evenodd" d="M16.2107 8.31518C16.0843 8.50466 15.8107 8.52571 15.6422 8.35729C14.4843 7.1994 13.3685 6.56782 11.5791 6.65203C10.8422 6.69413 9.81065 7.32571 9.85276 8.18887C9.91583 9.38734 11.2808 9.91384 12.7524 10.4814L12.758 10.4836C14.5475 11.1573 16.5264 11.9362 16.6317 14.0204C16.758 16.4204 14.2738 17.5573 12.2528 17.7047C10.2317 17.8099 8.84223 17.1362 7.49486 15.7889C7.34749 15.6204 7.34749 15.3678 7.51591 15.2204C7.66328 15.0941 7.89486 15.0941 8.04223 15.2415C9.24223 16.3994 10.3159 17.052 12.1475 16.9468C13.1159 16.8836 14.2317 16.231 14.1685 15.1362C14.1054 14.1468 12.8843 13.6836 11.4949 13.1573L11.4621 13.1447C9.65955 12.4531 7.62054 11.6708 7.51591 9.55729C7.3896 7.15729 9.30539 6.02045 11.4738 5.91518C13.537 5.80992 14.7791 6.48361 16.1685 7.80992C16.3159 7.93624 16.337 8.16782 16.2107 8.31518ZM14.6107 16.252C15.3685 15.7889 15.8738 14.9889 15.8738 14.0626C15.8738 12.4836 14.1685 11.852 12.4422 11.2204L12.3991 11.2043C10.7298 10.5784 9.09486 9.96541 9.09486 8.46255C9.09486 8.02045 9.17907 7.57834 9.36854 7.17834L9.34749 7.13624C8.61065 7.55729 8.2317 8.46255 8.2317 9.30466C8.2317 11.148 10.045 11.8033 11.7844 12.432L11.8106 12.4415L11.8508 12.4559C13.4148 13.0189 14.8843 13.5478 14.8843 14.9047C14.8843 15.3678 14.8422 15.852 14.5685 16.231L14.6107 16.252Z" fill="white"/>
<path fill-rule="evenodd" clip-rule="evenodd" d="M1.68433 11.8941C1.68433 6.26206 6.26279 1.68359 11.8949 1.68359C17.5269 1.68359 22.1054 6.26206 22.1054 11.8941C22.1054 17.5262 17.5269 22.1046 11.8949 22.1046C6.26279 22.1046 1.68433 17.5262 1.68433 11.8941ZM11.8949 2.10465C6.49533 2.10465 2.10538 6.4946 2.10538 11.8941C2.10538 17.2936 6.49533 21.6836 11.8949 21.6836C17.2944 21.6836 21.6843 17.2936 21.6843 11.8941C21.6843 6.4946 17.2944 2.10465 11.8949 2.10465Z" fill="white"/>
</g>
<defs>
<clipPath id="clip0_13690_140227">
<rect width="24" height="24" fill="white"/>
</clipPath>
</defs>
</svg>
