<svg width="49" height="49" viewBox="0 0 49 49" fill="none" xmlns="http://www.w3.org/2000/svg">
<path d="M24.0833 48.0833C37.3381 48.0833 48.0833 37.3381 48.0833 24.0833C48.0833 10.8284 37.3381 0.083252 24.0833 0.083252C10.8284 0.083252 0.083252 10.8284 0.083252 24.0833C0.083252 37.3381 10.8284 48.0833 24.0833 48.0833Z" fill="#F1E9E9"/>
<path fill-rule="evenodd" clip-rule="evenodd" d="M23.9248 44C29.7915 44 35.0692 41.4816 38.7324 37.4685L37.7578 36.3944C36.5514 35.0651 34.495 34.9515 33.1485 36.1398L31.0692 37.9747C28.2404 40.4711 23.9409 40.3136 21.3037 37.6172L20.0036 36.2878C18.7551 35.0112 16.7093 34.9668 15.406 36.1879L11.5924 39.7608C14.9922 42.4169 19.2734 44 23.9248 44ZM40.5756 33.859L41.049 34.3807C42.8929 31.3545 43.9549 27.8012 43.9549 24C43.9549 19.3909 42.3934 15.1459 39.7698 11.7637C39.2821 11.8885 38.816 12.1274 38.4134 12.4827L36.3342 14.3176C33.5055 16.814 29.2059 16.6566 26.5688 13.9602L25.2687 12.6308C24.0201 11.3542 21.9744 11.3097 20.6711 12.5308L15.3213 17.5431L12.7186 14.789L18.0684 9.7767C20.8809 7.1417 25.2955 7.23773 27.9896 9.99252L29.2897 11.3219C30.5119 12.5715 32.5042 12.6444 33.8152 11.4876L35.8944 9.65264C36.2434 9.3447 36.6144 9.07729 37.0018 8.85005C33.4927 5.82763 28.9225 4 23.9248 4C13.8765 4 5.55632 11.388 4.11545 21.0206C6.85738 19.4446 10.4176 19.8566 12.7206 22.2115L14.2242 23.7489C15.393 24.944 17.2783 25.07 18.597 24.0413L23.0542 20.5643C25.7295 18.4774 29.5169 18.5783 32.0761 20.8048L38.1453 26.0847L35.6467 28.9324L29.5773 23.6526C28.3913 22.6208 26.6361 22.574 25.3965 23.5412L20.9392 27.0182C18.0936 29.238 14.0253 28.9659 11.5033 26.3872L9.99973 24.8498C8.7512 23.5732 6.70543 23.5287 5.40211 24.7498L4 26.0634C4.43362 30.2878 6.184 34.1226 8.83457 37.1522L12.8034 33.4337C15.6158 30.7988 20.0304 30.8947 22.7245 33.6496L24.0247 34.979C25.2468 36.2285 27.2393 36.3015 28.5501 35.1447L30.6295 33.3098C33.535 30.7455 37.9727 30.9906 40.5756 33.859Z" fill="url(#paint0_linear_9074_7104)"/>
<defs>
<linearGradient id="paint0_linear_9074_7104" x1="23.9774" y1="4" x2="31.8489" y2="43.9967" gradientUnits="userSpaceOnUse">
<stop stop-color="#780000"/>
<stop offset="1" stop-color="#C1121F"/>
</linearGradient>
</defs>
</svg>
