<svg width="48" height="48" viewBox="0 0 48 48" fill="none" xmlns="http://www.w3.org/2000/svg">
<path d="M24 48C37.2548 48 48 37.2548 48 24C48 10.7452 37.2548 0 24 0C10.7452 0 0 10.7452 0 24C0 37.2548 10.7452 48 24 48Z" fill="#0F0F0F"/>
<path fill-rule="evenodd" clip-rule="evenodd" d="M29.5966 10.1294C27.8206 9.38167 25.9434 9 24.0039 9C22.0644 9 20.1794 9.38167 18.4112 10.1061C16.6976 10.8305 15.1631 11.8742 13.8467 13.1906C12.5304 14.5148 11.4944 16.0493 10.77 17.7629C10.0222 19.5388 9.64055 21.4238 9.64055 23.3634C9.64055 23.7294 9.65613 24.0955 9.6795 24.4616C9.76518 25.5755 9.1732 26.6193 8.18396 27.1256L7 27.7253V30.4204L10.4896 28.6367L10.5908 28.5899V28.5977L11.6813 28.0447L12.7562 27.4994L12.8497 27.4449L33.8261 16.7347L36.1863 15.5352L40.9922 13.0816V10.3865L36.3265 12.77L32.206 14.8731L12.3045 25.0225L12.1565 25.1003L12.1331 24.9368C12.063 24.4149 12.0318 23.893 12.0318 23.3711C12.0318 20.1776 13.2781 17.1709 15.537 14.9042C16.6431 13.7982 17.9361 12.9336 19.3771 12.326C20.8181 11.7262 22.3448 11.4147 23.9104 11.3991H24.0039C26.0369 11.3991 28.0387 11.9132 29.7991 12.8946L32.1047 11.7184L32.2838 11.625C31.4426 11.033 30.5391 10.5267 29.5966 10.1294ZM41 19.3828V16.6877L14.1505 30.3812L11.7904 31.5807L7 34.0265V36.7216L11.6502 34.3537L15.7707 32.2506L35.6877 22.1168L35.8357 22.0389L35.8591 22.2025C35.9292 22.7243 35.9604 23.254 35.9604 23.7759C35.9604 26.9695 34.7141 29.9839 32.4552 32.2428C31.3491 33.3488 30.0561 34.2135 28.6151 34.821C27.1741 35.4286 25.6474 35.7401 24.0818 35.7479H23.9961C21.9553 35.7479 19.9457 35.2261 18.1853 34.2446L18.0919 34.2913L15.7084 35.5065C16.5496 36.0984 17.4532 36.6047 18.4034 37.0098C20.1794 37.7576 22.0566 38.1392 23.9961 38.1392C25.9356 38.1392 27.8206 37.7576 29.5888 37.0098C31.2946 36.2854 32.8369 35.2494 34.1533 33.9253C35.4696 32.6011 36.5056 31.0666 37.23 29.353C37.9778 27.577 38.3595 25.692 38.3595 23.7525C38.3595 23.3864 38.3517 23.0125 38.3205 22.6464C38.2348 21.5326 38.8268 20.4888 39.816 19.9825L41 19.3828Z" fill="white"/>
</svg>
