<svg width="81" height="80" viewBox="0 0 81 80" fill="none" xmlns="http://www.w3.org/2000/svg">
<g clip-path="url(#clip0_18948_5406)">
<path d="M40.5 80C62.5914 80 80.5 62.0914 80.5 40C80.5 17.9086 62.5914 0 40.5 0C18.4086 0 0.5 17.9086 0.5 40C0.5 62.0914 18.4086 80 40.5 80Z" fill="#F2F5FA"/>
<path fill-rule="evenodd" clip-rule="evenodd" d="M25.0041 57.4725C26.6026 60.3083 28.9263 62.6682 31.7371 64.3103C34.5479 65.9525 37.7447 66.8179 41 66.8179C44.2553 66.8179 47.4521 65.9525 50.2629 64.3103C53.0737 62.6682 55.3974 60.3083 56.9959 57.4725C58.6364 54.6314 59.5 51.4085 59.5 48.1278C59.5 44.8471 58.6364 41.6242 56.9959 38.783L42.9272 14.1258C42.7346 13.7842 42.4546 13.4999 42.116 13.3021C41.7773 13.1043 41.3922 13 41 13C40.6078 13 40.2227 13.1043 39.884 13.3021C39.5454 13.4999 39.2654 13.7842 39.0728 14.1258L25.0041 38.783C23.3636 41.6242 22.5 44.8471 22.5 48.1278C22.5 51.4085 23.3636 54.6314 25.0041 57.4725ZM37.0368 25.8564L40.0364 20.599C40.1327 20.4282 40.2727 20.2861 40.442 20.1872C40.6113 20.0883 40.8039 20.0361 41 20.0361C41.1961 20.0361 41.3887 20.0883 41.558 20.1872C41.7273 20.2861 41.8673 20.4282 41.9636 20.599L53.5032 40.8238C54.5391 42.617 55.1814 44.6103 55.3872 46.6709C55.593 48.7316 55.3578 50.8125 54.6971 52.7752C54.5535 52.1061 54.3561 51.4498 54.1067 50.8127C52.5127 46.7422 48.9087 43.6011 43.3925 41.4762C39.6001 40.0206 37.1792 37.8797 36.1955 35.1123C34.9287 31.5467 36.2519 27.6575 37.0368 25.8564ZM31.922 34.821L28.4968 40.8238C27.2144 43.0446 26.5392 45.5639 26.5392 48.1284C26.5392 50.6929 27.2144 53.2121 28.4968 55.433C29.5334 57.2693 30.9616 58.855 32.68 60.0774C34.3983 61.2997 36.3647 62.1288 38.4395 62.5057C40.5144 62.8826 42.6467 62.7981 44.6852 62.2582C46.7237 61.7183 48.6183 60.7363 50.2346 59.3819C51.1278 57.0984 51.1597 54.5679 50.3244 52.2627C49.1538 49.3218 46.3356 46.974 41.9487 45.283C36.9898 43.3796 33.7684 40.4081 32.3749 36.4535C32.1872 35.9202 32.0359 35.3748 31.922 34.821Z" fill="#1F2226"/>
</g>
<defs>
<clipPath id="clip0_18948_5406">
<rect width="80" height="80" fill="white" transform="translate(0.5)"/>
</clipPath>
</defs>
</svg>
