<svg width="48" height="48" viewBox="0 0 48 48" fill="none" xmlns="http://www.w3.org/2000/svg">
<path d="M24 48C37.2549 48 48 37.2549 48 24C48 10.7451 37.2549 0 24 0C10.7451 0 0 10.7451 0 24C0 37.2549 10.7451 48 24 48Z" fill="#0098EA"/>
<path d="M32.1945 13.3953H15.8045C12.791 13.3953 10.8809 16.646 12.397 19.2739L22.5123 36.8066C23.1724 37.9514 24.8266 37.9514 25.4867 36.8066L35.6041 19.2739C37.1181 16.6502 35.2081 13.3953 32.1966 13.3953H32.1945ZM22.5041 31.5488L20.3012 27.2853L14.9857 17.7784C14.635 17.1699 15.0681 16.3902 15.8025 16.3902H22.5021V31.5508L22.5041 31.5488ZM33.0093 17.7764L27.6958 27.2873L25.4929 31.5488V16.3881H32.1925C32.9268 16.3881 33.3599 17.1679 33.0093 17.7764Z" fill="white"/>
</svg>
