<svg width="50" height="50" viewBox="0 0 50 50" fill="none" xmlns="http://www.w3.org/2000/svg">
<path d="M25 49C38.2548 49 49 38.2548 49 25C49 11.7452 38.2548 1 25 1C11.7452 1 1 11.7452 1 25C1 38.2548 11.7452 49 25 49Z" fill="white" stroke="#E7EBF3" stroke-width="1.5"/>
<path fill-rule="evenodd" clip-rule="evenodd" d="M8.07886 30.6545C5.11411 27.1292 5.32061 21.9192 8.69752 18.6282C12.295 15.1239 18.1267 15.1239 21.7242 18.6282C25.3209 22.1333 25.3209 27.8152 21.7242 31.3203C18.2361 34.7188 12.6467 34.8213 9.03173 31.6298L17.1647 23.7049L18.1416 24.6567L13.1758 29.4958C15.0309 30.2885 17.2742 29.9443 18.7926 28.4648C20.7713 26.5369 20.7713 23.4116 18.7926 21.4845C16.8147 19.5566 13.607 19.5566 11.6283 21.4845C9.87264 23.195 9.67526 25.8493 11.0361 27.7724L8.07886 30.6545ZM32.5316 26.7599V25.4178H44C43.7669 30.0242 39.9596 33.7144 35.2235 33.9099C29.8023 34.1345 25.3457 29.7228 25.6592 24.445C25.9378 19.7481 30.0644 16.0224 34.8271 16.0224C39.5897 16.0224 43.5049 19.5541 43.966 24.0757H39.7946C39.3633 21.785 37.3034 20.0494 34.8271 20.0494C31.7081 20.0494 29.2492 22.8039 29.8737 25.9535C30.2601 27.9 31.8333 29.4279 33.8327 29.7996C36.3878 30.2739 38.6875 28.8712 39.5342 26.7599H32.5316Z" fill="url(#paint0_linear_11032_798)"/>
<defs>
<linearGradient id="paint0_linear_11032_798" x1="35.4232" y1="15.0219" x2="17.6829" y2="32.7168" gradientUnits="userSpaceOnUse">
<stop stop-color="#FAEA53"/>
<stop offset="0.12" stop-color="#FFAF90"/>
<stop offset="0.25" stop-color="#FE7981"/>
<stop offset="0.56" stop-color="#BC50FF"/>
<stop offset="1" stop-color="#53B7FF"/>
</linearGradient>
</defs>
</svg>
