<svg width="48" height="48" viewBox="0 0 48 48" fill="none" xmlns="http://www.w3.org/2000/svg">
<circle cx="24" cy="24" r="24" fill="#F2F5FA"/>
<path fill-rule="evenodd" clip-rule="evenodd" d="M28.4736 19.5625L19.5244 24.9384V28.4381L28.4736 23.0622V19.5625Z" fill="#356DF3"/>
<path d="M20.5312 13.4668L14.5684 16.755C13.2924 17.4586 12.5 18.8005 12.5 20.2577V27.7924C12.5 29.2603 13.3041 30.6104 14.5949 31.3095L20.5312 34.5251V31.1133L15.5 28.388V19.6672L20.5312 16.8927V13.4668Z" fill="#356DF3"/>
<path d="M27.4697 13.4707L33.4325 16.7589C34.7086 17.4625 35.501 18.8044 35.501 20.2616V27.7963C35.501 29.2642 34.6969 30.6143 33.4061 31.3134L27.4697 34.529V31.1172L32.501 28.3919V19.6711L27.4697 16.8966V13.4707Z" fill="#356DF3"/>
</svg>
