<svg width="60" height="60" viewBox="0 0 60 60" fill="none" xmlns="http://www.w3.org/2000/svg">
<path d="M30.1273 11.25C26.3683 11.2641 22.7672 12.7672 20.1091 15.4316C17.4511 18.0959 15.9516 21.7055 15.9375 25.4735C15.9373 27.0445 16.1898 28.6053 16.6853 30.0957C16.8632 30.5835 17.2204 30.9846 17.6839 31.2169C18.1473 31.4492 18.6818 31.495 19.1778 31.345C19.6593 31.1616 20.0527 30.8008 20.2777 30.3365C20.5027 29.8721 20.5424 29.3391 20.3885 28.8465C19.967 27.6874 19.7794 26.456 19.8366 25.2237C19.8955 23.2344 20.5302 21.3051 21.6634 19.671C22.7967 18.0368 24.3795 16.7682 26.2192 16.0197C28.059 15.2712 30.0761 15.0751 32.025 15.4553C33.9739 15.8355 35.7705 16.7755 37.1959 18.161C38.6213 19.5464 39.614 21.3174 40.0532 23.2583C40.4923 25.1992 40.359 27.2262 39.6693 29.0925C38.9796 30.9587 37.7634 32.5837 36.1688 33.7694C34.5742 34.9552 32.67 35.6506 30.6882 35.7708C30.6882 35.7708 28.703 35.8958 27.706 36.0207C27.3404 36.0724 26.9778 36.1439 26.6199 36.2348C26.5942 36.2542 26.5624 36.2636 26.5303 36.2613C26.4983 36.259 26.4681 36.2452 26.4454 36.2224C26.4227 36.1996 26.4089 36.1694 26.4066 36.1373C26.4043 36.1051 26.4137 36.0732 26.433 36.0475L26.7446 34.361L28.614 25.8751C28.7214 25.3698 28.6242 24.8425 28.3437 24.409C28.0633 23.9756 27.6225 23.6716 27.1184 23.564C26.6144 23.4563 26.0883 23.5537 25.6559 23.8349C25.2235 24.116 24.9202 24.5578 24.8128 25.063C24.8128 25.063 20.3618 45.7826 20.3618 45.97C20.3005 46.22 20.2908 46.4799 20.3332 46.7338C20.3756 46.9877 20.4692 47.2302 20.6084 47.4466C20.7476 47.663 20.9293 47.8486 21.1426 47.9921C21.3558 48.1355 21.596 48.2339 21.8484 48.2811C22.0984 48.3411 22.3579 48.3496 22.6113 48.306C22.8646 48.2623 23.1064 48.1675 23.3221 48.0273C23.5377 47.8871 23.7227 47.7044 23.8657 47.4903C24.0087 47.2763 24.1068 47.0353 24.1541 46.782C24.2164 46.5322 24.7772 43.7838 24.7772 43.7838C24.9838 42.7722 25.4948 41.8484 26.2413 41.1368C26.9878 40.4252 27.9339 39.9601 28.9523 39.8041C29.3796 39.7416 31.1867 39.6167 31.1867 39.6167C34.798 39.2822 38.1441 37.5734 40.5372 34.8418C42.9302 32.1103 44.1882 28.5635 44.0526 24.9307C43.9169 21.298 42.3979 17.8554 39.8078 15.3108C37.2177 12.7662 33.7535 11.313 30.1273 11.25Z" fill="#1E1E1E"/>
<path d="M33.6774 44.0067C33.3704 43.9444 33.0541 43.9434 32.7467 44.0039C32.4394 44.0645 32.147 44.1853 31.8863 44.3594C31.6257 44.5336 31.402 44.7577 31.228 45.0188C31.0541 45.2799 30.9333 45.5729 30.8727 45.881C30.8067 46.189 30.803 46.5071 30.8618 46.8165C30.9206 47.126 31.0408 47.4205 31.2151 47.6826C31.3894 47.9447 31.6144 48.1691 31.8767 48.3425C32.1391 48.5159 32.4335 48.6349 32.7425 48.6923C33.0494 48.7623 33.3674 48.7688 33.677 48.7114C33.9865 48.654 34.2812 48.5339 34.5429 48.3585C34.8046 48.183 35.0278 47.956 35.1989 47.6911C35.3701 47.4262 35.4855 47.1292 35.5382 46.8181C35.6431 46.2001 35.5091 45.5653 35.1633 45.0429C34.8176 44.5206 34.2862 44.15 33.6774 44.0067Z" fill="#E6007A"/>
</svg>
