<svg width="64" height="64" fill="none" xmlns="http://www.w3.org/2000/svg">
	<circle cx="32" cy="32" r="26" fill="#F6851B"/>
	<path d="M32.075 20.857a8.455 8.455 0 00-5.953 2.485 8.495 8.495 0 00-2.035 8.715 1.208 1.208 0 001.481.742 1.202 1.202 0 00.72-1.485 5.547 5.547 0 01-.328-2.152 6.107 6.107 0 011.085-3.3 6.087 6.087 0 012.708-2.17 6.07 6.07 0 016.523 1.272 6.102 6.102 0 011.47 6.497 6.096 6.096 0 01-2.08 2.78 6.075 6.075 0 01-3.257 1.189s-1.18.074-1.773.148c-.217.03-.432.073-.645.127a.079.079 0 01-.104-.007.08.08 0 01-.007-.104l.185-1.002 1.111-5.043a1.16 1.16 0 00-.889-1.374 1.152 1.152 0 00-1.37.891s-2.645 12.313-2.645 12.425a1.127 1.127 0 00.883 1.373 1.124 1.124 0 001.37-.89c.038-.15.37-1.782.37-1.782a3.003 3.003 0 012.482-2.365 36.815 36.815 0 011.328-.112 8.42 8.42 0 005.557-2.838 8.46 8.46 0 00-.434-11.607 8.417 8.417 0 00-5.753-2.413zM34.186 40.324a1.409 1.409 0 00-1.455.601c-.104.156-.176.33-.212.513a1.403 1.403 0 001.112 1.67 1.373 1.373 0 001.661-1.113 1.467 1.467 0 00-1.106-1.671z"
	      fill="#fff"/>
</svg>
