<svg width="44" height="44" fill="none" xmlns="http://www.w3.org/2000/svg">
	<circle cx="22" cy="22" r="22" fill="#F2F5FA"/>
	<path d="M17.238 29v-2.327l5.436-5.033c.463-.448.85-.85 1.164-1.209a4.59 4.59 0 0 0 .723-1.051c.164-.348.246-.723.246-1.126 0-.448-.102-.833-.306-1.156a2.007 2.007 0 0 0-.835-.753 2.617 2.617 0 0 0-1.2-.269c-.468 0-.875.095-1.224.284-.348.189-.616.46-.805.813-.189.353-.283.773-.283 1.26h-3.065c0-1 .226-1.867.678-2.603.453-.736 1.087-1.305 1.902-1.707.815-.403 1.755-.604 2.819-.604 1.094 0 2.046.193 2.856.581.815.383 1.45.915 1.902 1.596.452.681.678 1.462.678 2.342 0 .576-.114 1.146-.343 1.707-.223.562-.624 1.186-1.2 1.872-.577.681-1.39 1.5-2.439 2.454l-2.23 2.185v.104h6.414V29H17.238Z"
	      fill="#9AA1B0"/>
</svg>
