<svg width="7" height="13" viewBox="0 0 7 13" fill="none" xmlns="http://www.w3.org/2000/svg">
<path d="M6.96096 5.75701L1.86257 12.9228C1.82702 12.9718 1.77266 13.0003 1.71522 12.9999C1.68533 13.0008 1.65578 12.993 1.62947 12.9776C1.5493 12.9328 1.51009 12.8318 1.53623 12.7379L2.91058 7.7901H0.184176C0.113997 7.78983 0.0498128 7.74667 0.0181777 7.67839C-0.0106272 7.61265 -0.00488178 7.53521 0.0331621 7.47528L4.97854 0.084115C5.02891 0.00831156 5.12023 -0.0202517 5.19982 0.0149295C5.27941 0.0500202 5.32661 0.139879 5.3142 0.232458L4.6597 5.43002H6.81346C6.8848 5.42984 6.9499 5.474 6.98129 5.54382C7.01226 5.61336 7.00435 5.69597 6.96081 5.75708L6.96096 5.75701Z" fill="#9AA1B0"/>
</svg>
