    <svg width="16" height="16" viewBox="0 0 16 16" fill="none">
      <path
        d="M7.99978 14.4436V8.71518M7.99978 14.4436L3.74122 11.4605C3.32345 11.1679 3.11456 11.0216 3.00162 10.8045C2.88867 10.5875 2.88867 10.3325 2.88867 9.82243V5.13493M7.99978 14.4436L12.2583 11.4605C12.6761 11.1679 12.885 11.0216 12.9979 10.8045C13.1109 10.5875 13.1109 10.3325 13.1109 9.82243V5.13493M7.99978 8.71518L2.88867 5.13493M7.99978 8.71518L13.1109 5.13493M2.88867 5.13493L6.85233 2.35846C7.40703 1.9699 7.68438 1.77562 7.99978 1.77562C8.31518 1.77562 8.59253 1.9699 9.14724 2.35846L13.1109 5.13493"
        stroke="currentColor"
        stroke-width="1.67"
        fill="none"
      />
    </svg>