<svg width="101" height="20" viewBox="0 0 101 20" fill="none" xmlns="http://www.w3.org/2000/svg">
    <g>
        <path fill-rule="evenodd" clip-rule="evenodd" d="M62.7728 9.52591V16.3651H61.1004V9.52591H59.569V8.05892H61.1028V6.65899C61.1028 4.81118 62.3264 3.80884 63.8256 3.80884C64.3777 3.80884 64.7218 3.92979 64.7941 3.98548V5.43271C64.7057 5.39858 64.5008 5.32852 64.0897 5.32852C63.5209 5.32852 62.78 5.60515 62.78 6.74521V8.05892H64.7792V9.52651L62.7728 9.52591ZM19.2985 16.3651V3.86093H20.9189V16.3651H19.2985ZM11.0147 4.1202C13.342 4.1202 14.7025 5.50157 14.7025 7.4362C14.7025 8.7487 13.9449 9.68159 12.8766 10.0828C14.2723 10.4283 15.0819 11.6701 15.0819 13.0359C15.0819 14.9699 13.5482 16.3693 11.3075 16.3693H7.03418V4.1202H11.0147ZM10.8253 9.47022C12.187 9.47022 12.9967 8.65889 12.9967 7.51883C12.9967 6.362 12.153 5.60156 10.7566 5.60156H8.72272V9.47022H10.8253ZM11.0667 14.8795C12.4284 14.8795 13.3552 14.1191 13.3552 12.9281C13.3552 11.7533 12.6143 10.924 11.1324 10.924H8.72272V14.8795H11.0667ZM28.8436 16.6261C31.3221 16.6261 33.0829 14.7436 33.0829 12.2048C33.0829 9.68099 31.3221 7.80145 28.8436 7.80145C26.3652 7.80145 24.6043 9.68399 24.6043 12.2048C24.6043 14.7412 26.3646 16.6261 28.8436 16.6261ZM28.8436 9.25167C30.2226 9.25167 31.4284 10.2875 31.4284 12.2048C31.4284 14.1365 30.2215 15.1759 28.8436 15.1759C27.4646 15.1759 26.2588 14.1394 26.2588 12.2048C26.2588 10.2852 27.464 9.25167 28.8436 9.25167ZM38.424 12.2048C38.424 14.1047 39.613 15.1238 40.9574 15.1238C42.5079 15.1238 43.0767 14.0706 43.2661 13.4143L44.6965 14.0317C44.3004 15.2226 43.112 16.6214 40.9574 16.6214C38.5441 16.6237 36.7695 14.7244 36.7695 12.2048C36.7695 9.61513 38.5799 7.80145 40.94 7.80145C43.146 7.80145 44.2855 9.18281 44.6284 10.448L43.164 11.0648C42.9572 10.2534 42.3543 9.30077 40.9406 9.30077C39.6303 9.30077 38.424 10.269 38.424 12.2048ZM55.8794 16.3651L52.2771 11.5635L55.8107 8.05892H53.57L49.985 11.7366V3.86093H48.3819V16.3651H49.985V13.8604L51.14 12.7036L53.8461 16.3651H55.8794ZM72.7146 16.6261C75.1931 16.6261 76.9539 14.7436 76.9539 12.2048C76.9539 9.68099 75.1931 7.80145 72.7146 7.80145C70.2356 7.80145 68.4753 9.68399 68.4753 12.2048C68.4753 14.7412 70.2356 16.6261 72.7146 16.6261ZM72.7146 9.25167C74.0931 9.25167 75.2994 10.2875 75.2994 12.2048C75.2994 14.1365 74.0948 15.1759 72.7164 15.1759C71.3374 15.1759 70.131 14.1394 70.131 12.2048C70.131 10.2852 71.3362 9.25167 72.7146 9.25167ZM80.6405 16.3651V3.86093H82.2603V16.3651H80.6405ZM87.5518 3.99146C87.4639 3.93048 87.3646 3.88777 87.2599 3.86586C87.1552 3.84395 87.0472 3.84327 86.9423 3.86388C86.8373 3.88448 86.7376 3.92595 86.6489 3.98582C86.5602 4.0457 86.4844 4.12278 86.4259 4.21251C86.3674 4.30224 86.3275 4.40279 86.3084 4.50825C86.2893 4.6137 86.2915 4.72192 86.3149 4.8265C86.3383 4.93108 86.3823 5.02992 86.4444 5.11717C86.5065 5.20442 86.5854 5.27832 86.6765 5.33451C86.8541 5.44413 87.0675 5.47991 87.2711 5.43425C87.4747 5.38858 87.6525 5.26508 87.7666 5.09002C87.8807 4.91497 87.9221 4.70219 87.8819 4.49701C87.8418 4.29182 87.7234 4.11044 87.5518 3.99146ZM87.9121 8.05772H86.309V16.3651H87.9121V8.05772ZM96.2001 16.6261C98.6791 16.6261 100.439 14.7436 100.439 12.2048C100.439 9.68099 98.6797 7.80145 96.2006 7.80145C93.7222 7.80145 91.9614 9.68399 91.9614 12.2048C91.9614 14.7412 93.721 16.6261 96.2001 16.6261ZM96.2001 9.25167C97.5791 9.25167 98.7854 10.2875 98.7854 12.2048C98.7854 14.1365 97.5785 15.1759 96.2001 15.1759C94.8216 15.1759 93.6159 14.1394 93.6159 12.2048C93.6159 10.2881 94.8204 9.25167 96.2001 9.25167Z" fill="var(--color-1,  white)"/>
        <path opacity="0.7" d="M19.1662 19.8798H1.91331C1.75142 19.8799 1.59109 19.848 1.44151 19.786C1.29192 19.7239 1.156 19.6329 1.04152 19.5182C0.927046 19.4035 0.836252 19.2673 0.774334 19.1174C0.712415 18.9675 0.680586 18.8068 0.680664 18.6446V1.35503C0.680664 1.19284 0.712552 1.03224 0.774506 0.882404C0.836459 0.732568 0.927265 0.596433 1.04173 0.481775C1.1562 0.367118 1.29209 0.276186 1.44164 0.214173C1.59119 0.15216 1.75147 0.120283 1.91331 0.120361H19.1662C19.4929 0.12052 19.8062 0.250652 20.0372 0.482162C20.2682 0.713673 20.3981 1.02762 20.3982 1.35503V2.13223H19.9579V1.35503C19.9577 1.14456 19.8742 0.942762 19.7256 0.793993C19.5771 0.645224 19.3756 0.561656 19.1656 0.561656H1.91271C1.70279 0.561815 1.50152 0.645453 1.35308 0.794205C1.20464 0.942957 1.12118 1.14466 1.12102 1.35503V18.6446C1.12102 18.855 1.20441 19.0569 1.35287 19.2058C1.50132 19.3547 1.70269 19.4384 1.91271 19.4385H19.1656C19.3757 19.4385 19.5772 19.3549 19.7258 19.206C19.8744 19.0571 19.9579 18.8551 19.9579 18.6446V18.2146H20.3982V18.6446C20.3983 18.8068 20.3665 18.9675 20.3046 19.1174C20.2427 19.2673 20.1519 19.4035 20.0374 19.5182C19.9229 19.6329 19.787 19.7239 19.6374 19.786C19.4878 19.848 19.3275 19.8799 19.1656 19.8798H19.1662Z" fill="var(--color-1,  white)"/>
    </g>
</svg>
