<svg width="126" height="25" viewBox="0 0 126 25" fill="none" xmlns="http://www.w3.org/2000/svg">
    <path fill-rule="evenodd" clip-rule="evenodd" d="M32.5332 18.0999C29.7769 18.0999 27.7393 15.9705 27.7393 13.3551C27.7393 10.7396 29.7769 8.55801 32.5504 8.55801C34.3069 8.55801 35.3954 9.19919 36.2558 10.1345L34.9392 11.5367C34.289 10.8617 33.6046 10.394 32.5332 10.394C30.9877 10.394 29.8641 11.7102 29.8641 13.3205C29.8641 14.9654 31.0048 16.2815 32.6376 16.2815C33.6396 16.2815 34.377 15.8139 35.0443 15.1389L36.3259 16.3852C35.4133 17.3896 34.342 18.0999 32.5332 18.0999ZM40.3572 18.0999H38.2338V8.57566H40.3579V10.8095C40.9372 9.44183 42.0086 8.5058 43.6414 8.57566V10.7926H43.5183C41.6574 10.7926 40.3572 11.9874 40.3572 14.4117V18.0999ZM54.7629 8.55875L50.0681 20.6639H47.9134L48.9401 18.1029L44.9178 8.55875H47.1828L49.9264 15.608L52.562 8.55875H54.7629ZM61.0308 10.3764C59.5912 10.3764 58.3267 11.5367 58.3267 13.3205C58.3267 15.1043 59.5912 16.2639 61.0308 16.2639C62.4884 16.2639 63.6821 15.1389 63.6821 13.3205C63.6821 11.519 62.4705 10.3764 61.0308 10.3764ZM61.5222 18.0823C59.9953 18.0823 59.029 17.3205 58.3789 16.472V20.6632H56.254V8.55875H58.3789V10.2727C59.0641 9.32051 60.0303 8.55948 61.5222 8.55948C63.7171 8.55948 65.842 10.2727 65.842 13.3212C65.842 16.369 63.735 18.083 61.5222 18.083V18.0823ZM70.4995 10.5499V15.0337C70.4995 15.847 70.9185 16.1757 71.6402 16.1757H72.4737V18.047H71.0199C69.4743 18.0426 68.3754 17.3646 68.3754 15.3632V10.5499H67.1959V8.75066H68.3754V6.23889H70.4995V8.75066H72.4737V10.5499H70.4995ZM79.1935 10.394C77.4899 10.394 76.4014 11.7102 76.4014 13.3205C76.4014 14.9485 77.5779 16.2815 79.2285 16.2815C80.9485 16.2815 82.0378 14.9654 82.0378 13.3551C82.0378 11.7271 80.8613 10.394 79.1935 10.394ZM79.1935 18.0999C76.3663 18.0999 74.2765 15.9705 74.2765 13.3551C74.2765 10.7227 76.3835 8.55801 79.2285 8.55801C82.0728 8.55801 84.1627 10.6882 84.1627 13.3205C84.1627 15.936 82.055 18.0999 79.1935 18.0999ZM88.0508 16.1786V17.2345C88.0513 17.256 88.046 17.2772 88.0352 17.2958C88.0244 17.3145 88.0086 17.3299 87.9896 17.3404L87.0629 17.8683C87.0443 17.8792 87.023 17.8849 87.0014 17.8849C86.9797 17.8849 86.9585 17.8792 86.9399 17.8683L86.0109 17.3404C85.992 17.3297 85.9763 17.3143 85.9655 17.2957C85.9546 17.2771 85.9489 17.256 85.949 17.2345V16.1786C85.949 16.136 85.9736 16.0955 86.0109 16.0727L86.9399 15.5448C86.9585 15.5339 86.9797 15.5282 87.0014 15.5282C87.023 15.5282 87.0443 15.5339 87.0629 15.5448L87.9896 16.0727C88.0085 16.0834 88.0241 16.0989 88.035 16.1175C88.0458 16.1361 88.0515 16.1571 88.0515 16.1786H88.0508ZM104.476 10.394C102.772 10.394 101.683 11.7102 101.683 13.3205C101.683 14.9485 102.86 16.2815 104.511 16.2815C106.231 16.2815 107.319 14.9654 107.319 13.3551C107.319 11.7271 106.143 10.394 104.476 10.394ZM104.476 18.0999C101.648 18.0999 99.5585 15.9705 99.5585 13.3551C99.5585 10.7227 101.665 8.55801 104.511 8.55801C107.355 8.55801 109.445 10.6882 109.445 13.3205C109.445 15.936 107.337 18.0999 104.476 18.0999ZM94.52 18.0896C91.7637 18.0374 89.7685 15.869 89.82 13.2543C89.8707 10.6404 91.9493 8.49698 94.7228 8.54992C96.4786 8.58301 97.5545 9.24404 98.3969 10.1955L97.0527 11.5727C96.4167 10.8852 95.7412 10.4051 94.6699 10.3845C93.1251 10.3551 91.9754 11.6492 91.9441 13.2595C91.912 14.9051 93.0281 16.2426 94.6602 16.2735C95.6615 16.2926 96.4078 15.8389 97.0877 15.1764L98.3455 16.447C97.4135 17.4337 96.3287 18.1235 94.5208 18.0896H94.52ZM122.073 8.55875C124.093 8.55875 125.321 9.82198 125.321 12.0558V18.0999H123.197V12.697C123.197 11.2426 122.512 10.4632 121.318 10.4632C120.16 10.4632 119.334 11.2595 119.334 12.7315V18.0999H117.21V12.6793C117.21 11.2602 116.507 10.4632 115.331 10.4632C114.154 10.4632 113.346 11.3293 113.346 12.7499V18.0999H111.221V8.55875H113.346V10.1352C113.943 9.32125 114.752 8.55875 116.173 8.55875C117.508 8.55875 118.438 9.19992 118.93 10.169C119.686 9.19992 120.668 8.55875 122.073 8.55875Z" fill="var(--color-1,  white)"/>
    <path fill-rule="evenodd" clip-rule="evenodd" d="M0 6.68744V18.5918L10.3998 24.5448L20.7975 18.5918V6.68744L10.3998 0.735229L0 6.68744ZM0.91555 18.0698V7.2117L10.3998 1.78008L19.8849 7.2117V18.0698L10.3998 23.4999L0.91555 18.0698Z" fill="var(--color-1,  white)"/>
    <path fill-rule="evenodd" clip-rule="evenodd" d="M14.4753 5.875H6.30392L5.35706 10.0051H15.4602L14.4753 5.875ZM7.75404 15.6897V12.9449L5.33246 11.4191L2.59326 13.4382L6.32704 19.8757H7.81816L9.58216 18.2478V17.4294L7.75404 15.6897Z" fill="var(--color-1,  white)"/>
    <path fill-rule="evenodd" clip-rule="evenodd" d="M13.054 10.6285H7.76123L8.65292 12.9359L8.38154 15.5219H10.3983L12.4337 15.5124L12.1802 12.9359L13.054 10.6285Z" fill="var(--color-1,  white)"/>
    <path fill-rule="evenodd" clip-rule="evenodd" d="M15.4743 11.4008L13.0818 12.9449V15.6897L11.2529 17.4294V18.2478L13.0162 19.8574H14.4894L18.2046 13.4383L15.4743 11.4008Z" fill="var(--color-1,  white)"/>
</svg>
