<svg width="95" height="25" viewBox="0 0 95 25" fill="none" xmlns="http://www.w3.org/2000/svg">
    <g clip-path="url(#clip0-gekko)">
        <path d="M39.2689 9.81658C39.0106 8.81401 38.3592 8.08042 37.0856 8.08042C35.2061 8.08042 34.4201 9.73054 34.4201 11.4051C34.4201 13.0797 35.2061 14.7307 37.0856 14.7307C38.4502 14.7307 39.198 13.7164 39.3199 12.4448H40.8182C40.6954 14.5351 39.2098 15.9769 37.0884 15.9769C34.4602 15.9769 32.8882 13.8984 32.8882 11.4042C32.8882 8.91001 34.4547 6.82788 37.0829 6.82788C39.0597 6.83965 40.619 7.92826 40.8036 9.81114L39.2689 9.81658Z" fill="var(--color-1,  white)"/>
        <path d="M41.7251 12.5986C41.7251 10.6668 42.8914 9.27393 44.93 9.27393C46.9687 9.27393 48.135 10.6668 48.135 12.5986C48.135 14.5304 46.9687 15.9369 44.93 15.9369C42.8914 15.9369 41.7251 14.5431 41.7251 12.5986ZM46.7349 12.5986C46.7349 11.5118 46.1827 10.3743 44.93 10.3743C43.6773 10.3743 43.1251 11.5109 43.1251 12.5986C43.1251 13.6863 43.6773 14.8365 44.93 14.8365C46.1827 14.8365 46.7349 13.699 46.7349 12.5986Z" fill="var(--color-1,  white)"/>
        <path d="M49.3389 7.03613H50.7389V8.35659H49.3389V7.03613ZM49.3389 9.4452H50.7389V15.7658H49.3389V9.4452Z" fill="var(--color-1,  white)"/>
        <path d="M52.2617 9.44506H53.5881V10.3743L53.6127 10.3987C53.8138 10.0545 54.1025 9.7692 54.4497 9.57155C54.797 9.3739 55.1904 9.27091 55.5904 9.27298C56.9659 9.27298 57.8374 10.0066 57.8374 11.4239V15.7648H56.4373V11.7916C56.4128 10.8017 56.0198 10.3743 55.1974 10.3743C54.264 10.3743 53.6618 11.107 53.6618 12.0362V15.7657H52.2617V9.44506Z" fill="var(--color-1,  white)"/>
        <path d="M67.1581 15.7659H66.1756L65.9427 14.7389C65.124 15.6681 64.3707 15.9733 63.3045 15.9733C60.6782 15.9751 59.1025 13.8921 59.1025 11.4006C59.1025 8.9091 60.6782 6.82788 63.3027 6.82788C65.2131 6.82788 66.827 7.84223 67.0598 9.81114H65.5615C65.4142 8.66185 64.408 8.07498 63.3027 8.07498C61.4232 8.07498 60.6372 9.7251 60.6372 11.3997C60.6372 13.0743 61.4232 14.7253 63.3027 14.7253C64.8738 14.7497 65.7335 13.8088 65.7589 12.3289H63.4255V11.1687H67.1554L67.1581 15.7659Z" fill="var(--color-1,  white)"/>
        <path d="M69.7253 12.9654C69.7253 13.9562 70.2656 14.8365 71.4319 14.8365C72.2424 14.8365 72.7337 14.4815 72.9784 13.785H74.3057C73.9991 15.1662 72.8201 15.9369 71.4319 15.9369C69.4432 15.9369 68.3252 14.5549 68.3252 12.6113C68.3252 10.8136 69.5078 9.27393 71.3955 9.27393C73.3969 9.27393 74.625 11.0708 74.3921 12.9654H69.7253ZM72.992 12.0489C72.9429 11.1686 72.3407 10.3743 71.3955 10.3743C70.4248 10.3743 69.7626 11.107 69.7253 12.0489H72.992Z" fill="var(--color-1,  white)"/>
        <path d="M79.747 11.5598C79.636 10.7891 79.071 10.3743 78.2978 10.3743C77.57 10.3743 76.5539 10.7529 76.5539 12.672C76.5539 13.7235 77.0205 14.8365 78.2359 14.8365C79.0465 14.8365 79.6114 14.2986 79.747 13.3938H81.147C80.8887 15.0322 79.8734 15.9369 78.2359 15.9369C76.2464 15.9369 75.1538 14.5304 75.1538 12.672C75.1538 10.7647 76.1982 9.27393 78.285 9.27393C79.7588 9.27393 81.0142 10.0075 81.147 11.5598H79.747Z" fill="var(--color-1,  white)"/>
        <path d="M82.3296 7.03613H83.7296V12.0001L86.2596 9.4452H87.9789L85.5473 11.7673L88.2118 15.7658H86.5016L84.5611 12.6965L83.726 13.5035V15.7677H82.3296V7.03613Z" fill="var(--color-1,  white)"/>
        <path d="M88.5894 12.5986C88.5894 10.6668 89.7556 9.27393 91.7943 9.27393C93.833 9.27393 95.0002 10.6668 95.0002 12.5986C95.0002 14.5304 93.833 15.9369 91.7943 15.9369C89.7556 15.9369 88.5894 14.5431 88.5894 12.5986ZM93.6001 12.5986C93.6001 11.5118 93.047 10.3743 91.7943 10.3743C90.5416 10.3743 89.9894 11.5109 89.9894 12.5986C89.9894 13.6863 90.5416 14.8365 91.7943 14.8365C93.047 14.8365 93.6001 13.699 93.6001 12.5986Z" fill="var(--color-1,  white)"/>
        <path d="M25.1086 12.4426C25.1195 14.9145 24.3939 17.3341 23.0236 19.3955C21.6532 21.4569 19.6996 23.0674 17.4098 24.0234C15.12 24.9794 12.5969 25.2379 10.1595 24.7663C7.72211 24.2947 5.47993 23.1142 3.71651 21.3739C1.95309 19.6337 0.747621 17.4119 0.252556 14.9896C-0.242508 12.5673 -0.00493562 10.0533 0.93523 7.76537C1.8754 5.47748 3.47593 3.51853 5.53442 2.13624C7.59292 0.753948 10.0169 0.0104021 12.4999 -0.000369455C15.8293 -0.014813 19.0281 1.288 21.3927 3.62149C23.7573 5.95497 25.0939 9.128 25.1086 12.4426Z" fill="var(--color-5,  #CECECE)"/>
        <path d="M24.1666 12.4473C24.1771 14.7334 23.5063 16.9713 22.2391 18.878C20.9719 20.7846 19.1653 22.2743 17.0477 23.1587C14.9301 24.0431 12.5966 24.2825 10.3423 23.8467C8.08802 23.4108 6.0142 22.3192 4.38309 20.7099C2.75198 19.1006 1.63685 17.0459 1.17872 14.8057C0.720584 12.5655 0.940023 10.2403 1.80929 8.12424C2.67855 6.00818 4.15859 4.19625 6.06225 2.9176C7.96591 1.63896 10.2077 0.951019 12.5041 0.940786C15.5832 0.927304 18.5416 2.13194 20.7287 4.28975C22.9158 6.44757 24.1524 9.38185 24.1666 12.4473Z" fill="var(--color-6,  #FDFDFD)"/>
        <path d="M12.768 1.68986C13.5061 1.55944 14.2615 1.55944 14.9995 1.68986C15.7448 1.80733 16.4651 2.04761 17.131 2.40081C17.7933 2.76307 18.3655 3.25485 18.935 3.71583C19.5045 4.17682 20.0712 4.64867 20.6107 5.1649C21.1614 5.67308 21.6419 6.25171 22.0398 6.88566C22.4495 7.51459 22.7853 8.18829 23.0405 8.89352C23.5254 10.3118 23.6937 11.8397 23.4517 13.2969H23.3799C23.137 11.8523 22.8076 10.4757 22.2882 9.16613C22.0444 8.50667 21.7575 7.86378 21.4294 7.24159C21.0871 6.6193 20.7099 6.01668 20.2996 5.4366C19.8823 4.85016 19.3708 4.33611 18.7858 3.91508C18.1963 3.49666 17.5185 3.22587 16.8626 2.96866C16.2067 2.71145 15.5563 2.44518 14.8722 2.24956C14.1881 2.05394 13.493 1.90722 12.7671 1.76503L12.768 1.68986Z" fill="var(--color-1,  white)"/>
        <path d="M18.4435 8.36741C17.6011 8.12469 16.7278 7.78054 15.8435 7.43276C15.7926 7.21178 15.5961 6.93646 15.1985 6.60046C14.6209 6.10143 13.5356 6.11411 12.5976 6.3351C11.5624 6.09238 10.5399 6.00634 9.55828 6.24453C1.53002 8.4462 6.08225 13.8177 3.13477 19.2173C3.55415 20.103 8.07453 25.2708 14.6154 23.8842C14.6154 23.8842 12.3784 18.5326 17.4264 15.9641C21.5211 13.873 24.4795 10.0039 18.4435 8.36741Z" fill="var(--color-3,  #D5D5D5)"/>
        <path d="M19.4353 11.8822C19.4358 11.978 19.4078 12.0719 19.3548 12.1518C19.3018 12.2318 19.2261 12.2944 19.1374 12.3315C19.0487 12.3687 18.9509 12.3788 18.8563 12.3607C18.7618 12.3425 18.6748 12.2968 18.6064 12.2294C18.538 12.1621 18.4911 12.076 18.4718 11.9821C18.4525 11.8882 18.4616 11.7908 18.4979 11.702C18.5343 11.6133 18.5962 11.5373 18.6759 11.4836C18.7557 11.4299 18.8496 11.4009 18.9459 11.4004C19.0749 11.3999 19.1988 11.4503 19.2906 11.5407C19.3823 11.631 19.4343 11.7538 19.4353 11.8822Z" fill="var(--color-1,  white)"/>
        <path d="M12.5977 6.33144C13.1826 6.3731 15.2977 7.05597 15.8435 7.4291C15.3887 6.11589 13.8576 5.94109 12.5977 6.33144Z" fill="var(--color-2,  #959595)"/>
        <path d="M13.1544 9.65249C13.1546 10.0946 13.0231 10.5268 12.7765 10.8945C12.5299 11.2622 12.1793 11.5489 11.7691 11.7182C11.3588 11.8875 10.9074 11.9319 10.4718 11.8457C10.0362 11.7596 9.63607 11.5468 9.32198 11.2342C9.0079 10.9217 8.79398 10.5234 8.70727 10.0898C8.62057 9.65619 8.66497 9.20672 8.83488 8.79824C9.00479 8.38976 9.29256 8.04062 9.6618 7.79497C10.031 7.54933 10.4652 7.41821 10.9092 7.41821C11.204 7.41809 11.496 7.4758 11.7684 7.58803C12.0408 7.70026 12.2883 7.86481 12.4968 8.0723C12.7053 8.27978 12.8707 8.52613 12.9835 8.79726C13.0964 9.0684 13.1544 9.35901 13.1544 9.65249Z" fill="var(--color-1,  white)"/>
        <path d="M12.4886 9.67233C12.4886 9.98329 12.396 10.2873 12.2225 10.5458C12.0489 10.8044 11.8023 11.0059 11.5137 11.1249C11.2251 11.2439 10.9076 11.275 10.6012 11.2144C10.2949 11.1537 10.0135 11.004 9.79264 10.7841C9.57177 10.5642 9.42136 10.284 9.36042 9.97906C9.29949 9.67408 9.33076 9.35795 9.45029 9.07066C9.56982 8.78338 9.77224 8.53783 10.032 8.36507C10.2917 8.19231 10.597 8.1001 10.9093 8.1001C11.3282 8.1001 11.7299 8.26574 12.0261 8.56059C12.3222 8.85545 12.4886 9.25535 12.4886 9.67233Z" fill="var(--color-4,  #58595B)"/>
        <path d="M21.2539 12.8677C19.4345 14.1437 17.3658 15.1119 14.431 15.1119C13.0573 15.1119 12.779 13.6628 11.8711 14.3711C11.4026 14.7388 9.75051 15.5611 8.4396 15.4986C7.1287 15.4361 5.0036 14.6708 4.41137 11.885C4.17667 14.6708 4.05658 16.7231 3.00586 19.0751C5.09821 22.4107 10.0871 24.9836 14.6157 23.8751C14.129 20.4925 17.0983 17.1795 18.7713 15.4841C19.4081 14.842 20.618 13.7942 21.2539 12.8658V12.8677Z" fill="var(--color-3,  #D5D5D5)"/>
        <path d="M21.1828 12.9509C20.6179 13.4635 19.9456 13.843 19.2615 14.1781C18.5691 14.5054 17.8472 14.7671 17.1055 14.9597C16.3631 15.1508 15.589 15.2948 14.8048 15.2241C14.0206 15.1535 13.2192 14.8881 12.6997 14.3031L12.7243 14.275C13.3611 14.6862 14.0961 14.8311 14.8275 14.8519C15.5689 14.8744 16.3104 14.8136 17.0381 14.6708C17.7732 14.5176 18.4923 14.2962 19.186 14.0097C19.8801 13.7244 20.5669 13.3938 21.1583 12.9229L21.1828 12.9509Z" fill="var(--color-4,  #58595B)"/>
    </g>
    <defs>
        <clipPath id="clip0-gekko">
            <rect width="95" height="25" fill="var(--color-1,  white)"/>
        </clipPath>
    </defs>
</svg>
