<svg width="128" height="22" viewBox="0 0 128 22" fill="none" xmlns="http://www.w3.org/2000/svg">
    <path fill-rule="evenodd" clip-rule="evenodd" d="M18.8562 13.1463C18.4724 13.3889 18.0204 13.4189 17.6768 13.2252C17.2403 12.9789 17.0003 12.4021 17.0003 11.5999V9.19976C17.0003 8.04073 16.5419 7.216 15.7753 6.99332C14.4761 6.61502 13.499 8.20385 13.1318 8.80054L10.8406 12.5137V7.97527C10.8148 6.93107 10.4755 6.30649 9.83129 6.11815C9.40503 5.99366 8.76726 6.04356 8.14773 6.99117L3.0144 15.2299C2.32717 13.9259 1.96891 12.4739 1.97077 11C1.97077 6.03712 5.94988 1.99985 10.8406 1.99985C15.7312 1.99985 19.7098 6.03712 19.7098 11C19.7098 11.0086 19.712 11.0161 19.7125 11.0241C19.7125 11.0327 19.7109 11.0402 19.7114 11.0488C19.7576 12.0099 19.4462 12.7745 18.8562 13.1469V13.1463ZM21.6806 11.0005V11V10.9753L21.68 10.9506C21.6527 4.90654 16.8012 0 10.84 0C4.8633 0 0 4.93444 0 11C0 17.065 4.8633 22 10.8406 22C13.5833 22 16.201 20.958 18.2104 19.0665C18.6098 18.6909 18.6334 18.0582 18.263 17.6537C18.1758 17.5576 18.0703 17.4798 17.9527 17.425C17.8351 17.3702 17.7077 17.3394 17.578 17.3344C17.4483 17.3294 17.3189 17.3503 17.1974 17.3959C17.0759 17.4415 16.9648 17.5109 16.8704 17.6C15.2417 19.1416 13.0837 20.0006 10.8406 20.0001C8.22182 20.0001 5.8656 18.8417 4.24056 17.0044L8.86979 9.57483V12.9999C8.86979 14.645 9.50811 15.1768 10.0433 15.3324C10.5791 15.488 11.3978 15.3818 12.2573 13.9866L14.8036 9.86083C14.8852 9.72776 14.9603 9.61293 15.029 9.51366V11.5999C15.029 13.1378 15.6453 14.3676 16.7196 14.9734C17.688 15.5197 18.9056 15.4703 19.8977 14.8446C21.1003 14.0854 21.7482 12.6865 21.6806 11.0005ZM36.773 7.24229C37.0333 7.40059 37.2588 7.75259 37.2588 8.06971C37.2588 8.58 36.8251 9.00229 36.3392 9.00229C36.2179 9.00229 36.0965 8.96741 35.9924 8.932C35.4196 8.50971 34.6911 8.228 33.9277 8.228C32.1239 8.228 30.8746 9.70629 30.8746 11.5366C30.8746 13.3674 32.1239 14.828 33.9277 14.828C34.8296 14.828 35.6279 14.4583 36.2351 13.8954C36.3919 13.7827 36.5798 13.7212 36.773 13.7194C37.2588 13.7194 37.6405 14.1063 37.6405 14.5994C37.6405 14.916 37.4494 15.1977 37.2067 15.356C36.3392 16.0954 35.1598 16.588 33.9454 16.588C31.1699 16.588 28.9141 14.3 28.9141 11.484C28.9141 8.668 31.1694 6.38 33.9454 6.38C34.9864 6.38 35.9747 6.69659 36.773 7.24229ZM41.8483 9.372C43.7391 9.372 45.3352 10.9737 45.3352 12.9446C45.3352 14.916 43.7391 16.588 41.8483 16.588C39.8706 16.588 38.2225 14.916 38.2225 12.9446C38.2225 10.9737 39.8706 9.372 41.8483 9.372ZM41.8306 14.828C42.6638 14.828 43.3746 14.036 43.3746 12.9623C43.3746 11.8891 42.6638 11.22 41.8306 11.22C40.9287 11.22 40.1825 11.8714 40.1825 12.9623C40.1825 14.036 40.9287 14.828 41.8306 14.828ZM46.5243 15.4966V10.4634C46.5243 9.91771 46.958 9.46 47.496 9.46C48.0339 9.46 48.4848 9.91771 48.4848 10.4634V15.4966C48.4848 16.0423 48.0339 16.5 47.496 16.5C46.958 16.5 46.5243 16.0423 46.5243 15.4966ZM46.3686 7.55942C46.3686 6.908 46.8711 6.38 47.496 6.38C48.1375 6.38 48.6582 6.908 48.6582 7.55942C48.6582 8.19259 48.1375 8.70341 47.496 8.70341C46.8711 8.70341 46.3686 8.19259 46.3686 7.55942ZM52.2417 12.7686V15.4966C52.2417 16.0423 51.7907 16.5 51.2523 16.5C50.7149 16.5 50.2806 16.0423 50.2806 15.4966V10.2343C50.2806 9.812 50.6279 9.46 51.0445 9.46C51.4606 9.46 51.7907 9.812 51.7907 10.2343C52.5885 9.49541 53.2821 9.372 53.9414 9.372C55.9019 9.372 56.7695 10.8503 56.7695 12.5223V15.4966C56.7695 16.0423 56.3185 16.5 55.7806 16.5C55.2427 16.5 54.8089 16.0423 54.8089 15.4966V12.7686C54.8089 11.9063 54.7048 11.1846 53.4732 11.1846C52.6057 11.1846 52.2412 11.9063 52.2412 12.7686H52.2417ZM63.1456 13.8074C62.9201 13.8074 62.7644 13.7017 62.6426 13.5606L60.3524 11.0794V15.4966C60.3524 16.0423 59.9014 16.5 59.3635 16.5C58.8256 16.5 58.3918 16.0423 58.3918 15.4966V6.75024C58.4199 6.67656 58.47 6.61332 58.5353 6.56914C58.6006 6.52497 58.678 6.50202 58.7569 6.50342C58.9297 6.50342 59.0683 6.64454 59.1729 6.75024L62.816 10.8508C62.9201 10.9742 63.0586 11.0445 63.1284 11.0445C63.1977 11.0445 63.3362 10.9742 63.4403 10.8514L67.0839 6.75024C67.1881 6.64454 67.3266 6.50342 67.5 6.50342C67.6734 6.50342 67.8124 6.60912 67.8645 6.75024V15.4966C67.8645 16.0423 67.4307 16.5 66.8928 16.5C66.3549 16.5 65.9039 16.0423 65.9039 15.4966V11.0794L63.6143 13.5606C63.4924 13.7017 63.3362 13.8074 63.1456 13.8074ZM72.5753 14.828C73.4601 14.828 74.2057 14.036 74.2057 12.9623C74.2057 11.8891 73.4429 11.1846 72.5753 11.1846C71.7078 11.1846 71.0136 11.9063 71.0136 12.9623C71.0136 14.0006 71.7078 14.828 72.5753 14.828ZM74.6572 15.7257L74.6218 15.4966C74.2406 16.2532 73.0257 16.588 72.2452 16.588C70.4059 16.588 69.0531 14.916 69.0531 12.9446C69.0531 10.9737 70.4408 9.372 72.3493 9.372C72.6789 9.372 73.772 9.46 74.6218 10.4634L74.6567 10.2343C74.6567 9.812 74.9863 9.46 75.4029 9.46C75.819 9.46 76.1658 9.812 76.1658 10.2343V15.7257C76.1658 16.148 75.819 16.5 75.4024 16.5C74.9863 16.5 74.6562 16.148 74.6562 15.7257H74.6572ZM81.6057 11.1846H81.3979C80.1658 11.2554 79.9232 11.9594 79.9232 12.7686V15.4966C79.9232 16.0423 79.4722 16.5 78.9343 16.5C78.3964 16.5 77.9626 16.0423 77.9626 15.4966V10.2343C77.9626 9.812 78.3094 9.46 78.726 9.46C79.1426 9.46 79.4722 9.812 79.4722 10.2343C80.2007 9.548 80.7907 9.40741 81.3979 9.372H81.5885C82.0571 9.372 82.4904 9.77659 82.4904 10.2874C82.4904 10.7623 82.0743 11.1846 81.6057 11.1846ZM89.1618 15.0394C89.2487 15.18 89.3008 15.3383 89.3008 15.5143C89.3008 16.0246 88.8322 16.5 88.3291 16.5C87.9823 16.5 87.6871 16.236 87.4616 15.9543L85.2068 13.332V15.4966C85.2068 16.0423 84.7553 16.5 84.2174 16.5C83.6795 16.5 83.2457 16.0423 83.2457 15.4966V7.50683C83.2457 6.96059 83.6795 6.50342 84.2174 6.50342C84.7553 6.50342 85.2063 6.96059 85.2063 7.50683V12.4874L87.4616 9.988C87.6871 9.724 87.9646 9.46 88.312 9.46C88.7978 9.46 89.2487 9.91771 89.2487 10.428C89.2487 10.5863 89.2139 10.7446 89.1269 10.8857L87.3402 12.8389L89.1618 15.0389V15.0394ZM93.0056 11.22C92.4677 11.22 91.6001 11.5017 91.6001 12.3286H94.4277C94.4277 11.484 93.5258 11.22 93.0051 11.22H93.0056ZM95.5728 13.5783H91.6001C91.6001 14.7577 92.7275 14.9337 93.2305 14.9337C93.5956 14.9337 94.1158 14.8634 94.5147 14.6869C94.636 14.5994 94.8443 14.5286 95.0177 14.5286C95.4515 14.5286 95.8155 14.8988 95.8155 15.3388C95.8155 15.6377 95.6249 15.9017 95.3822 16.0423C94.7751 16.4823 93.9939 16.588 93.2483 16.588C91.2705 16.588 89.6224 15.5148 89.6224 13.0326C89.6224 11.0794 90.6284 9.372 92.9707 9.372C94.8615 9.372 96.3013 10.604 96.3362 12.804C96.3362 13.2263 95.9894 13.5783 95.5728 13.5783ZM101.03 16.588H100.492C98.9995 16.588 98.1325 15.9366 98.1325 13.596V11.1846H97.6295C97.1608 11.1846 96.7447 10.7623 96.7447 10.2874C96.7447 9.77659 97.1608 9.372 97.6295 9.372H98.1325V7.50629C98.1325 6.96059 98.5663 6.50288 99.1042 6.50288C99.6416 6.50288 100.093 6.96059 100.093 7.50629V9.372H100.908C101.377 9.372 101.793 9.77659 101.793 10.2874C101.793 10.7623 101.377 11.1846 100.908 11.1846H100.093V13.2086C100.093 14.5463 100.162 14.828 100.752 14.828H101.03C101.498 14.828 101.897 15.2154 101.897 15.708C101.897 16.1834 101.498 16.588 101.03 16.588ZM110.529 7.24229C110.789 7.40059 111.015 7.75259 111.015 8.06971C111.015 8.58 110.581 9.00229 110.095 9.00229C109.974 9.00229 109.852 8.96741 109.748 8.932C109.175 8.50971 108.447 8.228 107.684 8.228C105.88 8.228 104.63 9.70629 104.63 11.5366C104.63 13.3674 105.879 14.828 107.684 14.828C108.585 14.828 109.384 14.4583 109.991 13.8954C110.148 13.7827 110.336 13.7212 110.529 13.7194C111.015 13.7194 111.396 14.1063 111.396 14.5994C111.396 14.916 111.205 15.1977 110.963 15.356C110.095 16.0954 108.915 16.588 107.701 16.588C104.925 16.588 102.67 14.3 102.67 11.484C102.67 8.668 104.925 6.38 107.701 6.38C108.742 6.38 109.731 6.69659 110.529 7.24229ZM115.5 14.828C116.385 14.828 117.13 14.036 117.13 12.9623C117.13 11.8891 116.367 11.1846 115.5 11.1846C114.632 11.1846 113.938 11.9063 113.938 12.9623C113.938 14.0006 114.632 14.828 115.5 14.828H115.5ZM117.581 15.7257L117.547 15.4966C117.165 16.2532 115.951 16.588 115.17 16.588C113.331 16.588 111.978 14.916 111.978 12.9446C111.978 10.9737 113.366 9.372 115.274 9.372C115.604 9.372 116.697 9.46 117.547 10.4634L117.581 10.2343C117.581 9.812 117.911 9.46 118.328 9.46C118.744 9.46 119.091 9.812 119.091 10.2343V15.7257C119.091 16.148 118.744 16.5 118.328 16.5C117.911 16.5 117.581 16.148 117.581 15.7257ZM124.478 14.828C125.346 14.828 126.039 14.0006 126.039 12.9623C126.039 11.9063 125.346 11.1846 124.478 11.1846C123.611 11.1846 122.847 11.8886 122.847 12.9623C122.847 14.036 123.594 14.828 124.478 14.828ZM122.847 16.0074V18.5063C122.847 19.052 122.396 19.5097 121.858 19.5097C121.321 19.5097 120.887 19.052 120.887 18.5063V10.2343C120.887 9.812 121.234 9.46 121.651 9.46C122.067 9.46 122.397 9.812 122.397 10.3046C123.125 9.548 124.027 9.372 124.704 9.372C126.612 9.372 128 10.9737 128 12.9446C128 14.916 126.647 16.588 124.808 16.588C124.236 16.588 123.385 16.412 122.847 16.0074Z" fill="var(--color-1,  white)"/>
</svg>
