<svg width="580" height="357" viewBox="0 0 580 357" fill="none" xmlns="http://www.w3.org/2000/svg">
<path d="M0 20C0 8.9543 8.95431 0 20 0H560C571.046 0 580 8.95431 580 20V337C580 348.046 571.046 357 560 357H20C8.95432 357 0 348.046 0 337V20Z" fill="#F2F5FA"/>
<path d="M36 58.579L36 59.6918L27.2342 56.4731L27.2342 55.3774L36 52.1587L36 53.2716L28.621 55.891L28.621 55.9595L36 58.579ZM32.5759 58.1681L32.5759 53.6825L33.5175 53.6825L33.5175 58.1681L32.5759 58.1681ZM36 50.6728L27.2342 50.6728L27.2342 47.7109C27.2342 47.0232 27.3583 46.4611 27.6066 46.0245C27.852 45.5851 28.1844 45.2598 28.6039 45.0487C29.0233 44.8375 29.4913 44.7319 30.0078 44.7319C30.5242 44.7319 30.9936 44.8375 31.4159 45.0487C31.8382 45.257 32.1749 45.5794 32.4261 46.016C32.6743 46.4526 32.7984 47.0118 32.7984 47.6938L32.7984 49.8168L31.8568 49.8168L31.8568 47.728C31.8568 47.2572 31.7755 46.8791 31.6128 46.5938C31.4502 46.3085 31.2305 46.1016 30.9537 45.9732C30.674 45.8419 30.3587 45.7763 30.0078 45.7763C29.6568 45.7763 29.3429 45.8419 29.0661 45.9732C28.7893 46.1016 28.5725 46.3099 28.4155 46.5981C28.2557 46.8863 28.1758 47.2686 28.1758 47.7452L28.1758 49.6113L36 49.6113L36 50.6728ZM27.2342 43.6548L27.2342 42.4392L31.326 40.0081L31.326 39.9053L27.2342 37.4742L27.2342 36.2586L32.3875 39.426L36 39.426L36 40.4874L32.3875 40.4874L27.2342 43.6548Z" fill="#82899A"/>
<path d="M53 32V296H557" stroke="#BFC6D0" stroke-width="0.860927" stroke-linecap="round" stroke-linejoin="round"/>
<path d="M477.421 319H476.308L479.527 310.234H480.623L483.841 319H482.728L480.109 311.621H480.04L477.421 319ZM477.832 315.576H482.318V316.517H477.832V315.576ZM492.278 310.234V319H491.251L486.474 312.117H486.389V319H485.327V310.234H486.354L491.148 317.134H491.234V310.234H492.278ZM494.523 319V310.234H495.584V314.583H495.687L499.625 310.234H501.012L497.331 314.189L501.012 319H499.727L496.68 314.925L495.584 316.158V319H494.523ZM502.506 319V310.234H505.468C506.153 310.234 506.715 310.351 507.154 310.585C507.594 310.816 507.919 311.134 508.13 311.54C508.341 311.945 508.447 312.406 508.447 312.922C508.447 313.439 508.341 313.897 508.13 314.296C507.919 314.696 507.595 315.009 507.159 315.238C506.722 315.463 506.164 315.576 505.485 315.576H503.088V314.617H505.451C505.919 314.617 506.295 314.549 506.581 314.412C506.869 314.275 507.077 314.081 507.206 313.83C507.337 313.576 507.403 313.273 507.403 312.922C507.403 312.571 507.337 312.264 507.206 312.002C507.074 311.739 506.865 311.537 506.576 311.394C506.288 311.249 505.907 311.176 505.434 311.176H503.567V319H502.506ZM506.632 315.062L508.789 319H507.557L505.434 315.062H506.632ZM518.366 313.898L517.459 314.155C517.402 314.004 517.318 313.857 517.207 313.714C517.098 313.568 516.95 313.449 516.761 313.354C516.573 313.26 516.332 313.213 516.038 313.213C515.636 313.213 515.3 313.306 515.032 313.491C514.767 313.674 514.634 313.907 514.634 314.189C514.634 314.44 514.725 314.638 514.908 314.784C515.091 314.93 515.376 315.051 515.764 315.148L516.74 315.388C517.328 315.53 517.766 315.748 518.054 316.042C518.342 316.333 518.486 316.709 518.486 317.168C518.486 317.545 518.378 317.881 518.161 318.178C517.947 318.475 517.647 318.709 517.262 318.88C516.877 319.051 516.429 319.137 515.918 319.137C515.248 319.137 514.693 318.991 514.253 318.7C513.814 318.409 513.536 317.984 513.419 317.425L514.377 317.185C514.469 317.539 514.641 317.804 514.895 317.981C515.152 318.158 515.487 318.247 515.901 318.247C516.372 318.247 516.746 318.147 517.023 317.947C517.302 317.744 517.442 317.502 517.442 317.219C517.442 316.991 517.362 316.8 517.202 316.646C517.042 316.489 516.797 316.372 516.466 316.295L515.37 316.038C514.768 315.895 514.326 315.674 514.044 315.375C513.764 315.072 513.624 314.694 513.624 314.24C513.624 313.869 513.728 313.541 513.936 313.256C514.148 312.971 514.434 312.747 514.797 312.584C515.162 312.421 515.576 312.34 516.038 312.34C516.689 312.34 517.199 312.483 517.57 312.768C517.944 313.053 518.21 313.43 518.366 313.898ZM522.987 312.426V313.282H519.58V312.426H522.987ZM520.573 310.851H521.583V317.117C521.583 317.402 521.624 317.616 521.707 317.759C521.792 317.899 521.901 317.993 522.032 318.041C522.166 318.087 522.307 318.11 522.456 318.11C522.567 318.11 522.658 318.104 522.73 318.093C522.801 318.078 522.858 318.067 522.901 318.058L523.106 318.966C523.038 318.991 522.942 319.017 522.82 319.043C522.697 319.071 522.541 319.086 522.353 319.086C522.068 319.086 521.788 319.024 521.514 318.902C521.243 318.779 521.018 318.592 520.838 318.341C520.661 318.09 520.573 317.773 520.573 317.391V310.851ZM526.561 319.154C526.145 319.154 525.766 319.076 525.427 318.919C525.087 318.759 524.818 318.529 524.618 318.23C524.418 317.927 524.318 317.562 524.318 317.134C524.318 316.757 524.393 316.452 524.541 316.218C524.689 315.981 524.888 315.796 525.136 315.661C525.384 315.527 525.658 315.427 525.958 315.362C526.26 315.293 526.564 315.239 526.869 315.199C527.269 315.148 527.593 315.109 527.841 315.084C528.092 315.055 528.275 315.008 528.389 314.942C528.506 314.877 528.564 314.763 528.564 314.6V314.566C528.564 314.143 528.449 313.815 528.218 313.581C527.989 313.347 527.643 313.23 527.178 313.23C526.695 313.23 526.317 313.336 526.043 313.547C525.769 313.758 525.577 313.984 525.465 314.223L524.507 313.881C524.678 313.481 524.906 313.17 525.192 312.948C525.48 312.722 525.794 312.565 526.133 312.477C526.476 312.386 526.812 312.34 527.143 312.34C527.354 312.34 527.597 312.366 527.871 312.417C528.148 312.466 528.414 312.567 528.671 312.721C528.931 312.875 529.146 313.108 529.318 313.419C529.489 313.73 529.574 314.146 529.574 314.668V319H528.564V318.11H528.513C528.444 318.252 528.33 318.405 528.171 318.568C528.011 318.73 527.798 318.869 527.533 318.983C527.267 319.097 526.944 319.154 526.561 319.154ZM526.715 318.247C527.115 318.247 527.451 318.168 527.725 318.011C528.002 317.854 528.21 317.652 528.35 317.403C528.493 317.155 528.564 316.894 528.564 316.62V315.696C528.522 315.747 528.427 315.794 528.282 315.837C528.139 315.877 527.974 315.913 527.785 315.944C527.6 315.972 527.419 315.998 527.242 316.021C527.068 316.041 526.926 316.058 526.818 316.072C526.555 316.107 526.31 316.162 526.082 316.239C525.856 316.313 525.674 316.426 525.534 316.577C525.397 316.726 525.328 316.928 525.328 317.185C525.328 317.536 525.458 317.802 525.718 317.981C525.981 318.158 526.313 318.247 526.715 318.247ZM532.48 316.603L532.463 315.353H532.669L535.545 312.426H536.795L533.73 315.524H533.644L532.48 316.603ZM531.539 319V310.234H532.549V319H531.539ZM535.716 319L533.148 315.747L533.867 315.045L537 319H535.716ZM540.701 319.137C540.068 319.137 539.521 318.997 539.062 318.718C538.605 318.435 538.253 318.041 538.005 317.536C537.759 317.028 537.636 316.438 537.636 315.764C537.636 315.091 537.759 314.497 538.005 313.984C538.253 313.467 538.598 313.065 539.04 312.777C539.485 312.486 540.005 312.34 540.598 312.34C540.941 312.34 541.279 312.397 541.613 312.511C541.947 312.625 542.25 312.811 542.524 313.068C542.798 313.322 543.017 313.658 543.179 314.078C543.342 314.497 543.423 315.014 543.423 315.627V316.055H538.356V315.182H542.396C542.396 314.811 542.322 314.48 542.173 314.189C542.028 313.898 541.82 313.668 541.549 313.5C541.28 313.332 540.964 313.247 540.598 313.247C540.196 313.247 539.848 313.347 539.554 313.547C539.263 313.744 539.039 314.001 538.882 314.317C538.725 314.634 538.647 314.974 538.647 315.336V315.918C538.647 316.415 538.732 316.836 538.903 317.181C539.077 317.523 539.319 317.784 539.627 317.964C539.935 318.141 540.293 318.23 540.701 318.23C540.966 318.23 541.206 318.192 541.42 318.118C541.637 318.041 541.824 317.927 541.981 317.776C542.138 317.622 542.259 317.431 542.345 317.202L543.321 317.476C543.218 317.807 543.045 318.098 542.803 318.349C542.56 318.598 542.26 318.792 541.904 318.932C541.547 319.068 541.146 319.137 540.701 319.137ZM547.563 319.137C547.015 319.137 546.531 318.999 546.112 318.722C545.692 318.442 545.364 318.048 545.127 317.54C544.891 317.03 544.772 316.426 544.772 315.73C544.772 315.039 544.891 314.44 545.127 313.932C545.364 313.424 545.694 313.032 546.116 312.755C546.538 312.478 547.026 312.34 547.58 312.34C548.008 312.34 548.346 312.411 548.594 312.554C548.845 312.694 549.037 312.854 549.168 313.033C549.302 313.21 549.406 313.356 549.48 313.47H549.566V310.234H550.576V319H549.6V317.99H549.48C549.406 318.11 549.301 318.261 549.164 318.444C549.027 318.623 548.831 318.785 548.577 318.927C548.323 319.067 547.985 319.137 547.563 319.137ZM547.7 318.23C548.105 318.23 548.447 318.124 548.727 317.913C549.007 317.699 549.219 317.403 549.365 317.027C549.51 316.647 549.583 316.209 549.583 315.713C549.583 315.222 549.512 314.793 549.369 314.424C549.226 314.054 549.015 313.765 548.736 313.56C548.456 313.352 548.111 313.247 547.7 313.247C547.272 313.247 546.915 313.357 546.63 313.577C546.347 313.794 546.135 314.089 545.992 314.463C545.852 314.834 545.782 315.251 545.782 315.713C545.782 316.181 545.854 316.606 545.996 316.988C546.142 317.368 546.356 317.67 546.638 317.896C546.924 318.118 547.278 318.23 547.7 318.23Z" fill="#82899A"/>
<path d="M76.6309 33.8164C143.648 164.934 365.55 273.093 555.185 273.093" stroke="url(#paint0_linear_1046_28828)" stroke-width="2.58278" stroke-linecap="round" stroke-linejoin="round"/>
<defs>
<linearGradient id="paint0_linear_1046_28828" x1="77.1273" y1="36.3673" x2="560.571" y2="264.25" gradientUnits="userSpaceOnUse">
<stop stop-color="#356DF3"/>
<stop offset="1" stop-color="#AB35F3"/>
</linearGradient>
</defs>
</svg>
