<svg width="20" height="20" viewBox="0 0 20 20" fill="none" xmlns="http://www.w3.org/2000/svg">
<circle cx="10" cy="10" r="8" fill="#D22C54"/>
<path fill-rule="evenodd" clip-rule="evenodd" d="M9.11756 5.00195C8.93611 5.00195 8.79341 5.15704 8.80848 5.33787L9.27371 10.9207C9.28711 11.0814 9.42149 11.2051 9.5828 11.2051H10.4387C10.6 11.2051 10.7344 11.0814 10.7478 10.9207L11.213 5.33787C11.2281 5.15704 11.0854 5.00195 10.9039 5.00195H9.11756ZM9.99985 14.9987C10.685 14.9987 11.2404 14.4433 11.2404 13.7581C11.2404 13.073 10.685 12.5176 9.99985 12.5176C9.3147 12.5176 8.75928 13.073 8.75928 13.7581C8.75928 14.4433 9.3147 14.9987 9.99985 14.9987Z" fill="white"/>
</svg>
