<svg width="20" height="20" viewBox="0 0 20 20" fill="none" xmlns="http://www.w3.org/2000/svg">
<circle cx="10" cy="10" r="8" fill="#3AC090"/>
<path d="M6.68241 10.3641L6.09676 9.89561L5.15972 11.0669L5.74537 11.5354L6.68241 10.3641ZM9.26466 13.3904L8.79614 13.976C8.96245 14.1091 9.17749 14.1652 9.3876 14.1302C9.5977 14.0953 9.78306 13.9727 9.8974 13.793L9.26466 13.3904ZM14.1685 7.08136L14.5711 6.44862L13.3056 5.6433L12.903 6.27605L14.1685 7.08136ZM5.74537 11.5354L8.79614 13.976L9.73318 12.8047L6.68241 10.3641L5.74537 11.5354ZM9.8974 13.793L14.1685 7.08136L12.903 6.27605L8.63191 12.9877L9.8974 13.793Z" fill="white"/>
</svg>
