<svg width="24" height="24" viewBox="0 0 24 24" fill="none" xmlns="http://www.w3.org/2000/svg">
<rect width="24" height="24" rx="6" fill="currentColor"/>
<path d="M7.16595 12.3413C6.51906 11.8238 5.57512 11.9286 5.0576 12.5755C4.54009 13.2224 4.64497 14.1664 5.29186 14.6839L7.16595 12.3413ZM10.7418 17.1229L9.8048 18.2942C10.1374 18.5603 10.5675 18.6725 10.9877 18.6026C11.4079 18.5328 11.7786 18.2876 12.0073 17.9282L10.7418 17.1229ZM18.3255 7.99978C18.7702 7.30086 18.5642 6.37373 17.8653 5.92897C17.1664 5.48421 16.2392 5.69024 15.7945 6.38915L18.3255 7.99978ZM5.29186 14.6839L9.8048 18.2942L11.6789 15.9516L7.16595 12.3413L5.29186 14.6839ZM12.0073 17.9282L18.3255 7.99978L15.7945 6.38915L9.47635 16.3176L12.0073 17.9282Z" fill="white"/>
</svg>
