<svg width="25" height="25" viewBox="0 0 25 25" fill="none" xmlns="http://www.w3.org/2000/svg">
<path d="M10.194 20.2105L6.69397 18.1105C5.74543 17.5414 5.27115 17.2568 5.01155 16.7983C4.75195 16.3398 4.75195 15.7867 4.75195 14.6806V10.2101C4.75195 9.10389 4.75195 8.5508 5.01155 8.0923C5.01262 8.09042 5.01368 8.08855 5.01475 8.08668C5.27504 7.63146 5.74931 7.3469 6.69397 6.7801L10.194 4.6801C11.1966 4.0785 11.698 3.77769 12.252 3.77769C12.8059 3.77769 13.3073 4.0785 14.3099 4.6801L17.8099 6.7801C18.7585 7.34923 19.2328 7.63379 19.4924 8.0923C19.4972 8.10083 19.5019 8.10939 19.5066 8.11799C19.752 8.57157 19.752 9.12448 19.752 10.2101V14.6806C19.752 15.7867 19.752 16.3398 19.4924 16.7983C19.2328 17.2568 18.7585 17.5414 17.8099 18.1105L14.3099 20.2105L14.3099 20.2105C13.3073 20.8121 12.8059 21.1129 12.252 21.1129C11.698 21.1129 11.1967 20.8121 10.194 20.2105L10.194 20.2105Z" fill="white"/>
<path d="M12.252 12.4453L19.5996 8.0625M12.252 12.4453L4.97461 8.0625M12.252 12.4453L12.252 21.1875M14.3099 4.6801L17.8099 6.7801C18.7585 7.34923 19.2328 7.63379 19.4924 8.0923C19.752 8.5508 19.752 9.10389 19.752 10.2101V14.6806C19.752 15.7867 19.752 16.3398 19.4924 16.7983C19.2328 17.2568 18.7585 17.5414 17.8099 18.1105L14.3099 20.2105C13.3073 20.8121 12.8059 21.1129 12.252 21.1129C11.698 21.1129 11.1966 20.8121 10.194 20.2105L6.69397 18.1105C5.74543 17.5414 5.27115 17.2568 5.01155 16.7983C4.75195 16.3398 4.75195 15.7867 4.75195 14.6806V10.2101C4.75195 9.10389 4.75195 8.5508 5.01155 8.0923C5.27115 7.63379 5.74543 7.34923 6.69397 6.7801L10.194 4.6801C11.1966 4.0785 11.698 3.77769 12.252 3.77769C12.8059 3.77769 13.3073 4.0785 14.3099 4.6801Z" stroke="#356DF3" stroke-width="2" stroke-linejoin="round"/>
</svg>
