<svg width="25" height="25" viewBox="0 0 25 25" fill="none" xmlns="http://www.w3.org/2000/svg">
<path d="M7.75195 4.94531C10.2372 4.94531 12.252 5.95267 12.252 7.19531V10.6779C12.252 9.43525 14.2667 8.42789 16.752 8.42789C19.2372 8.42789 21.252 9.43525 21.252 10.6779V17.6948C21.252 18.9374 19.2372 19.9448 16.752 19.9448C14.2667 19.9448 12.252 18.9374 12.252 17.6948C12.252 18.9374 10.2372 19.9453 7.75195 19.9453C5.26667 19.9453 3.25195 18.938 3.25195 17.6953V7.19531C3.25195 5.95267 5.26667 4.94531 7.75195 4.94531Z" fill="white"/>
<ellipse cx="7.75195" cy="7.19531" rx="4.5" ry="2.25" stroke="#356DF3" stroke-width="2" stroke-linejoin="round"/>
<path d="M12.252 7.19531C12.252 8.43795 10.2372 9.44531 7.75195 9.44531C5.26667 9.44531 3.25195 8.43795 3.25195 7.19531" stroke="#356DF3" stroke-width="2" stroke-linejoin="round"/>
<path d="M12.252 14.1953C12.252 15.438 10.2372 16.4453 7.75195 16.4453C5.26667 16.4453 3.25195 15.438 3.25195 14.1953" stroke="#356DF3" stroke-width="2" stroke-linejoin="round"/>
<path d="M12.252 10.6953C12.252 11.938 10.2372 12.9453 7.75195 12.9453C5.26667 12.9453 3.25195 11.938 3.25195 10.6953" stroke="#356DF3" stroke-width="2" stroke-linejoin="round"/>
<path d="M21.252 14.1953C21.252 15.438 19.2372 16.4453 16.752 16.4453C14.2667 16.4453 12.252 15.438 12.252 14.1953" stroke="#356DF3" stroke-width="2" stroke-linejoin="round"/>
<ellipse cx="16.752" cy="10.6953" rx="4.5" ry="2.25" stroke="#356DF3" stroke-width="2" stroke-linejoin="round"/>
<path d="M12.252 7.19531V17.6953C12.252 18.938 10.2372 19.9453 7.75195 19.9453C5.26667 19.9453 3.25195 18.938 3.25195 17.6953V7.19531" stroke="#356DF3" stroke-width="2" stroke-linejoin="round"/>
<path d="M21.252 10.6953V17.6953C21.252 18.938 19.2372 19.9453 16.752 19.9453C14.2667 19.9453 12.252 18.938 12.252 17.6953V10.6953" stroke="#356DF3" stroke-width="2" stroke-linejoin="round"/>
</svg>
