<svg width="25" height="25" viewBox="0 0 25 25" fill="none" xmlns="http://www.w3.org/2000/svg">
<path d="M8.75195 19.4453H16.752C18.6376 19.4453 19.5804 19.4453 20.1662 18.8595C20.752 18.2737 20.752 17.3309 20.752 15.4453V12.4453C20.752 10.5597 20.752 9.61689 20.1662 9.0311C19.5804 8.44531 18.6376 8.44531 16.752 8.44531H6.75195C5.64738 8.44531 4.75195 7.54988 4.75195 6.44531V15.4453C4.75195 17.3309 4.75195 18.2737 5.33774 18.8595C5.92353 19.4453 6.86634 19.4453 8.75195 19.4453Z" fill="white"/>
<path d="M4.75195 6.44531V15.4453C4.75195 17.3309 4.75195 18.2737 5.33774 18.8595C5.92353 19.4453 6.86634 19.4453 8.75195 19.4453H16.752C18.6376 19.4453 19.5804 19.4453 20.1662 18.8595C20.752 18.2737 20.752 17.3309 20.752 15.4453V12.4453C20.752 10.5597 20.752 9.61689 20.1662 9.0311C19.5804 8.44531 18.6376 8.44531 16.752 8.44531H6.75195C5.64738 8.44531 4.75195 7.54988 4.75195 6.44531V6.44531ZM4.75195 6.44531V6.44531C4.75195 5.34074 5.64738 4.44531 6.75195 4.44531H18.752" stroke="#356DF3" stroke-width="2" stroke-linejoin="round"/>
<circle cx="17.252" cy="13.9453" r="1.5" fill="#356DF3"/>
</svg>
