<svg width="25" height="25" viewBox="0 0 25 25" fill="none" xmlns="http://www.w3.org/2000/svg">
<path fill-rule="evenodd" clip-rule="evenodd" d="M10.8933 3.22576C10.745 3.41068 10.6899 3.66845 10.5797 4.18399L10.3458 5.27802L10.3458 5.27803C10.2399 5.77342 10.187 6.02112 10.0586 6.19492C9.93022 6.36871 9.64674 6.52691 9.07979 6.84331C9.03105 6.87052 8.9827 6.89833 8.93475 6.92676C8.39191 7.24859 8.12048 7.4095 7.91054 7.43448C7.70059 7.45946 7.46469 7.38693 6.99289 7.24187L5.88625 6.90161C5.38932 6.74882 5.14085 6.67242 4.90951 6.71029C4.76937 6.73323 4.63572 6.78575 4.51745 6.86437C4.32222 6.99414 4.19225 7.21926 3.93231 7.6695C3.66871 8.12606 3.53692 8.35433 3.52317 8.59102C3.51484 8.73435 3.53748 8.87779 3.58953 9.01159C3.67549 9.23254 3.87118 9.40915 4.26254 9.76235L4.26255 9.76235L5.06638 10.4878C5.4415 10.8264 5.62907 10.9956 5.71539 11.1933C5.80171 11.391 5.79742 11.7136 5.78884 12.3587C5.78845 12.3877 5.78826 12.4167 5.78826 12.4458C5.78826 12.4843 5.7886 12.5228 5.78928 12.5612C5.80051 13.197 5.80612 13.5149 5.72275 13.711C5.63938 13.907 5.45696 14.0766 5.09211 14.4157L4.26211 15.1873C3.88132 15.5412 3.69093 15.7182 3.60805 15.9375C3.55784 16.0703 3.5365 16.2123 3.54545 16.3541C3.56023 16.588 3.6902 16.8131 3.95015 17.2634C4.21374 17.7199 4.34553 17.9482 4.54364 18.0785C4.6636 18.1573 4.79914 18.2094 4.94105 18.2313C5.17538 18.2673 5.42616 18.1861 5.92773 18.0238L6.99273 17.6791L6.99274 17.6791C7.46893 17.525 7.70702 17.4479 7.9198 17.4712C8.13257 17.4944 8.40867 17.6563 8.96085 17.9801C9.00903 18.0084 9.05761 18.036 9.10657 18.0631C9.66712 18.3724 9.9474 18.527 10.0759 18.6975C10.2044 18.868 10.2602 19.1115 10.3718 19.5985L10.6314 20.7311C10.7476 21.2378 10.8056 21.4912 10.9541 21.6726C11.044 21.7825 11.1563 21.872 11.2836 21.9351C11.4936 22.0393 11.7535 22.0393 12.2734 22.0393C12.8006 22.0393 13.0642 22.0393 13.276 21.9329C13.4043 21.8684 13.5172 21.7771 13.6071 21.6651C13.7554 21.4802 13.8105 21.2224 13.9207 20.7069L14.1677 19.5514C14.2715 19.0658 14.3234 18.823 14.4483 18.6513C14.5733 18.4796 14.8487 18.3207 15.3995 18.0028C15.4296 17.9855 15.4595 17.9679 15.4892 17.9501L15.4892 17.9501C16.034 17.6238 16.3064 17.4607 16.5175 17.4351C16.7285 17.4095 16.9659 17.4825 17.4406 17.6284L18.6141 17.9893C19.1111 18.142 19.3595 18.2184 19.5909 18.1806C19.731 18.1576 19.8647 18.1051 19.983 18.0265C20.1782 17.8967 20.3082 17.6716 20.5681 17.2214C20.8317 16.7648 20.9635 16.5365 20.9772 16.2998C20.9856 16.1565 20.9629 16.0131 20.9109 15.8793C20.8249 15.6583 20.6292 15.4817 20.2379 15.1285L19.3352 14.3139C18.9652 13.9799 18.7801 13.8129 18.6939 13.618C18.6076 13.423 18.6088 13.105 18.611 12.4691V12.4691L18.6111 12.4458L18.6109 12.3947C18.606 11.7681 18.6035 11.4548 18.6869 11.2615C18.7702 11.0683 18.9501 10.9011 19.3099 10.5666L19.3099 10.5666L20.2383 9.70361L20.2383 9.70359C20.6191 9.34964 20.8095 9.17266 20.8924 8.95338C20.9426 8.82054 20.9639 8.67854 20.955 8.53681C20.9402 8.30285 20.8102 8.07773 20.5503 7.62749C20.2867 7.17094 20.1549 6.94266 19.9568 6.81241C19.8368 6.73353 19.7013 6.68142 19.5594 6.6596C19.325 6.62357 19.0742 6.70473 18.5727 6.86706L17.4408 7.2334C16.9616 7.38847 16.7221 7.46601 16.5082 7.44218C16.2943 7.41836 16.0172 7.25419 15.463 6.92585C15.4334 6.9083 15.4036 6.89098 15.3737 6.87389C14.8293 6.56307 14.557 6.40766 14.432 6.2393C14.307 6.07095 14.2523 5.83234 14.143 5.3551L14.143 5.3551L13.869 4.15979C13.7528 3.65303 13.6948 3.39966 13.5463 3.21824C13.4564 3.10834 13.3441 3.01886 13.2168 2.95575C13.0068 2.85156 12.7469 2.85156 12.227 2.85156C11.6998 2.85156 11.4362 2.85156 11.2244 2.958C11.0961 3.02245 10.9832 3.11378 10.8933 3.22576ZM12.251 14.9453C13.6318 14.9453 14.751 13.826 14.751 12.4453C14.751 11.0646 13.6318 9.94531 12.251 9.94531C10.8703 9.94531 9.75104 11.0646 9.75104 12.4453C9.75104 13.826 10.8703 14.9453 12.251 14.9453Z" fill="white"/>
<path d="M10.5797 4.18399L9.60176 3.97495V3.97495L10.5797 4.18399ZM10.8933 3.22576L10.1134 2.59995L10.1134 2.59996L10.8933 3.22576ZM10.3458 5.27802L11.2945 5.59425C11.3062 5.55909 11.316 5.52331 11.3237 5.48706L10.3458 5.27802ZM10.3458 5.27803L9.39712 4.9618C9.3854 4.99696 9.37564 5.03275 9.36789 5.06899L10.3458 5.27803ZM10.0586 6.19492L10.863 6.78905L10.863 6.78904L10.0586 6.19492ZM9.07979 6.84331L8.59247 5.97009L8.59247 5.97009L9.07979 6.84331ZM8.93475 6.92676L9.44472 7.78695L9.44473 7.78695L8.93475 6.92676ZM7.91054 7.43448L8.02869 8.42748H8.02869L7.91054 7.43448ZM6.99289 7.24187L7.28678 6.28603H7.28678L6.99289 7.24187ZM5.88625 6.90161L5.59236 7.85745H5.59236L5.88625 6.90161ZM4.90951 6.71029L4.74798 5.72342H4.74798L4.90951 6.71029ZM4.51745 6.86437L5.07104 7.69716L5.07104 7.69716L4.51745 6.86437ZM3.93231 7.6695L4.79833 8.1695L4.79833 8.1695L3.93231 7.6695ZM3.52317 8.59102L2.52485 8.53302L3.52317 8.59102ZM3.58953 9.01159L4.52148 8.64901L4.52148 8.64901L3.58953 9.01159ZM4.26254 9.76235L3.59256 10.5047C3.61313 10.5233 3.63446 10.541 3.6565 10.5578L4.26254 9.76235ZM4.26255 9.76235L4.93253 9.01998C4.91196 9.00142 4.89063 8.98372 4.86859 8.96692L4.26255 9.76235ZM5.06638 10.4878L4.39639 11.2302H4.39639L5.06638 10.4878ZM5.78884 12.3587L4.78893 12.3454L4.78893 12.3455L5.78884 12.3587ZM5.78928 12.5612L6.78912 12.5436V12.5436L5.78928 12.5612ZM5.72275 13.711L4.80252 13.3196L4.80252 13.3196L5.72275 13.711ZM5.09212 14.4157L4.41128 13.6833C4.38612 13.7067 4.36217 13.7314 4.33954 13.7572L5.09212 14.4157ZM5.09211 14.4157L5.77295 15.1482C5.79812 15.1248 5.82206 15.1001 5.84469 15.0742L5.09211 14.4157ZM4.26211 15.1873L4.94294 15.9197L4.94294 15.9197L4.26211 15.1873ZM3.60805 15.9375L2.67263 15.5839H2.67263L3.60805 15.9375ZM3.54545 16.3541L2.54744 16.4171H2.54744L3.54545 16.3541ZM3.95015 17.2634L4.81617 16.7634H4.81617L3.95015 17.2634ZM4.54364 18.0785L5.09302 17.2429L5.09302 17.2429L4.54364 18.0785ZM4.94105 18.2313L5.09302 17.2429L5.09301 17.2429L4.94105 18.2313ZM5.92773 18.0238L5.61981 17.0724H5.61981L5.92773 18.0238ZM6.99273 17.6791L7.30066 18.6305C7.312 18.6269 7.32327 18.623 7.33448 18.6189L6.99273 17.6791ZM6.99274 17.6791L6.68482 16.7277C6.67348 16.7314 6.6622 16.7352 6.651 16.7393L6.99274 17.6791ZM7.9198 17.4712L7.8113 18.4653L7.81131 18.4653L7.9198 17.4712ZM8.96085 17.9801L9.46676 17.1176L9.46675 17.1176L8.96085 17.9801ZM9.10657 18.0631L8.62344 18.9386L8.62344 18.9386L9.10657 18.0631ZM10.0759 18.6975L9.27736 19.2994L9.27736 19.2995L10.0759 18.6975ZM10.3718 19.5985L11.3466 19.3751L10.3718 19.5985ZM10.6314 20.7311L9.65668 20.9545L10.6314 20.7311ZM10.9541 21.6726L10.1802 22.3059L10.9541 21.6726ZM11.2836 21.9351L10.8391 22.8309H10.8391L11.2836 21.9351ZM13.276 21.9329L13.725 22.8264L13.725 22.8264L13.276 21.9329ZM13.6071 21.6651L12.8271 21.0393L12.8271 21.0393L13.6071 21.6651ZM13.9207 20.7069L14.8986 20.9159V20.9159L13.9207 20.7069ZM14.1677 19.5514L13.1898 19.3423L13.1898 19.3423L14.1677 19.5514ZM14.4483 18.6513L15.257 19.2396H15.257L14.4483 18.6513ZM15.3995 18.0028L15.8994 18.8689C15.934 18.8489 15.9675 18.8268 15.9995 18.8028L15.3995 18.0028ZM15.3995 18.0028L14.8997 17.1367C14.865 17.1567 14.8316 17.1788 14.7995 17.2028L15.3995 18.0028ZM15.4892 17.9501L16.003 18.808L16.003 18.808L15.4892 17.9501ZM16.5175 17.4351L16.3971 16.4423H16.3971L16.5175 17.4351ZM17.4406 17.6284L17.1467 18.5843H17.1467L17.4406 17.6284ZM18.6141 17.9893L18.908 17.0334H18.908L18.6141 17.9893ZM19.5909 18.1806L19.7524 19.1674L19.5909 18.1806ZM19.9829 18.0265L19.4294 17.1937L19.4294 17.1937L19.9829 18.0265ZM20.5681 17.2214L19.7021 16.7214L19.7021 16.7214L20.5681 17.2214ZM20.9772 16.2998L21.9756 16.3578V16.3578L20.9772 16.2998ZM20.9109 15.8793L21.8428 15.5167V15.5167L20.9109 15.8793ZM20.2379 15.1285L19.5679 15.8709L19.5679 15.8709L20.2379 15.1285ZM19.3352 14.3139L20.0052 13.5715V13.5715L19.3352 14.3139ZM18.6939 13.618L19.6084 13.2134L19.6084 13.2134L18.6939 13.618ZM18.611 12.4691L19.611 12.4727V12.4691H18.611ZM18.611 12.4691L17.611 12.4673V12.4691H18.611ZM18.6111 12.4458L19.6111 12.4475L19.6111 12.4419L18.6111 12.4458ZM18.6109 12.3947L19.6109 12.3908L19.6108 12.3869L18.6109 12.3947ZM18.6869 11.2615L19.6052 11.6575V11.6574L18.6869 11.2615ZM19.3099 10.5666L19.9907 11.2991V11.299L19.3099 10.5666ZM20.2383 9.70361L19.5575 8.97117V8.97117L20.2383 9.70361ZM20.8924 8.95338L19.9569 8.59983L19.9569 8.59983L20.8924 8.95338ZM20.955 8.53681L21.953 8.47379V8.47379L20.955 8.53681ZM20.5503 7.62749L19.6842 8.12749L19.6842 8.1275L20.5503 7.62749ZM19.9568 6.81241L19.4074 7.64798L19.4074 7.64798L19.9568 6.81241ZM19.5594 6.6596L19.4074 7.64798H19.4074L19.5594 6.6596ZM18.5727 6.86706L18.8806 7.81848H18.8806L18.5727 6.86706ZM17.4408 7.2334L17.1328 6.28199L17.1328 6.28199L17.4408 7.2334ZM16.5082 7.44218L16.3975 8.43604H16.3975L16.5082 7.44218ZM15.4631 6.92586L15.9728 6.06552C15.9524 6.05342 15.9315 6.04205 15.9103 6.03143L15.4631 6.92586ZM15.463 6.92585L14.9533 7.78618C14.9737 7.79829 14.9946 7.80966 15.0158 7.82028L15.463 6.92585ZM15.3737 6.87389L14.8779 7.74234L14.8779 7.74234L15.3737 6.87389ZM14.143 5.3551L15.1177 5.13169L15.1177 5.13169L14.143 5.3551ZM13.869 4.15979L12.8943 4.38319L12.8943 4.38319L13.869 4.15979ZM13.5463 3.21824L12.7724 3.85156L12.7724 3.85156L13.5463 3.21824ZM13.2168 2.95575L12.7724 3.85156L12.7724 3.85156L13.2168 2.95575ZM11.2244 2.958L10.7754 2.06443V2.06443L11.2244 2.958ZM11.5576 4.39303C11.6162 4.11889 11.6481 3.97361 11.6791 3.87111C11.7059 3.78305 11.7098 3.80606 11.6733 3.85156L10.1134 2.59996C9.92848 2.83038 9.83071 3.07473 9.76522 3.29068C9.70412 3.49217 9.65336 3.73355 9.60176 3.97495L11.5576 4.39303ZM11.3237 5.48706L11.5576 4.39303L9.60176 3.97495L9.3679 5.06899L11.3237 5.48706ZM11.2945 5.59426L11.2945 5.59425L9.39712 4.9618L9.39712 4.9618L11.2945 5.59426ZM10.863 6.78904C11.0264 6.56782 11.1125 6.33612 11.1705 6.13744C11.2258 5.94827 11.2739 5.72025 11.3237 5.48706L9.36789 5.06899C9.31185 5.3312 9.28052 5.47472 9.25073 5.5767C9.22372 5.66917 9.21918 5.64822 9.25422 5.60079L10.863 6.78904ZM9.56711 7.71654C9.83946 7.56455 10.0832 7.42901 10.2721 7.30829C10.4521 7.19327 10.6852 7.02976 10.863 6.78905L9.25422 5.60079C9.30364 5.53387 9.33076 5.53636 9.1952 5.62299C9.06854 5.70392 8.88707 5.80568 8.59247 5.97009L9.56711 7.71654ZM9.44473 7.78695C9.48519 7.76296 9.52598 7.73949 9.56711 7.71654L8.59247 5.97009C8.53611 6.00154 8.48021 6.0337 8.42478 6.06657L9.44473 7.78695ZM8.02869 8.42748C8.3189 8.39295 8.57076 8.27639 8.75641 8.18058C8.95071 8.08031 9.18408 7.94147 9.44472 7.78695L8.42478 6.06657C8.14258 6.23387 7.96881 6.33641 7.83921 6.40329C7.70095 6.47465 7.71212 6.45104 7.79239 6.44148L8.02869 8.42748ZM6.699 8.19771C6.92099 8.26596 7.13818 8.33338 7.3259 8.37653C7.52329 8.4219 7.76181 8.45923 8.02869 8.42748L7.79239 6.44148C7.84932 6.43471 7.86491 6.44827 7.77392 6.42735C7.67325 6.40421 7.53659 6.36284 7.28678 6.28603L6.699 8.19771ZM5.59236 7.85745L6.699 8.19771L7.28678 6.28603L6.18014 5.94577L5.59236 7.85745ZM5.07104 7.69716C5.01436 7.70644 4.99651 7.69211 5.08482 7.7114C5.18786 7.73392 5.32805 7.77618 5.59236 7.85745L6.18014 5.94577C5.94752 5.87425 5.71501 5.80192 5.51175 5.7575C5.29376 5.70987 5.036 5.67628 4.74798 5.72342L5.07104 7.69716ZM5.07104 7.69716L5.07104 7.69716L4.74798 5.72342C4.46769 5.7693 4.20039 5.87435 3.96387 6.03157L5.07104 7.69716ZM4.79833 8.1695C4.93659 7.93003 5.0105 7.80362 5.07064 7.71697C5.12219 7.64272 5.11886 7.66537 5.07104 7.69716L3.96387 6.03157C3.72081 6.19314 3.55489 6.39324 3.42765 6.57654C3.30902 6.74746 3.18797 6.95873 3.06628 7.1695L4.79833 8.1695ZM4.52148 8.64901C4.5181 8.70725 4.49974 8.72167 4.53891 8.63841C4.58451 8.54149 4.65817 8.41227 4.79833 8.1695L3.06628 7.1695C2.94285 7.38328 2.81882 7.59648 2.72918 7.78701C2.63312 7.9912 2.54198 8.2381 2.52485 8.53302L4.52148 8.64901ZM4.52148 8.64901V8.64901L2.52485 8.53302C2.5082 8.81969 2.55347 9.10657 2.65758 9.37418L4.52148 8.64901ZM4.93253 9.01998C4.72442 8.83216 4.61455 8.7319 4.54133 8.65373C4.47842 8.58658 4.50033 8.59465 4.52148 8.64901L2.65758 9.37417C2.76469 9.64949 2.92743 9.85633 3.0817 10.021C3.22564 10.1747 3.4093 10.3393 3.59256 10.5047L4.93253 9.01998ZM4.86859 8.96692L4.86859 8.96692L3.6565 10.5578L3.6565 10.5578L4.86859 8.96692ZM5.73636 9.74543L4.93253 9.01998L3.59256 10.5047L4.39639 11.2302L5.73636 9.74543ZM6.63185 10.7932C6.52201 10.5416 6.36473 10.3516 6.22191 10.2022C6.08597 10.0601 5.91292 9.90477 5.73636 9.74543L4.39639 11.2302C4.59496 11.4094 4.70326 11.508 4.77646 11.5845C4.84279 11.6539 4.82245 11.6473 4.79893 11.5935L6.63185 10.7932ZM6.78875 12.372C6.79287 12.0622 6.79699 11.7848 6.78662 11.5618C6.77673 11.3489 6.75123 11.0666 6.63185 10.7932L4.79893 11.5935C4.76587 11.5177 4.78139 11.4956 4.78878 11.6547C4.79571 11.8037 4.79339 12.0101 4.78893 12.3454L6.78875 12.372ZM6.78826 12.4458C6.78826 12.4211 6.78842 12.3966 6.78875 12.372L4.78893 12.3455C4.78848 12.3788 4.78826 12.4123 4.78826 12.4458H6.78826ZM6.78912 12.5436C6.78855 12.511 6.78826 12.4784 6.78826 12.4458H4.78826C4.78826 12.4902 4.78865 12.5346 4.78943 12.5789L6.78912 12.5436ZM6.64298 14.1023C6.75823 13.8314 6.7819 13.5528 6.79063 13.3425C6.79976 13.1224 6.79451 12.8489 6.78912 12.5436L4.78943 12.5789C4.79527 12.9094 4.79844 13.1127 4.79235 13.2596C4.78585 13.4162 4.77064 13.3946 4.80252 13.3196L6.64298 14.1023ZM5.77295 15.1482C5.94464 14.9886 6.11306 14.8329 6.24528 14.6907C6.38425 14.5412 6.53695 14.3517 6.64299 14.1023L4.80252 13.3196C4.82518 13.2663 4.84499 13.2596 4.78069 13.3287C4.70965 13.4051 4.60444 13.5037 4.41128 13.6833L5.77295 15.1482ZM5.84469 15.0742L5.8447 15.0742L4.33954 13.7572L4.33954 13.7572L5.84469 15.0742ZM4.94294 15.9197L5.77295 15.1482L4.41128 13.6833L3.58127 14.4548L4.94294 15.9197ZM4.54347 16.291C4.52316 16.3447 4.50183 16.353 4.56269 16.2862C4.63371 16.2082 4.74041 16.108 4.94294 15.9197L3.58127 14.4548C3.40302 14.6205 3.22413 14.7857 3.08403 14.9395C2.93379 15.1045 2.77581 15.3109 2.67263 15.5839L4.54347 16.291ZM4.54347 16.291L4.54347 16.291L2.67263 15.5839C2.57222 15.8496 2.52954 16.1336 2.54744 16.4171L4.54347 16.291ZM4.81617 16.7634C4.67791 16.5239 4.6054 16.3967 4.56043 16.3013C4.52189 16.2195 4.53985 16.2337 4.54347 16.291L2.54744 16.4171C2.56583 16.7083 2.65616 16.9521 2.75129 17.1539C2.83999 17.3421 2.96244 17.5526 3.08412 17.7634L4.81617 16.7634ZM5.09302 17.2429C5.14176 17.2749 5.14507 17.298 5.09255 17.2225C5.03141 17.1345 4.95634 17.0061 4.81617 16.7634L3.08412 17.7634C3.20755 17.9772 3.33017 18.1912 3.45035 18.3641C3.57915 18.5493 3.74741 18.7517 3.99425 18.914L5.09302 17.2429ZM5.09301 17.2429L5.09302 17.2429L3.99425 18.914C4.23418 19.0718 4.50527 19.176 4.78908 19.2197L5.09301 17.2429ZM5.61981 17.0724C5.3531 17.1587 5.21134 17.2037 5.10703 17.2281C5.01742 17.249 5.03536 17.234 5.09302 17.2429L4.78907 19.2197C5.08106 19.2645 5.34156 19.227 5.56132 19.1758C5.76638 19.128 6.0008 19.0512 6.23566 18.9752L5.61981 17.0724ZM6.68481 16.7277L5.61981 17.0724L6.23566 18.9752L7.30066 18.6305L6.68481 16.7277ZM6.651 16.7393L6.65099 16.7393L7.33448 18.6189L7.33449 18.6189L6.651 16.7393ZM8.02829 16.4771C7.75768 16.4475 7.51659 16.4886 7.31744 16.5373C7.12797 16.5836 6.90891 16.6552 6.68482 16.7277L7.30066 18.6305C7.55276 18.5489 7.69084 18.5049 7.79266 18.48C7.8848 18.4575 7.86914 18.4716 7.8113 18.4653L8.02829 16.4771ZM9.46675 17.1176C9.20158 16.962 8.96433 16.8224 8.76692 16.7219C8.57847 16.6259 8.32257 16.5092 8.02829 16.4771L7.81131 18.4653C7.7298 18.4564 7.71833 18.4322 7.85917 18.504C7.99105 18.5712 8.16794 18.6744 8.45496 18.8427L9.46675 17.1176ZM9.58971 17.1875C9.5484 17.1647 9.50741 17.1414 9.46676 17.1176L8.45495 18.8427C8.51065 18.8754 8.56682 18.9074 8.62344 18.9386L9.58971 17.1875ZM10.8744 18.0956C10.6966 17.8596 10.4656 17.6995 10.2872 17.5868C10.1001 17.4687 9.85894 17.3361 9.58971 17.1875L8.62344 18.9386C8.91476 19.0994 9.09406 19.1988 9.21932 19.2779C9.35327 19.3625 9.32674 19.365 9.27736 19.2994L10.8744 18.0956ZM11.3466 19.3751C11.294 19.1459 11.2432 18.9216 11.1861 18.7355C11.126 18.5401 11.0379 18.3124 10.8744 18.0956L9.27736 19.2995C9.24237 19.253 9.24646 19.2324 9.27432 19.3231C9.30508 19.4232 9.33802 19.5641 9.39711 19.8219L11.3466 19.3751ZM11.6061 20.5077L11.3466 19.3751L9.39711 19.8219L9.65668 20.9545L11.6061 20.5077ZM11.728 21.0393C11.7644 21.0837 11.7609 21.1064 11.7334 21.0202C11.7014 20.9197 11.6679 20.7772 11.6061 20.5077L9.65668 20.9545C9.71105 21.1917 9.76467 21.4292 9.82783 21.6275C9.89558 21.8401 9.99537 22.0801 10.1802 22.3059L11.728 21.0393ZM11.728 21.0393L11.728 21.0393L10.1802 22.3059C10.3601 22.5257 10.5847 22.7047 10.8391 22.8309L11.728 21.0393ZM12.2734 21.0393C11.9969 21.0393 11.8505 21.0385 11.7453 21.0297C11.6553 21.0222 11.6765 21.0138 11.728 21.0393L10.8391 22.8309C11.1006 22.9606 11.3568 23.0043 11.5792 23.0228C11.7865 23.0401 12.03 23.0393 12.2734 23.0393V21.0393ZM12.8271 21.0393C12.8792 21.0131 12.9009 21.0218 12.8092 21.0295C12.7025 21.0385 12.5537 21.0393 12.2734 21.0393V23.0393C12.5203 23.0393 12.7669 23.0401 12.9767 23.0225C13.2016 23.0036 13.461 22.9591 13.725 22.8264L12.8271 21.0393ZM12.8271 21.0393L12.8271 21.0393L13.725 22.8264C13.9815 22.6975 14.2074 22.5149 14.3871 22.2909L12.8271 21.0393ZM12.9428 20.4978C12.8842 20.772 12.8523 20.9173 12.8213 21.0198C12.7946 21.1078 12.7906 21.0848 12.8271 21.0393L14.387 22.2909C14.5719 22.0605 14.6697 21.8161 14.7352 21.6002C14.7963 21.3987 14.847 21.1573 14.8986 20.9159L12.9428 20.4978ZM13.1898 19.3423L12.9428 20.4978L14.8986 20.9159L15.1456 19.7604L13.1898 19.3423ZM13.6397 18.063C13.4808 18.2813 13.3968 18.5089 13.3399 18.7043C13.2859 18.8901 13.2387 19.1138 13.1898 19.3423L15.1456 19.7604C15.2006 19.5033 15.2313 19.3629 15.2603 19.263C15.2866 19.1726 15.2909 19.1929 15.257 19.2396L13.6397 18.063ZM14.8997 17.1367C14.6352 17.2893 14.3981 17.4256 14.2144 17.5466C14.0391 17.662 13.8126 17.8254 13.6397 18.063L15.257 19.2396C15.209 19.3055 15.1827 19.3036 15.314 19.2172C15.4369 19.1363 15.6131 19.0342 15.8994 18.8689L14.8997 17.1367ZM14.7995 17.2028L14.7995 17.2028L15.9995 18.8028L15.9995 18.8028L14.7995 17.2028ZM14.9754 17.0922C14.9503 17.1072 14.9251 17.122 14.8997 17.1367L15.8994 18.8689C15.9341 18.8489 15.9686 18.8286 16.003 18.808L14.9754 17.0922ZM16.3971 16.4423C16.1053 16.4777 15.8524 16.596 15.6661 16.6931C15.4711 16.7948 15.237 16.9355 14.9754 17.0922L16.003 18.808C16.2862 18.6384 16.4607 18.5344 16.5908 18.4665C16.7297 18.3941 16.7186 18.418 16.6378 18.4278L16.3971 16.4423ZM17.7345 16.6726C17.5111 16.6039 17.2926 16.5361 17.1038 16.4928C16.9053 16.4472 16.6654 16.4098 16.3971 16.4423L16.6378 18.4278C16.5805 18.4347 16.5648 18.421 16.6565 18.4421C16.7578 18.4653 16.8954 18.507 17.1467 18.5843L17.7345 16.6726ZM18.908 17.0334L17.7345 16.6726L17.1467 18.5843L18.3203 18.9451L18.908 17.0334ZM19.4294 17.1937C19.486 17.1844 19.5039 17.1988 19.4156 17.1795C19.3125 17.1569 19.1723 17.1147 18.908 17.0334L18.3203 18.9451C18.5529 19.0166 18.7854 19.0889 18.9886 19.1334C19.2066 19.181 19.4644 19.2146 19.7524 19.1674L19.4294 17.1937ZM19.4294 17.1937L19.4294 17.1937L19.7524 19.1674C20.0327 19.1216 20.3 19.0165 20.5365 18.8593L19.4294 17.1937ZM19.7021 16.7214C19.5638 16.9608 19.4899 17.0872 19.4298 17.1739C19.3782 17.2481 19.3815 17.2255 19.4294 17.1937L20.5365 18.8593C20.7796 18.6977 20.9455 18.4976 21.0727 18.3143C21.1914 18.1434 21.3124 17.9321 21.4341 17.7214L19.7021 16.7214ZM19.9789 16.2418C19.9823 16.1836 20.0007 16.1692 19.9615 16.2524C19.9159 16.3494 19.8422 16.4786 19.7021 16.7214L21.4341 17.7214C21.5576 17.5076 21.6816 17.2944 21.7712 17.1039C21.8673 16.8997 21.9584 16.6528 21.9756 16.3578L19.9789 16.2418ZM19.9789 16.2418V16.2419L21.9756 16.3578C21.9922 16.0712 21.9469 15.7843 21.8428 15.5167L19.9789 16.2418ZM19.5679 15.8709C19.776 16.0587 19.8859 16.159 19.9591 16.2371C20.022 16.3043 20.0001 16.2962 19.9789 16.2419L21.8428 15.5167C21.7357 15.2414 21.573 15.0345 21.4187 14.8698C21.2748 14.7162 21.0911 14.5515 20.9078 14.3861L19.5679 15.8709ZM18.6652 15.0563L19.5679 15.8709L20.9078 14.3861L20.0052 13.5715L18.6652 15.0563ZM17.7794 14.0226C17.8891 14.2705 18.0446 14.458 18.1859 14.6054C18.3203 14.7458 18.4911 14.8991 18.6652 15.0563L20.0052 13.5715C19.8093 13.3947 19.7026 13.2975 19.6304 13.2222C19.565 13.1539 19.5849 13.1604 19.6084 13.2134L17.7794 14.0226ZM17.611 12.4656C17.61 12.7709 17.6086 13.0445 17.6208 13.2645C17.6325 13.4748 17.6602 13.7531 17.7794 14.0226L19.6084 13.2134C19.6413 13.2879 19.6264 13.3097 19.6177 13.1533C19.6095 13.0066 19.6098 12.8033 19.611 12.4727L17.611 12.4656ZM17.611 12.4691V12.4691H19.611V12.4691H17.611ZM17.6111 12.444L17.611 12.4673L19.611 12.4709L19.6111 12.4475L17.6111 12.444ZM17.6109 12.3986L17.6111 12.4496L19.6111 12.4419L19.6109 12.3908L17.6109 12.3986ZM17.7686 10.8656C17.6535 11.1326 17.6276 11.4072 17.6171 11.6148C17.606 11.8319 17.6086 12.1017 17.6109 12.4025L19.6108 12.3869C19.6083 12.0611 19.6072 11.8609 19.6145 11.7164C19.6223 11.5624 19.6369 11.5838 19.6052 11.6575L17.7686 10.8656ZM18.629 9.83418C18.4598 9.99154 18.2936 10.1452 18.1629 10.2855C18.0255 10.4331 17.8745 10.62 17.7686 10.8656L19.6052 11.6574C19.5826 11.7099 19.5632 11.7165 19.6265 11.6485C19.6966 11.5733 19.8002 11.4761 19.9907 11.2991L18.629 9.83418ZM19.5575 8.97117L18.629 9.83418L19.9907 11.299L20.9191 10.436L19.5575 8.97117ZM19.9569 8.59983C19.9772 8.54611 19.9986 8.53782 19.9377 8.60465C19.8667 8.68263 19.76 8.78291 19.5575 8.97117L20.9191 10.436C21.0974 10.2703 21.2763 10.1052 21.4164 9.95133C21.5666 9.78636 21.7246 9.57993 21.8278 9.30692L19.9569 8.59983ZM19.9569 8.59983L19.9569 8.59983L21.8278 9.30693C21.9282 9.04125 21.9709 8.75724 21.953 8.47379L19.9569 8.59983ZM19.6842 8.1275C19.8225 8.36697 19.895 8.49418 19.94 8.58959C19.9785 8.67135 19.9606 8.65715 19.9569 8.59984L21.953 8.47379C21.9346 8.18251 21.8442 7.93877 21.7491 7.73693C21.6604 7.54873 21.538 7.33826 21.4163 7.12749L19.6842 8.1275ZM19.4074 7.64798C19.3586 7.61593 19.3553 7.59282 19.4079 7.66837C19.469 7.75632 19.5441 7.88472 19.6842 8.12749L21.4163 7.1275C21.2929 6.91371 21.1702 6.6997 21.0501 6.52681C20.9213 6.34151 20.753 6.13914 20.5061 5.97684L19.4074 7.64798ZM19.4074 7.64798L19.4074 7.64798L20.5062 5.97684C20.2662 5.81909 19.9951 5.71485 19.7113 5.67121L19.4074 7.64798ZM18.8806 7.81848C19.1473 7.73216 19.2891 7.68714 19.3934 7.6628C19.483 7.6419 19.465 7.65685 19.4074 7.64798L19.7113 5.67121C19.4193 5.62632 19.1588 5.66383 18.9391 5.71508C18.734 5.76291 18.4996 5.83964 18.2647 5.91565L18.8806 7.81848ZM17.7487 8.18481L18.8806 7.81848L18.2647 5.91565L17.1328 6.28199L17.7487 8.18481ZM16.3975 8.43604C16.6696 8.46634 16.9121 8.42523 17.1123 8.37632C17.3028 8.32977 17.5232 8.25779 17.7487 8.18481L17.1328 6.28199C16.8792 6.36408 16.7402 6.4084 16.6377 6.43344C16.5449 6.4561 16.5607 6.44185 16.6189 6.44833L16.3975 8.43604ZM14.9533 7.78619C15.2195 7.94387 15.4575 8.0854 15.6556 8.18737C15.8447 8.28467 16.1016 8.40308 16.3975 8.43604L16.6189 6.44833C16.7009 6.45746 16.7123 6.48187 16.5708 6.40906C16.4384 6.3409 16.2608 6.23618 15.9728 6.06552L14.9533 7.78619ZM15.0158 7.82028L15.0159 7.82028L15.9103 6.03143L15.9103 6.03142L15.0158 7.82028ZM14.8779 7.74234C14.9032 7.75675 14.9283 7.77137 14.9533 7.78618L15.9728 6.06552C15.9385 6.04523 15.9041 6.0252 15.8695 6.00543L14.8779 7.74234ZM13.6291 6.83544C13.802 7.06829 14.0264 7.22825 14.2001 7.34131C14.3821 7.45974 14.6165 7.59308 14.8779 7.74234L15.8695 6.00544C15.5865 5.84387 15.4125 5.7441 15.291 5.66503C15.1613 5.58059 15.187 5.57867 15.2349 5.64317L13.6291 6.83544ZM13.1682 5.5785C13.2197 5.80305 13.2695 6.02307 13.3254 6.20578C13.3843 6.39788 13.4702 6.6214 13.6291 6.83544L15.2349 5.64317C15.2688 5.68885 15.265 5.70889 15.2378 5.62029C15.2078 5.52229 15.1756 5.38438 15.1177 5.13169L13.1682 5.5785ZM12.8943 4.38319L13.1682 5.5785L15.1177 5.13169L14.8437 3.93638L12.8943 4.38319ZM12.7724 3.85156C12.736 3.80712 12.7395 3.78449 12.767 3.87062C12.799 3.97111 12.8325 4.11366 12.8943 4.38319L14.8437 3.93639C14.7894 3.69917 14.7357 3.46164 14.6726 3.26341C14.6048 3.0508 14.505 2.81078 14.3202 2.58491L12.7724 3.85156ZM12.7724 3.85156L12.7724 3.85156L14.3202 2.58492C14.1403 2.36512 13.9157 2.18616 13.6613 2.05993L12.7724 3.85156ZM12.227 3.85156C12.5035 3.85156 12.65 3.85237 12.7551 3.86113C12.8451 3.86864 12.8239 3.87709 12.7724 3.85156L13.6613 2.05993C13.3998 1.93022 13.1436 1.88658 12.9212 1.86804C12.7139 1.85076 12.4704 1.85156 12.227 1.85156V3.85156ZM11.6733 3.85156C11.6212 3.87775 11.5995 3.86906 11.6912 3.86135C11.7979 3.85238 11.9467 3.85156 12.227 3.85156V1.85156C11.9802 1.85156 11.7335 1.85074 11.5237 1.86838C11.2988 1.88728 11.0394 1.93181 10.7754 2.06443L11.6733 3.85156ZM11.6733 3.85156L11.6733 3.85156L10.7754 2.06443C10.5189 2.19334 10.293 2.37599 10.1134 2.59995L11.6733 3.85156ZM13.751 12.4453C13.751 13.2737 13.0795 13.9453 12.251 13.9453V15.9453C14.184 15.9453 15.751 14.3783 15.751 12.4453H13.751ZM12.251 10.9453C13.0795 10.9453 13.751 11.6169 13.751 12.4453H15.751C15.751 10.5123 14.184 8.94531 12.251 8.94531V10.9453ZM10.751 12.4453C10.751 11.6169 11.4226 10.9453 12.251 10.9453V8.94531C10.318 8.94531 8.75104 10.5123 8.75104 12.4453H10.751ZM12.251 13.9453C11.4226 13.9453 10.751 13.2737 10.751 12.4453H8.75104C8.75104 14.3783 10.318 15.9453 12.251 15.9453V13.9453Z" fill="#356DF3"/>
</svg>
