<svg width="24" height="25" viewBox="0 0 24 25" fill="none" xmlns="http://www.w3.org/2000/svg">
<path d="M4 6.44531V16.2253C4 17.3643 4 17.9338 4.22517 18.3673C4.41492 18.7325 4.71276 19.0304 5.07805 19.2201C5.51153 19.4453 6.08102 19.4453 7.22 19.4453H16.78C17.919 19.4453 18.4885 19.4453 18.9219 19.2201C19.2872 19.0304 19.5851 18.7325 19.7748 18.3673C20 17.9338 20 17.3643 20 16.2253V11.6653C20 10.5263 20 9.95684 19.7748 9.52336C19.5851 9.15808 19.2872 8.86024 18.9219 8.67049C18.4885 8.44531 17.919 8.44531 16.78 8.44531H6C4.89543 8.44531 4 7.54988 4 6.44531V6.44531ZM4 6.44531V6.44531C4 5.34074 4.89543 4.44531 6 4.44531H18" stroke="currentColor" stroke-width="1.2" stroke-linecap="square" stroke-linejoin="round"/>
<circle cx="16.5" cy="13.9453" r="1.5" fill="currentColor"/>
</svg>
