<svg width="24" height="25" viewBox="0 0 24 25" fill="none" xmlns="http://www.w3.org/2000/svg">
<path d="M6.44202 18.1105L9.94202 20.2105L9.94203 20.2105C10.9447 20.8121 11.446 21.1129 12 21.1129C12.554 21.1129 13.0553 20.8121 14.058 20.2105L14.058 20.2105L17.558 18.1105C18.5065 17.5414 18.9808 17.2568 19.2404 16.7983C19.5 16.3398 19.5 15.7867 19.5 14.6806V10.2101C19.5 9.10389 19.5 8.5508 19.2404 8.0923C18.9808 7.63379 18.5065 7.34923 17.558 6.7801L14.058 4.6801C13.0553 4.0785 12.554 3.77769 12 3.77769C11.446 3.77769 10.9447 4.0785 9.94202 4.6801L6.44202 6.7801C5.49347 7.34923 5.0192 7.63379 4.7596 8.0923C4.5 8.5508 4.5 9.10389 4.5 10.2101V14.6806C4.5 15.7867 4.5 16.3398 4.7596 16.7983C5.0192 17.2568 5.49347 17.5414 6.44202 18.1105Z" fill="white"/>
<path d="M12 12.4453L19.3477 8.0625M12 12.4453L4.72266 8.0625M12 12.4453L12 21.1875M14.058 4.6801L17.558 6.7801C18.5065 7.34923 18.9808 7.63379 19.2404 8.0923C19.5 8.5508 19.5 9.10389 19.5 10.2101V14.6806C19.5 15.7867 19.5 16.3398 19.2404 16.7983C18.9808 17.2568 18.5065 17.5414 17.558 18.1105L14.058 20.2105C13.0553 20.8121 12.554 21.1129 12 21.1129C11.446 21.1129 10.9447 20.8121 9.94202 20.2105L6.44202 18.1105C5.49347 17.5414 5.0192 17.2568 4.7596 16.7983C4.5 16.3398 4.5 15.7867 4.5 14.6806V10.2101C4.5 9.10389 4.5 8.5508 4.7596 8.0923C5.0192 7.63379 5.49347 7.34923 6.44202 6.7801L9.94202 4.6801C10.9447 4.0785 11.446 3.77769 12 3.77769C12.554 3.77769 13.0553 4.0785 14.058 4.6801Z" stroke="currentColor" stroke-width="1.2" stroke-linejoin="round"/>
</svg>
