    <svg width="16" height="16" viewBox="0 0 16 16" fill="none">
      <path
        d="M12.8838 3.85311C13.3332 4.52571 13.3332 5.46202 13.3332 7.33464C13.3332 9.20725 13.3332 10.1436 12.8838 10.8162C12.6892 11.1073 12.4392 11.3573 12.148 11.5519C11.5605 11.9445 10.7716 11.9941 9.33317 12.0004V12.0013L8.59612 13.4754C8.35044 13.9668 7.64924 13.9668 7.40355 13.4754L6.6665 12.0013V12.0004C5.22804 11.9941 4.43922 11.9445 3.85165 11.5519C3.56048 11.3573 3.31047 11.1073 3.11592 10.8162C2.6665 10.1436 2.6665 9.20725 2.6665 7.33464C2.6665 5.46202 2.6665 4.52571 3.11592 3.85311C3.31047 3.56194 3.56048 3.31194 3.85165 3.11738C4.52425 2.66797 5.46055 2.66797 7.33317 2.66797H8.6665C10.5391 2.66797 11.4754 2.66797 12.148 3.11738C12.4392 3.31194 12.6892 3.56194 12.8838 3.85311Z"
        stroke="currentColor"
        stroke-width="1.2"
        stroke-linecap="round"
        stroke-linejoin="round"
        fill="none"
      />
      <path
        d="M6 6L10 6"
        stroke="currentColor"
        stroke-width="1.2"
        stroke-linecap="round"
        stroke-linejoin="round"
        fill="none"
      />
      <path
        d="M6 8.66797H8"
        stroke="currentColor"
        stroke-width="1.2"
        stroke-linecap="round"
        stroke-linejoin="round"
        fill="none"
      />
    </svg>