<svg width="1em" height="1em" viewBox="0 0 24 24" fill="none" xmlns="http://www.w3.org/2000/svg">
<circle cx="12" cy="12" r="12" fill="currentColor"/>
<path d="M7.757 12.5462L6.97613 11.9215L5.72674 13.4832L6.50761 14.1079L7.757 12.5462ZM11.0415 16.4544L10.4168 17.2353C10.6386 17.4127 10.9253 17.4874 11.2054 17.4409C11.4856 17.3943 11.7327 17.2309 11.8852 16.9913L11.0415 16.4544ZM17.3581 8.391L17.895 7.54734L16.2076 6.47359L15.6708 7.31725L17.3581 8.391ZM6.50761 14.1079L10.4168 17.2353L11.6662 15.6735L7.757 12.5462L6.50761 14.1079ZM11.8852 16.9913L17.3581 8.391L15.6708 7.31725L10.1979 15.9175L11.8852 16.9913Z" fill="white"/>
</svg>
