<svg width="24" height="25" viewBox="0 0 24 25" fill="none" xmlns="http://www.w3.org/2000/svg">
<path d="M19 9.44531H16.22C15.081 9.44531 14.5115 9.44531 14.0781 9.22014C13.7128 9.03039 13.4149 8.73255 13.2252 8.36726C13 7.93378 13 7.36429 13 6.22531V3.44531M19 9.44531V18.2253C19 19.3643 19 19.9338 18.7748 20.3673C18.5851 20.7325 18.2872 21.0304 17.9219 21.2201C17.4885 21.4453 16.919 21.4453 15.78 21.4453H8.22C7.08102 21.4453 6.51153 21.4453 6.07805 21.2201C5.71276 21.0304 5.41492 20.7325 5.22517 20.3673C5 19.9338 5 19.3643 5 18.2253V6.66531C5 5.52633 5 4.95684 5.22517 4.52336C5.41492 4.15808 5.71276 3.86024 6.07805 3.67049C6.51153 3.44531 7.08102 3.44531 8.22 3.44531H13M19 9.44531L13 3.44531" stroke="currentColor" stroke-width="1.2" stroke-linecap="square" stroke-linejoin="round"/>
<path d="M9 13.4453H15" stroke="currentColor" stroke-width="1.2" stroke-linecap="square" stroke-linejoin="round"/>
<path d="M9 17.4453H13" stroke="currentColor" stroke-width="1.2" stroke-linecap="square" stroke-linejoin="round"/>
</svg>
