<svg width="20" height="20" viewBox="0 0 20 20" fill="none" xmlns="http://www.w3.org/2000/svg">
<path fill-rule="evenodd" clip-rule="evenodd" d="M5.20373 4.5H14.7875C15.6053 4.5 16.3407 4.9979 16.6444 5.75722L16.856 6.28609C17.8096 8.6702 17.8096 11.3298 16.856 13.7139L16.6444 14.2428C16.3407 15.0021 15.6053 15.5 14.7875 15.5H5.20373C4.38592 15.5 3.65051 15.0021 3.34678 14.2428L3.13523 13.7139C2.18159 11.3298 2.18159 8.6702 3.13523 6.28609L3.34678 5.75722C3.65051 4.9979 4.38593 4.5 5.20373 4.5ZM1.48983 5.01444C2.09728 3.4958 3.56811 2.5 5.20373 2.5H14.7875C16.4231 2.5 17.8939 3.4958 18.5014 5.01444L18.7129 5.54331C19.8573 8.40424 19.8573 11.5958 18.7129 14.4567L18.5014 14.9856C17.8939 16.5042 16.4231 17.5 14.7875 17.5H5.20373C3.56811 17.5 2.09728 16.5042 1.48983 14.9856L1.27828 14.4567C0.133905 11.5958 0.133905 8.40424 1.27828 5.54331L1.48983 5.01444ZM5.49556 7H7.49556V13H5.49556V7ZM12.4956 7H14.4956V13H12.4956V7Z" fill="white"/>
</svg>
