<svg width="24" height="25" viewBox="0 0 24 25" fill="none" xmlns="http://www.w3.org/2000/svg">
  <path d="M21.7879 12.2803C21.7879 11.622 21.7296 10.997 21.6296 10.3887H12.2129V14.147H17.6046C17.3629 15.3803 16.6546 16.422 15.6046 17.1303V19.6303H18.8212C20.7046 17.8887 21.7879 15.322 21.7879 12.2803Z" fill="#4285F4" />
  <path d="M12.2121 22.0546C14.9121 22.0546 17.1704 21.1546 18.8204 19.6296L15.6038 17.1296C14.7038 17.7296 13.5621 18.0962 12.2121 18.0962C9.60378 18.0962 7.39544 16.3379 6.60378 13.9629H3.28711V16.5379C4.92878 19.8046 8.30378 22.0546 12.2121 22.0546Z" fill="#34A853" />
  <path d="M6.60456 13.9639C6.39622 13.3639 6.28789 12.7223 6.28789 12.0556C6.28789 11.3889 6.40456 10.7473 6.60456 10.1473V7.57227H3.28789C2.60456 8.92227 2.21289 10.4389 2.21289 12.0556C2.21289 13.6723 2.60456 15.1889 3.28789 16.5389L6.60456 13.9639Z" fill="#FBBC05" />
  <path d="M12.2121 6.01302C13.6871 6.01302 15.0038 6.52136 16.0454 7.51302L18.8954 4.66302C17.1704 3.04636 14.9121 2.05469 12.2121 2.05469C8.30378 2.05469 4.92878 4.30469 3.28711 7.57136L6.60378 10.1464C7.39544 7.77136 9.60378 6.01302 12.2121 6.01302Z" fill="#EA4335" />
</svg>