    <svg width="21" height="16" viewBox="0 0 21 5" fill="none">
      <path
        d="M4.5 2.5C4.5 3.60457 3.60457 4.5 2.5 4.5C1.39543 4.5 0.5 3.60457 0.5 2.5C0.5 1.39543 1.39543 0.5 2.5 0.5C3.60457 0.5 4.5 1.39543 4.5 2.5ZM12.5 2.5C12.5 3.60457 11.6046 4.5 10.5 4.5C9.39543 4.5 8.5 3.60457 8.5 2.5C8.5 1.39543 9.39543 0.5 10.5 0.5C11.6046 0.5 12.5 1.39543 12.5 2.5ZM18.5 4.5C19.6046 4.5 20.5 3.60457 20.5 2.5C20.5 1.39543 19.6046 0.5 18.5 0.5C17.3954 0.5 16.5 1.39543 16.5 2.5C16.5 3.60457 17.3954 4.5 18.5 4.5Z"
        fill="currentColor"
      />
    </svg>