<svg width="14" height="14" viewBox="0 0 14 14" fill="none" xmlns="http://www.w3.org/2000/svg">
  <path fill-rule="evenodd" clip-rule="evenodd" d="M1.83406 3.50004C1.83406 2.58048 2.57951 1.83504 3.49906 1.83504H3.99906C4.46022 1.83504 4.83406 1.4612 4.83406 1.00004C4.83406 0.538881 4.46022 0.165039 3.99906 0.165039H3.49906C1.65719 0.165039 0.164062 1.65817 0.164062 3.50004V10.5C0.164062 12.3419 1.65719 13.835 3.49906 13.835H10.4991C12.3409 13.835 13.8341 12.3419 13.8341 10.5V10C13.8341 9.53888 13.4602 9.16504 12.9991 9.16504C12.5379 9.16504 12.1641 9.53888 12.1641 10V10.5C12.1641 11.4196 11.4186 12.165 10.4991 12.165H3.49906C2.57951 12.165 1.83406 11.4196 1.83406 10.5V3.50004ZM6.66406 1.00004C6.66406 1.4612 7.0379 1.83504 7.49906 1.83504H10.9832L4.40863 8.40961C4.08254 8.73569 4.08254 9.26439 4.40863 9.59047C4.73472 9.91656 5.26341 9.91656 5.5895 9.59047L12.1641 3.01591V6.50004C12.1641 6.9612 12.5379 7.33504 12.9991 7.33504C13.4602 7.33504 13.8341 6.9612 13.8341 6.50004V1.00004C13.8341 0.538881 13.4602 0.165039 12.9991 0.165039H7.49906C7.0379 0.165039 6.66406 0.538881 6.66406 1.00004Z" fill="currentColor" />
</svg>
