<svg width="24" height="24" viewBox="0 0 24 24" fill="none" xmlns="http://www.w3.org/2000/svg">
<path d="M7.75725 11.7669L6.97638 11.1422L5.72699 12.7039L6.50786 13.3286L7.75725 11.7669ZM11.0418 15.6751L10.4171 16.456C10.6388 16.6334 10.9255 16.7081 11.2057 16.6616C11.4858 16.615 11.733 16.4516 11.8854 16.212L11.0418 15.6751ZM17.3583 7.61171L17.8952 6.76805L16.2079 5.69429L15.671 6.53796L17.3583 7.61171ZM6.50786 13.3286L10.4171 16.456L11.6665 14.8942L7.75725 11.7669L6.50786 13.3286ZM11.8854 16.212L17.3583 7.61171L15.671 6.53796L10.1981 15.1382L11.8854 16.212Z" fill="currentColor"/>
</svg>
