<svg width="1em" height="1em" viewBox="0 0 24 24" fill="none" xmlns="http://www.w3.org/2000/svg">
<path d="M12 20L11.2567 20.669C11.4463 20.8797 11.7165 21 12 21C12.2835 21 12.5537 20.8797 12.7433 20.669L12 20ZM21 10L21.7433 10.669C22.0573 10.3201 22.0864 9.79987 21.8133 9.41817L21 10ZM3 10L2.18669 9.41817C1.91362 9.79987 1.94275 10.3201 2.25671 10.669L3 10ZM14.0769 5L14.259 4.01672C14.199 4.0056 14.138 4 14.0769 4V5ZM9.92308 5V4C9.862 4 9.80105 4.0056 9.74099 4.01672L9.92308 5ZM18.0514 5.87829L18.8647 5.29646L18.0514 5.87829ZM17.7358 5.67757L17.5537 6.66085L17.7358 5.67757ZM17.9236 5.7308L18.4602 4.88699L17.9236 5.7308ZM6.26422 5.67757L6.08213 4.69428L6.26422 5.67757ZM6.07643 5.7308L6.61309 6.5746L6.07643 5.7308ZM17.2381 6.46012L20.1867 10.5818L21.8133 9.41817L18.8647 5.29646L17.2381 6.46012ZM20.2567 9.33104L11.2567 19.331L12.7433 20.669L21.7433 10.669L20.2567 9.33104ZM12.7433 19.331L3.74329 9.33104L2.25671 10.669L11.2567 20.669L12.7433 19.331ZM3.81331 10.5818L6.76192 6.46012L5.1353 5.29646L2.18669 9.41817L3.81331 10.5818ZM21 9H15.5V11H21V9ZM12.9439 20.3304L16.4439 10.3304L14.5561 9.66965L11.0561 19.6696L12.9439 20.3304ZM13.8948 5.98328L17.5537 6.66085L17.9179 4.69428L14.259 4.01672L13.8948 5.98328ZM13.1151 5.27374L14.5382 10.2737L16.4618 9.72626L15.0387 4.72626L13.1151 5.27374ZM15.5 9H8.5V11H15.5V9ZM8.5 9H3V11H8.5V9ZM12.9439 19.6696L9.44386 9.66965L7.55614 10.3304L11.0561 20.3304L12.9439 19.6696ZM6.44631 6.66085L10.1052 5.98328L9.74099 4.01672L6.08213 4.69428L6.44631 6.66085ZM9.92308 6H14.0769V4H9.92308V6ZM9.4618 10.2737L10.8849 5.27374L8.96127 4.72626L7.5382 9.72626L9.4618 10.2737ZM18.8647 5.29646C18.8529 5.27995 18.7029 5.04136 18.4602 4.88699L17.3869 6.5746C17.2911 6.51365 17.2332 6.44843 17.2132 6.42446C17.2048 6.41447 17.2019 6.41013 17.208 6.41842C17.2143 6.42692 17.2224 6.43817 17.2381 6.46012L18.8647 5.29646ZM17.5537 6.66085C17.5802 6.66576 17.5938 6.66831 17.6042 6.67038C17.6143 6.67241 17.6091 6.67161 17.5966 6.66829C17.5664 6.66035 17.4828 6.63555 17.3869 6.5746L18.4602 4.88699C18.2175 4.73263 17.9378 4.69798 17.9179 4.69428L17.5537 6.66085ZM6.76192 6.46012C6.77762 6.43817 6.7857 6.42692 6.79197 6.41842C6.79808 6.41013 6.79517 6.41447 6.78683 6.42446C6.76685 6.44843 6.70893 6.51365 6.61309 6.5746L5.53978 4.88699C5.29707 5.04136 5.14711 5.27995 5.1353 5.29646L6.76192 6.46012ZM6.08213 4.69428C6.06216 4.69798 5.7825 4.73263 5.53978 4.88699L6.61309 6.5746C6.51725 6.63555 6.43362 6.66035 6.40344 6.66829C6.39086 6.67161 6.38569 6.67241 6.39579 6.67038C6.40615 6.66831 6.41977 6.66576 6.44631 6.66085L6.08213 4.69428Z" fill="currentColor"/>
</svg>
