<svg width="24" height="25" viewBox="0 0 24 25" fill="none" xmlns="http://www.w3.org/2000/svg">
<ellipse cx="7.5" cy="7.19531" rx="4.5" ry="2.25" stroke="currentColor" stroke-width="1.2" stroke-linejoin="round"/>
<path d="M12 7.19531C12 8.43795 9.98528 9.44531 7.5 9.44531C5.01472 9.44531 3 8.43795 3 7.19531" stroke="currentColor" stroke-width="1.2" stroke-linejoin="round"/>
<path d="M12 14.1953C12 15.438 9.98528 16.4453 7.5 16.4453C5.01472 16.4453 3 15.438 3 14.1953" stroke="currentColor" stroke-width="1.2" stroke-linejoin="round"/>
<path d="M12 10.6953C12 11.938 9.98528 12.9453 7.5 12.9453C5.01472 12.9453 3 11.938 3 10.6953" stroke="currentColor" stroke-width="1.2" stroke-linejoin="round"/>
<path d="M21 14.1953C21 15.438 18.9853 16.4453 16.5 16.4453C14.0147 16.4453 12 15.438 12 14.1953" stroke="currentColor" stroke-width="1.2" stroke-linejoin="round"/>
<ellipse cx="16.5" cy="10.6953" rx="4.5" ry="2.25" stroke="currentColor" stroke-width="1.2" stroke-linejoin="round"/>
<path d="M12 7.19531V17.6953C12 18.938 9.98528 19.9453 7.5 19.9453C5.01472 19.9453 3 18.938 3 17.6953V7.19531" stroke="currentColor" stroke-width="1.2" stroke-linejoin="round"/>
<path d="M21 10.6953V17.6953C21 18.938 18.9853 19.9453 16.5 19.9453C14.0147 19.9453 12 18.938 12 17.6953V10.6953" stroke="currentColor" stroke-width="1.2" stroke-linejoin="round"/>
</svg>
