<svg width="24" height="24" viewBox="0 0 24 24" fill="none" xmlns="http://www.w3.org/2000/svg">
<path fill-rule="evenodd" clip-rule="evenodd" d="M4.70078 11.9998C4.70078 7.96813 7.9691 4.6998 12.0008 4.6998C16.0325 4.6998 19.3008 7.96813 19.3008 11.9998C19.3008 16.0315 16.0325 19.2998 12.0008 19.2998C7.9691 19.2998 4.70078 16.0315 4.70078 11.9998ZM12.0008 3.2998C7.1959 3.2998 3.30078 7.19493 3.30078 11.9998C3.30078 16.8047 7.1959 20.6998 12.0008 20.6998C16.8057 20.6998 20.7008 16.8047 20.7008 11.9998C20.7008 7.19493 16.8057 3.2998 12.0008 3.2998ZM11.2188 12.4627C11.1271 12.7602 11.0798 13.1606 11.077 13.6638H12.4658C12.4685 13.3691 12.5033 13.1216 12.57 12.9215C12.6395 12.7185 12.7452 12.542 12.887 12.3918C13.0315 12.2417 13.2164 12.0971 13.4416 11.9581C13.6974 11.8052 13.9185 11.6314 14.1047 11.4368C14.291 11.2422 14.4342 11.0198 14.5343 10.7695C14.6371 10.5193 14.6886 10.2357 14.6886 9.91879C14.6886 9.44892 14.5746 9.043 14.3466 8.70103C14.1214 8.35628 13.8059 8.09077 13.3999 7.90449C12.9968 7.71821 12.5297 7.62507 11.9987 7.62507C11.5121 7.62507 11.0673 7.71404 10.6642 7.89198C10.2638 8.06992 9.9413 8.33682 9.69663 8.69269C9.45475 9.04857 9.32686 9.49063 9.31296 10.0189H10.7976C10.8115 9.75753 10.8755 9.54206 10.9895 9.37247C11.1062 9.20009 11.2522 9.0722 11.4273 8.98879C11.6053 8.9026 11.7929 8.85951 11.9903 8.85951C12.2044 8.85951 12.3977 8.90399 12.57 8.99296C12.7452 9.08193 12.8842 9.20704 12.9871 9.36829C13.0899 9.52955 13.1414 9.72 13.1414 9.93964C13.1414 10.1343 13.1024 10.3108 13.0246 10.4693C12.9468 10.625 12.8397 10.7668 12.7035 10.8947C12.57 11.0198 12.4185 11.1351 12.2489 11.2408C12.0015 11.3937 11.7916 11.5619 11.6192 11.7454C11.4468 11.9261 11.3134 12.1652 11.2188 12.4627ZM11.1563 16.1076C11.337 16.2856 11.5525 16.3745 11.8027 16.3745C11.9695 16.3745 12.121 16.3342 12.2572 16.2536C12.3963 16.1702 12.5075 16.059 12.5909 15.92C12.6771 15.781 12.7202 15.6267 12.7202 15.4571C12.7202 15.2068 12.6284 14.9928 12.4449 14.8148C12.2642 14.6369 12.0501 14.5479 11.8027 14.5479C11.5525 14.5479 11.337 14.6369 11.1563 14.8148C10.9756 14.9928 10.8852 15.2068 10.8852 15.4571C10.8852 15.7128 10.9756 15.9297 11.1563 16.1076Z" fill="#82899A"/>
</svg>
