<svg width="24" height="25" viewBox="0 0 24 25" fill="none" xmlns="http://www.w3.org/2000/svg">
<path fill-rule="evenodd" clip-rule="evenodd" d="M10.2625 3.21876L9.89872 4.9207C9.83047 5.23998 9.79635 5.39962 9.73217 5.52156C9.6697 5.64026 9.61808 5.70683 9.51868 5.79689C9.41657 5.88941 9.23459 5.9801 8.87062 6.16146C8.62275 6.28498 8.38322 6.42272 8.1531 6.57363C7.82283 6.79022 7.65769 6.89851 7.52941 6.93995C7.40478 6.9802 7.32268 6.99186 7.19177 6.98789C7.05702 6.98381 6.90511 6.9371 6.6013 6.84369L4.90837 6.32317C4.46606 6.18717 4.2449 6.11917 4.03809 6.14245C3.86327 6.16213 3.69673 6.22758 3.55529 6.33219C3.38797 6.45594 3.27228 6.65632 3.04091 7.05707L2.85332 7.38197C2.61871 7.78834 2.5014 7.99152 2.47856 8.20074C2.45926 8.37756 2.48747 8.55633 2.56028 8.71861C2.64643 8.91063 2.82061 9.06782 3.16895 9.3822L4.43065 10.5209C4.67214 10.7388 4.79289 10.8478 4.86629 10.964C4.93766 11.0769 4.96963 11.155 4.99803 11.2856C5.02724 11.4199 5.01531 11.6216 4.99146 12.0252C4.98324 12.1643 4.97907 12.3045 4.97907 12.4457C4.97907 12.5957 4.98378 12.7447 4.99306 12.8924C5.01804 13.2899 5.03052 13.4887 5.00262 13.6216C4.97549 13.7507 4.94461 13.8281 4.87542 13.9404C4.80423 14.056 4.68682 14.1651 4.452 14.3834L3.17242 15.5728C2.83348 15.8879 2.66402 16.0454 2.58077 16.2362C2.5104 16.3974 2.48381 16.5744 2.50369 16.7492C2.5272 16.9559 2.64289 17.1563 2.87426 17.5571L3.06185 17.882C3.29646 18.2883 3.41377 18.4915 3.58354 18.6159C3.72701 18.721 3.89594 18.786 4.07289 18.8041C4.28225 18.8255 4.50547 18.7532 4.9519 18.6087L6.60423 18.074C6.91095 17.9747 7.06432 17.9251 7.20067 17.9194C7.33317 17.9138 7.41631 17.9248 7.5428 17.9647C7.67297 18.0057 7.84094 18.1149 8.17689 18.3332C8.40771 18.4833 8.64791 18.6201 8.89641 18.7427C9.256 18.92 9.43579 19.0087 9.53735 19.0993C9.63619 19.1876 9.68785 19.2529 9.7509 19.3695C9.81568 19.4892 9.85165 19.6461 9.92357 19.9599L10.3212 21.695C10.4246 22.146 10.4763 22.3716 10.5999 22.539C10.7043 22.6806 10.8443 22.7921 11.0056 22.8623C11.1964 22.9453 11.4278 22.9453 11.8906 22.9453H12.2657C12.7349 22.9453 12.9696 22.9453 13.1622 22.8605C13.3249 22.7888 13.4657 22.675 13.5698 22.5308C13.693 22.3602 13.7421 22.1307 13.8401 21.6719L14.2169 19.9094C14.2838 19.5966 14.3172 19.4401 14.3797 19.32C14.4405 19.2032 14.4908 19.1373 14.5875 19.0478C14.6868 18.9558 14.8637 18.8642 15.2174 18.6811C15.4412 18.5653 15.6579 18.4377 15.8669 18.2993C16.1982 18.0798 16.3639 17.97 16.4927 17.9279C16.6179 17.887 16.7004 17.8751 16.8321 17.8789C16.9675 17.8828 17.1204 17.9298 17.4262 18.0238L19.1943 18.5675C19.6366 18.7035 19.8578 18.7715 20.0646 18.7482C20.2394 18.7285 20.4059 18.663 20.5474 18.5584C20.7147 18.4347 20.8304 18.2343 21.0618 17.8336L21.2493 17.5086C21.484 17.1023 21.6013 16.8991 21.6241 16.6899C21.6434 16.5131 21.6152 16.3343 21.5424 16.172C21.4562 15.98 21.2821 15.8228 20.9337 15.5084L19.5674 14.2753C19.3293 14.0604 19.2102 13.953 19.1373 13.8384C19.0665 13.727 19.0344 13.65 19.0054 13.5212C18.9756 13.3887 18.9853 13.1898 19.0046 12.7919C19.0102 12.6772 19.013 12.5617 19.013 12.4457C19.013 12.321 19.0097 12.1972 19.0033 12.0741C18.9829 11.6822 18.9726 11.4862 19.0012 11.3552C19.0289 11.2279 19.0599 11.1515 19.1285 11.0408C19.1992 10.9268 19.315 10.8193 19.5465 10.6041L20.9303 9.31777C21.2692 9.00273 21.4387 8.84519 21.5219 8.65445C21.5923 8.49321 21.6189 8.31626 21.599 8.14147C21.5755 7.93468 21.4598 7.7343 21.2284 7.33355L21.0408 7.00865C20.8062 6.60228 20.6889 6.3991 20.5191 6.27471C20.3757 6.16959 20.2067 6.10463 20.0298 6.08655C19.8204 6.06515 19.5972 6.13739 19.1508 6.28188L17.4232 6.841C17.1146 6.94089 16.9602 6.99084 16.8232 6.99636C16.6899 7.00174 16.6064 6.99047 16.4793 6.94999C16.3486 6.90834 16.1801 6.79767 15.8431 6.57633C15.6338 6.43887 15.4167 6.3123 15.1926 6.19743C14.8433 6.01837 14.6686 5.92883 14.5698 5.8387C14.4737 5.75102 14.4234 5.68634 14.3621 5.57164C14.299 5.45372 14.2638 5.30003 14.1933 4.99267L13.7814 3.19563C13.6781 2.74459 13.6264 2.51905 13.5028 2.35159C13.3983 2.21003 13.2584 2.09853 13.0971 2.02834C12.9062 1.94531 12.6749 1.94531 12.2121 1.94531H11.837C11.3677 1.94531 11.1331 1.94531 10.9405 2.03014C10.7777 2.10183 10.637 2.21565 10.5329 2.35985C10.4097 2.53047 10.3606 2.7599 10.2625 3.21876ZM11.9991 15.4453C13.6559 15.4453 14.9991 14.1022 14.9991 12.4453C14.9991 10.7885 13.6559 9.44531 11.9991 9.44531C10.3422 9.44531 8.99909 10.7885 8.99909 12.4453C8.99909 14.1022 10.3422 15.4453 11.9991 15.4453Z" fill="white"/>
<path d="M10.3432 4.12501C10.4413 3.66615 10.4903 3.43672 10.6135 3.2661C10.7177 3.1219 10.8584 3.00808 11.0212 2.93639C11.2138 2.85156 11.4484 2.85156 11.9176 2.85156H12.0373C12.5001 2.85156 12.7314 2.85156 12.9223 2.93459C13.0836 3.00478 13.2235 3.11628 13.328 3.25784C13.4516 3.4253 13.5033 3.65083 13.6066 4.10188L13.9413 5.56215C14.0114 5.86811 14.0465 6.02109 14.1083 6.13762C14.1692 6.25254 14.2163 6.31383 14.3117 6.40229C14.4084 6.49199 14.5851 6.58521 14.9384 6.77166C15.0964 6.855 15.2504 6.94474 15.4002 7.04054C15.7459 7.26164 15.9188 7.37218 16.0481 7.41217C16.1755 7.45157 16.2543 7.46172 16.3875 7.45586C16.5227 7.44991 16.6763 7.40019 16.9836 7.30076L18.381 6.8485C18.8274 6.70401 19.0506 6.63176 19.26 6.65316C19.4369 6.67125 19.6058 6.7362 19.7493 6.84133C19.9191 6.96572 20.0364 7.1689 20.271 7.57527L20.3309 7.67894C20.5622 8.07969 20.6779 8.28007 20.7014 8.48685C20.7213 8.66165 20.6947 8.8386 20.6244 8.99984C20.5411 9.19058 20.3716 9.34811 20.0327 9.66316L18.905 10.7115C18.6745 10.9257 18.5593 11.0328 18.4891 11.145C18.42 11.2554 18.3904 11.3274 18.3616 11.4545C18.3324 11.5835 18.3405 11.783 18.3567 12.182C18.3602 12.2695 18.362 12.3574 18.362 12.4458C18.362 12.5259 18.3605 12.6057 18.3576 12.6851C18.3427 13.0902 18.3353 13.2928 18.3658 13.4232C18.3958 13.5517 18.4265 13.6243 18.4978 13.7354C18.5701 13.8482 18.6886 13.9552 18.9257 14.1691L20.0335 15.1689C20.3819 15.4833 20.5561 15.6405 20.6422 15.8325C20.715 15.9948 20.7432 16.1736 20.7239 16.3504C20.7011 16.5596 20.5838 16.7628 20.3492 17.1691L20.2893 17.2728C20.0579 17.6736 19.9422 17.8739 19.7749 17.9977C19.6335 18.1023 19.4669 18.1678 19.2921 18.1874C19.0853 18.2107 18.8642 18.1427 18.4218 18.0067L16.9855 17.5651C16.6812 17.4715 16.529 17.4247 16.3954 17.4204C16.2638 17.4161 16.1858 17.4269 16.0603 17.4667C15.9329 17.5072 15.763 17.6169 15.4231 17.8363C15.2735 17.9328 15.1197 18.0233 14.9619 18.1074C14.6042 18.2981 14.4254 18.3934 14.3281 18.4849C14.2322 18.5752 14.1851 18.6377 14.1248 18.7547C14.0636 18.8734 14.0303 19.0291 13.9637 19.3405L13.659 20.7659C13.561 21.2247 13.5119 21.4541 13.3887 21.6248C13.2846 21.769 13.1438 21.8828 12.9811 21.9545C12.7885 22.0393 12.5538 22.0393 12.0846 22.0393H11.9649C11.5022 22.0393 11.2708 22.0393 11.0799 21.9563C10.9186 21.8861 10.7787 21.7746 10.6742 21.633C10.5507 21.4656 10.499 21.24 10.3956 20.789L10.0742 19.3869C10.0027 19.0746 9.96686 18.9184 9.90341 18.8001C9.84079 18.6833 9.79245 18.6214 9.69436 18.5323C9.59496 18.4421 9.41307 18.3496 9.0493 18.1647C8.8699 18.0735 8.69537 17.9741 8.52619 17.867C8.18163 17.6489 8.00935 17.5399 7.88063 17.5005C7.75381 17.4618 7.67531 17.4518 7.54283 17.4579C7.40837 17.464 7.25572 17.5134 6.95041 17.6122L5.62127 18.0424C5.17483 18.1869 4.95162 18.2591 4.74225 18.2377C4.5653 18.2196 4.39638 18.1547 4.2529 18.0495C4.08313 17.9251 3.96582 17.722 3.73121 17.3156L3.67135 17.2119C3.43998 16.8112 3.32429 16.6108 3.30078 16.404C3.2809 16.2292 3.30749 16.0523 3.37786 15.891C3.46111 15.7003 3.63057 15.5428 3.96951 15.2277L5.00122 14.2687C5.23499 14.0514 5.35188 13.9427 5.42251 13.829C5.49211 13.7169 5.5217 13.644 5.54989 13.5151C5.57849 13.3843 5.56819 13.1819 5.54758 12.7771C5.542 12.6673 5.53917 12.5569 5.53917 12.4458C5.53917 12.3431 5.54158 12.241 5.54635 12.1396C5.56567 11.7287 5.57533 11.5233 5.54541 11.391C5.51592 11.2607 5.4853 11.1872 5.41352 11.0745C5.34069 10.9602 5.22049 10.8517 4.98008 10.6347L3.96869 9.72195C3.62034 9.40757 3.44617 9.25038 3.36002 9.05837C3.28721 8.89608 3.259 8.71731 3.2783 8.54049C3.30114 8.33128 3.41845 8.12809 3.65306 7.72173L3.71292 7.61805C3.94429 7.2173 4.05998 7.01693 4.2273 6.89317C4.36875 6.78856 4.53528 6.72311 4.7101 6.70343C4.91691 6.68016 5.13807 6.74816 5.58038 6.88415L6.94848 7.3048C7.25089 7.39778 7.4021 7.44427 7.53499 7.44878C7.66588 7.45322 7.74342 7.44268 7.86838 7.40346C7.99525 7.36363 8.16461 7.25543 8.50333 7.03901C8.67196 6.93127 8.84597 6.8312 9.02486 6.7393C9.39302 6.55016 9.5771 6.4556 9.67701 6.3635C9.77564 6.2726 9.82391 6.20954 9.88594 6.09061C9.94877 5.97013 9.98274 5.81123 10.0507 5.49344L10.3432 4.12501Z" stroke="currentColor" stroke-width="1.2" stroke-linecap="square" stroke-linejoin="round"/>
<circle cx="12" cy="12.4453" r="2.5" stroke="currentColor" stroke-width="1.2" stroke-linecap="square" stroke-linejoin="round"/>
</svg>
