<svg width="28" height="28" viewBox="0 0 28 28" fill="none" xmlns="http://www.w3.org/2000/svg">
<path d="M11.9544 3.33193C12.1164 2.57397 12.1974 2.19498 12.4725 1.97249C12.7476 1.75 13.1351 1.75 13.9102 1.75H14.1526C14.9168 1.75 15.299 1.75 15.5724 1.96789C15.8459 2.18577 15.9313 2.55825 16.102 3.30319L16.5461 5.24062C16.6581 5.7294 16.7141 5.97379 16.8481 6.14745C16.9821 6.32111 17.2499 6.46117 17.7856 6.74128C18.006 6.85651 18.2204 6.98148 18.4284 7.11562C18.9504 7.45225 19.2114 7.62056 19.4346 7.64973C19.6579 7.67889 19.9033 7.59947 20.3941 7.44062L22.251 6.83963C22.9884 6.60096 23.3571 6.48163 23.6873 6.60861C24.0176 6.73559 24.2113 7.07121 24.5989 7.74245L24.72 7.95233C25.1022 8.6142 25.2932 8.94514 25.2413 9.29092C25.1893 9.6367 24.9094 9.89687 24.3497 10.4172L22.8549 11.8067C22.4867 12.149 22.3026 12.3201 22.2192 12.5236C22.1358 12.7271 22.1491 13.0292 22.1758 13.6333C22.1811 13.755 22.1839 13.8774 22.1839 14.0004C22.1839 14.1131 22.1816 14.2253 22.1771 14.3369C22.1523 14.9501 22.1399 15.2567 22.2263 15.4621C22.3127 15.6675 22.502 15.8384 22.8807 16.1802L24.3517 17.5077C24.9271 18.027 25.2148 18.2866 25.2699 18.6361C25.3251 18.9856 25.1313 19.3212 24.7437 19.9925L24.6226 20.2023C24.2404 20.8642 24.0494 21.1951 23.7239 21.323C23.3985 21.4509 23.0332 21.3386 22.3027 21.114L20.3968 20.528C19.9106 20.3785 19.6675 20.3037 19.4472 20.3346C19.227 20.3655 18.9704 20.5325 18.4572 20.8666C18.2495 21.0017 18.0353 21.1277 17.8152 21.244C17.273 21.5304 17.0019 21.6736 16.8678 21.8507C16.7338 22.0278 16.6807 22.2765 16.5743 22.7739L16.1694 24.6681C16.0074 25.426 15.9264 25.805 15.6513 26.0275C15.3763 26.25 14.9887 26.25 14.2136 26.25H13.9713C13.207 26.25 12.8249 26.25 12.5514 26.0321C12.2779 25.8142 12.1926 25.4418 12.0218 24.6968L11.5947 22.8331C11.4803 22.3342 11.4231 22.0847 11.2854 21.9089C11.1476 21.7331 10.8719 21.5943 10.3206 21.3167C10.0725 21.1918 9.83159 21.0546 9.59874 20.906C9.07846 20.5739 8.81832 20.4078 8.59622 20.3793C8.37413 20.3508 8.13024 20.4298 7.64246 20.5876L5.87288 21.1604C5.13546 21.399 4.76675 21.5184 4.43652 21.3914C4.1063 21.2644 3.91253 20.9288 3.52499 20.2575L3.40381 20.0477C3.02168 19.3858 2.83062 19.0549 2.88257 18.7091C2.93453 18.3633 3.21442 18.1031 3.77419 17.5828L5.14668 16.307C5.52011 15.9599 5.70683 15.7863 5.79018 15.5798C5.87354 15.3733 5.8568 15.067 5.82332 14.4543C5.81511 14.304 5.81095 14.1527 5.81095 14.0004C5.81095 13.8588 5.81455 13.718 5.82166 13.5781C5.85325 12.9564 5.86904 12.6455 5.78268 12.4372C5.69632 12.2288 5.50433 12.0555 5.12034 11.709L3.7722 10.4923C3.1968 9.973 2.9091 9.71335 2.85395 9.36388C2.79881 9.01441 2.99258 8.67879 3.38012 8.00755L3.5013 7.79767C3.88343 7.1358 4.07449 6.80486 4.39993 6.67697C4.72536 6.54908 5.09061 6.66138 5.82113 6.88599L7.63969 7.44514C8.12291 7.59372 8.36452 7.668 8.5836 7.6378C8.80267 7.6076 9.05845 7.44284 9.56999 7.11331C9.80212 6.96378 10.0423 6.82566 10.2897 6.69975C10.8476 6.41585 11.1266 6.2739 11.2644 6.09463C11.4022 5.91535 11.4564 5.6616 11.5649 5.15409L11.9544 3.33193Z" stroke="currentColor" stroke-width="2" stroke-linejoin="round"/>
<circle cx="14" cy="14" r="3.5" stroke="currentColor" stroke-width="2" stroke-linejoin="round"/>
</svg>
