<svg width="64" height="64" fill="none" xmlns="http://www.w3.org/2000/svg">
	<path d="M56.554 16.175c1.591 21.747-12.376 32.002-24.895 33.098C20.026 50.3 9.064 43.12 8.074 32.123c-.778-9.088 4.81-12.943 9.23-13.332 4.526-.389 8.345 2.723 8.663 6.507.319 3.642-1.945 5.304-3.536 5.446-1.238.106-2.829-.637-2.97-2.264-.106-1.414.424-1.59.282-3.076-.247-2.652-2.546-2.97-3.819-2.864-1.52.141-4.314 1.91-3.925 6.365.39 4.49 4.703 8.027 10.326 7.532 6.082-.53 10.326-5.269 10.644-11.917 0-.354.07-.707.212-1.026.07-.141.142-.282.212-.389.142-.212.283-.424.495-.636.142-.177.354-.354.566-.566 2.652-2.51 12.235-8.416 21.288-6.542.495.106.778.425.813.814z"
	      fill="url(#paint0_linear_4469_33491)"/>
	<defs>
		<linearGradient id="paint0_linear_4469_33491" x1="53.745" y1="14.869" x2="22.242" y2="59.46"
		                gradientUnits="userSpaceOnUse">
			<stop stop-color="#11C4D1"/>
			<stop offset="1" stop-color="#0062AD"/>
		</linearGradient>
	</defs>
</svg>
