<svg width="48" height="48" viewBox="0 0 48 48" fill="none" xmlns="http://www.w3.org/2000/svg">
<circle cx="24" cy="24" r="24" fill="white"/>
<path d="M25.7975 10.4382L34.8605 15.1389C36.1801 15.8237 37 17.1803 37 18.6795V20.8228H33.6581V18.6795C33.6581 18.4532 33.5339 18.2479 33.3343 18.1443L24.2718 13.4438C24.102 13.3559 23.8989 13.3557 23.7284 13.4441L14.6654 18.1443C14.4661 18.2479 14.3422 18.4532 14.3422 18.6795V20.8228H11V18.6795C11 17.1803 11.8199 15.8237 13.1392 15.1389L22.2028 10.4382C23.328 9.85392 24.6714 9.85392 25.7975 10.4382Z" fill="#356DF3"/>
<path fill-rule="evenodd" clip-rule="evenodd" d="M33.3349 29.856C33.5339 29.7526 33.6581 29.5476 33.6581 29.321V27.1774H37V29.321C37 30.8202 36.1801 32.1768 34.8611 32.8613L25.7975 37.562C25.2454 37.8482 24.6237 38 24 38C23.3766 38 22.7546 37.8482 22.2025 37.562L13.1395 32.8613C11.8199 32.1768 11 30.8202 11 29.321V27.1774H14.3419V29.321C14.3419 29.5476 14.4661 29.7526 14.6657 29.856L22.3291 33.8307V29.8928C19.7184 29.1534 17.7973 26.728 17.7973 23.8564C17.7973 20.3994 20.5798 17.5868 24 17.5868C27.4202 17.5868 30.2027 20.3994 30.2027 23.8564C30.2027 26.728 28.2816 29.1534 25.6709 29.8928V33.831L33.3349 29.856ZM26.8598 23.8574C26.8598 22.2628 25.5765 20.966 23.9992 20.966C22.4219 20.966 21.1386 22.2628 21.1386 23.8574C21.1386 25.4515 22.4219 26.7488 23.9992 26.7488C25.5765 26.7488 26.8598 25.4515 26.8598 23.8574Z" fill="#356DF3"/>
</svg>
