<svg width="48" height="48" viewBox="0 0 48 48" fill="none" xmlns="http://www.w3.org/2000/svg">
<circle cx="24" cy="24" r="24" fill="#1F2226"/>
<path fill-rule="evenodd" clip-rule="evenodd" d="M19.5055 24C21.9883 23.997 24 21.9834 24 19.5C24 17.0147 21.9853 15 19.5 15C17.0147 15 15 17.0147 15 19.5C15 21.9834 17.0117 23.997 19.4944 24C17.0117 24.003 15 26.0165 15 28.5C15 30.9852 17.0147 33 19.5 33C21.9853 33 24 30.9852 24 28.5C24 26.0165 21.9883 24.003 19.5055 24ZM24 19.5C24 21.9853 26.0147 24 28.5 24C26.0147 24 24 26.0147 24 28.5C24 30.9852 26.0147 33 28.5 33C30.9853 33 33 30.9852 33 28.5C33 26.0158 30.9871 24.0018 28.5034 24C30.9871 23.9981 33 21.9841 33 19.5C33 17.0147 30.9853 15 28.5 15C26.0147 15 24 17.0147 24 19.5Z" fill="#68E19B"/>
</svg>
