<svg width="23" height="22" viewBox="0 0 23 22" fill="none" xmlns="http://www.w3.org/2000/svg">
  <circle cx="11.5" cy="11" r="11" fill="#356DF3" />
  <path d="M12.4043 4.18524L16.9392 6.59089C17.6353 7.00884 18.2867 7.49644 18.3166 8.93188V10.0837H16.534V8.50896L11.5168 5.81223L6.4623 8.50896V10.0837H4.67969V8.93188C4.70704 7.5039 5.35345 7.01381 6.04462 6.59836L10.6267 4.18274C11.1837 3.88919 11.8474 3.88919 12.4043 4.18524Z" fill="white" />
  <path fill-rule="evenodd" clip-rule="evenodd" d="M12.4068 15.9821L16.5315 13.6711V11.9495H18.3141V13.0989C18.2867 14.5343 17.6328 15.0244 16.9367 15.4398L12.4043 17.8455C11.8499 18.1416 11.1837 18.1416 10.6267 17.8479L6.04462 15.4324C5.35345 15.0169 4.70952 14.5243 4.67969 13.0989V11.9495H6.46478V13.6711L10.6267 15.9846V14.1163C9.17476 13.7755 8.22254 12.5963 8.22254 11.0141C8.22254 9.09853 9.5452 7.81236 11.5168 7.81236C13.4883 7.81236 14.811 9.09853 14.811 11.0141C14.811 12.5938 13.8563 13.7755 12.4068 14.1163V15.9821ZM11.5168 9.38712C10.4601 9.38712 9.87838 9.96423 9.87838 11.0141C9.87838 12.0341 10.49 12.6411 11.5168 12.6411C12.5436 12.6411 13.1552 12.0316 13.1552 11.0141C13.1552 9.96423 12.5734 9.38712 11.5168 9.38712Z" fill="white" />
</svg>
