<svg width="59" height="59" viewBox="0 0 59 59" fill="none" xmlns="http://www.w3.org/2000/svg">
  <path fill-rule="evenodd" clip-rule="evenodd"
        d="M14.75 29.5C22.8962 29.5 29.5 22.8962 29.5 14.75C29.5 22.8962 36.1038 29.5 44.25 29.5C36.1038 29.5 29.5 36.1038 29.5 44.25C29.5 36.1038 22.8962 29.5 14.75 29.5ZM14.75 29.5C6.6038 29.5 0 36.1038 0 44.25C0 52.3962 6.6038 59 14.75 59C22.8962 59 29.5 52.3962 29.5 44.25C29.5 52.3962 36.1038 59 44.25 59C52.3962 59 59 52.3962 59 44.25C59 36.1038 52.3962 29.5 44.25 29.5C52.3962 29.5 59 22.8962 59 14.75C59 6.6038 52.3962 0 44.25 0C36.1038 0 29.5 6.6038 29.5 14.75C29.5 6.6038 22.8962 0 14.75 0C6.6038 0 0 6.6038 0 14.75C0 22.8962 6.6038 29.5 14.75 29.5Z"
        fill="#22D297"/>
</svg>
