<svg width="64" height="64" viewBox="0 0 64 64" fill="none" xmlns="http://www.w3.org/2000/svg">
  <circle cx="32" cy="32" r="32" fill="#F6851B"/>
  <path
    d="M32.0932 18.2856C29.3437 18.296 26.7098 19.3954 24.7656 21.3442C22.8214 23.293 21.7246 25.9331 21.7144 28.6891C21.7142 29.8382 21.8989 30.9798 22.2613 32.0699C22.3914 32.4267 22.6527 32.7201 22.9917 32.89C23.3307 33.0599 23.7216 33.0934 24.0844 32.9837C24.4366 32.8495 24.7243 32.5857 24.8889 32.246C25.0535 31.9064 25.0825 31.5166 24.97 31.1562C24.6617 30.3084 24.5245 29.4077 24.5663 28.5064C24.6093 27.0513 25.0736 25.6403 25.9025 24.445C26.7313 23.2497 27.8891 22.3218 29.2347 21.7744C30.5803 21.2269 32.0557 21.0835 33.4812 21.3615C34.9067 21.6396 36.2208 22.3272 37.2634 23.3405C38.3059 24.3539 39.0321 25.6492 39.3533 27.0688C39.6745 28.4885 39.5769 29.9711 39.0725 31.3361C38.568 32.7012 37.6784 33.8897 36.5121 34.757C35.3458 35.6243 33.953 36.1329 32.5034 36.2209C32.5034 36.2209 31.0514 36.3123 30.3222 36.4036C30.0547 36.4415 29.7896 36.4938 29.5278 36.5603C29.509 36.5744 29.4857 36.5813 29.4623 36.5796C29.4388 36.5779 29.4168 36.5678 29.4001 36.5512C29.3835 36.5345 29.3734 36.5124 29.3718 36.4889C29.3701 36.4654 29.3769 36.4421 29.3911 36.4232L29.6189 35.1897L30.9863 28.9828C31.0649 28.6133 30.9938 28.2276 30.7886 27.9105C30.5835 27.5935 30.2611 27.3712 29.8924 27.2924C29.5237 27.2137 29.1389 27.2849 28.8227 27.4906C28.5064 27.6962 28.2846 28.0193 28.206 28.3889C28.206 28.3889 24.9504 43.5438 24.9504 43.6809C24.9056 43.8637 24.8985 44.0538 24.9295 44.2395C24.9605 44.4252 25.029 44.6026 25.1308 44.7609C25.2326 44.9191 25.3655 45.0549 25.5215 45.1598C25.6774 45.2648 25.8531 45.3367 26.0378 45.3713C26.2206 45.4152 26.4105 45.4213 26.5957 45.3894C26.781 45.3575 26.9579 45.2882 27.1156 45.1856C27.2734 45.0831 27.4087 44.9495 27.5133 44.7929C27.6179 44.6363 27.6896 44.46 27.7242 44.2748C27.7698 44.092 28.18 42.0818 28.18 42.0818C28.3311 41.3419 28.7048 40.6662 29.2508 40.1457C29.7968 39.6252 30.4889 39.285 31.2337 39.1709C31.5463 39.1252 32.868 39.0339 32.868 39.0339C35.5094 38.7892 37.9569 37.5393 39.7073 35.5414C41.4576 33.5434 42.3777 30.9492 42.2785 28.2921C42.1793 25.635 41.0682 23.117 39.1738 21.2558C37.2793 19.3946 34.7455 18.3317 32.0932 18.2856Z"
    fill="white"/>
  <path
    d="M34.6898 42.2447C34.4653 42.1991 34.2339 42.1984 34.0091 42.2427C33.7843 42.2869 33.5705 42.3753 33.3798 42.5027C33.1892 42.6301 33.0256 42.794 32.8983 42.985C32.7711 43.1759 32.6828 43.3903 32.6384 43.6156C32.5902 43.8408 32.5875 44.0735 32.6305 44.2999C32.6735 44.5262 32.7613 44.7416 32.8888 44.9333C33.0164 45.125 33.1809 45.2892 33.3728 45.416C33.5647 45.5429 33.78 45.6299 34.006 45.6719C34.2305 45.723 34.4631 45.7278 34.6896 45.6858C34.916 45.6438 35.1315 45.556 35.3229 45.4277C35.5143 45.2994 35.6776 45.1333 35.8027 44.9396C35.9279 44.7458 36.0124 44.5285 36.0509 44.301C36.1277 43.849 36.0296 43.3847 35.7767 43.0026C35.5238 42.6206 35.1351 42.3495 34.6898 42.2447V42.2447Z"
    fill="white"/>
</svg>
