<svg width="21" height="23" viewBox="0 0 21 23" fill="none" xmlns="http://www.w3.org/2000/svg">
<path d="M19.2719 4.13956L11.9518 0.353005C11.0423 -0.117668 9.95727 -0.117668 9.04843 0.353005L1.72783 4.13956C0.6622 4.69114 0 5.78397 0 6.99158V8.71809H2.69943V6.99158C2.69943 6.80929 2.79953 6.64393 2.96053 6.56043L10.2807 2.77435C10.4183 2.70307 10.5824 2.70331 10.7196 2.77411L18.0392 6.56043C18.2005 6.64393 18.3008 6.80929 18.3008 6.99158V8.71809H21V6.99158C21 5.78397 20.3378 4.69114 19.2719 4.13956Z" fill="#356DF3"/>
<path fill-rule="evenodd" clip-rule="evenodd" d="M18.3008 15.564C18.3008 15.7466 18.2005 15.9117 18.0397 15.9949L11.8496 19.197V16.0246C13.9582 15.429 15.5099 13.4753 15.5099 11.1621C15.5099 8.37738 13.2624 6.11176 10.5 6.11176C7.73757 6.11176 5.4901 8.37738 5.4901 11.1621C5.4901 13.4753 7.04177 15.429 9.1504 16.0246V19.1967L2.96077 15.9949C2.79953 15.9117 2.6992 15.7466 2.6992 15.564V13.8373H0V15.564C0 16.7716 0.6622 17.8645 1.72807 18.4158L9.0482 22.2024C9.4941 22.4329 9.99647 22.5552 10.5 22.5552C11.0038 22.5552 11.5059 22.4329 11.9518 22.2024L19.2724 18.4158C20.3378 17.8645 21 16.7716 21 15.564V13.8373H18.3008V15.564ZM10.4993 8.83355C11.7733 8.83355 12.8098 9.87816 12.8098 11.1627C12.8098 12.4468 11.7733 13.4918 10.4993 13.4918C9.22534 13.4918 8.18888 12.4468 8.18888 11.1627C8.18888 9.87816 9.22534 8.83355 10.4993 8.83355Z" fill="#356DF3"/>
</svg>
