<svg width="24" height="24" viewBox="0 0 24 24" fill="none" xmlns="http://www.w3.org/2000/svg">
<circle cx="12" cy="12" r="12" fill="#E3453D"/>
<path fill-rule="evenodd" clip-rule="evenodd" d="M13.1447 5.65566L14.3093 7.72829C14.5928 8.249 14.5928 9.09643 14.3093 9.59671L10.4004 16.417C10.1067 16.9377 9.3776 17.3563 8.79025 17.3563H8.57758H7.34213H5.53959C4.83073 17.3563 4.53706 16.856 4.89149 16.2332L11.3725 4.7674C11.727 4.14459 12.2941 4.14459 12.6485 4.7674L13.1447 5.65566ZM15.6251 12.3328C15.9795 11.71 16.5466 11.71 16.901 12.3328L19.1087 16.2432C19.4631 16.8558 19.1694 17.3663 18.4605 17.3663H14.0251C13.3263 17.3663 13.0327 16.8558 13.3871 16.2432L15.6251 12.3328Z" fill="white"/>
</svg>
