<svg width="49" height="48" viewBox="0 0 49 48" fill="none" xmlns="http://www.w3.org/2000/svg">
<path d="M47.6984 24.0005C47.6984 36.7251 37.3831 47.0405 24.6584 47.0405C11.9338 47.0405 1.61841 36.7251 1.61841 24.0005C1.61841 11.2758 11.9338 0.960449 24.6584 0.960449C37.3831 0.960449 47.6984 11.2758 47.6984 24.0005Z" fill="#FFB852"/>
<path fill-rule="evenodd" clip-rule="evenodd" d="M48.6584 24.0005C48.6584 37.2553 37.9133 48.0005 24.6584 48.0005C11.4036 48.0005 0.658447 37.2553 0.658447 24.0005C0.658447 10.7456 11.4036 0.000488281 24.6584 0.000488281C37.9133 0.000488281 48.6584 10.7456 48.6584 24.0005ZM24.6584 47.0405C37.3831 47.0405 47.6984 36.7251 47.6984 24.0005C47.6984 11.2759 37.3831 0.960488 24.6584 0.960488C11.9338 0.960488 1.61845 11.2759 1.61845 24.0005C1.61845 36.7251 11.9338 47.0405 24.6584 47.0405Z" fill="black"/>
<path d="M16.4636 30.6694C16.4665 30.8227 16.4688 30.9124 16.257 30.9148L13.5131 30.9422L13.5438 33.4309L18.3265 33.3791L18.3713 36.9956L20.7491 36.9673L20.7042 33.3509L22.1824 33.3353L22.2258 36.9468L24.4877 36.9225L24.4479 33.3046L26.149 33.2891C27.2818 33.2737 31.3262 32.2669 31.2723 28.5145C31.3041 27.4992 30.9915 26.5028 30.3853 25.6876C29.7791 24.8724 28.915 24.2862 27.9333 24.0244C27.9333 24.0244 30.2194 22.6124 29.9707 20.2446C29.722 17.8768 27.8588 17.2336 26.7867 16.8931C25.9539 16.6649 25.0976 16.5328 24.2347 16.4995L24.1892 12.7185L22.016 12.7569L22.0662 16.5154L20.319 16.5377L20.2848 12.7592L18.0867 12.804L18.1308 16.5801L13.5235 16.6349L13.5438 18.8606L16.0699 18.8308C16.3241 18.8278 16.3256 18.955 16.3265 19.0397L16.4636 30.6694ZM20.3382 18.7798L23.0238 18.7505C23.4849 18.7465 25.7299 19.1037 25.7404 21.0081C25.7579 21.53 25.5878 22.0411 25.2608 22.4484C24.9338 22.8557 24.4718 23.1324 23.9584 23.2282C23.7527 23.2816 23.5422 23.3137 23.33 23.3238L20.3689 23.3562L20.3382 18.7798ZM20.4532 25.7245L24.6505 25.6869C24.9544 25.689 25.2546 25.7531 25.5328 25.875C25.8112 25.9971 26.0615 26.1746 26.2689 26.3966C26.4763 26.6187 26.6362 26.8808 26.7388 27.1667C26.8416 27.4526 26.8849 27.7565 26.8662 28.0598C26.8859 29.574 25.5712 30.2532 24.8802 30.4342C24.7791 30.4641 24.6745 30.4808 24.5692 30.4839L20.519 30.5361L20.4532 25.7245Z" fill="#FFE3BD"/>
<path fill-rule="evenodd" clip-rule="evenodd" d="M15.4951 29.9624L12.5413 29.9919L12.5957 34.4012L17.3785 34.3495L17.4233 37.9669L21.7209 37.9159L21.7208 37.9124L25.4583 37.872L25.4184 34.2559L26.1578 34.249H26.1621C26.8957 34.239 28.3644 33.9371 29.6678 33.1152C31.0111 32.2681 32.2572 30.8067 32.2325 28.5226C32.2658 27.2983 31.8867 26.098 31.1557 25.1148C30.7505 24.57 30.2505 24.1095 29.6839 23.7527C29.717 23.715 29.75 23.6764 29.783 23.6368C30.4188 22.8733 31.0865 21.6781 30.9255 20.1443C30.7722 18.685 30.1016 17.7037 29.2833 17.0559C28.5016 16.4372 27.615 16.149 27.0774 15.9782L27.059 15.9724L27.0405 15.9673C26.4314 15.8003 25.8107 15.6808 25.1841 15.6096L25.1375 11.7417L21.2362 11.8106L21.2359 11.7795L17.1157 11.8637L17.1596 15.6316L12.5549 15.6863L12.5926 19.8321L15.3754 19.7991L15.4951 29.9624ZM18.1308 16.5801L13.5235 16.635L13.5438 18.8607L16.0698 18.8308C16.3241 18.8279 16.3255 18.955 16.3265 19.0398L16.4635 30.6695V30.6706C16.4666 30.8232 16.4682 30.9124 16.2569 30.9149L13.5131 30.9423L13.5439 33.4309L18.3265 33.3791L18.3713 36.9957L20.749 36.9674L20.7043 33.3509L22.1823 33.3353L22.2258 36.9469L24.4878 36.9225L24.4479 33.3047L26.1491 33.2891C27.2819 33.2737 31.3261 32.2668 31.2723 28.5146C31.3041 27.4992 30.9915 26.5029 30.3853 25.6877C30.0044 25.1755 29.5219 24.7538 28.9722 24.446C28.647 24.2639 28.2983 24.1218 27.9334 24.0244C27.9334 24.0244 28.3426 23.7717 28.7959 23.3007C29.414 22.6586 30.1142 21.6107 29.9706 20.2447C29.7219 17.8769 27.8587 17.2337 26.7868 16.8932C25.9538 16.6649 25.0976 16.5329 24.2346 16.4996L24.1893 12.7185L22.016 12.7569L22.0661 16.5154L20.3189 16.5378L20.2847 12.7592L18.0866 12.8041L18.1308 16.5801ZM25.7404 21.0082C25.73 19.1037 23.485 18.7466 23.0238 18.7506L20.3382 18.7799L20.369 23.3562L23.33 23.3238C23.5422 23.3137 23.7528 23.2817 23.9583 23.2282C24.4718 23.1324 24.9339 22.8558 25.2608 22.4484C25.5878 22.0411 25.7579 21.5301 25.7404 21.0082ZM23.3001 22.3641C23.4409 22.3564 23.5805 22.3345 23.7168 22.2991L23.7493 22.2906L23.7822 22.2845C24.07 22.2308 24.3289 22.0758 24.5122 21.8475C24.6953 21.6192 24.7908 21.3329 24.781 21.0403L24.7805 21.0269L24.7804 21.0133C24.7777 20.5311 24.5278 20.2365 24.1036 20.013C23.8851 19.8979 23.6441 19.819 23.4283 19.7699C23.3223 19.7457 23.2283 19.7303 23.1543 19.7211C23.1173 19.7165 23.0872 19.7137 23.0646 19.7121C23.0442 19.7108 23.0338 19.7106 23.0322 19.7106C23.0319 19.7106 23.0319 19.7106 23.0322 19.7106L21.3046 19.7294L21.3224 22.3857L23.3001 22.3641ZM26.8661 28.0598C26.8848 27.7566 26.8415 27.4527 26.7389 27.1667C26.6362 26.8808 26.4762 26.6188 26.269 26.3967C26.0616 26.1746 25.8111 25.9971 25.5329 25.8751C25.2546 25.7531 24.9544 25.689 24.6506 25.687L20.4531 25.7246L20.5191 30.5357L24.5692 30.4839C24.6746 30.4808 24.7791 30.4642 24.8802 30.4343C25.5711 30.2532 26.8858 29.574 26.8661 28.0598ZM24.5458 29.5241C24.567 29.5232 24.5882 29.5195 24.6086 29.5136L24.6227 29.5094L24.6369 29.5057C24.8673 29.4453 25.2163 29.2933 25.4877 29.0423C25.7366 28.8121 25.912 28.5122 25.9062 28.0723L25.9058 28.0365L25.908 28.0008C25.9187 27.8277 25.894 27.6543 25.8354 27.4912C25.7768 27.3281 25.6855 27.1785 25.5673 27.0518C25.4489 26.9252 25.306 26.8239 25.1473 26.7542C24.9906 26.6856 24.8216 26.649 24.6505 26.647L21.4263 26.676L21.4658 29.5639L24.5458 29.5241Z" fill="black"/>
<path d="M23.2149 5.07451C26.9609 4.78882 30.7036 5.62135 33.9709 7.46107L33.4096 8.40154C30.3365 6.67743 26.8188 5.89771 23.2982 6.16621C19.6179 6.4469 16.1144 7.85932 13.2685 10.2098C10.4226 12.5602 8.37359 15.7335 7.40244 19.2945C6.4313 22.8555 6.58562 26.6298 7.84425 30.0996C9.10288 33.5694 11.4042 36.5648 14.4325 38.6752C17.4608 40.7854 21.0678 41.907 24.7588 41.8864C28.4498 41.8656 32.044 40.7035 35.0484 38.5594C37.9224 36.5083 40.1221 33.6547 41.3752 30.3613L42.4089 30.7231C41.0809 34.2298 38.7423 37.2682 35.6843 39.4505C32.4961 41.7259 28.6818 42.9592 24.7649 42.9812C20.848 43.0032 17.0202 41.8128 13.8065 39.5734C10.5929 37.334 8.15067 34.1551 6.815 30.4729C5.47932 26.7908 5.31555 22.7854 6.34614 19.0064C7.37673 15.2275 9.55121 11.8599 12.5714 9.36558C15.5914 6.87125 19.3093 5.37237 23.2149 5.07451Z" fill="black"/>
<path d="M42.8198 24.6995H35.3711V22.6634L37.8251 20.1746C38.6952 19.2812 39.2986 18.5967 39.635 18.121C39.9831 17.6453 40.1571 17.1406 40.1571 16.6069C40.1571 16.0616 40.0121 15.6787 39.722 15.4583C39.4436 15.2379 39.0433 15.1277 38.5212 15.1277C37.7438 15.1277 36.8968 15.1972 35.9803 15.3364L35.5626 15.3886L35.4407 13.5265C36.5778 13.1785 37.7554 13.0044 38.9736 13.0044C41.4102 13.0044 42.6284 14.1009 42.6284 16.2937C42.6284 17.1522 42.4428 17.8948 42.0715 18.5213C41.7002 19.1478 41.0273 19.9078 40.0527 20.8012L38.0513 22.6112H42.8198V24.6995Z" fill="#FFDFB6"/>
<path fill-rule="evenodd" clip-rule="evenodd" d="M43.7798 25.6596H34.4111V22.2697L37.1373 19.5049L37.1394 19.5028C38.0035 18.6154 38.5612 17.9767 38.8512 17.5667L38.8556 17.5604L38.8602 17.5541C39.1011 17.2249 39.197 16.9156 39.197 16.607C39.197 16.4142 39.1708 16.3043 39.1505 16.2509C39.1438 16.2332 39.1385 16.2233 39.1355 16.2185L39.1336 16.2169L39.1261 16.211C39.0808 16.1752 38.925 16.0877 38.5211 16.0877C37.8001 16.0877 37.0021 16.1524 36.1243 16.2857L36.1119 16.2875L34.671 16.4676L34.4332 12.831L35.1597 12.6086C36.39 12.2319 37.6625 12.0444 38.9736 12.0444C40.3163 12.0444 41.5026 12.3444 42.3569 13.1132C43.2304 13.8993 43.5883 15.0216 43.5883 16.2937C43.5883 17.2934 43.371 18.2115 42.8973 19.0108C42.4539 19.7591 41.6986 20.5947 40.7013 21.5089L40.6966 21.5133L40.5441 21.6512H43.7798V25.6596ZM38.0512 22.6112L40.0526 20.8012C41.0272 19.9078 41.7002 19.1478 42.0714 18.5214C42.4427 17.8949 42.6283 17.1523 42.6283 16.2937C42.6283 14.1009 41.4101 13.0044 38.9736 13.0044C37.7554 13.0044 36.5777 13.1785 35.4407 13.5266L35.5625 15.3888L35.9802 15.3365C36.1617 15.3089 36.3403 15.2841 36.5163 15.262C37.2293 15.1725 37.8976 15.1277 38.5211 15.1277C39.0432 15.1277 39.4435 15.2379 39.722 15.4583C40.012 15.6788 40.157 16.0616 40.157 16.607C40.157 17.1407 39.9831 17.6453 39.635 18.121C39.2985 18.5967 38.6952 19.2813 37.825 20.1747L35.3711 22.6634V24.6996H42.8198V22.6112H38.0512Z" fill="black"/>
</svg>
