<svg width="24" height="25" viewBox="0 0 24 25" fill="none" xmlns="http://www.w3.org/2000/svg">
  <circle cx="12" cy="12.8506" r="12" fill="#FF1256"/>
  <path d="M8.42238 7.33574L11.136 5.66046C11.3748 5.5256 11.3748 5.24611 11.2026 5.0755L8.93585 2.88349C8.89198 2.83962 8.81886 2.83962 8.77499 2.88349L8.5605 3.0996C8.28589 3.37584 8.28752 3.82106 8.56375 4.09567L9.44933 4.91301C9.60044 5.0625 9.57119 5.31273 9.39083 5.42485L8.33301 6.07319C8.00316 6.2763 7.90079 6.71015 8.10553 7.04001L8.26477 7.29837C8.29727 7.35199 8.36876 7.36824 8.42238 7.33574Z" fill="white"/>
  <path d="M11.0423 16.3214C11.2649 15.3578 11.0016 14.3455 10.3354 13.6127L8.62115 11.6693C7.66733 10.5871 7.90294 8.91022 9.11837 8.13351L11.923 6.34124C12.1033 6.22587 12.3406 6.24699 12.4982 6.39161C13.5235 7.33731 17.0934 10.7464 16.9342 14.2675C16.9342 14.2675 16.939 19.7353 11.5541 21.7811C10.7628 22.0817 9.96169 21.3586 10.1697 20.5381C10.9139 17.5905 11.0439 16.3198 11.0439 16.3198L11.0423 16.3214ZM11.7442 7.90277C11.3152 8.17413 10.4849 8.7006 9.77645 9.1507C9.30198 9.45131 9.20611 10.1029 9.57334 10.5286L11.3656 12.6004C12.3925 13.7297 12.8004 15.2896 12.4559 16.778L12.1553 18.0958C12.0253 18.6678 12.6997 19.0675 13.1449 18.684C15.033 17.0543 17.68 13.1366 12.1586 7.9434C12.0464 7.83778 11.8758 7.82153 11.7442 7.9044V7.90277Z" fill="white"/>
</svg>
