<svg width="28" height="28" viewBox="0 0 28 28" fill="none" xmlns="http://www.w3.org/2000/svg">
<circle cx="14" cy="14" r="13.5" stroke="#333333"/>
<g clip-path="url(#clip0_2425_7418)">
<path fill-rule="evenodd" clip-rule="evenodd" d="M14 26.0005C7.4 26.0005 2 20.6005 2 13.9405C2.06 7.34049 7.4 1.9405 14.06 2.0005C20.66 2.0605 26 7.40049 26 14.1205C25.94 20.6605 20.6 26.0005 14 26.0005Z" fill="#0090FF"/>
<path fill-rule="evenodd" clip-rule="evenodd" d="M15.14 12.5615L14.78 14.4815L18.2 14.9615L17.96 15.8615L14.6 15.3815C14.36 16.1615 14.24 17.0015 13.94 17.7215C13.64 18.5615 13.34 19.4015 12.98 20.1815C12.5 21.2015 11.66 21.9215 10.52 22.1015C9.85999 22.2215 9.13999 22.1615 8.59999 21.7415C8.41999 21.6215 8.23999 21.3815 8.23999 21.2015C8.23999 20.9615 8.35999 20.6615 8.53999 20.5415C8.65999 20.4815 8.95999 20.5415 9.13999 20.6015C9.31999 20.7815 9.49999 21.0215 9.61999 21.2615C9.97999 21.7415 10.46 21.8015 10.94 21.4415C11.48 20.9615 11.78 20.3015 11.96 19.6415C12.32 18.2015 12.68 16.8215 12.98 15.3815V15.1415L9.79999 14.6615L9.91999 13.7615L13.22 14.2415L13.64 12.3815L10.22 11.8415L10.34 10.8815L13.88 11.3615C14 11.0015 14.06 10.7015 14.18 10.4015C14.48 9.32146 14.78 8.24146 15.5 7.28146C16.22 6.32146 17.06 5.72146 18.32 5.78146C18.86 5.78146 19.4 5.96146 19.76 6.38146C19.82 6.44146 19.94 6.56146 19.94 6.68146C19.94 6.92146 19.94 7.22146 19.76 7.40146C19.52 7.58146 19.22 7.52146 18.98 7.28146C18.8 7.10146 18.68 6.92146 18.5 6.74146C18.14 6.26146 17.6 6.20146 17.18 6.62146C16.88 6.92146 16.58 7.34146 16.4 7.76146C15.98 9.02146 15.68 10.3415 15.26 11.6615L18.56 12.1415L18.32 13.0415L15.14 12.5615Z" fill="white"/>
</g>
<defs>
<clipPath id="clip0_2425_7418">
<rect width="24" height="24" fill="white" transform="translate(2 2)"/>
</clipPath>
</defs>
</svg>
