<svg width="24" height="24" viewBox="0 0 24 24" fill="none" xmlns="http://www.w3.org/2000/svg">
<path d="M12 24C18.6274 24 24 18.6274 24 12C24 5.37258 18.6274 0 12 0C5.37258 0 0 5.37258 0 12C0 18.6274 5.37258 24 12 24Z" fill="#00D4D5"/>
<path d="M12.6818 4.5V8.10945L15.8412 6.30704L12.6818 4.5Z" fill="white"/>
<path opacity="0.9" d="M15.8412 6.30713V9.91658L19 8.10954L15.8412 6.30713Z" fill="white"/>
<path opacity="0.8" d="M12.6818 8.1095V11.7189L15.8412 9.91654L12.6818 8.1095ZM15.8412 9.9172V13.526L19 11.7189L15.8412 9.9172Z" fill="white"/>
<path opacity="0.8" d="M12.6818 11.7189V15.3283L15.8412 13.5259L12.6818 11.7189Z" fill="white"/>
<path d="M15.8412 13.526V17.1355L19 15.3284L15.8412 13.526Z" fill="white"/>
<path opacity="0.4" d="M4.51575 7.98767V11.5971L7.6752 9.79008L4.51575 7.98767Z" fill="white"/>
<path opacity="0.2" d="M8.50134 9.32983V12.9393L11.6555 11.1369L8.50134 9.32983Z" fill="white"/>
<path opacity="0.3" d="M6.15942 11.6124V15.2219L9.31821 13.4148L6.15942 11.6124Z" fill="white"/>
<path opacity="0.9" d="M8.24133 14.3362V17.9456L11.3955 16.1386L8.24133 14.3362Z" fill="white"/>
<path opacity="0.7" d="M12.6558 15.8899V19.5L15.8099 17.6923L12.6558 15.8899Z" fill="white"/>
<path opacity="0.9" d="M9.02753 7.54724V11.1574L12.1816 9.35494L9.02753 7.54724Z" fill="white"/>
<path opacity="0.8" d="M12.6817 4.5V8.10945L9.52228 6.30704L12.6817 4.5Z" fill="white"/>
<path opacity="0.6" d="M9.02749 6.03442V9.64321L5.86737 7.83617L9.02749 6.03442Z" fill="white"/>
<path opacity="0.6" d="M12.187 7.82043V11.4305L9.02753 9.62284L12.187 7.82043Z" fill="white"/>
<path opacity="0.95" d="M8.48673 9.32983V12.9393L5.32727 11.1369L8.48673 9.32983Z" fill="white"/>
<path opacity="0.6" d="M12.6818 11.7189V15.3283L9.52765 13.5259L12.6818 11.7189Z" fill="white"/>
<path opacity="0.55" d="M6.15946 12.5597V16.1691L3 14.3614L6.15946 12.5597Z" fill="white"/>
<path d="M19 8.1095V11.7189L15.8412 9.91654L19 8.1095Z" fill="white"/>
<path opacity="0.95" d="M15.8412 9.91711V13.5259L12.6818 11.7189L15.8412 9.91711Z" fill="white"/>
<path opacity="0.9" d="M19 11.7189V15.3283L15.8412 13.5259L19 11.7189Z" fill="white"/>
<path opacity="0.7" d="M15.8412 13.526V17.1355L12.6818 15.3284L15.8412 13.526Z" fill="white"/>
<path opacity="0.4" d="M11.9823 15.03V18.6395L8.82349 16.8371L11.9823 15.03Z" fill="white"/>
<path d="M15.8412 6.30713V9.91658L12.6818 8.10954L15.8412 6.30713Z" fill="white"/>
</svg>
