<svg width="24" height="24" viewBox="0 0 24 24" fill="none" xmlns="http://www.w3.org/2000/svg">
<circle cx="12" cy="12" r="12" fill="#F2F5FA"/>
<g clip-path="url(#clip0_3962_13288)">
<path d="M16.1963 5.749L13.2906 10.066C13.0896 10.36 13.476 10.7159 13.7542 10.4683L16.6136 7.97715C16.6909 7.91526 16.7991 7.96168 16.7991 8.06999V15.853C16.7991 15.9613 16.66 16.0078 16.5982 15.9304L7.94276 5.56332C7.66455 5.22291 7.26269 5.03723 6.81447 5.03723H6.50535C5.70163 5.03723 5.03702 5.70258 5.03702 6.52266V17.4777C5.03702 18.2978 5.70163 18.9632 6.5208 18.9632C7.03085 18.9632 7.50999 18.7001 7.7882 18.2514L10.6939 13.9344C10.8949 13.6404 10.5085 13.2845 10.2303 13.532L7.37089 16.0078C7.29361 16.0697 7.18541 16.0232 7.18541 15.9149V8.14736C7.18541 8.03904 7.32452 7.99262 7.38634 8.06999L16.0417 18.4371C16.32 18.7775 16.7373 18.9632 17.17 18.9632H17.4792C18.2983 18.9632 18.9629 18.2978 18.9629 17.4777V6.52266C18.9629 5.70258 18.2983 5.03723 17.4792 5.03723C16.9537 5.03723 16.4745 5.30028 16.1963 5.749Z" fill="black"/>
</g>
<defs>
<clipPath id="clip0_3962_13288">
<rect width="13.9259" height="13.9259" fill="white" transform="translate(5.03693 5.03711)"/>
</clipPath>
</defs>
</svg>
