<svg width="28" height="28" viewBox="0 0 28 28" fill="none" xmlns="http://www.w3.org/2000/svg">
<g clip-path="url(#clip0_18729_291791)">
<circle cx="14" cy="14" r="12" fill="#7C35E4"/>
<circle cx="14" cy="14" r="13.5" stroke="black"/>
<path d="M10.8518 9.23526C10.1894 9.23526 9.65246 9.76266 9.65246 10.4133V12.1803H10.8518V10.4133H12.3509V12.1803H13.5503V10.4133C13.5503 9.76266 13.0133 9.23526 12.3509 9.23526H10.8518Z" fill="white"/>
<path d="M15.6491 9.23526C14.9867 9.23526 14.4497 9.76266 14.4497 10.4133V12.1803H15.6491V10.4133H17.1482V12.1803H18.3475V10.4133C18.3475 9.76266 17.8106 9.23526 17.1482 9.23526H15.6491Z" fill="white"/>
<path d="M9.65246 16.8922C9.65246 17.5428 10.1894 18.0702 10.8518 18.0702H12.3509C13.0133 18.0702 13.5503 17.5428 13.5503 16.8922V15.1252H12.3509V16.8922H10.8518V15.1252H9.65246V16.8922Z" fill="white"/>
<path d="M14.4497 16.8922C14.4497 17.5428 14.9867 18.0702 15.6491 18.0702H17.1482C17.8106 18.0702 18.3475 17.5428 18.3475 16.8922V15.1252H17.1482V16.8922H15.6491V15.1252H14.4497V16.8922Z" fill="white"/>
<path fill-rule="evenodd" clip-rule="evenodd" d="M14.8995 5.23673C14.3429 4.92109 13.6571 4.92109 13.1005 5.23673L6.89949 8.75323C6.34288 9.06888 6 9.65221 6 10.2835V17.3165C6 17.9478 6.34288 18.5311 6.89949 18.8468L13.1005 22.3633C13.6571 22.6789 14.3429 22.6789 14.8995 22.3633L21.1005 18.8468C21.6571 18.5311 22 17.9478 22 17.3165V10.2835C22 9.65221 21.6571 9.06888 21.1005 8.75323L14.8995 5.23673ZM13.7002 6.25691C13.8857 6.15169 14.1143 6.15169 14.2998 6.25691L20.5008 9.77341C20.6864 9.87862 20.8007 10.0731 20.8007 10.2835V11.916C20.7766 11.9476 20.744 11.9891 20.7036 12.0376C20.6025 12.1591 20.4564 12.3202 20.2769 12.4796C19.8996 12.8149 19.4639 13.0637 19.0395 13.0637H8.86828C8.1974 13.0637 7.62399 13.3689 7.19932 13.6934V10.2835C7.19932 10.0731 7.31362 9.87862 7.49915 9.77341L13.7002 6.25691ZM7.19932 15.3861V17.3165C7.19932 17.5269 7.31362 17.7214 7.49915 17.8266L13.7002 21.3431C13.8857 21.4483 14.1143 21.4483 14.2998 21.3431L20.5008 17.8266C20.6864 17.7214 20.8007 17.5269 20.8007 17.3165V13.5838C20.3559 13.9197 19.749 14.2417 19.0395 14.2417H8.86828C8.47873 14.2417 8.06893 14.4813 7.70535 14.8177C7.5337 14.9765 7.39378 15.1373 7.29674 15.2587C7.25556 15.3103 7.22281 15.3539 7.19932 15.3861Z" fill="white"/>
</g>
<defs>
<clipPath id="clip0_18729_291791">
<rect width="28" height="28" fill="white"/>
</clipPath>
</defs>
</svg>
