<svg width="24" height="24" viewBox="0 0 24 24" fill="none" xmlns="http://www.w3.org/2000/svg">
<path d="M12 24C18.6274 24 24 18.6274 24 12C24 5.37258 18.6274 0 12 0C5.37258 0 0 5.37258 0 12C0 18.6274 5.37258 24 12 24Z" fill="#7950DD"/>
<path d="M15.8101 9.46606C15.5393 9.31132 15.1912 9.31132 14.8817 9.46606L12.7156 10.7427L11.2457 11.5551L9.11826 12.8317C8.8475 12.9864 8.49937 12.9864 8.18992 12.8317L6.52664 11.8259C6.25587 11.6711 6.06247 11.3617 6.06247 11.0135V9.0792C6.06247 8.76972 6.21719 8.46023 6.52664 8.26681L8.18992 7.29967C8.46069 7.14492 8.80882 7.14492 9.11826 7.29967L10.7815 8.30549C11.0523 8.46023 11.2457 8.76972 11.2457 9.11789V10.3945L12.7156 9.54343V8.22812C12.7156 7.91864 12.5609 7.60915 12.2514 7.41572L9.15695 5.5975C8.88618 5.44276 8.53805 5.44276 8.2286 5.5975L5.05676 7.45441C4.74731 7.60915 4.59259 7.91864 4.59259 8.22812V11.8646C4.59259 12.174 4.74731 12.4835 5.05676 12.677L8.18992 14.4952C8.46069 14.6499 8.80882 14.6499 9.11826 14.4952L11.2457 13.2572L12.7156 12.4062L14.8431 11.1682C15.1138 11.0135 15.4619 11.0135 15.7714 11.1682L17.4347 12.1354C17.7054 12.2901 17.8988 12.5996 17.8988 12.9478V14.882C17.8988 15.1915 17.7441 15.501 17.4347 15.6944L15.8101 16.6616C15.5393 16.8163 15.1912 16.8163 14.8817 16.6616L13.2184 15.6944C12.9477 15.5397 12.7543 15.2302 12.7543 14.882V13.6441L11.2844 14.4952V15.7718C11.2844 16.0813 11.4391 16.3908 11.7486 16.5842L14.8817 18.4024C15.1525 18.5572 15.5006 18.5572 15.8101 18.4024L18.9432 16.5842C19.214 16.4295 19.4074 16.12 19.4074 15.7718V12.0967C19.4074 11.7872 19.2527 11.4777 18.9432 11.2843L15.8101 9.46606Z" fill="white"/>
</svg>
