<svg width="28" height="28" viewBox="0 0 28 28" fill="none" xmlns="http://www.w3.org/2000/svg">
<g clip-path="url(#clip0_23290_317026)">
<path d="M14 26C20.6274 26 26 20.6274 26 14C26 7.37258 20.6274 2 14 2C7.37258 2 2 7.37258 2 14C2 20.6274 7.37258 26 14 26Z" fill="#DBEF88"/>
<path d="M8.70117 7.80371H9.19721L21.0937 18.709V20.1962H8.70117V7.80371Z" fill="black"/>
<path d="M18.0817 14.9986C18.4224 14.3266 18.6145 13.566 18.6145 12.7603C18.6145 10.0222 16.395 7.80371 13.6578 7.80371C12.6987 7.80371 11.8036 8.07667 11.0449 8.54824L18.0817 14.9986Z" fill="black"/>
<circle cx="14" cy="14" r="13.5" stroke="#121429"/>
</g>
<defs>
<clipPath id="clip0_23290_317026">
<rect width="28" height="28" fill="white"/>
</clipPath>
</defs>
</svg>
