<svg width="28" height="28" viewBox="0 0 28 28" fill="none" xmlns="http://www.w3.org/2000/svg">
<path d="M14 26C20.6274 26 26 20.6274 26 14C26 7.37258 20.6274 2 14 2C7.37258 2 2 7.37258 2 14C2 20.6274 7.37258 26 14 26Z" fill="#F2F5FA"/>
<path fill-rule="evenodd" clip-rule="evenodd" d="M8.80011 8.07355C8.89436 7.97877 9.02221 7.92554 9.15548 7.92554H21.4517C21.6757 7.92554 21.7878 8.19807 21.6294 8.35738L19.1997 10.8001C19.1054 10.8948 18.9776 10.9481 18.8443 10.9481H6.54806C6.32406 10.9481 6.21194 10.6756 6.37039 10.5163L8.80011 8.07355ZM8.80006 17.1993C8.89432 17.1045 9.02216 17.0513 9.15543 17.0513H21.4517C21.6757 17.0513 21.7878 17.3238 21.6293 17.4831L19.1996 19.9258C19.1054 20.0206 18.9775 20.0738 18.8443 20.0738H6.54801C6.32401 20.0738 6.21189 19.8013 6.37034 19.642L8.80006 17.1993ZM18.8443 12.4593C18.9775 12.4593 19.1054 12.5125 19.1996 12.6073L21.6293 15.05C21.7878 15.2093 21.6757 15.4818 21.4517 15.4818H9.15543C9.02216 15.4818 8.89432 15.4286 8.80006 15.3338L6.37034 12.8911C6.21189 12.7318 6.32401 12.4593 6.54801 12.4593H18.8443Z" fill="url(#paint0_linear_4443_12550)"/>
<circle cx="14" cy="14" r="13.5" stroke="white"/>
<defs>
<linearGradient id="paint0_linear_4443_12550" x1="16.7125" y1="4.59306" x2="8.12009" y2="20.9503" gradientUnits="userSpaceOnUse">
<stop stop-color="#00FFA3"/>
<stop offset="1" stop-color="#DC1FFF"/>
</linearGradient>
</defs>
</svg>
