<svg width="28" height="28" viewBox="0 0 28 28" fill="none" xmlns="http://www.w3.org/2000/svg">
<g clip-path="url(#tenetPath)">
<circle cx="14" cy="14" r="12" fill="url(#tenet)"/>
<circle cx="14" cy="14" r="13.5" stroke="white"/>
<path d="M22.6029 8.4688C22.0734 7.55644 21.1253 7.01002 20.0664 7.01002H14.2269C14.1513 7.00501 14.0756 7 14 7C13.9244 7 13.8487 7.00501 13.7731 7.01002H7.93361C6.87463 7.01002 5.9266 7.55644 5.39711 8.4688C4.86763 9.38117 4.86763 10.469 5.39711 11.3814L11.4635 21.8234C11.993 22.7358 12.941 23.2822 14 23.2822C15.059 23.2822 16.007 22.7358 16.5365 21.8234L22.6029 11.3814C23.1324 10.474 23.1324 9.38117 22.6029 8.4688ZM15.1346 21.0213C14.8976 21.4273 14.474 21.673 14 21.673C13.526 21.673 13.1024 21.4273 12.8654 21.0213L9.45146 15.1461L12.8654 9.26587C13.0772 8.89992 13.4352 8.66932 13.8487 8.6242H14.1513C14.5648 8.66932 14.9228 8.90493 15.1346 9.26587L18.5486 15.1411L15.1346 21.0213Z" fill="white"/>
</g>
<defs>
<linearGradient id="tenet" x1="2" y1="14" x2="26" y2="14" gradientUnits="userSpaceOnUse">
<stop stop-color="#6ED396"/>
<stop offset="1" stop-color="#4977EA"/>
</linearGradient>
<clipPath id="tenetPath">
<rect width="28" height="28" fill="white"/>
</clipPath>
</defs>
</svg>
