<svg viewBox="0 0 24 24" fill="none" xmlns="http://www.w3.org/2000/svg">
<path fill-rule="evenodd" clip-rule="evenodd" d="M13.6415 2.31135L20.1592 5.65113C21.1082 6.13764 21.6978 7.10152 21.6978 8.16665V9.68944H19.2945V8.16665C19.2945 8.00586 19.2052 7.86001 19.0616 7.78636L12.5444 4.44679C12.4222 4.38435 12.2762 4.38414 12.1536 4.447L5.63598 7.78636C5.49263 7.86001 5.4035 8.00586 5.4035 8.16665V9.68944H3V8.16665C3 7.10152 3.5896 6.13764 4.53841 5.65113L11.0565 2.31135C11.8657 1.89622 12.8317 1.89622 13.6415 2.31135ZM14.4062 11.8472C14.4062 10.7143 13.4834 9.79291 12.3491 9.79291C11.2147 9.79291 10.2919 10.7143 10.2919 11.8472C10.2919 12.9798 11.2147 13.9016 12.3491 13.9016C13.4834 13.9016 14.4062 12.9798 14.4062 11.8472ZM19.062 16.1086C19.2052 16.0351 19.2945 15.8895 19.2945 15.7285V14.2055H21.6978V15.7285C21.6978 16.7936 21.1082 17.7575 20.1596 18.2438L13.6415 21.5836C13.2445 21.7869 12.7974 21.8948 12.3489 21.8948C11.9006 21.8948 11.4533 21.7869 11.0563 21.5836L4.53862 18.2438C3.5896 17.7575 3 16.7936 3 15.7285V14.2055H5.40329V15.7285C5.40329 15.8895 5.49263 16.0351 5.63618 16.1086L11.1473 18.9326V16.1347C9.26979 15.6094 7.88823 13.8862 7.88823 11.846C7.88823 9.3898 9.88931 7.39149 12.3489 7.39149C14.8085 7.39149 16.8096 9.3898 16.8096 11.846C16.8096 13.8862 15.428 15.6094 13.5506 16.1347V18.9328L19.062 16.1086Z" fill="#006DFF"/>
</svg>
