<svg xmlns="http://www.w3.org/2000/svg" fill="none" viewBox="0 0 28 28">
  <mask id="a" width="28" height="28" x="0" y="0" maskUnits="userSpaceOnUse" style="mask-type:alpha">
    <path fill="#C4C4C4" d="M0 0h28v28H0V0Z"/>
  </mask>
  <g mask="url(#a)">
    <mask id="b" width="27" height="24" x="1" y="2" maskUnits="userSpaceOnUse" style="mask-type:alpha">
      <path fill="currentColor" d="M1 2h26.553v24H1V2Z"/>
    </mask>
    <g mask="url(#b)">
      <path fill="currentColor" fill-rule="evenodd" d="m21.98 14.468-.004.096a.22.22 0 0 1-.206.166 17.688 17.688 0 0 1-.84-.2c-3.587-.947-5.662-.39-6.367-.121l-.017.006a.45.45 0 0 0-.26.322v2.215a.45.45 0 0 0 .528.35c.006 0 .01-.002.016-.003 1.06-.278 3.525-.73 6.1.163l.098.033.017.006.014.004a.224.224 0 0 1 .129.202c0 .014-.006.026-.008.04l-.054.113A8.995 8.995 0 0 1 13 23a9 9 0 1 1 0-18 8.997 8.997 0 0 1 8.036 4.952c.017.023.03.049.037.078.005.018.011.036.011.056 0 .124-.1.225-.225.225-.02 0-.039-.007-.058-.012-.01-.003-.022-.004-.032-.008-3.395-.865-5.41-.374-6.152-.103a.447.447 0 0 0-.33.345v2.231a.45.45 0 0 0 .44.36l.019-.002.181-.047c1.108-.278 3.503-.679 6.003.188l.115.039c.267.088.532.16.795.221.008.003.017.003.025.006.068.03.115.095.128.17 0 .022 0 .043.002.064.002.08.005.159.005.238 0 .158-.012.313-.02.468Zm5.123-3.934a.38.38 0 0 0-.089.01l-.088.026c-.46.135-1.176.277-2.158.288h-.036a.223.223 0 0 1-.184-.125.174.174 0 0 1-.013-.046c-1.51-5.266-6.528-9.051-12.364-8.66-5.92.399-10.718 5.175-11.14 11.094C.531 20.146 6.081 26 13 26c5.172 0 9.577-3.272 11.264-7.858.004-.014.008-.028.015-.04a.222.222 0 0 1 .18-.12h.03a11.31 11.31 0 0 0 2.685-.401l.116-.034a.45.45 0 0 0 .263-.384v-2.052a.454.454 0 0 0-.534-.369l-.081.024a7.514 7.514 0 0 1-1.718.278l-.045.002a.222.222 0 0 1-.206-.214l.001-.02c.018-.269.03-.539.03-.812v-.063a.22.22 0 0 1 .16-.194l.084-.008a11.148 11.148 0 0 0 2.058-.392.45.45 0 0 0 .251-.364v-2.004a.45.45 0 0 0-.45-.44Z" clip-rule="evenodd"/>
    </g>
  </g>
</svg>