<svg viewBox="0 0 24 24" fill="none" xmlns="http://www.w3.org/2000/svg">
  <g clip-path="url(#clip0_6504_5000)">
    <path d="M5.04834 2.26953L23.5623 14.9883L18.9495 21.7442L0.435547 9.02548L5.04834 2.26953Z"
      fill="url(#paint0_linear_6504_5000)" />
    <path
      d="M23.5658 14.9814C21.982 17.3011 16.5536 16.3343 11.4411 12.8221C6.32862 9.3099 3.46804 4.58227 5.05183 2.26263C6.63561 -0.0570014 12.064 0.90976 17.1765 4.42196C22.289 7.93415 25.1496 12.6618 23.5658 14.9814Z"
      fill="url(#paint1_linear_6504_5000)" />
    <path
      d="M18.9525 21.7393C17.3687 24.0589 11.9403 23.0921 6.82784 19.5799C1.71534 16.0677 -1.14524 11.3401 0.438549 9.02044C2.02233 6.70081 7.45075 7.66757 12.5632 11.1798C17.6757 14.692 20.5363 19.4196 18.9525 21.7393Z"
      fill="url(#paint2_linear_6504_5000)" />
    <path
      d="M23.5654 14.9805C23.5642 14.9822 23.563 14.984 23.5618 14.9857L18.9506 21.7394L18.949 21.7417C17.3606 24.0546 11.9365 23.0866 6.82797 19.5771C5.81619 18.882 4.89261 18.1393 4.07422 17.3771C4.74595 17.2429 5.71726 16.8312 6.62387 15.8292C8.19627 14.0915 9.04446 13.7761 9.747 13.8097C10.4495 13.8434 11.2502 14.5018 12.508 16.1865C13.7657 17.8712 15.6143 18.3514 16.6851 17.4613C16.7782 17.3839 16.8647 17.3134 16.9464 17.2468C17.8045 16.5476 18.1278 16.2841 19.8834 13.0935C20.3045 12.3422 21.6561 10.9972 23.6231 11.6359C24.1294 12.9555 24.1462 14.1299 23.5654 14.9805Z"
      fill="#0E0F23" />
    <path fill-rule="evenodd" clip-rule="evenodd"
      d="M22.8531 14.5781C21.4978 16.563 16.5558 15.5318 11.8147 12.2747C7.07354 9.01769 4.32877 4.76822 5.68403 2.78329C7.03929 0.798362 11.9814 1.82962 16.7225 5.08667C21.4636 8.34372 24.2084 12.5932 22.8531 14.5781ZM18.5277 11.5989C17.858 12.5797 15.4145 12.0692 13.0701 10.4586C10.7257 8.84801 9.368 6.74726 10.0377 5.76643C10.7074 4.78561 13.1508 5.29613 15.4952 6.90672C17.8397 8.5173 19.1973 10.618 18.5277 11.5989Z"
      fill="white" />
    <path
      d="M4.62027 4.64406C4.59406 4.54155 4.48997 4.47976 4.38777 4.50605C4.28557 4.53234 4.22397 4.63675 4.25018 4.73926C4.30755 4.96365 4.37491 5.18991 4.45198 5.41756C4.48591 5.51777 4.5944 5.57141 4.6943 5.53738C4.7942 5.50335 4.84768 5.39453 4.81376 5.29432C4.73967 5.0755 4.67511 4.85858 4.62027 4.64406Z"
      fill="white" />
    <path
      d="M5.14894 6.15702C5.1062 6.06026 4.99336 6.01657 4.8969 6.05944C4.80044 6.10231 4.75689 6.2155 4.79962 6.31225C5.91359 8.83441 8.15411 11.4641 11.1945 13.5527C11.2815 13.6125 11.4004 13.5902 11.46 13.5029C11.5196 13.4156 11.4974 13.2963 11.4104 13.2365C8.41633 11.1797 6.22875 8.60183 5.14894 6.15702Z"
      fill="white" />
    <path
      d="M17.2096 16.015C17.1081 15.9864 17.0026 16.0457 16.974 16.1476C16.9455 16.2495 17.0046 16.3553 17.1062 16.3839C17.4536 16.4819 17.7977 16.5668 18.1374 16.6385C18.2407 16.6603 18.342 16.594 18.3637 16.4905C18.3854 16.3869 18.3193 16.2853 18.2161 16.2635C17.8849 16.1936 17.5491 16.1108 17.2096 16.015Z"
      fill="white" />
    <path
      d="M18.9952 16.4046C18.8909 16.3886 18.7935 16.4606 18.7776 16.5652C18.7617 16.6698 18.8334 16.7675 18.9377 16.7834C19.7792 16.9118 20.5882 16.955 21.3464 16.9105C21.4517 16.9043 21.5321 16.8137 21.526 16.708C21.5198 16.6024 21.4294 16.5217 21.3241 16.5279C20.5958 16.5707 19.8137 16.5294 18.9952 16.4046Z"
      fill="white" />
  </g>
  <defs>
    <linearGradient id="paint0_linear_6504_5000" x1="6.5117" y1="1.11763" x2="10.2003" y2="13.7839"
      gradientUnits="userSpaceOnUse">
      <stop stop-color="#03B8FF" />
      <stop offset="1" stop-color="#FA52A0" />
    </linearGradient>
    <linearGradient id="paint1_linear_6504_5000" x1="6.51159" y1="1.116" x2="10.2002" y2="13.7823"
      gradientUnits="userSpaceOnUse">
      <stop stop-color="#03B8FF" />
      <stop offset="1" stop-color="#FA52A0" />
    </linearGradient>
    <linearGradient id="paint2_linear_6504_5000" x1="6.5111" y1="1.11786" x2="10.1997" y2="13.7842"
      gradientUnits="userSpaceOnUse">
      <stop stop-color="#03B8FF" />
      <stop offset="1" stop-color="#FA52A0" />
    </linearGradient>
    <clipPath id="clip0_6504_5000">
      <rect width="24" height="24" fill="white" />
    </clipPath>
  </defs>
</svg>