<svg viewBox="0 0 24 24" fill="none" xmlns="http://www.w3.org/2000/svg">
  <path fill-rule="evenodd" clip-rule="evenodd" d="M2.39482 0.509943C4.94002 3.6947 7.73459 7.69572 8.1866 8.34286C8.2107 8.37736 8.22814 8.40233 8.23853 8.41713C8.47948 8.76048 8.67839 9.01572 8.82945 9.20955C9.1648 9.63983 9.26431 9.76753 9.06422 9.88481C8.90281 9.97939 8.73631 10.0106 8.57017 10.0106C8.38225 10.0106 8.17054 9.91728 8.01638 9.76652C7.90742 9.65999 7.16183 8.5436 6.14656 6.91953C5.36975 5.67684 4.71965 4.64597 4.70191 4.62872C4.66091 4.58879 4.66161 4.59015 6.06736 7.18326C6.95005 8.81156 7.55385 10.0148 7.55385 10.0918C7.55385 10.2484 7.5124 10.3307 7.32503 10.5462C7.01268 10.9055 6.87305 11.3091 6.77226 12.1445C6.65926 13.0809 6.34152 13.7425 5.46097 14.8746C4.94552 15.5374 4.86118 15.6588 4.73112 15.926C4.5673 16.2624 4.52225 16.4507 4.50399 16.8755C4.4847 17.3247 4.52228 17.6148 4.65537 18.0441C4.77189 18.42 4.8935 18.6683 5.20442 19.1648C5.47274 19.5932 5.62723 19.9116 5.62723 20.0361C5.62723 20.1353 5.64559 20.1354 6.06137 20.0386C7.05638 19.8069 7.86432 19.3996 8.31873 18.9003C8.59996 18.5912 8.66599 18.4206 8.66812 17.9971C8.66953 17.7201 8.66007 17.6621 8.58745 17.5028C8.46922 17.2433 8.25399 17.0277 7.77963 16.6934C7.15806 16.2553 6.89259 15.9027 6.81925 15.4177C6.75911 15.0198 6.82889 14.739 7.17274 13.996C7.52864 13.227 7.61684 12.8993 7.6765 12.124C7.71503 11.6232 7.7684 11.4257 7.90797 11.2672C8.05354 11.1019 8.18458 11.0459 8.54482 10.9951C9.13213 10.9124 9.5061 10.7558 9.8135 10.4637C10.0802 10.2104 10.1918 9.96627 10.2089 9.59879L10.2219 9.32025L10.0729 9.14113C9.5332 8.49242 2.03342 0 2.00021 0C1.99311 0 2.1707 0.22949 2.39482 0.509943ZM5.93018 17.3837C6.0522 17.1609 5.98737 16.8745 5.78326 16.7346C5.59041 16.6024 5.29085 16.6647 5.29085 16.837C5.29085 16.8895 5.31904 16.9277 5.38259 16.9615C5.48959 17.0183 5.49736 17.0821 5.41317 17.2125C5.32791 17.3447 5.33479 17.4608 5.43259 17.5397C5.5902 17.667 5.81332 17.597 5.93018 17.3837ZM9.60277 5.23515C9.36201 5.19665 9.35186 5.19214 9.46515 5.17418C9.68228 5.13976 10.195 5.18667 10.5483 5.27329C11.3731 5.4754 12.1236 5.99319 12.9247 6.91279L13.1375 7.1571L13.442 7.10663C14.7247 6.89412 16.0296 7.06301 17.121 7.5828C17.4213 7.72581 17.8947 8.01047 17.9538 8.08362C17.9726 8.10693 18.0073 8.257 18.0307 8.41713C18.1117 8.97114 18.0712 9.39579 17.9068 9.71296C17.8174 9.88556 17.8124 9.94025 17.8725 10.088C17.9205 10.2058 18.0543 10.2931 18.1869 10.2929C18.4581 10.2925 18.75 9.84049 18.8853 9.21155L18.939 8.96172L19.0455 9.08603C19.6292 9.76797 20.0879 10.698 20.1666 11.3599L20.1871 11.5325L20.089 11.3756C19.92 11.1057 19.7504 10.9218 19.5331 10.7736C19.1414 10.5064 18.7271 10.4155 17.6303 10.3559C16.6396 10.302 16.079 10.2148 15.523 10.0279C14.577 9.70995 14.1002 9.28649 12.9765 7.76663C12.4775 7.09157 12.169 6.71806 11.8621 6.41728C11.1649 5.73383 10.4798 5.3754 9.60277 5.23515ZM18.1772 6.74242C18.2022 6.29006 18.2617 5.99169 18.3813 5.71921C18.4287 5.61135 18.473 5.52307 18.4798 5.52307C18.4867 5.52307 18.4661 5.60269 18.4341 5.69997C18.3472 5.96442 18.3328 6.32611 18.3928 6.74693C18.4688 7.28089 18.5121 7.35793 19.0595 7.93471C19.3162 8.20525 19.6149 8.54646 19.7232 8.69295L19.92 8.95931L19.7232 8.76896C19.4824 8.53617 18.9288 8.08218 18.8065 8.01727C18.7245 7.97376 18.7123 7.9745 18.6618 8.02641C18.6152 8.07423 18.6053 8.14609 18.5988 8.48583C18.5887 9.01533 18.5188 9.35518 18.3498 9.69501C18.2584 9.87881 18.244 9.83958 18.3267 9.63212C18.3885 9.47723 18.3947 9.40913 18.3943 8.89655C18.3933 7.86665 18.2747 7.61905 17.5791 7.1949C17.4031 7.08746 17.1127 6.9325 16.934 6.85052C16.7555 6.76856 16.6136 6.69717 16.6187 6.69184C16.6384 6.67162 17.3168 6.87573 17.5898 6.98399C17.9958 7.14504 18.0628 7.16591 18.1122 7.14648C18.1452 7.13346 18.1612 7.0342 18.1772 6.74242ZM9.34473 5.95175C9.27926 6.74688 9.58167 7.81054 10.0704 8.50429C10.4493 9.04206 11.0367 9.45996 11.4703 9.50032C11.7542 9.52675 11.8395 9.43511 11.7111 9.24174C11.5328 8.97324 11.3134 8.55983 11.2554 8.38283C11.2193 8.27287 11.141 7.94808 11.0813 7.66107C10.8774 6.6812 10.677 6.2996 10.2141 6.00977C10.0454 5.90413 9.68516 5.7659 9.47623 5.72662L9.36498 5.70568L9.34473 5.95175ZM17.5844 13.6674C15.3002 12.7193 14.4957 11.8963 14.4957 10.5077C14.4957 10.3033 14.5026 10.1361 14.5109 10.1361C14.5192 10.1361 14.6076 10.2035 14.7072 10.286C15.1704 10.669 15.6891 10.8326 17.1251 11.0485C17.9699 11.1757 18.4454 11.2783 18.8841 11.4283C20.2783 11.905 21.1409 12.8723 21.3466 14.1899C21.4063 14.5728 21.3713 15.2907 21.2744 15.6691C21.1979 15.968 20.9644 16.5066 20.9025 16.5273C20.8853 16.5331 20.8684 16.4653 20.864 16.373C20.8406 15.8782 20.5981 15.3966 20.1908 15.0357C19.7277 14.6254 19.1055 14.2989 17.5844 13.6674ZM15.8705 13.5631C15.9026 13.6616 15.9522 13.8857 15.9808 14.0613C16.1638 15.1839 15.5922 16.0909 14.4804 16.4423C14.3627 16.4795 13.8991 16.573 13.4501 16.6501C12.5413 16.8061 12.1356 16.9166 11.7282 17.1189C11.4392 17.2625 11.0893 17.4774 11.1101 17.4988C11.1168 17.5057 11.1827 17.4894 11.2566 17.4627C11.7705 17.2767 12.3424 17.1804 13.2113 17.1338C13.5561 17.1154 13.9483 17.0859 14.0829 17.0685C14.857 16.9679 15.3935 16.7255 15.8108 16.2877C16.0429 16.0441 16.1813 15.8171 16.2928 15.4971C16.3635 15.2941 16.3731 15.2187 16.3736 14.859C16.3742 14.4925 16.3656 14.4255 16.289 14.2C16.1887 13.9045 16.0704 13.6827 15.9205 13.5093L15.8122 13.384L15.8705 13.5631ZM17.028 15.9785C16.7244 15.3059 16.6548 14.6565 16.821 14.0509C16.8388 13.9862 16.8674 13.9332 16.8847 13.9332C16.9019 13.9332 16.9734 13.9732 17.0438 14.0219C17.1836 14.119 17.4641 14.2824 18.2113 14.7025C19.1438 15.2266 19.6755 15.6324 20.037 16.0962C20.3536 16.5022 20.5496 16.9647 20.6438 17.5287C20.6973 17.8481 20.666 18.6169 20.5865 18.9385C20.3358 19.9528 19.7531 20.7495 18.922 21.2145C18.8003 21.2825 18.691 21.3384 18.6791 21.3387C18.6673 21.339 18.7116 21.2227 18.7777 21.0803C19.0572 20.4777 19.0891 19.8916 18.8778 19.2393C18.7483 18.8399 18.4844 18.3525 17.9516 17.5288C17.3322 16.5711 17.1803 16.3162 17.028 15.9785ZM11.3113 18.1846C10.3506 18.3455 9.29595 18.8696 8.4483 19.6075L8.19595 19.8272L8.41773 19.8629C9.57507 20.0491 9.88672 20.2144 10.6895 21.0669C11.1515 21.5575 11.3075 21.6667 11.6907 21.7675C12.2535 21.9156 12.8083 21.6435 12.9986 21.1259C13.0836 20.8946 13.0722 20.5116 12.9747 20.3193C12.7427 19.8614 12.0667 19.7134 11.7398 20.0488C11.4676 20.3282 11.5469 20.7491 11.8855 20.8214C11.963 20.8381 11.9608 20.8346 11.8658 20.7903C11.7176 20.7211 11.6532 20.6254 11.6524 20.4729C11.6505 20.1156 12.0472 19.9149 12.4162 20.0865C12.6864 20.2123 12.7937 20.3765 12.7937 20.6645C12.7937 21.1079 12.4277 21.442 12.0017 21.3874C11.774 21.3581 11.4955 21.208 11.3462 21.034C10.9705 20.596 11.1168 19.9048 11.6414 19.6396C12.0408 19.4378 12.5716 19.4875 12.9833 19.7654C13.4563 20.0848 13.6574 20.3766 14.0648 21.3345C14.1974 21.6464 14.3681 21.9975 14.444 22.1147C14.8299 22.7102 15.2923 23.0023 15.8492 23.0023C16.1563 23.0023 16.3874 22.9445 16.6781 22.7949C16.8941 22.6836 17.2003 22.4722 17.1783 22.4496C17.172 22.4432 17.0824 22.4719 16.9791 22.5134C16.3711 22.7579 15.7529 22.7411 15.3939 22.4702C15.1679 22.2997 14.9855 21.9599 14.8918 21.535C14.8756 21.4615 14.8221 21.1367 14.7728 20.8132C14.648 19.9934 14.5282 19.6248 14.2487 19.2019C13.9628 18.7692 13.4131 18.406 12.7985 18.2439C12.4151 18.1427 11.7254 18.1152 11.3113 18.1846ZM9.96582 11.8457C10.0488 11.5298 10.3168 11.2285 10.5925 11.1412C10.7678 11.0858 11.1302 11.1212 11.3006 11.2104C11.6308 11.3836 11.8706 11.7778 11.8185 12.0624C11.7551 12.4094 11.2093 12.687 10.5814 12.6916C10.2607 12.6939 10.1422 12.6494 10.0197 12.4809C9.94394 12.3764 9.91521 12.0384 9.96582 11.8457ZM11.2163 11.3342C11.381 11.4378 11.4234 11.5911 11.3265 11.7329C11.2598 11.8307 11.0533 11.9235 10.9025 11.9235C10.6758 11.9235 10.4285 11.7575 10.4285 11.6055C10.4285 11.3001 10.9027 11.1367 11.2163 11.3342Z" fill="#FF007A"/>
</svg>
