<svg width="32" height="32" viewBox="0 0 32 32" fill="none" xmlns="http://www.w3.org/2000/svg">
<path fill-rule="evenodd" clip-rule="evenodd" d="M18.0578 0.504439L28.3561 5.96216C29.9369 6.91035 31.4161 8.01658 31.4839 11.2732V13.8862H27.4358V10.3137L16.0423 4.1956L4.56421 10.3137V13.8862H0.516113V11.2732C0.57822 8.0335 2.04615 6.92164 3.61572 5.9791L14.0211 0.49878C15.2859 -0.1672 16.7932 -0.1672 18.0578 0.504439ZM18.0635 27.268L27.4301 22.0248V18.1191H31.4782V20.7267C31.4161 23.9833 29.9312 25.0952 28.3504 26.0376L18.0578 31.4955C16.7989 32.1671 15.2859 32.1671 14.0211 31.501L3.61572 26.0208C2.04615 25.0782 0.583864 23.9606 0.516113 20.7267V18.1191H4.56986V22.0248L14.0211 27.2737V23.035C10.7239 22.2619 8.56151 19.5865 8.56151 15.997C8.56151 11.6511 11.5651 8.7332 16.0423 8.7332C20.5195 8.7332 23.5232 11.6511 23.5232 15.997C23.5232 19.5809 21.3552 22.2619 18.0635 23.035V27.268ZM16.0423 12.3059C13.6428 12.3059 12.3217 13.6152 12.3217 15.997C12.3217 18.311 13.7106 19.6882 16.0423 19.6882C18.374 19.6882 19.763 18.3054 19.763 15.997C19.763 13.6152 18.4418 12.3059 16.0423 12.3059Z" fill="#356DF3"/>
</svg>
