<svg width="25" height="24" viewBox="0 0 25 24" fill="none" xmlns="http://www.w3.org/2000/svg">
<path d="M21.5 12.2072C21.5 11.6019 21.4464 11.0272 21.3544 10.4678H12.6954V13.9237H17.6533C17.4311 15.0578 16.7797 16.0157 15.8142 16.667V18.9658H18.772C20.5038 17.3643 21.5 15.0042 21.5 12.2072Z" fill="#4285F4"/>
<path d="M12.6954 21.1955C15.1782 21.1955 17.2548 20.3679 18.772 18.9656L15.8142 16.6668C14.9866 17.2185 13.9368 17.5556 12.6954 17.5556C10.2969 17.5556 8.26629 15.9388 7.53833 13.7549H4.48853V16.1227C5.9981 19.1265 9.10154 21.1955 12.6954 21.1955Z" fill="#34A853"/>
<path d="M7.53836 13.7548C7.34679 13.2031 7.24718 12.6131 7.24718 12C7.24718 11.387 7.35446 10.797 7.53836 10.2453V7.87744H4.48856C3.86021 9.11882 3.50006 10.5134 3.50006 12C3.50006 13.4866 3.86021 14.8813 4.48856 16.1226L7.53836 13.7548Z" fill="#FBBC05"/>
<path d="M12.6954 6.44452C14.0517 6.44452 15.2624 6.91196 16.2203 7.82383L18.841 5.20315C17.2548 3.71656 15.1782 2.80469 12.6954 2.80469C9.10154 2.80469 5.9981 4.87365 4.48853 7.87747L7.53833 10.2453C8.26629 8.06138 10.2969 6.44452 12.6954 6.44452Z" fill="#EA4335"/>
</svg>
