<svg width="1em" height="1em" viewBox="0 0 32 32" fill="none" xmlns="http://www.w3.org/2000/svg">
<path fill-rule="evenodd" clip-rule="evenodd" d="M10.314 9.06571C10.1302 9.14183 9.96546 9.30657 9.63599 9.63604C9.30652 9.96551 9.14179 10.1302 9.06567 10.314C8.96417 10.559 8.96417 10.8344 9.06567 11.0794C9.14179 11.2632 9.30652 11.4279 9.63599 11.7574L9.63599 11.7574L13.8786 16L9.63595 20.2426L9.63594 20.2426C9.30648 20.5721 9.14174 20.7368 9.06562 20.9206C8.96413 21.1656 8.96413 21.441 9.06562 21.686C9.14174 21.8698 9.30648 22.0345 9.63595 22.364C9.96542 22.6934 10.1302 22.8582 10.3139 22.9343C10.559 23.0358 10.8343 23.0358 11.0793 22.9343C11.2631 22.8582 11.4278 22.6934 11.7573 22.364L15.9999 18.1213L20.2426 22.364C20.5721 22.6934 20.7368 22.8582 20.9206 22.9343C21.1656 23.0358 21.4409 23.0358 21.6859 22.9343C21.8697 22.8582 22.0344 22.6934 22.3639 22.364C22.6934 22.0345 22.8581 21.8698 22.9342 21.686C23.0357 21.441 23.0357 21.1656 22.9342 20.9206C22.8581 20.7368 22.6934 20.5721 22.3639 20.2426L18.1213 16L22.3639 11.7574C22.6933 11.4279 22.8581 11.2632 22.9342 11.0794C23.0357 10.8344 23.0357 10.559 22.9342 10.314C22.8581 10.1302 22.6933 9.96551 22.3639 9.63604L22.3639 9.63604C22.0344 9.30657 21.8697 9.14183 21.6859 9.06571C21.4409 8.96422 21.1656 8.96422 20.9205 9.06571C20.7368 9.14183 20.572 9.30657 20.2426 9.63604L20.2425 9.63604L15.9999 13.8787L11.7573 9.63604L11.7573 9.63604C11.4278 9.30657 11.2631 9.14183 11.0793 9.06571C10.8343 8.96422 10.559 8.96422 10.314 9.06571Z" fill="currentColor"/>
</svg>
