<svg width="24" height="24" viewBox="0 0 24 24" fill="none" xmlns="http://www.w3.org/2000/svg">
<path d="M3 5.66667C3 5.04669 3 4.73669 3.06815 4.48236C3.25308 3.79218 3.79218 3.25308 4.48236 3.06815C4.73669 3 5.04669 3 5.66667 3C5.97666 3 6.13165 3 6.25882 3.03407C6.60391 3.12654 6.87346 3.39609 6.96593 3.74118C7 3.86835 7 4.02334 7 4.33333V5C7 5.94281 7 6.41421 6.70711 6.70711C6.41421 7 5.94281 7 5 7H4.33333C4.02334 7 3.86835 7 3.74118 6.96593C3.39609 6.87346 3.12654 6.60391 3.03407 6.25882C3 6.13165 3 5.97666 3 5.66667Z" fill="currentColor"/>
<rect x="3" y="10" width="4" height="4" rx="1" fill="currentColor"/>
<path d="M3 18.3333C3 18.0233 3 17.8683 3.03407 17.7412C3.12654 17.3961 3.39609 17.1265 3.74118 17.0341C3.86835 17 4.02334 17 4.33333 17H5C5.94281 17 6.41421 17 6.70711 17.2929C7 17.5858 7 18.0572 7 19V19.6667C7 19.9767 7 20.1317 6.96593 20.2588C6.87346 20.6039 6.60391 20.8735 6.25882 20.9659C6.13165 21 5.97666 21 5.66667 21C5.04669 21 4.73669 21 4.48236 20.9319C3.79218 20.7469 3.25308 20.2078 3.06815 19.5176C3 19.2633 3 18.9533 3 18.3333Z" fill="currentColor"/>
<rect x="10" y="3" width="4" height="4" rx="1" fill="currentColor"/>
<rect x="10" y="10" width="4" height="4" rx="1" fill="currentColor"/>
<rect x="10" y="17" width="4" height="4" rx="1" fill="currentColor"/>
<path d="M17 4.33333C17 4.02334 17 3.86835 17.0341 3.74118C17.1265 3.39609 17.3961 3.12654 17.7412 3.03407C17.8683 3 18.0233 3 18.3333 3C18.9533 3 19.2633 3 19.5176 3.06815C20.2078 3.25308 20.7469 3.79218 20.9319 4.48236C21 4.73669 21 5.04669 21 5.66667C21 5.97666 21 6.13165 20.9659 6.25882C20.8735 6.60391 20.6039 6.87346 20.2588 6.96593C20.1317 7 19.9767 7 19.6667 7H19C18.0572 7 17.5858 7 17.2929 6.70711C17 6.41421 17 5.94281 17 5V4.33333Z" fill="currentColor"/>
<rect x="17" y="10" width="4" height="4" rx="1" fill="currentColor"/>
<path d="M17 19C17 18.0572 17 17.5858 17.2929 17.2929C17.5858 17 18.0572 17 19 17H19.6667C19.9767 17 20.1317 17 20.2588 17.0341C20.6039 17.1265 20.8735 17.3961 20.9659 17.7412C21 17.8683 21 18.0233 21 18.3333C21 18.9533 21 19.2633 20.9319 19.5176C20.7469 20.2078 20.2078 20.7469 19.5176 20.9319C19.2633 21 18.9533 21 18.3333 21C18.0233 21 17.8683 21 17.7412 20.9659C17.3961 20.8735 17.1265 20.6039 17.0341 20.2588C17 20.1317 17 19.9767 17 19.6667V19Z" fill="currentColor"/>
</svg>
