<svg width="64" height="64" viewBox="0 0 64 64" fill="none" xmlns="http://www.w3.org/2000/svg">
<path d="M58 32C58 17.6406 46.3594 6 32 6C17.6406 6 6 17.6406 6 32C6 46.3594 17.6406 58 32 58C46.3594 58 58 46.3594 58 32Z" fill="#0052FF"/>
<path d="M32.0079 41.1406C26.9577 41.1406 22.8672 37.0502 22.8672 32C22.8672 26.9498 26.9577 22.8594 32.0079 22.8594C36.5325 22.8594 40.2877 26.1576 41.0114 30.4766H50.2206C49.4436 21.0922 41.5902 13.7188 32.0079 13.7188C21.915 13.7188 13.7266 21.9072 13.7266 32C13.7266 42.0928 21.915 50.2812 32.0079 50.2812C41.5902 50.2812 49.4436 42.9078 50.2206 33.5234H41.0038C40.2801 37.8424 36.5325 41.1406 32.0079 41.1406Z" fill="white"/>
</svg>
