<svg width="64" height="64" fill="none" xmlns="http://www.w3.org/2000/svg">
	<path fill-rule="evenodd" clip-rule="evenodd"
	      d="M21.271 7h12.682c6.21.879 11.195 2.879 14.953 6 3.758 3.121 6.456 7.501 8.094 13.14v16.588c0 4.963-.517 6.762-1.487 8.577a10.114 10.114 0 01-4.208 4.208C49.49 56.483 47.69 57 42.728 57H21.271c-4.962 0-6.761-.517-8.576-1.487a10.114 10.114 0 01-4.208-4.208C7.517 49.49 7 47.69 7 42.728V21.271c0-4.962.517-6.761 1.487-8.576a10.114 10.114 0 014.208-4.208C14.51 7.517 16.31 7 21.271 7z"
	      fill="#2D65F8"/>
	<path fill-rule="evenodd" clip-rule="evenodd"
	      d="M55.513 12.695a10.114 10.114 0 00-4.208-4.208C49.49 7.517 47.69 7 42.728 7h-8.775c6.21.879 11.195 2.879 14.953 6 3.758 3.121 6.456 7.501 8.094 13.14v-4.869c0-4.962-.517-6.761-1.487-8.576z"
	      fill="#173FFF"/>
	<path d="M35.897 25.687c0-4.757-2.344-8.844-4.125-10.176 0 0-.136-.075-.127.112-.146 9.18-4.892 11.67-7.502 15.021-6.02 7.737-.42 16.222 5.28 17.782 3.19.88-.735-1.56-1.24-6.682-.616-6.193 7.714-10.925 7.714-16.057z"
	      fill="#FCFCFF"/>
	<path d="M38.428 28.762c-.038-.025-.089-.044-.124.016-.1 1.159-1.297 3.634-2.816 5.908-5.145 7.714-2.215 11.43-.563 13.436.95 1.16 0 0 2.393-1.184a10.64 10.64 0 005.157-8.233 11.84 11.84 0 00-4.047-9.943z"
	      fill="#fff"/>
</svg>
