<svg width="64" height="64" fill="none" xmlns="http://www.w3.org/2000/svg">
	<path d="M51.263 12L34.557 24.213l3.103-7.205L51.263 12z" fill="#E2761B" stroke="#E2761B" stroke-linecap="round"
	      stroke-linejoin="round"/>
	<path d="M12.736 12l16.555 12.329-2.952-7.321L12.736 12zM45.261 40.31l-4.445 6.71 9.51 2.578 2.718-9.14-7.783-.148zM10.975 40.459l2.7 9.139 9.51-2.578-4.428-6.71-7.782.149z"
	      fill="#E4761B" stroke="#E4761B" stroke-linecap="round" stroke-linejoin="round"/>
	<path d="M22.666 28.973l-2.65 3.95 9.426.413-.319-9.999-6.457 5.636zM41.333 28.973l-6.558-5.751-.218 10.114 9.426-.413-2.65-3.95zM23.188 47.02l5.686-2.727-4.898-3.768-.788 6.495zM35.129 44.294l5.686 2.726-.788-6.495-4.898 3.769z"
	      fill="#E4761B" stroke="#E4761B" stroke-linecap="round" stroke-linejoin="round"/>
	<path d="M40.813 47.02l-5.686-2.727.453 3.652-.05 1.537 5.283-2.462zM23.186 47.02l5.283 2.462-.034-1.537.437-3.652-5.686 2.727z"
	      fill="#D7C1B3" stroke="#D7C1B3" stroke-linecap="round" stroke-linejoin="round"/>
	<path d="M28.57 38.112l-4.73-1.372 3.338-1.503 1.392 2.875zM35.432 38.112l1.392-2.875 3.354 1.503-4.746 1.372z"
	      fill="#233447" stroke="#233447" stroke-linecap="round" stroke-linejoin="round"/>
	<path d="M23.188 47.02l.822-6.71-5.25.149 4.428 6.561zM39.994 40.31l.822 6.71 4.445-6.561-5.267-.149zM43.987 32.923l-9.427.413.873 4.776 1.392-2.875 3.354 1.503 3.808-3.817zM23.842 36.74l3.338-1.503 1.392 2.875.872-4.776-9.426-.413 3.824 3.817z"
	      fill="#CD6116" stroke="#CD6116" stroke-linecap="round" stroke-linejoin="round"/>
	<path d="M20.016 32.923l3.958 7.602-.134-3.785-3.824-3.817zM40.176 36.74l-.15 3.785 3.958-7.602-3.808 3.817zM29.442 33.336l-.872 4.776 1.107 5.636.235-7.42-.47-2.992zM34.558 33.336l-.453 2.975.219 7.437 1.107-5.636-.873-4.776z"
	      fill="#E4751F" stroke="#E4751F" stroke-linecap="round" stroke-linejoin="round"/>
	<path d="M35.43 38.112l-1.108 5.636.805.545 4.898-3.768.151-3.785-4.747 1.372zM23.84 36.74l.134 3.785 4.898 3.768.805-.545-1.107-5.636-4.73-1.372z"
	      fill="#F6851B" stroke="#F6851B" stroke-linecap="round" stroke-linejoin="round"/>
	<path d="M35.53 49.482l.05-1.537-.418-.363h-6.324l-.402.363.033 1.537-5.284-2.462 1.846 1.487 3.757 2.562h6.424l3.757-2.562 1.845-1.487-5.283 2.462z"
	      fill="#C0AD9E" stroke="#C0AD9E" stroke-linecap="round" stroke-linejoin="round"/>
	<path d="M35.13 44.293l-.805-.546h-4.646l-.805.546-.436 3.652.402-.364h6.323l.42.364-.453-3.652z" fill="#161616"
	      stroke="#161616" stroke-linecap="round" stroke-linejoin="round"/>
	<path d="M51.967 25.006l1.41-6.742L51.262 12 35.127 23.8l6.206 5.173 8.772 2.528 1.93-2.23-.84-.596 1.343-1.206-1.024-.793 1.342-1.008-.889-.662zM10.623 18.264l1.426 6.742-.906.662 1.342 1.008-1.023.793 1.342 1.206-.84.595 1.93 2.231 8.772-2.528 6.206-5.173L12.736 12l-2.113 6.264z"
	      fill="#763D16" stroke="#763D16" stroke-linecap="round" stroke-linejoin="round"/>
	<path d="M50.106 31.502l-8.772-2.53 2.65 3.95-3.959 7.603 5.234-.066h7.782L50.106 31.5zM22.666 28.973l-8.773 2.529-2.918 8.957h7.782l5.217.066-3.959-7.602 2.65-3.95zM34.559 33.336l.57-9.536 2.533-6.793H26.34l2.533 6.793.57 9.536.218 3.008.017 7.403h4.646l.017-7.404.218-3.007z"
	      fill="#F6851B" stroke="#F6851B" stroke-linecap="round" stroke-linejoin="round"/>
</svg>
