<svg width="64" height="64" xmlns="http://www.w3.org/2000/svg">
 <g>
  <title>Layer 1</title>
  <g stroke="null" stroke-width="99">
   <rect stroke="null" x="-2.49997" y="0" fill="white" height="64.00001" width="68.99994"/>
   <path stroke="null" fill="black" d="m23.91935,12.16l-12.35865,0c-0.52502,0 -0.95068,0.39482 -0.95068,0.88179l0,11.46311c0,0.48698 0.42566,0.88173 0.95068,0.88173l12.35865,0c0.52502,0 0.95061,-0.39475 0.95061,-0.88173l0,-11.46311c0,-0.48698 -0.42559,-0.88179 -0.95061,-0.88179zm14.26608,13.22669l-12.35865,0c-0.52502,0 -0.95068,0.39475 -0.95068,0.88173l0,11.46311c0,0.48704 0.42566,0.88179 0.95068,0.88179l12.35865,0c0.52502,0 0.95068,-0.39475 0.95068,-0.88179l0,-11.46311c0,-0.48698 -0.42566,-0.88173 -0.95068,-0.88173zm1.89529,-13.22669l12.35858,0c0.52509,0 0.95068,0.39482 0.95068,0.88179l0,11.46311c0,0.48698 -0.42559,0.88173 -0.95068,0.88173l-12.35858,0c-0.52509,0 -0.95068,-0.39475 -0.95068,-0.88173l0,-11.46311c0,-0.48698 0.42559,-0.88179 0.95068,-0.88179zm-16.16137,26.45338l-12.35865,0c-0.52502,0 -0.95068,0.39475 -0.95068,0.88179l0,11.46304c0,0.48704 0.42566,0.88179 0.95068,0.88179l12.35865,0c0.52502,0 0.95061,-0.39475 0.95061,-0.88179l0,-11.46304c0,-0.48704 -0.42559,-0.88179 -0.95061,-0.88179zm16.16137,0l12.35858,0c0.52509,0 0.95068,0.39475 0.95068,0.88179l0,11.46304c0,0.48704 -0.42559,0.88179 -0.95068,0.88179l-12.35858,0c-0.52509,0 -0.95068,-0.39475 -0.95068,-0.88179l0,-11.46304c0,-0.48704 0.42559,-0.88179 0.95068,-0.88179z" clip-rule="evenodd" fill-rule="evenodd"/>
  </g>
 </g>
</svg>