<svg width="25" height="24" viewBox="0 0 25 24" fill="none" xmlns="http://www.w3.org/2000/svg">
  <path fill-rule="evenodd" clip-rule="evenodd" d="M6.5 3C4.84315 3 3.5 4.34315 3.5 6V18C3.5 19.6569 4.84315 21 6.5 21H11.5H12.5V19H11.5H6.5C5.94772 19 5.5 18.5523 5.5 18V6C5.5 5.44772 5.94772 5 6.5 5H11.5H12.5V3H11.5H6.5ZM10.5 11H9.5V13H10.5H18.0858L15.7929 15.2929L15.0858 16L16.5 17.4142L17.2071 16.7071L21.2071 12.7071C21.5976 12.3166 21.5976 11.6834 21.2071 11.2929L17.2071 7.29289L16.5 6.58579L15.0858 8L15.7929 8.70711L18.0858 11L10.5 11Z" fill="currentColor" />
</svg>
