<svg width="25" height="24" viewBox="0 0 25 24" fill="none" xmlns="http://www.w3.org/2000/svg">
  <path fill-rule="evenodd" clip-rule="evenodd" d="M5.5 6C5.5 5.44772 5.94772 5 6.5 5H18.5H19.5V3H18.5H6.5C4.84315 3 3.5 4.34315 3.5 6V17C3.5 18.6569 4.84315 20 6.5 20H18.5C20.1569 20 21.5 18.6569 21.5 17V10C21.5 8.34315 20.1569 7 18.5 7H6.5C5.94772 7 5.5 6.55228 5.5 6ZM5.5 17V8.82929C5.81278 8.93985 6.14936 9 6.5 9H18.5C19.0523 9 19.5 9.44772 19.5 10V17C19.5 17.5523 19.0523 18 18.5 18H6.5C5.94772 18 5.5 17.5523 5.5 17ZM17 15C17.8284 15 18.5 14.3284 18.5 13.5C18.5 12.6716 17.8284 12 17 12C16.1716 12 15.5 12.6716 15.5 13.5C15.5 14.3284 16.1716 15 17 15Z" fill="currentColor" />
</svg>
