<svg width="32" height="32" viewBox="0 0 32 32" fill="none" xmlns="http://www.w3.org/2000/svg">
  <style>
    .spinner {
    animation-name: spin;
    animation-duration: 1s;
    animation-iteration-count: infinite;
    animation-timing-function: linear;
    will-change: transform;
    transform-origin: center;
    }
    @keyframes spin {
    100% {
    transform: rotate(360deg)
    }
    }
  </style>
  <circle opacity="0.1" cx="16" cy="16" r="16" fill="#356DF3" />
  <path
    d="M16 0C18.3978 2.85939e-08 20.765 0.538941 22.9265 1.57698C25.088 2.61502 26.9886 4.1256 28.4876 5.99706C29.9867 7.86851 31.046 10.053 31.5872 12.3889C32.1284 14.7249 32.1376 17.1526 31.6141 19.4926L16 16L16 0Z"
    fill="#356DF3" class="spinner" />
  <path
    d="M17.3179 6.08806L23.9141 9.5872C24.9266 10.1951 25.8741 10.9044 25.9175 12.9923V14.6676H23.3246V12.3771L16.0269 8.4546L8.67492 12.3771V14.6676H6.08203V12.9923C6.12181 10.9152 7.06205 10.2024 8.06739 9.59806L14.7322 6.08443C15.5423 5.65745 16.5079 5.65745 17.3179 6.08806Z"
    fill="white" />
  <path fill-rule="evenodd" clip-rule="evenodd"
    d="M17.3215 23.2472L23.321 19.8856V17.3815H25.9139V19.0533C25.8741 21.1412 24.923 21.8541 23.9104 22.4583L17.3179 25.9576C16.5115 26.3882 15.5423 26.3882 14.7322 25.9611L8.06739 22.4476C7.06205 21.8432 6.12543 21.1267 6.08203 19.0533V17.3815H8.67854V19.8856L14.7322 23.2508V20.5333C12.6203 20.0376 11.2353 18.3223 11.2353 16.021C11.2353 13.2347 13.1591 11.3639 16.0269 11.3639C18.8946 11.3639 20.8185 13.2347 20.8185 16.021C20.8185 18.3187 19.4299 20.0376 17.3215 20.5333V23.2472ZM16.0269 13.6544C14.4899 13.6544 13.6438 14.4939 13.6438 16.021C13.6438 17.5046 14.5333 18.3875 16.0269 18.3875C17.5204 18.3875 18.4101 17.5009 18.4101 16.021C18.4101 14.4939 17.5638 13.6544 16.0269 13.6544Z"
    fill="white" />
</svg>