<svg width="64" height="64" fill="none" xmlns="http://www.w3.org/2000/svg">
	<path d="M45.373 30.094a2.894 2.894 0 010-4.121 2.894 2.894 0 014.12 0 2.894 2.894 0 010 4.12 2.894 2.894 0 01-4.12 0zm-9.747 9.786c-.832-.832-.832-2.219 0-3.09.832-.832 2.219-.832 3.09 0 .833.832.833 2.218 0 3.09-.871.832-2.258.832-3.09 0zm15.413-5.15c-.832-.833-.832-2.22 0-3.091.832-.832 2.219-.832 3.09 0 .832.832.832 2.219 0 3.09-.871.872-2.258.872-3.09 0zm-5.151 5.15c-.832-.832-.832-2.219 0-3.09.832-.832 2.219-.832 3.09 0 .833.832.833 2.218 0 3.09a2.225 2.225 0 01-3.09 0zm10.817-.515a1.483 1.483 0 010-2.06 1.483 1.483 0 012.06 0 1.483 1.483 0 010 2.06c-.594.555-1.506.555-2.06 0zm-5.151 5.15a1.483 1.483 0 010-2.06 1.483 1.483 0 012.06 0 1.483 1.483 0 010 2.06c-.594.556-1.505.556-2.06 0zm-11.332-9.27a2.894 2.894 0 010-4.121 2.894 2.894 0 014.12 0 2.894 2.894 0 010 4.12c-1.109 1.15-2.97 1.15-4.12 0zm0-10.263a2.894 2.894 0 010-4.12 2.894 2.894 0 014.12 0 2.894 2.894 0 010 4.12c-1.109 1.11-2.97 1.11-4.12 0zm-5.111 5.112a2.894 2.894 0 010-4.121 2.894 2.894 0 014.12 0 2.894 2.894 0 010 4.12c-1.148 1.15-3.01 1.15-4.12 0zm-10.341 0a2.894 2.894 0 010-4.121 2.894 2.894 0 014.12 0 2.894 2.894 0 010 4.12 2.894 2.894 0 01-4.12 0zm-9.787 9.786c-.832-.832-.832-2.219 0-3.09.832-.832 2.219-.832 3.09 0 .833.832.833 2.218 0 3.09-.831.832-2.218.832-3.09 0zm15.453-5.15c-.832-.833-.832-2.22 0-3.091.832-.832 2.218-.832 3.09 0 .832.832.832 2.219 0 3.09-.872.872-2.258.872-3.09 0zm-5.151 5.15c-.832-.832-.832-2.219 0-3.09.832-.832 2.219-.832 3.09 0 .832.832.832 2.218 0 3.09-.871.832-2.258.832-3.09 0zm-20.049-.515a1.483 1.483 0 010-2.06 1.483 1.483 0 012.06 0 1.483 1.483 0 010 2.06c-.594.555-1.505.555-2.06 0zm5.151 5.15a1.484 1.484 0 010-2.06 1.484 1.484 0 012.06 0 1.483 1.483 0 010 2.06c-.594.556-1.505.556-2.06 0zm20.564 0a1.483 1.483 0 010-2.06 1.483 1.483 0 012.06 0 1.483 1.483 0 010 2.06c-.594.556-1.506.556-2.06 0zM9.872 34.73c-.832-.832-.832-2.218 0-3.09.832-.832 2.219-.832 3.09 0 .833.832.833 2.219 0 3.09-.871.872-2.258.872-3.09 0zm9.747.515a2.894 2.894 0 010-4.12 2.894 2.894 0 014.12 0 2.894 2.894 0 010 4.12 2.894 2.894 0 01-4.12 0zm0-10.262a2.894 2.894 0 010-4.12 2.894 2.894 0 014.12 0 2.894 2.894 0 010 4.12 2.967 2.967 0 01-4.12 0zm-5.15 5.112a2.894 2.894 0 010-4.121 2.894 2.894 0 014.12 0 2.894 2.894 0 010 4.12c-1.11 1.15-2.972 1.15-4.12 0z"
	      fill="#000"/>
</svg>
