<svg width="19" height="17" viewBox="0 0 19 17" fill="none" xmlns="http://www.w3.org/2000/svg">
<path fill-rule="evenodd" clip-rule="evenodd" d="M1.25526 7.46778C6.17556 5.33097 9.45108 3.91111 11.0959 3.22226C15.7772 1.2682 16.7612 0.930806 17.3939 0.916748C17.5344 0.916748 17.8437 0.944864 18.0546 1.11356C18.2233 1.25414 18.2655 1.4369 18.2936 1.57748C18.3217 1.71806 18.3498 2.01327 18.3217 2.2382C18.0686 4.90922 16.9721 11.39 16.4098 14.3703C16.1708 15.6355 15.7069 16.0572 15.257 16.0994C14.273 16.1838 13.5279 15.4527 12.586 14.8342C11.0959 13.8642 10.2664 13.2597 8.81847 12.3037C7.14557 11.2072 8.22803 10.6027 9.18398 9.61866C9.43702 9.36562 13.7528 5.42937 13.8372 5.07792C13.8512 5.03575 13.8512 4.86705 13.7528 4.7827C13.6544 4.69835 13.5138 4.72647 13.4014 4.75459C13.2467 4.7827 10.885 6.3572 6.28803 9.46402C5.61324 9.92794 5.00875 10.1529 4.46049 10.1388C3.85599 10.1247 2.70323 9.80141 1.83164 9.52025C0.777287 9.18286 -0.066194 9.00011 0.0040961 8.40967C0.0462702 8.10039 0.46801 7.79112 1.25526 7.46778Z" fill="#509FDA"/>
</svg>
