<svg width="40" height="40" viewBox="0 0 40 40" fill="none" xmlns="http://www.w3.org/2000/svg">
  <path d="M34.4135 4.45996L21.9214 13.7381L24.2315 8.26411L34.4135 4.45996Z" fill="#E2761B" stroke="#E2761B" stroke-width="0.094162" stroke-linecap="round" stroke-linejoin="round"/>
  <path d="M5.57471 4.45312L17.9664 13.8191L15.7693 8.25727L5.57471 4.45312Z" fill="#E4761B" stroke="#E4761B" stroke-width="0.094162" stroke-linecap="round" stroke-linejoin="round"/>
  <path d="M29.9184 25.959L26.5913 31.0563L33.71 33.0149L35.7564 26.072L29.9184 25.959Z" fill="#E4761B" stroke="#E4761B" stroke-width="0.094162" stroke-linecap="round" stroke-linejoin="round"/>
  <path d="M4.25635 26.072L6.29025 33.0149L13.4089 31.0563L10.0818 25.959L4.25635 26.072Z" fill="#E4761B" stroke="#E4761B" stroke-width="0.094162" stroke-linecap="round" stroke-linejoin="round"/>
  <path d="M13.0076 17.3428L11.0239 20.3434L18.0924 20.6573L17.8413 13.0615L13.0076 17.3428Z" fill="#E4761B" stroke="#E4761B" stroke-width="0.094162" stroke-linecap="round" stroke-linejoin="round"/>
  <path d="M26.981 17.3525L22.0846 12.9834L21.9214 20.667L28.9773 20.3531L26.981 17.3525Z" fill="#E4761B" stroke="#E4761B" stroke-width="0.094162" stroke-linecap="round" stroke-linejoin="round"/>
  <path d="M13.4087 31.0493L17.6523 28.9778L13.9862 26.1152L13.4087 31.0493Z" fill="#E4761B" stroke="#E4761B" stroke-width="0.094162" stroke-linecap="round" stroke-linejoin="round"/>
  <path d="M22.3354 28.9778L26.5916 31.0493L26.0015 26.1152L22.3354 28.9778Z" fill="#E4761B" stroke="#E4761B" stroke-width="0.094162" stroke-linecap="round" stroke-linejoin="round"/>
  <path d="M26.5911 31.0559L22.335 28.9844L22.6739 31.759L22.6363 32.9266L26.5911 31.0559Z" fill="#D7C1B3" stroke="#D7C1B3" stroke-width="0.094162" stroke-linecap="round" stroke-linejoin="round"/>
  <path d="M13.4082 31.0559L17.363 32.9266L17.3379 31.759L17.6518 28.9844L13.4082 31.0559Z" fill="#D7C1B3" stroke="#D7C1B3" stroke-width="0.094162" stroke-linecap="round" stroke-linejoin="round"/>
  <path d="M17.4262 24.2939L13.8857 23.2519L16.3842 22.1094L17.4262 24.2939Z" fill="#233447" stroke="#233447" stroke-width="0.094162" stroke-linecap="round" stroke-linejoin="round"/>
  <path d="M22.5605 24.2939L23.6026 22.1094L26.1136 23.2519L22.5605 24.2939Z" fill="#233447" stroke="#233447" stroke-width="0.094162" stroke-linecap="round" stroke-linejoin="round"/>
  <path d="M13.4091 31.0621L14.0117 25.9648L10.082 26.0778L13.4091 31.0621Z" fill="#CD6116" stroke="#CD6116" stroke-width="0.094162" stroke-linecap="round" stroke-linejoin="round"/>
  <path d="M25.9893 25.9648L26.5919 31.0621L29.9189 26.0778L25.9893 25.9648Z" fill="#CD6116" stroke="#CD6116" stroke-width="0.094162" stroke-linecap="round" stroke-linejoin="round"/>
  <path d="M28.9773 20.3545L21.9214 20.6684L22.5742 24.2967L23.6163 22.1122L26.1273 23.2547L28.9773 20.3545Z" fill="#CD6116" stroke="#CD6116" stroke-width="0.094162" stroke-linecap="round" stroke-linejoin="round"/>
  <path d="M13.8864 23.2547L16.3974 22.1122L17.4269 24.2967L18.0924 20.6684L11.0239 20.3545L13.8864 23.2547Z" fill="#CD6116" stroke="#CD6116" stroke-width="0.094162" stroke-linecap="round" stroke-linejoin="round"/>
  <path d="M11.0234 20.3545L13.9864 26.1298L13.886 23.2547L11.0234 20.3545Z" fill="#E4751F" stroke="#E4751F" stroke-width="0.094162" stroke-linecap="round" stroke-linejoin="round"/>
  <path d="M26.127 23.2547L26.0015 26.1298L28.977 20.3545L26.127 23.2547Z" fill="#E4751F" stroke="#E4751F" stroke-width="0.094162" stroke-linecap="round" stroke-linejoin="round"/>
  <path d="M18.0936 20.667L17.4282 24.2954L18.2568 28.5766L18.4452 22.9394L18.0936 20.667Z" fill="#E4751F" stroke="#E4751F" stroke-width="0.094162" stroke-linecap="round" stroke-linejoin="round"/>
  <path d="M21.922 20.667L21.583 22.9269L21.7337 28.5766L22.5749 24.2954L21.922 20.667Z" fill="#E4751F" stroke="#E4751F" stroke-width="0.094162" stroke-linecap="round" stroke-linejoin="round"/>
  <path d="M22.5731 24.295L21.7319 28.5762L22.3346 28.9905L26.0006 26.128L26.1262 23.2529L22.5731 24.295Z" fill="#F6851B" stroke="#F6851B" stroke-width="0.094162" stroke-linecap="round" stroke-linejoin="round"/>
  <path d="M13.8857 23.2529L13.9862 26.128L17.6522 28.9905L18.2549 28.5762L17.4262 24.295L13.8857 23.2529Z" fill="#F6851B" stroke="#F6851B" stroke-width="0.094162" stroke-linecap="round" stroke-linejoin="round"/>
  <path d="M22.6361 32.9361L22.6737 31.7685L22.3599 31.4923H17.6267L17.3379 31.7685L17.363 32.9361L13.4082 31.0654L14.7892 32.1954L17.589 34.1414H22.3975L25.2098 32.1954L26.5909 31.0654L22.6361 32.9361Z" fill="#C0AD9E" stroke="#C0AD9E" stroke-width="0.094162" stroke-linecap="round" stroke-linejoin="round"/>
  <path d="M22.3352 28.9866L21.7326 28.5723H18.2549L17.6523 28.9866L17.3384 31.7612L17.6271 31.485H22.3604L22.6742 31.7612L22.3352 28.9866Z" fill="#161616" stroke="#161616" stroke-width="0.094162" stroke-linecap="round" stroke-linejoin="round"/>
  <path d="M34.9421 14.3339L36.0092 9.21144L34.4148 4.45312L22.3369 13.4173L26.9822 17.347L33.5485 19.2679L35.0048 17.573L34.3771 17.121L35.3815 16.2045L34.6031 15.6019L35.6075 14.836L34.9421 14.3339Z" fill="#763D16" stroke="#763D16" stroke-width="0.094162" stroke-linecap="round" stroke-linejoin="round"/>
  <path d="M3.99414 9.21144L5.06131 14.3339L4.38334 14.836L5.38774 15.6019L4.62189 16.2045L5.62628 17.121L4.99853 17.573L6.44235 19.2679L13.0086 17.347L17.6539 13.4173L5.57606 4.45312L3.99414 9.21144Z" fill="#763D16" stroke="#763D16" stroke-width="0.094162" stroke-linecap="round" stroke-linejoin="round"/>
  <path d="M33.547 19.2715L26.9807 17.3506L28.977 20.3512L26.0015 26.1265L29.9186 26.0763H35.7566L33.547 19.2715Z" fill="#F6851B" stroke="#F6851B" stroke-width="0.094162" stroke-linecap="round" stroke-linejoin="round"/>
  <path d="M13.0066 17.3506L6.44042 19.2715L4.25586 26.0763H10.0813L13.9859 26.1265L11.023 20.3512L13.0066 17.3506Z" fill="#F6851B" stroke="#F6851B" stroke-width="0.094162" stroke-linecap="round" stroke-linejoin="round"/>
  <path d="M21.9214 20.664L22.3358 13.4198L24.2441 8.25977H15.7695L17.6528 13.4198L18.0922 20.664L18.2429 22.949L18.2554 28.5736H21.7331L21.7582 22.949L21.9214 20.664Z" fill="#F6851B" stroke="#F6851B" stroke-width="0.094162" stroke-linecap="round" stroke-linejoin="round"/>
</svg>
