<svg width="19" height="17" viewBox="0 0 19 17" fill="none" xmlns="http://www.w3.org/2000/svg">
<path d="M3.26667 8.36669C3.26667 6.66237 3.85762 5.01078 4.93883 3.69332C6.02004 2.37586 7.52461 1.47406 9.19619 1.14156C10.8678 0.809064 12.6029 1.06645 14.106 1.86986C15.6091 2.67327 16.7871 3.973 17.4393 5.54759C18.0915 7.12217 18.1776 8.8742 17.6828 10.5051C17.1881 12.1361 16.1432 13.545 14.7261 14.4919C13.309 15.4387 11.6074 15.865 9.91129 15.6979C8.21518 15.5309 6.62946 14.7809 5.42432 13.5757M3.26667 8.36669L1 6.10002M3.26667 8.36669L6.10001 6.66668" stroke="currentColor" stroke-width="1.5"/>
<path d="M9.5 4.96631V9.49965H14.0333" stroke="currentColor" stroke-width="1.5" stroke-linecap="round"/>
</svg>
