<svg width="24" height="24" viewBox="0 0 24 24" fill="none" xmlns="http://www.w3.org/2000/svg">
<path d="M11.0154 3.54839C11.453 2.8172 12.547 2.8172 12.9846 3.54839L21.846 18.3548C22.2836 19.086 21.7366 20 20.8614 20H3.13861C2.26341 20 1.71641 19.086 2.15401 18.3548L11.0154 3.54839Z" stroke="#EEA941" stroke-width="2" stroke-linecap="square" stroke-linejoin="round"/>
<circle cx="12" cy="16.4753" r="1.19995" fill="#EEA941"/>
<path d="M10.8471 8.32882C10.8326 8.15391 10.9706 8.00391 11.1461 8.00391H12.874C13.0495 8.00391 13.1875 8.15391 13.173 8.32882L12.723 13.7288C12.71 13.8843 12.58 14.0039 12.424 14.0039H11.5961C11.4401 14.0039 11.3101 13.8843 11.2971 13.7288L10.8471 8.32882Z" fill="#EEA941"/>
</svg>
