<svg width="48" height="48" viewBox="0 0 48 48" fill="none" xmlns="http://www.w3.org/2000/svg">
<path d="M24 48C37.2548 48 48 37.2548 48 24C48 10.7452 37.2548 0 24 0C10.7452 0 0 10.7452 0 24C0 37.2548 10.7452 48 24 48Z" fill="#1F2226"/>
<path d="M36.3418 27.7329C36.685 26.6031 36.872 25.4057 36.872 24.1654C36.872 24.0277 36.8669 23.8925 36.8617 23.7546C31.9361 20.9037 28.2221 14.7958 26.6673 11.8971C25.8272 11.7269 24.9564 11.6392 24.065 11.6392C23.1736 11.6392 22.3616 11.7244 21.5471 11.8821C20.8529 13.1649 19.7337 15.0814 18.2634 17.0681C16.5676 19.3604 14.1369 22.1011 11.2682 23.7646C11.2631 23.8975 11.2579 24.0302 11.2579 24.1654C11.2579 25.4082 11.4449 26.6081 11.7907 27.7404C13.9192 26.761 15.8506 25.3104 17.5487 23.6745C16.3372 26.4779 14.9873 29.1985 13.5811 31.3556C14.3393 32.4128 15.2614 33.3497 16.3091 34.1315C17.8458 31.9318 19.3981 29.0383 20.9554 25.4633C20.4047 29.1409 19.6055 32.3603 18.4529 35.4292C19.5954 35.9753 20.835 36.3586 22.1387 36.5515C22.9635 34.4922 23.6141 32.4454 24.1264 29.7822C24.6412 32.4354 25.2945 34.4772 26.1193 36.529C27.4179 36.3235 28.6498 35.9278 29.7845 35.3715C28.6704 32.4128 27.8866 29.3112 27.3333 25.7413C28.8446 29.1785 30.3533 31.9719 31.844 34.1113C32.8916 33.3272 33.8111 32.3853 34.5668 31.3256C33.1708 29.176 31.8312 26.4754 30.6273 23.692C32.3127 25.3179 34.2261 26.7585 36.3393 27.7329H36.3418Z" fill="#F2F2F2"/>
<path fill-rule="evenodd" clip-rule="evenodd" d="M24.0006 7.93979C15.1304 7.93979 7.93967 15.1305 7.93967 24.0007C7.93967 32.8709 15.1304 40.0617 24.0006 40.0617C32.8708 40.0617 40.0616 32.8709 40.0616 24.0007C40.0616 15.1305 32.8708 7.93979 24.0006 7.93979ZM4.00061 24.0007C4.00061 12.955 12.9549 4.00073 24.0006 4.00073C35.0463 4.00073 44.0006 12.955 44.0006 24.0007C44.0006 35.0464 35.0463 44.0007 24.0006 44.0007C12.9549 44.0007 4.00061 35.0464 4.00061 24.0007Z" fill="#F2F2F2"/>
</svg>
