<svg width="48" height="48" viewBox="0 0 48 48" fill="none" xmlns="http://www.w3.org/2000/svg">
<path d="M24 48C37.2548 48 48 37.2548 48 24C48 10.7452 37.2548 0 24 0C10.7452 0 0 10.7452 0 24C0 37.2548 10.7452 48 24 48Z" fill="#1F2226"/>
<g clip-path="url(#clip0_11351_10936)">
<path d="M15.6472 16.0422H11.4122C10.6343 16.0422 10.0037 16.6735 10.0037 17.4522V21.6916C10.0037 22.4703 10.6343 23.1016 11.4122 23.1016H15.6472C16.4252 23.1016 17.0558 22.4703 17.0558 21.6916V17.4522C17.0558 16.6735 16.4252 16.0422 15.6472 16.0422Z" fill="white"/>
<path d="M17.065 10.4298V14.6413C17.065 15.4205 17.6952 16.0513 18.4736 16.0513H27.5644C28.8062 16.0513 29.4456 14.5485 28.5745 13.658L24.46 9.44649C24.1913 9.17747 23.8299 9.01978 23.4499 9.01978H18.4643C17.6859 9.01978 17.0558 9.65057 17.0558 10.4298H17.065Z" fill="white"/>
<path d="M30.8913 19.3647V21.7023C30.8913 22.4815 30.2611 23.1123 29.4827 23.1123H18.4551C17.6767 23.1123 17.0465 23.7431 17.0465 24.5223V28.5205C17.0465 29.2997 16.4164 29.9305 15.6379 29.9305H11.4122C10.6338 29.9305 10.0037 30.5613 10.0037 31.3405V35.5798C10.0037 36.3591 10.6338 36.9899 11.4122 36.9899H15.6472C16.4256 36.9899 17.0558 36.3591 17.0558 35.5798V31.5817C17.0558 30.8025 17.6859 30.1717 18.4644 30.1717H29.492C30.2704 30.1717 30.9006 30.8025 30.9006 31.5817V35.5798C30.9006 36.3591 31.5307 36.9899 32.3092 36.9899H36.5163C37.2947 36.9899 37.9249 36.3591 37.9249 35.5798V23.4834C37.9249 23.103 37.7766 22.7413 37.4986 22.4723L33.2914 18.3628C32.4018 17.4908 30.9006 18.1216 30.9006 19.374L30.8913 19.3647Z" fill="white"/>
</g>
<defs>
<clipPath id="clip0_11351_10936">
<rect width="27.9606" height="28" fill="white" transform="translate(10 9)"/>
</clipPath>
</defs>
</svg>
