<svg width="346" height="172" viewBox="0 0 346 172" fill="none" xmlns="http://www.w3.org/2000/svg">
<path d="M137.495 73.5129C137.258 72.7684 137.092 72.0047 136.964 71.2335C136.906 70.8762 136.837 70.5211 136.759 70.1681C136.59 69.4011 136.402 68.6385 136.199 67.8801V67.878C139.562 62.7821 155.635 36.2045 137.345 19.1457C117.045 0.212865 93.3263 25.0288 93.3263 25.0288L93.4 25.139C82.7395 21.8958 71.1804 21.515 59.9344 25.0277C59.9333 25.0277 59.9322 25.0277 59.9322 25.0277C59.7933 24.8822 36.1549 0.268487 15.915 19.1457C-4.33132 38.0293 17.5315 68.5797 17.6458 68.739C17.6458 68.739 17.6458 68.7401 17.6458 68.7412C17.4129 69.4589 17.2248 70.1916 17.1009 70.9361C14.9107 84.0094 0 88.0441 0 110.816C0 133.588 15.5987 152.318 47.4372 152.318H60.5017C60.5017 152.318 60.5027 152.318 60.5038 152.318C60.5626 152.402 65.9409 160.035 76.9861 160.026C87.2396 160.019 94.0112 152.384 94.0699 152.318C94.0699 152.318 94.0699 152.318 94.0721 152.318H106.536C138.375 152.318 153.973 134.027 153.973 110.816C153.973 89.6101 141.042 84.6522 137.496 73.5129H137.495Z" fill="#F9F6F4"/>
<path d="M344.38 40.3259C344.38 40.3259 347.073 15.3709 326.607 10.0087V0H310.759V9.75843C289.17 14.5398 291.953 40.3259 291.953 40.3259V44.6045C291.953 44.6045 289.169 70.397 310.766 75.173H310.764V96.596C288.009 100.746 290.884 127.379 290.884 127.379V131.658C290.884 131.658 288.101 157.444 309.69 162.224V171.984H325.539V161.975C346.005 156.613 343.312 131.658 343.312 131.658C344.206 131.658 344.932 130.932 344.932 130.036V129.001C344.932 128.106 344.206 127.379 343.312 127.379C343.312 127.379 345.982 102.641 325.804 97.134V75.173H325.566C347.162 70.397 344.379 44.6045 344.379 44.6045C345.274 44.6045 345.999 43.8782 345.999 42.9829V41.9475C345.999 41.0522 345.274 40.3259 344.379 40.3259H344.38ZM331.464 127.379H330.015C329.12 127.379 328.395 128.106 328.395 129.001V130.036C328.395 130.932 329.12 131.658 330.015 131.658H331.464C331.464 147.138 326.33 149.743 324.602 150.181C324.318 150.253 324.042 150.042 324.042 149.749V144.815C324.042 142.087 322.306 140.593 320.57 139.78C318.375 138.753 315.82 138.753 313.625 139.78C311.889 140.593 310.153 142.087 310.153 144.815V149.749C310.153 150.038 309.883 150.254 309.603 150.183C307.885 149.752 302.731 147.168 302.731 131.658V127.379C302.731 111.899 307.865 109.295 309.593 108.856C309.877 108.785 310.153 108.995 310.153 109.288V114.223C310.153 116.95 311.889 118.445 313.625 119.258C315.82 120.284 318.375 120.284 320.57 119.258C322.306 118.445 324.042 116.95 324.042 114.223V109.288C324.042 109 324.312 108.784 324.592 108.854C326.31 109.285 331.464 111.87 331.464 127.379ZM331.083 44.6045H332.533C332.533 60.1144 327.379 62.6998 325.661 63.1298C325.381 63.2004 325.111 62.9843 325.111 62.6955V57.7612C325.111 55.0336 323.374 53.5393 321.638 52.7263C319.444 51.6995 316.888 51.6995 314.694 52.7263C312.957 53.5393 311.221 55.0336 311.221 57.7612V62.6955C311.221 62.9886 310.946 63.1993 310.661 63.1276C308.934 62.6891 303.799 60.0845 303.799 44.6045V40.3259C303.799 24.8159 308.953 22.2306 310.671 21.8006C310.951 21.73 311.221 21.9471 311.221 22.2348V27.1692C311.221 29.8968 312.957 31.3911 314.694 32.204C316.888 33.2309 319.444 33.2309 321.638 32.204C323.374 31.3911 325.111 29.8968 325.111 27.1692V22.2348C325.111 21.9418 325.386 21.731 325.67 21.8027C327.398 22.2413 332.533 24.8459 332.533 40.3259H331.083C330.189 40.3259 329.463 41.0522 329.463 41.9475V42.9829C329.463 43.8782 330.189 44.6045 331.083 44.6045Z" fill="#F9F6F4"/>
<path d="M266.066 84.3955C266.066 84.3955 268.864 58.4597 247.071 53.7885V30.4872C268.284 25.5101 265.532 0 265.532 0C265.532 0 253.635 0 253.684 0C253.684 15.5099 248.53 18.0953 246.812 18.5253C246.532 18.5959 246.262 18.3788 246.262 18.091V13.1567C246.262 10.4291 244.526 8.9348 242.79 8.12187C240.595 7.095 238.04 7.095 235.845 8.12187C234.109 8.9348 232.373 10.4291 232.373 13.1567V18.091C232.373 18.3841 232.097 18.5948 231.813 18.5232C230.085 18.0846 224.951 15.48 224.951 0C225.001 0 213.103 0 213.103 0C213.103 0 210.247 26.4717 232.778 30.7439V53.7564C210.826 58.3431 213.637 84.3944 213.637 84.3944V88.6731C213.637 88.6731 210.826 114.724 232.778 119.311V141.254C210.247 145.527 213.103 171.998 213.103 171.998C213.103 171.998 225 171.998 224.951 171.998C224.951 156.488 230.105 153.903 231.823 153.473C232.103 153.402 232.373 153.618 232.373 153.907V158.841C232.373 161.569 234.109 163.063 235.845 163.876C238.04 164.903 240.595 164.903 242.79 163.876C244.526 163.063 246.262 161.569 246.262 158.841V153.907C246.262 153.614 246.538 153.403 246.822 153.475C248.55 153.913 253.684 156.518 253.684 171.998C253.634 171.998 265.532 171.998 265.532 171.998C265.532 171.998 268.284 146.488 247.071 141.511V119.279C268.864 114.608 266.066 88.672 266.066 88.672C266.96 88.672 267.686 87.9457 267.686 87.0504V86.015C267.686 85.1197 266.96 84.3934 266.066 84.3934V84.3955ZM252.769 88.6741H254.219C254.219 104.184 249.065 106.769 247.347 107.199C247.067 107.27 246.796 107.054 246.796 106.765V101.831C246.796 99.1032 245.06 97.6089 243.324 96.796C241.13 95.7691 238.574 95.7691 236.379 96.796C234.643 97.6089 232.907 99.1032 232.907 101.831V106.765C232.907 107.058 232.631 107.269 232.347 107.197C230.62 106.759 225.485 104.154 225.485 88.6741V84.3955C225.485 68.8856 230.639 66.3002 232.357 65.8702C232.637 65.7996 232.907 66.0168 232.907 66.3045V71.2388C232.907 73.9664 234.643 75.4607 236.379 76.2737C238.574 77.3005 241.13 77.3005 243.324 76.2737C245.06 75.4607 246.796 73.9664 246.796 71.2388V66.3045C246.796 66.0114 247.072 65.8007 247.356 65.8724C249.084 66.3109 254.219 68.9155 254.219 84.3955H252.769C251.875 84.3955 251.149 85.1218 251.149 86.0171V87.0525C251.149 87.9478 251.875 88.6741 252.769 88.6741Z" fill="#F9F6F4"/>
</svg>
