<svg width="48" height="48" viewBox="0 0 48 48" fill="none" xmlns="http://www.w3.org/2000/svg">
<path d="M24 48C37.2548 48 48 37.2548 48 24C48 10.7452 37.2548 0 24 0C10.7452 0 0 10.7452 0 24C0 37.2548 10.7452 48 24 48Z" fill="#1F2226"/>
<path fill-rule="evenodd" clip-rule="evenodd" d="M13.0597 11.5C13.0609 11.5148 13.0623 11.5296 13.0637 11.5444C13.0668 11.5757 13.0699 11.6069 13.0699 11.6382C13.0705 13.2526 13.0705 14.8671 13.0699 16.4815C13.0699 16.516 13.0661 16.5504 13.0624 16.5848C13.0607 16.6007 13.059 16.6165 13.0576 16.6324C13.0254 16.6394 12.9932 16.6474 12.9611 16.6553L12.961 16.6553L12.961 16.6553L12.961 16.6553L12.961 16.6553L12.961 16.6553C12.8887 16.6733 12.8164 16.6912 12.7432 16.6979C12.5117 16.7191 12.28 16.7381 12.0483 16.7572H12.0483C11.7308 16.7832 11.4133 16.8093 11.0963 16.841C10.5334 16.8968 9.99976 17.0598 9.50035 17.3282C9.5 15.5832 9.5 13.8383 9.5 12.0933L9.64617 12.0343C9.72333 12.0031 9.80051 11.9719 9.87796 11.9411C10.295 11.774 10.7218 11.6476 11.1717 11.6019C11.3185 11.5871 11.4642 11.5607 11.6099 11.5342C11.6743 11.5224 11.7388 11.5107 11.8034 11.5H13.0597ZM13.0593 16.6363L13.0573 16.6364L13.0573 16.6365L13.0573 16.6364L13.0566 16.6365L13.0574 16.6349L13.0576 16.6324L13.0589 16.6321L13.059 16.6319L13.059 16.6321L13.0597 16.6319L13.0591 16.6331L13.0593 16.6363ZM16.5519 16.8365C16.5521 16.8324 16.5525 16.8283 16.5531 16.8242L16.3804 16.7939L16.2331 16.768C15.473 16.6333 14.7059 16.588 13.9357 16.5956C13.7334 16.5976 13.5311 16.6095 13.3289 16.6214L13.3289 16.6214C13.239 16.6266 13.1491 16.6319 13.0593 16.6363C13.0604 16.6521 13.0617 16.6678 13.0629 16.6835L13.0629 16.6836C13.0662 16.7242 13.0695 16.7647 13.0695 16.8054C13.0702 18.4177 13.0702 20.0301 13.0695 21.6424C13.0692 21.6769 13.0656 21.7113 13.062 21.7457C13.0603 21.7616 13.0586 21.7775 13.0572 21.7934C12.9927 21.8009 12.9283 21.8094 12.8639 21.8179C12.7195 21.837 12.5752 21.8562 12.4301 21.8629C11.8058 21.8915 11.1821 21.9372 10.5815 22.1145C10.3265 22.1898 10.0793 22.2918 9.83198 22.3938C9.72158 22.4393 9.61115 22.4849 9.5 22.5281V27.7281C9.53083 27.7145 9.56148 27.7005 9.59213 27.6865L9.59214 27.6865L9.59215 27.6865L9.59216 27.6865L9.59217 27.6865H9.59218H9.59218H9.59219H9.59219C9.65552 27.6575 9.71883 27.6285 9.78373 27.6038C9.8598 27.5753 9.93547 27.5446 10.0112 27.5139C10.2005 27.4372 10.3901 27.3603 10.5868 27.3169C11.0645 27.2119 11.55 27.14 12.0347 27.0699C12.2697 27.0358 12.5063 27.0145 12.743 26.9932C12.8478 26.9837 12.9526 26.9743 13.0573 26.9637C13.0586 26.9852 13.0603 27.0066 13.0621 27.028L13.0621 27.028C13.0658 27.0741 13.0695 27.1201 13.0695 27.166C13.0702 28.7358 13.0702 30.3052 13.0702 31.875V32.0875C13.0944 32.0875 13.1164 32.088 13.1369 32.0885H13.137C13.1771 32.0895 13.2114 32.0903 13.2454 32.0868C13.347 32.0761 13.4487 32.0619 13.5504 32.0478C13.7626 32.0183 13.9748 31.9887 14.1866 31.9901C14.9094 31.9947 15.6332 32.0139 16.3539 32.0666C16.5627 32.0819 16.5624 32.0128 16.5619 31.8789L16.5619 31.8579C16.5605 30.9571 16.5605 30.0565 16.5604 29.1558C16.5604 28.6554 16.5604 28.155 16.5601 27.6546C16.5601 27.5042 16.5577 27.3536 16.5552 27.203C16.5542 27.1356 16.5531 27.0681 16.5522 27.0007C16.7738 27.0462 16.9955 27.0911 17.2173 27.1359L17.2173 27.1359C17.776 27.249 18.3348 27.362 18.8914 27.4849C19.0926 27.5292 19.2897 27.5914 19.4871 27.6537C19.596 27.6881 19.705 27.7225 19.8148 27.7539C19.8477 27.7632 19.8838 27.7619 19.9199 27.7606H19.92C19.9367 27.76 19.9533 27.7594 19.9698 27.7599V22.7605C20.0688 22.7925 20.1662 22.8234 20.2624 22.8539L20.2625 22.854L20.2626 22.854L20.2628 22.8541L20.2631 22.8541L20.2633 22.8542L20.2635 22.8543C20.4741 22.9211 20.679 22.9862 20.8824 23.0558C21.2278 23.1743 21.5724 23.2961 21.9168 23.4179C22.0553 23.4669 22.1939 23.5159 22.3324 23.5646C22.4199 23.5954 22.5073 23.6265 22.5947 23.6575L22.595 23.6576L22.5956 23.6578L22.5956 23.6578L22.5956 23.6578L22.5956 23.6578L22.5956 23.6578L22.5956 23.6578C22.7841 23.7247 22.9725 23.7916 23.1616 23.8564C23.2642 23.8913 23.3086 23.9415 23.3075 24.0633C23.302 24.6828 23.3026 25.3026 23.3033 25.9222V25.9224V25.9225V25.9225V25.9225V25.9226V25.9226C23.3035 26.1224 23.3037 26.3222 23.3037 26.522V28.6491V28.8815L23.0998 28.8154C22.9457 28.7655 22.8012 28.7187 22.657 28.6711C22.4471 28.6019 22.2373 28.5325 22.0275 28.4631L22.0248 28.4622C21.6351 28.3333 21.2454 28.2044 20.8551 28.0771C20.6552 28.012 20.4545 27.9499 20.2538 27.8878L20.2531 27.8877C20.1594 27.8587 20.0656 27.8297 19.9718 27.8004L19.9717 28.774V28.7753C19.9716 30.073 19.9715 31.3706 19.9687 32.6681C19.9684 32.7913 19.997 32.8349 20.1299 32.8712C20.4522 32.9592 20.7704 33.0619 21.0886 33.1646L21.0887 33.1646L21.0888 33.1647L21.089 33.1647L21.0891 33.1648L21.0892 33.1648L21.0894 33.1648C21.233 33.2112 21.3766 33.2576 21.5207 33.3026C21.6325 33.3375 21.744 33.3731 21.8556 33.4087L21.8557 33.4088C22.1698 33.509 22.4839 33.6093 22.8022 33.6945C23.4426 33.8659 24.0875 34.0212 24.7328 34.174C24.9184 34.218 25.1068 34.2514 25.3016 34.2858L25.3016 34.2858L25.3017 34.2858L25.3018 34.2858L25.3019 34.2858C25.3926 34.3019 25.4848 34.3182 25.5788 34.3359V34.5234L25.579 35.0511C25.5793 35.5788 25.5796 36.1067 25.577 36.6344C25.5763 36.7615 25.5934 36.8194 25.7501 36.8414C26.0631 36.8852 26.3741 36.943 26.6852 37.0008L26.6854 37.0009C26.8676 37.0347 27.0497 37.0686 27.2323 37.0996C27.3974 37.1276 27.5639 37.1482 27.738 37.1698C27.8177 37.1797 27.8991 37.1898 27.9826 37.2008V34.768L30.1726 35.0179V37.4402C30.4943 37.4504 30.7976 37.4601 31.1009 37.4699L31.7315 37.4706L32.3622 37.4713C32.4023 37.4685 32.4428 37.4654 32.5004 37.4608V35.0943C32.6107 35.0754 32.7196 35.0586 32.8272 35.042C33.0657 35.0052 33.2977 34.9693 33.525 34.9142C33.9553 34.8099 34.3884 34.7013 34.8013 34.5443C35.5666 34.2529 36.2314 33.7933 36.8031 33.207C37.4756 32.5173 37.9649 31.7112 38.2622 30.7951C38.4242 30.2967 38.5491 29.7872 38.5742 29.2584C38.5769 29.2034 38.5962 29.1492 38.6156 29.095L38.6156 29.095L38.6156 29.0949L38.6156 29.0949L38.6156 29.0949L38.6156 29.0948C38.6246 29.0697 38.6336 29.0446 38.6409 29.0194V28.2516L38.6423 28.2519C38.6074 28.0338 38.5725 27.8154 38.5379 27.5972C38.3366 26.3273 37.6473 25.3295 36.2991 24.8988C36.1902 24.8639 36.0823 24.8261 35.9711 24.7871L35.9711 24.7871L35.9709 24.787L35.9707 24.787L35.9705 24.7869C35.9185 24.7687 35.8658 24.7502 35.812 24.7317C36.5413 24.0961 37.0889 23.3517 37.4309 22.4503C37.6159 21.962 37.7583 21.4707 37.8033 20.9531C37.8101 20.8753 37.8176 20.7974 37.8251 20.7194L37.8251 20.7192L37.8252 20.719L37.8252 20.7188C37.8543 20.4177 37.8835 20.1157 37.8682 19.8164C37.8239 18.9474 37.6246 18.1221 37.0121 17.4548C36.5441 16.9446 35.9693 16.5924 35.3125 16.3914C34.7618 16.2225 34.2003 16.0846 33.6381 15.9587C33.3208 15.8875 32.9928 15.8554 32.6675 15.8313C32.5318 15.8212 32.5031 15.7814 32.5038 15.6582C32.5069 15.1354 32.5064 14.6129 32.5059 14.0902V14.0902V14.0902V14.0901V14.0901V14.09C32.5058 13.8975 32.5056 13.7048 32.5056 13.5122C32.5056 13.488 32.5042 13.464 32.5028 13.4391L32.5011 13.4065L30.1837 13.1594V15.5688C30.1036 15.556 30.0256 15.5437 29.9492 15.5317C29.775 15.5044 29.6089 15.4784 29.4435 15.4488C29.2595 15.416 29.0757 15.3814 28.8919 15.3468C28.6771 15.3063 28.4622 15.2658 28.2468 15.2282L28.2326 15.2257C27.9819 15.1819 27.9809 15.1817 27.9809 14.9141C27.9809 14.7352 27.9806 14.5562 27.9803 14.3772C27.9794 13.8816 27.9785 13.386 27.9844 12.8903C27.9861 12.7472 27.9296 12.7127 27.8036 12.6827C27.3753 12.5806 26.9485 12.472 26.5218 12.3634L26.5215 12.3633L26.5215 12.3633L26.5215 12.3633L26.5215 12.3633L26.5214 12.3633C26.344 12.3181 26.1667 12.2729 25.9892 12.2283C25.9042 12.2067 25.8188 12.1867 25.7275 12.1654L25.7275 12.1654L25.7271 12.1653C25.6826 12.1549 25.6366 12.1441 25.5885 12.1326V14.592L23.3117 13.9659V18.9251C23.2451 18.9028 23.1819 18.8822 23.1213 18.8624L23.1213 18.8624C22.9947 18.8209 22.879 18.7831 22.7645 18.7415C22.4953 18.6438 22.2266 18.545 21.9579 18.4463C21.6703 18.3406 21.3827 18.2349 21.0946 18.1304C20.8406 18.0384 20.5856 17.9488 20.3307 17.8593L20.3306 17.8592L20.3305 17.8592L20.3304 17.8592L20.3303 17.8591L20.3302 17.8591L20.3299 17.859C20.2099 17.8168 20.09 17.7747 19.9701 17.7322V22.7501C19.8657 22.7191 19.7636 22.6882 19.6629 22.6577C19.4404 22.5903 19.2249 22.5251 19.0079 22.466C18.5909 22.3522 18.1731 22.2402 17.7523 22.1432C17.4749 22.0791 17.1951 22.0247 16.9154 21.9702C16.7939 21.9466 16.6725 21.9229 16.5512 21.8985C16.5521 21.8787 16.5532 21.8589 16.5543 21.8391C16.5571 21.7907 16.5598 21.7421 16.5598 21.6937C16.5601 20.1414 16.5601 18.5887 16.5598 17.0364C16.5598 16.9939 16.5573 16.9515 16.5548 16.9091V16.9091C16.5536 16.8878 16.5523 16.8665 16.5514 16.8452C16.5514 16.8449 16.5514 16.8446 16.5514 16.8443C16.5514 16.8445 16.5514 16.8447 16.5514 16.8449C16.5514 16.845 16.5514 16.8451 16.5514 16.8452M16.5519 16.8365C16.5521 16.8342 16.5523 16.8319 16.5526 16.8295C16.5528 16.8278 16.553 16.826 16.5532 16.8243V11.7419C16.5933 11.7471 16.632 11.7506 16.6694 11.754C16.745 11.7608 16.8155 11.7671 16.8823 11.7862C17.3496 11.9208 17.8165 12.0567 18.2834 12.1927C18.7975 12.3424 19.3117 12.4921 19.8264 12.6399C19.9436 12.6734 19.973 12.7289 19.9726 12.8468C19.9694 14.2181 19.9701 15.5893 19.9708 16.9606C19.971 17.2177 19.9711 17.4749 19.9712 17.732C19.7905 17.6769 19.6102 17.6205 19.4298 17.5642C19.0167 17.4352 18.6036 17.3062 18.1868 17.1911C17.8213 17.0901 17.4507 17.0071 17.0801 16.924C16.9526 16.8955 16.825 16.8669 16.6977 16.8376C16.6663 16.8304 16.6321 16.835 16.598 16.8397C16.5824 16.8418 16.5668 16.8439 16.5514 16.8449M16.0603 21.8468C16.2229 21.8658 16.3855 21.8848 16.5482 21.9021C16.5496 21.9179 16.5513 21.9337 16.553 21.9495C16.5567 21.9839 16.5604 22.0183 16.5604 22.0528C16.5611 23.6442 16.5611 25.2356 16.5604 26.827C16.5604 26.8668 16.5559 26.9064 16.5514 26.9461L16.5514 26.9461C16.5497 26.9615 16.5479 26.9768 16.5465 26.9921L16.3471 26.9756L16.142 26.9587C16.0136 26.9484 15.8852 26.9366 15.7568 26.9249L15.7568 26.9249C15.4565 26.8975 15.1562 26.8701 14.8553 26.8603C14.5378 26.8502 14.2193 26.8676 13.9013 26.885L13.9013 26.885L13.7636 26.8924C13.6011 26.901 13.4392 26.9184 13.2773 26.9359L13.2772 26.9359C13.205 26.9436 13.1328 26.9514 13.0605 26.9584C13.0615 26.9459 13.0627 26.9334 13.0638 26.9209C13.0668 26.889 13.0699 26.8571 13.0699 26.8252C13.0702 25.1999 13.0702 23.5743 13.0699 21.9491C13.0699 21.9144 13.0671 21.8797 13.0643 21.8451C13.063 21.8291 13.0617 21.8131 13.0607 21.7972C13.1359 21.793 13.2111 21.7885 13.2863 21.784C13.4578 21.7737 13.6293 21.7634 13.801 21.7576C13.8986 21.7542 13.9964 21.7496 14.0942 21.7449L14.0943 21.7449C14.3728 21.7316 14.6516 21.7182 14.9282 21.7353C15.3064 21.7589 15.6833 21.8028 16.0602 21.8468L16.0603 21.8468ZM28.0004 30.7626C28.1153 30.7779 28.2292 30.7934 28.3425 30.8088L28.3427 30.8089L28.3427 30.8089L28.3428 30.8089C28.5782 30.841 28.8108 30.8727 29.0436 30.9012C29.1683 30.9164 29.2929 30.9324 29.4175 30.9483L29.4176 30.9484C29.7989 30.9972 30.1801 31.0461 30.5627 31.0732C30.9039 31.0975 31.2465 31.1021 31.5891 31.1066C31.7446 31.1087 31.9001 31.1108 32.0554 31.1147C32.5143 31.1263 32.9411 31.0027 33.3355 30.7808C33.7075 30.5714 33.9417 30.2485 34.0775 29.8378C34.1839 29.5153 34.1822 29.1907 34.171 28.8648C34.1525 28.3144 33.9445 27.852 33.4514 27.5665C32.9554 27.2797 32.3988 27.229 31.8404 27.2043C31.7626 27.2008 31.6844 27.2024 31.6064 27.204H31.6063H31.6063H31.6063H31.6062H31.6062C31.5097 27.206 31.4133 27.208 31.3176 27.2004C31.0236 27.177 30.7303 27.1455 30.4369 27.1139L30.2546 27.0943L30.0504 27.0729C29.7708 27.0437 29.4913 27.0145 29.2128 26.976C28.9337 26.9375 28.6558 26.8921 28.3742 26.8461L28.3742 26.8461L28.3741 26.8461L28.3741 26.8461L28.3735 26.846C28.2497 26.8257 28.1253 26.8054 27.9997 26.7855V30.7626H28.0004ZM27.9861 19.3784V19.1846C28.1539 19.2124 28.3188 19.2405 28.4818 19.2682L28.4819 19.2682C28.8638 19.3331 29.2351 19.3963 29.6075 19.451C29.8379 19.485 30.0694 19.5121 30.3008 19.5392L30.3008 19.5392L30.3009 19.5392L30.301 19.5392L30.301 19.5392L30.3011 19.5392C30.5411 19.5673 30.781 19.5954 31.0199 19.6311C31.4038 19.6884 31.7905 19.7463 32.1646 19.8457C32.9251 20.0478 33.4067 20.6306 33.4091 21.4658C33.4105 21.8765 33.3854 22.273 33.1491 22.6272C32.8811 23.0293 32.4965 23.2373 32.0306 23.3353C31.5525 23.4362 31.08 23.395 30.6057 23.3287C30.2909 23.2848 29.9762 23.2403 29.6615 23.1958L29.6612 23.1958L29.6609 23.1957C29.1378 23.1218 28.6147 23.0478 28.0912 22.9766C27.9851 22.9622 27.9856 22.8999 27.9861 22.83L27.9861 22.8153V21.4197V19.3784ZM32.3619 37.4715L32.3615 37.4791C32.3612 37.4832 32.3608 37.4871 32.3603 37.4911L32.3591 37.5002H31.1027C31.1034 37.49 31.1027 37.4799 31.1006 37.4701L31.7295 37.4708L32.3619 37.4715Z" fill="#E36E1B"/>
</svg>
