<svg width="81" height="80" viewBox="0 0 81 80" fill="none" xmlns="http://www.w3.org/2000/svg">
<g clip-path="url(#clip0_18948_11440)">
<path d="M40.5 80C62.5914 80 80.5 62.0914 80.5 40C80.5 17.9086 62.5914 0 40.5 0C18.4086 0 0.5 17.9086 0.5 40C0.5 62.0914 18.4086 80 40.5 80Z" fill="white"/>
<path fill-rule="evenodd" clip-rule="evenodd" d="M68.1304 28.3381C68.8993 30.1526 69.4868 32.0388 69.8842 33.9691C71.1092 39.9077 70.4974 46.0785 68.1304 51.6611C67.3615 53.4451 66.4368 55.1688 65.3614 56.7669C64.2867 58.3589 63.0606 59.8433 61.7003 61.1994C60.3443 62.5596 58.8599 63.7857 57.2679 64.8604C55.6372 65.9358 53.9461 66.8907 52.1621 67.6294C48.4733 69.1939 44.5074 70.0002 40.5006 70.0002C36.4937 70.0002 32.5278 69.1939 28.8391 67.6294C27.055 66.8605 25.3313 65.9358 23.7332 64.8604C22.1413 63.7857 20.6569 62.5596 19.3008 61.1994C17.9407 59.8431 16.7147 58.3588 15.6398 56.7669C14.5643 55.1362 13.6095 53.4451 12.8708 51.6611C11.3063 47.9723 10.5 44.0064 10.5 39.9996C10.5 35.9927 11.3063 32.0269 12.8708 28.3381C13.6342 26.5535 14.5611 24.8434 15.6398 23.2297C16.7147 21.6395 17.9408 20.1568 19.3008 18.8023C22.0324 16.0592 25.2721 13.8743 28.8391 12.3698C32.5278 10.8053 36.4937 9.99902 40.5006 9.99902C44.5074 9.99902 48.4733 10.8053 52.1621 12.3698C53.9458 13.1333 55.655 14.0603 57.2679 15.1388C58.8599 16.2135 60.3443 17.4395 61.7003 18.7998C63.0605 20.1551 64.2865 21.6386 65.3614 23.2297C66.4453 24.8402 67.3725 26.5508 68.1304 28.3381ZM14.3156 40.0297C14.3156 54.4904 26.0374 66.2449 40.5282 66.2449C54.9914 66.2449 66.7434 54.4904 66.7434 40.0297C66.7434 25.5691 54.9889 13.8146 40.5282 13.8146C26.0701 13.8146 14.3156 25.5691 14.3156 40.0297ZM41.7017 63.9683H40.9931H40.4378C35.0807 63.9763 29.8776 62.1764 25.6706 58.8599C23.6102 56.9829 22.2256 54.4903 21.4542 52.7992C20.8085 51.3821 20.2858 49.9071 19.9466 48.3668C19.6099 46.8592 19.424 45.3214 19.3938 43.7509V42.9519L19.4868 41.6001C19.6232 40.1501 19.9009 38.7169 20.316 37.3209C20.7391 35.903 21.3066 34.5323 22.0096 33.2302C22.7201 31.8796 23.5761 30.6106 24.5625 29.4461C25.61 28.1877 26.7969 27.0523 28.1004 26.0614C29.3618 25.1066 30.7161 24.2774 32.1634 23.599C33.5828 22.9417 35.0677 22.4363 36.5933 22.0914C38.1094 21.7522 39.6559 21.567 41.2092 21.5386H42.0082V25.6293H41.2997C36.1938 25.7524 31.2086 27.9384 27.7008 32.092C25.0003 35.2965 23.5092 39.3467 23.487 43.5374C23.4623 46.3464 24.0622 49.1257 25.2434 51.6745C26.4245 54.2232 28.1574 56.4775 30.3166 58.2744C33.0554 60.5535 36.2843 61.8752 39.6714 62.6139C41.9219 63.1158 44.2265 63.3327 46.5311 63.2597C46.408 63.2898 46.2924 63.3206 46.1768 63.3514C46.0612 63.3822 45.9456 63.4129 45.8225 63.4431H45.7924C45.7445 63.4599 45.6887 63.4681 45.6334 63.4761L45.6333 63.4762C45.5812 63.4838 45.5297 63.4913 45.4858 63.5059H45.423C45.2069 63.5662 44.9607 63.629 44.7169 63.6592C44.6582 63.6736 44.6064 63.6811 44.5549 63.6886L44.5548 63.6886C44.4982 63.6968 44.4421 63.7049 44.3777 63.722H44.3149C44.27 63.722 44.2245 63.7294 44.1786 63.7369C44.1321 63.7445 44.0853 63.7522 44.0385 63.7522H43.9782C43.9574 63.7573 43.9374 63.7624 43.918 63.7673C43.8228 63.7916 43.7413 63.8125 43.639 63.8125C43.5774 63.8125 43.5159 63.8206 43.4543 63.8288L43.4542 63.8288C43.3927 63.837 43.3312 63.8451 43.2696 63.8451H43.2093C43.1434 63.8451 43.0862 63.8538 43.033 63.8618C42.9867 63.8688 42.9435 63.8753 42.9003 63.8753H42.8073C42.7168 63.9054 42.6239 63.9054 42.5309 63.9054H42.4379C42.3148 63.9356 42.2243 63.9356 42.1012 63.9356H42.0685C41.9454 63.9683 41.8248 63.9683 41.7017 63.9683ZM47.6995 60.0287C46.1819 59.9745 44.6703 59.8099 43.1766 59.5362C36.8395 58.3979 31.3919 54.5208 29.3943 48.6762C26.962 41.5678 30.6859 33.8763 37.7617 31.5395C39.1101 31.0876 40.5232 30.8585 41.9453 30.8611C43.762 30.8611 45.5762 31.2305 47.2396 31.9064L48.9608 28.2454C48.4432 28.0378 47.9204 27.8434 47.3929 27.6624C45.6301 27.1091 43.793 26.8286 41.9453 26.8307C40.0942 26.8342 38.2557 27.1354 36.5003 27.7227C34.2599 28.4617 32.1964 29.6559 30.4396 31.2305C29.5924 31.9852 28.8199 32.8199 28.1329 33.7231C27.4539 34.6159 26.8663 35.5747 26.3791 36.5851C25.3869 38.6164 24.8014 40.822 24.6554 43.0779C24.5021 45.4147 24.8086 47.7516 25.5775 49.9678C26.361 52.2476 27.62 54.3349 29.2712 56.0913C30.7788 57.722 32.5327 58.9532 34.6534 60.0915C36.8697 61.2599 39.6085 61.8755 42.468 62.2776C44.3148 62.5213 46.7773 62.5841 48.2221 62.5841C49.4139 62.1473 49.9462 61.9303 50.5735 61.6745L50.6846 61.6293C51.27 61.3529 51.853 61.0765 52.4384 60.7373C52.9992 60.4123 53.1082 60.341 53.9799 59.7702L54.0993 59.692C54.1869 59.6375 54.2693 59.5753 54.3456 59.506C51.0732 60.0721 50.159 60.0603 47.9332 60.0317L47.6995 60.0287ZM55.1387 55.4535C55.1834 55.4506 55.2273 55.4479 55.2703 55.4451C56.1902 55.3738 57.437 55.2492 58.3988 55.153C58.6903 55.1239 58.9555 55.0974 59.1776 55.0758C58.0882 56.4313 56.8491 57.6595 55.4839 58.7368C54.0693 59.0434 53.2375 59.1363 52.132 59.2293C48.1317 59.5057 44.0084 59.1665 41.2092 58.2443C38.2844 57.2593 35.548 55.5356 33.5479 53.3847C32.4097 52.1535 31.5151 50.8293 30.8719 49.4146C30.1677 47.8465 29.7996 46.1484 29.7914 44.4294C29.7914 42.7893 30.1147 41.1652 30.7429 39.6501C31.3711 38.135 32.2919 36.7587 33.4524 35.5997C34.6114 34.4388 35.9879 33.5177 37.5033 32.8893C39.0186 32.2609 40.6429 31.9374 42.2834 31.9374C43.9238 31.9374 45.5482 32.2609 47.0635 32.8893C48.5788 33.5177 49.9553 34.4388 51.1143 35.5997C51.989 36.4556 52.7263 37.4413 53.3004 38.522L49.6393 40.3362C48.192 37.7833 45.4532 36.0294 42.2846 36.0294C41.1773 36.0284 40.0806 36.2458 39.0574 36.6691C38.0341 37.0924 37.1044 37.7133 36.3214 38.4963C35.5384 39.2793 34.9175 40.2091 34.4942 41.2323C34.0709 42.2555 33.8535 43.3522 33.8545 44.4596C33.8545 49.1382 38.0381 52.9224 42.4706 54.3973C45.33 55.3522 48.6845 55.5959 51.4234 55.5959C52.8918 55.5959 54.1929 55.5134 55.1387 55.4535Z" fill="#2E343C"/>
</g>
<defs>
<clipPath id="clip0_18948_11440">
<rect width="80" height="80" fill="white" transform="translate(0.5)"/>
</clipPath>
</defs>
</svg>
