<svg width="49" height="49" viewBox="0 0 49 49" fill="none" xmlns="http://www.w3.org/2000/svg">
<path d="M33.3957 19.4447L37.3788 22.469L39.9052 24.3684L37.1022 25.8067L31.441 28.7019L33.3772 30.0481L36.088 31.929L33.156 33.4411L15.1764 42.7167C24.9683 48.1014 37.2866 44.5424 42.6713 34.732C46.6913 27.4295 45.8246 18.4121 40.4769 12.0132L33.3957 19.4447Z" fill="#F2F2F2"/>
<path d="M16.4672 31.5236L12.484 28.4993L9.95766 26.6184L12.7606 25.18L18.4219 22.2849L16.4856 20.9387L13.7749 19.0577L16.7069 17.5456L35.6454 7.77212C26.1669 1.85269 13.6642 4.74786 7.74479 14.2448C2.96868 21.8976 3.83539 31.7817 9.86545 38.4757L16.4672 31.5236Z" fill="#F2F2F2"/>
<path d="M8.62997 39.7847C0.442354 30.7857 1.08777 16.8631 10.0868 8.65706C17.6843 1.74185 29.0437 0.985781 37.471 6.84988L39.4442 5.83565C28.8777 -2.16756 13.8302 -0.102212 5.827 10.4458C-1.19886 19.703 -0.571879 32.6667 7.30225 41.2231L8.62997 39.7847Z" fill="#F2F2F2"/>
<path d="M41.7123 10.6854C49.6049 19.9426 48.4985 33.8468 39.2413 41.7394C31.9388 47.9538 21.4462 48.7468 13.2954 43.6572L11.2854 44.6899C22.1838 52.2321 37.1206 49.5213 44.6813 38.6229C50.9142 29.6239 50.2688 17.5269 43.077 9.24707L41.7123 10.6854Z" fill="#F2F2F2"/>
<path d="M13.6643 26.9503L19.4177 31.3023L6.41711 44.9852L32.2524 31.6711L27.5869 28.444L36.1986 24.0552L30.4452 19.6847L43.4273 5.9834L17.6105 19.3159L22.276 22.543L13.6643 26.9503Z" fill="#2AB1F3"/>
</svg>
