<svg width="81" height="80" viewBox="0 0 81 80" fill="none" xmlns="http://www.w3.org/2000/svg">
<path d="M40.5 80C62.5914 80 80.5 62.0914 80.5 40C80.5 17.9086 62.5914 0 40.5 0C18.4086 0 0.5 17.9086 0.5 40C0.5 62.0914 18.4086 80 40.5 80Z" fill="white"/>
<path d="M41.7461 10V32.175L60.4886 40.55L41.7461 10Z" fill="black" fill-opacity="0.602"/>
<path d="M41.745 10L23 40.55L41.745 32.175V10Z" fill="black"/>
<path d="M41.7461 54.92V69.9875L60.5011 44.04L41.7461 54.92Z" fill="black" fill-opacity="0.602"/>
<path d="M41.745 69.9875V54.9175L23 44.04L41.745 69.9875Z" fill="black"/>
<path d="M41.7461 51.4332L60.4886 40.5507L41.7461 32.1807V51.4332Z" fill="black" fill-opacity="0.2"/>
<path d="M23 40.5507L41.745 51.4332V32.1807L23 40.5507Z" fill="black" fill-opacity="0.602"/>
</svg>
