<svg width="81" height="80" viewBox="0 0 81 80" fill="none" xmlns="http://www.w3.org/2000/svg">
<circle cx="40.5" cy="40" r="40" fill="white"/>
<path d="M62.9804 25.2884C62.2144 24.688 61.3011 23.868 59.6365 23.663C58.0751 23.458 56.4842 24.4977 55.4088 25.1859C54.3335 25.8742 52.3007 27.8949 51.461 28.51C50.6214 29.125 48.4707 29.6961 45.009 31.7608C41.5473 33.8255 27.9656 42.4943 27.9656 42.4943L31.501 42.5383L15.7392 50.6068H17.3154L15.0469 52.32C15.0469 52.32 17.0502 52.8472 18.7295 51.7929V52.2761C18.7295 52.2761 37.4964 44.9251 41.1201 46.8288L38.9105 47.4731C39.102 47.4731 42.6668 47.7074 42.6668 47.7074C42.6668 47.7074 42.7847 49.9185 44.9353 51.3389C47.086 52.7447 47.1302 53.5208 47.1302 53.5208C47.1302 53.5208 46.0107 53.9747 46.0107 54.5458C46.0107 54.5458 47.6605 54.0479 49.1925 54.0919C50.7245 54.1358 52.065 54.5458 52.065 54.5458C52.065 54.5458 51.9471 53.9308 50.4593 53.5208C48.9568 53.0961 47.4985 51.5 46.7767 50.6214C46.0549 49.7428 45.554 48.176 46.1727 46.6091C46.6883 45.2766 48.4854 44.5444 52.1976 42.6408C56.5726 40.3857 57.5742 38.7164 58.1929 37.4131C58.8116 36.1098 59.7249 33.518 60.2405 32.3026C60.8886 30.7357 61.6841 29.9011 62.347 29.4032C62.9951 28.9053 65.956 27.8071 65.956 27.8071C65.956 27.8071 63.7022 25.8595 62.9804 25.2884Z" fill="#2E343C"/>
</svg>
