<svg width="81" height="80" viewBox="0 0 81 80" fill="none" xmlns="http://www.w3.org/2000/svg">
<path d="M40.5 80C62.5914 80 80.5 62.0914 80.5 40C80.5 17.9086 62.5914 0 40.5 0C18.4086 0 0.5 17.9086 0.5 40C0.5 62.0914 18.4086 80 40.5 80Z" fill="white"/>
<path d="M21.075 38.5C21.075 39.1904 20.5154 39.75 19.825 39.75C19.1346 39.75 18.575 39.1904 18.575 38.5C18.575 37.8096 19.1346 37.25 19.825 37.25C20.5154 37.25 21.075 37.8096 21.075 38.5Z" fill="#E1147B"/>
<path d="M12 43.9C12 44.5904 11.4404 45.15 10.75 45.15C10.0596 45.15 9.5 44.5904 9.5 43.9C9.5 43.2096 10.0596 42.65 10.75 42.65C11.4404 42.65 12 43.2096 12 43.9Z" fill="#E1147B"/>
<path d="M21.075 49.275C21.075 49.9654 20.5154 50.525 19.825 50.525C19.1346 50.525 18.575 49.9654 18.575 49.275C18.575 48.5846 19.1346 48.025 19.825 48.025C20.5154 48.025 21.075 48.5846 21.075 49.275Z" fill="#E1147B"/>
<path d="M14.225 54.65C14.225 55.3404 13.6654 55.9 12.975 55.9C12.2846 55.9 11.725 55.3404 11.725 54.65C11.725 53.9596 12.2846 53.4 12.975 53.4C13.6654 53.4 14.225 53.9596 14.225 54.65Z" fill="#E1147B"/>
<path d="M41.125 60.05C41.125 60.7404 40.5654 61.3 39.875 61.3C39.1846 61.3 38.625 60.7404 38.625 60.05C38.625 59.3596 39.1846 58.8 39.875 58.8C40.5654 58.8 41.125 59.3596 41.125 60.05Z" fill="#E1147B"/>
<path d="M28.825 65.45C28.825 66.1404 28.2654 66.7 27.575 66.7C26.8846 66.7 26.325 66.1404 26.325 65.45C26.325 64.7596 26.8846 64.2 27.575 64.2C28.2654 64.2 28.825 64.7596 28.825 65.45Z" fill="#E1147B"/>
<path d="M22.825 38.5C22.825 37.8096 23.3846 37.25 24.075 37.25H68.675C69.3654 37.25 69.925 37.8096 69.925 38.5C69.925 39.1904 69.3654 39.75 68.675 39.75H24.075C23.3846 39.75 22.825 39.1904 22.825 38.5Z" fill="#E1147B"/>
<path d="M13.75 43.9C13.75 43.2096 14.3096 42.65 15 42.65H59.6C60.2904 42.65 60.85 43.2096 60.85 43.9C60.85 44.5904 60.2904 45.15 59.6 45.15H15C14.3096 45.15 13.75 44.5904 13.75 43.9Z" fill="#E1147B"/>
<path d="M22.825 49.275C22.825 48.5846 23.3846 48.025 24.075 48.025H68.675C69.3654 48.025 69.925 48.5846 69.925 49.275C69.925 49.9654 69.3654 50.525 68.675 50.525H24.075C23.3846 50.525 22.825 49.9654 22.825 49.275Z" fill="#E1147B"/>
<path d="M36.4 54.65C36.4 53.9596 36.9596 53.4 37.65 53.4H70.25C70.9404 53.4 71.5 53.9596 71.5 54.65C71.5 55.3404 70.9404 55.9 70.25 55.9H37.65C36.9596 55.9 36.4 55.3404 36.4 54.65Z" fill="#E1147B"/>
<path d="M15.975 54.65C15.975 53.9596 16.5346 53.4 17.225 53.4H32.775C33.4654 53.4 34.025 53.9596 34.025 54.65C34.025 55.3404 33.4654 55.9 32.775 55.9H17.225C16.5346 55.9 15.975 55.3404 15.975 54.65Z" fill="#E1147B"/>
<path d="M42.975 60.05C42.975 59.3596 43.5346 58.8 44.225 58.8H64.175C64.8654 58.8 65.425 59.3596 65.425 60.05C65.425 60.7404 64.8654 61.3 64.175 61.3H44.225C43.5346 61.3 42.975 60.7404 42.975 60.05Z" fill="#E1147B"/>
<path d="M30.625 65.45C30.625 64.7596 31.1846 64.2 31.875 64.2H51.825C52.5154 64.2 53.075 64.7596 53.075 65.45C53.075 66.1404 52.5154 66.7 51.825 66.7H31.875C31.1846 66.7 30.625 66.1404 30.625 65.45Z" fill="#E1147B"/>
<path d="M46.4625 13.1504C35.7827 13.1504 27.125 21.8081 27.125 32.4879V32.7504C27.125 33.3303 27.5951 33.8004 28.175 33.8004H64.75C65.3299 33.8004 65.8 33.3303 65.8 32.7504V32.4879C65.8 21.8081 57.1423 13.1504 46.4625 13.1504Z" fill="#53CBC8"/>
</svg>
