<svg width="81" height="80" viewBox="0 0 81 80" fill="none" xmlns="http://www.w3.org/2000/svg">
<circle cx="40.5" cy="40" r="40" fill="#F2F5FA"/>
<g clip-path="url(#clip0_18948_11401)">
<path d="M54.4867 19.1636L44.8009 33.5537C44.1311 34.5337 45.4191 35.72 46.3465 34.8947L55.8777 26.5907C56.1353 26.3844 56.496 26.5392 56.496 26.9002V52.8437C56.496 53.2047 56.0323 53.3595 55.8262 53.1016L26.9749 18.5447C26.0475 17.4099 24.708 16.791 23.2139 16.791H22.1835C19.5044 16.791 17.2891 19.0088 17.2891 21.7425V58.2593C17.2891 60.9929 19.5044 63.2108 22.235 63.2108C23.9352 63.2108 25.5323 62.334 26.4597 60.8382L36.1455 46.4481C36.8152 45.4681 35.5272 44.2818 34.5999 45.1071L25.0686 53.3595C24.811 53.5658 24.4504 53.411 24.4504 53.05V27.1581C24.4504 26.7971 24.9141 26.6423 25.1201 26.9002L53.9715 61.4571C54.8988 62.5918 56.2899 63.2108 57.7325 63.2108H58.7629C61.4934 63.2108 63.7088 60.9929 63.7088 58.2593V21.7425C63.7088 19.0088 61.4934 16.791 58.7629 16.791C57.0112 16.791 55.4141 17.6678 54.4867 19.1636Z" fill="black"/>
</g>
<defs>
<clipPath id="clip0_18948_11401">
<rect width="46.4198" height="46.4198" fill="white" transform="translate(17.2891 16.791)"/>
</clipPath>
</defs>
</svg>
