<svg width="81" height="80" viewBox="0 0 81 80" fill="none" xmlns="http://www.w3.org/2000/svg">
<g clip-path="url(#clip0_18948_5209)">
<path d="M40.5 80C62.5914 80 80.5 62.0914 80.5 40C80.5 17.9086 62.5914 0 40.5 0C18.4086 0 0.5 17.9086 0.5 40C0.5 62.0914 18.4086 80 40.5 80Z" fill="white"/>
<path fill-rule="evenodd" clip-rule="evenodd" d="M54.5344 27.7186C54.1133 28.3502 53.201 28.4203 52.6396 27.8589C48.78 23.9993 45.0607 21.894 39.0958 22.1747C36.6396 22.3151 33.201 24.4203 33.3414 27.2975C33.5516 31.2924 38.1017 33.0474 43.0068 34.9394L43.0256 34.9467C48.9905 37.1923 55.587 39.7888 55.9379 46.7361C56.3589 54.7361 48.0782 58.5256 41.3414 59.0168C34.6045 59.3677 29.973 57.1221 25.4817 52.6309C24.9905 52.0695 24.9905 51.2274 25.5519 50.7361C26.0431 50.3151 26.8151 50.3151 27.3063 50.8063C31.3063 54.666 34.8852 56.8414 40.9905 56.4905C44.2186 56.28 47.9379 54.1046 47.7273 50.4554C47.5168 47.1572 43.4466 45.6133 38.8151 43.8589L38.7059 43.8171C32.6973 41.5117 25.9007 38.904 25.5519 31.8589C25.1309 23.8589 31.5168 20.0695 38.7449 19.7186C45.6221 19.3677 49.7624 21.6133 54.394 26.0344C54.8852 26.4554 54.9554 27.2274 54.5344 27.7186ZM49.201 54.1747C51.7273 52.6309 53.4116 49.9642 53.4116 46.8765C53.4116 41.6133 47.7273 39.5081 41.973 37.4028L41.8292 37.3489C36.2647 35.2626 30.8151 33.2193 30.8151 28.2098C30.8151 26.7361 31.0958 25.2624 31.7273 23.9291L31.6572 23.7888C29.201 25.1923 27.9379 28.2098 27.9379 31.0168C27.9379 37.1613 33.9821 39.3458 39.7801 41.4413L39.8677 41.473L40.0014 41.5211C45.2149 43.3976 50.1133 45.1607 50.1133 49.6835C50.1133 51.2274 49.973 52.8414 49.0607 54.1045L49.201 54.1747Z" fill="#2E343C"/>
<path fill-rule="evenodd" clip-rule="evenodd" d="M6.11328 39.6484C6.11328 20.8748 21.3748 5.61328 40.1484 5.61328C58.9219 5.61328 74.1835 20.8748 74.1835 39.6484C74.1835 58.4219 58.9219 73.6835 40.1484 73.6835C21.3748 73.6835 6.11328 58.4219 6.11328 39.6484ZM40.1484 7.01679C22.15 7.01679 7.51679 21.65 7.51679 39.6484C7.51679 57.6468 22.15 72.2799 40.1484 72.2799C58.1468 72.2799 72.7799 57.6468 72.7799 39.6484C72.7799 21.65 58.1468 7.01679 40.1484 7.01679Z" fill="#2E343C"/>
</g>
<defs>
<clipPath id="clip0_18948_5209">
<rect width="80" height="80" fill="white" transform="translate(0.5)"/>
</clipPath>
</defs>
</svg>
