<svg width="81" height="80" viewBox="0 0 81 80" fill="none" xmlns="http://www.w3.org/2000/svg">
<g clip-path="url(#clip0_18948_5192)">
<path d="M40.5 80C62.5914 80 80.5 62.0914 80.5 40C80.5 17.9086 62.5914 0 40.5 0C18.4086 0 0.5 17.9086 0.5 40C0.5 62.0914 18.4086 80 40.5 80Z" fill="white"/>
<path fill-rule="evenodd" clip-rule="evenodd" d="M23.1706 20.2453C23.4848 19.9294 23.9109 19.752 24.3552 19.752H65.3427C66.0893 19.752 66.4631 20.6604 65.9349 21.1914L57.8358 29.3337C57.5217 29.6496 57.0955 29.8271 56.6513 29.8271H15.6638C14.9171 29.8271 14.5434 28.9188 15.0716 28.3877L23.1706 20.2453ZM23.1706 50.662C23.4848 50.346 23.9109 50.1686 24.3552 50.1686H65.3427C66.0893 50.1686 66.4631 51.077 65.9349 51.608L57.8358 59.7503C57.5217 60.0663 57.0955 60.2438 56.6513 60.2438H15.6638C14.9171 60.2438 14.5434 59.3353 15.0716 58.8043L23.1706 50.662ZM56.6513 34.8626C57.0955 34.8626 57.5217 35.0401 57.8358 35.356L65.9349 43.4983C66.4631 44.0293 66.0893 44.9378 65.3427 44.9378H24.3552C23.9109 44.9378 23.4848 44.7603 23.1706 44.4445L15.0716 36.302C14.5434 35.7711 14.9171 34.8626 15.6638 34.8626H56.6513Z" fill="url(#paint0_linear_18948_5192)"/>
</g>
<defs>
<linearGradient id="paint0_linear_18948_5192" x1="49.5453" y1="8.64437" x2="20.9066" y2="63.1667" gradientUnits="userSpaceOnUse">
<stop stop-color="#00FFA3"/>
<stop offset="1" stop-color="#DC1FFF"/>
</linearGradient>
<clipPath id="clip0_18948_5192">
<rect width="80" height="80" fill="white" transform="translate(0.5)"/>
</clipPath>
</defs>
</svg>
