<svg width="48" height="48" viewBox="0 0 48 48" fill="none" xmlns="http://www.w3.org/2000/svg">
<circle cx="24" cy="24" r="24" fill="#1F5EFF"/>
<path d="M21.028 13.2843C24.5323 11.894 29.8739 11.6992 36.7614 13.8631C34.7567 12.3259 32.4636 11.1922 30.0133 10.5267C27.5629 9.86115 25.0032 9.67687 22.4803 9.98438C22.1773 10.0233 21.8762 10.0739 21.5779 10.1359C21.5228 10.1448 21.4679 10.1538 21.4131 10.1629C20.0409 10.3979 18.6983 10.7769 17.4082 11.2935C17.4081 11.2936 17.4079 11.2937 17.4077 11.2938C15.701 11.9576 14.1162 12.8913 12.7157 14.0579C6.37838 19.4784 7.8747 27.9933 18.0739 30.736C18.6335 30.8889 19.2034 31.0027 19.7793 31.0768C24.9724 31.7368 26.4687 28.1176 21.6441 25.7482C20.5424 25.2211 19.522 24.5436 18.613 23.7358C14.6525 20.1438 15.7635 15.394 20.973 13.2843H21.028Z" fill="white"/>
<path fill-rule="evenodd" clip-rule="evenodd" d="M27.0188 34.7337C33.2847 32.2236 33.6202 25.8618 26.3422 22.2914C21.05 19.6893 23.388 15.5563 29.9179 17.3145C29.9917 17.3334 30.0646 17.3533 30.1364 17.3743C30.074 17.3461 30.0069 17.3223 29.9344 17.3036C32.2906 17.8701 34.4689 18.9978 36.2773 20.5873C36.3053 20.6302 36.3329 20.6732 36.3602 20.7163C40.366 24.5063 39.8819 30.052 35.2706 33.9763C34.4232 34.6906 33.5012 35.3144 32.52 35.8373L32.5222 35.8355C32.5241 35.8339 32.5259 35.8323 32.5277 35.8306L32.5314 35.8267C31.8992 36.1705 31.2469 36.4775 30.5781 36.7461C29.2879 37.2608 27.9452 37.6381 26.5732 37.8713C26.2211 37.9308 25.8691 37.9849 25.506 38.0227C22.989 38.319 20.4376 38.1353 17.9914 37.4818C15.5433 36.8152 13.252 35.683 11.2469 34.1494C16.6051 35.8264 21.039 36.0861 24.3892 35.464C25.2751 35.3041 26.1429 35.0595 26.9803 34.7337L27.0188 34.7337ZM27.0188 34.7337C27.1587 34.6807 27.2969 34.6249 27.4333 34.5663L27.3984 34.5822L27.0353 34.7337L27.0188 34.7337Z" fill="white"/>
</svg>
