<svg width="48" height="48" viewBox="0 0 48 48" fill="none" xmlns="http://www.w3.org/2000/svg">
<path d="M24 48C37.2548 48 48 37.2548 48 24C48 10.7452 37.2548 0 24 0C10.7452 0 0 10.7452 0 24C0 37.2548 10.7452 48 24 48Z" fill="#E81899"/>
<path d="M38.9461 30.6184L33.5854 23.3353C33.0031 22.5438 32.1407 22.0697 31.2225 21.9652C31.0134 21.941 30.8267 21.8197 30.7222 21.6367C30.6158 21.4538 30.6046 21.2317 30.6886 21.0375C31.0563 20.1902 31.0787 19.2065 30.683 18.3069L27.0564 10.0233C26.5188 8.79327 25.3037 8 23.9617 8C22.6197 8 21.4047 8.79514 20.8671 10.0233L17.2404 18.3069C16.8466 19.2065 16.8671 20.1902 17.2348 21.0375C17.3188 21.2317 17.3058 21.4538 17.2012 21.6367C17.0948 21.8197 16.9101 21.941 16.701 21.9652C15.7827 22.0697 14.9204 22.5438 14.338 23.3353L8.9774 30.6184C8.18226 31.6991 8.102 33.1475 8.77208 34.3103C9.44403 35.4712 10.7394 36.1264 12.0721 35.979L21.0593 34.9786C22.0355 34.8703 22.8773 34.3607 23.426 33.6179C23.5511 33.448 23.7508 33.3472 23.9617 33.3472C24.1727 33.3472 24.3705 33.448 24.4975 33.6179C25.0461 34.3607 25.888 34.8703 26.8642 34.9786L35.8514 35.979C37.1841 36.1283 38.4794 35.4731 39.1514 34.3103C39.8214 33.1475 39.7412 31.6991 38.9461 30.6184ZM19.5848 19.3465L23.2169 11.0536C23.3476 10.7568 23.6407 10.5646 23.9636 10.5646C24.2865 10.5646 24.5795 10.7568 24.7101 11.0536L28.3424 19.3465C28.4563 19.6078 28.432 19.9102 28.2752 20.1491C28.1184 20.3881 27.8534 20.5317 27.5659 20.5317H20.3593C20.0738 20.5317 19.8069 20.3881 19.6501 20.1491C19.4933 19.9102 19.469 19.6078 19.5829 19.3465H19.5848ZM21.4495 31.9716C21.3207 32.2273 21.0705 32.399 20.7868 32.4307L11.7902 33.4312C11.4692 33.4667 11.1556 33.3099 10.9932 33.0299C10.8308 32.7499 10.8514 32.4008 11.0436 32.1396L16.4098 24.849C16.5797 24.6194 16.8522 24.4888 17.1378 24.5056C17.4234 24.5205 17.6809 24.6792 17.8246 24.9273L17.8302 24.9366L21.4233 31.1596L21.4289 31.1689C21.5727 31.4172 21.5801 31.7196 21.4513 31.9735L21.4495 31.9716ZM24.7008 29.1569C24.5479 29.42 24.2679 29.5843 23.9617 29.5843C23.6575 29.5843 23.3756 29.4219 23.2225 29.1588L20.462 24.3786C20.3089 24.1154 20.3089 23.7888 20.462 23.5256C20.6151 23.2625 20.8951 23.0982 21.2012 23.0982H26.7204C27.0247 23.0982 27.3066 23.2588 27.4596 23.5237C27.6126 23.7888 27.6126 24.1136 27.4596 24.3768L24.7008 29.1569ZM36.9321 33.0299C36.7697 33.3099 36.458 33.4686 36.1351 33.4331L27.1386 32.4326C26.8548 32.4008 26.6047 32.2292 26.4759 31.9735C26.3471 31.7177 26.3546 31.4153 26.4983 31.1689L26.5039 31.1596L30.097 24.9366L30.1026 24.9273C30.2463 24.6792 30.5038 24.5205 30.7894 24.5056C31.075 24.4906 31.3475 24.6194 31.5174 24.849L36.8836 32.1396C37.0758 32.4008 37.0945 32.7499 36.934 33.0299H36.9321Z" fill="white"/>
</svg>
