<svg width="48" height="48" viewBox="0 0 48 48" fill="none" xmlns="http://www.w3.org/2000/svg">
<circle cx="24" cy="24" r="24" fill="url(#paint0_linear_9140_25729)"/>
<path d="M38.3381 14.448C37.4557 12.9274 35.8756 12.0167 34.1106 12.0167H24.3782C24.2522 12.0083 24.126 12 24 12C23.8739 12 23.7479 12.0083 23.6218 12.0167H13.8893C12.1244 12.0167 10.5443 12.9274 9.66186 14.448C8.77938 15.9686 8.77938 17.7817 9.66186 19.3023L19.7725 36.7057C20.655 38.2263 22.2351 39.1369 24 39.1369C25.7649 39.1369 27.345 38.2263 28.2275 36.7057L38.3381 19.3023C39.2206 17.79 39.2206 15.9686 38.3381 14.448ZM25.8911 35.3688C25.496 36.0456 24.79 36.455 24 36.455C23.21 36.455 22.504 36.0456 22.109 35.3688L16.4191 25.5768L22.109 15.7764C22.462 15.1665 23.0587 14.7822 23.7479 14.707H24.2522C24.9414 14.7822 25.538 15.1749 25.8911 15.7764L31.5809 25.5685L25.8911 35.3688Z" fill="white"/>
<defs>
<linearGradient id="paint0_linear_9140_25729" x1="0" y1="24" x2="48" y2="24" gradientUnits="userSpaceOnUse">
<stop stop-color="#6ED396"/>
<stop offset="1" stop-color="#4977EA"/>
</linearGradient>
</defs>
</svg>
