<svg width="48" height="48" viewBox="0 0 48 48" fill="none" xmlns="http://www.w3.org/2000/svg">
<path d="M24 48C37.2548 48 48 37.2548 48 24C48 10.7452 37.2548 0 24 0C10.7452 0 0 10.7452 0 24C0 37.2548 10.7452 48 24 48Z" fill="#1F2226"/>
<path fill-rule="evenodd" clip-rule="evenodd" d="M7.07886 29.6545C4.11411 26.1292 4.32061 20.9192 7.69752 17.6282C11.295 14.1239 17.1267 14.1239 20.7242 17.6282C24.3209 21.1333 24.3209 26.8152 20.7242 30.3203C17.2361 33.7188 11.6467 33.8213 8.03173 30.6298L16.1647 22.7049L17.1416 23.6567L12.1758 28.4958C14.0309 29.2885 16.2742 28.9443 17.7926 27.4648C19.7713 25.5369 19.7713 22.4116 17.7926 20.4845C15.8147 18.5566 12.607 18.5566 10.6283 20.4845C8.87264 22.195 8.67526 24.8493 10.0361 26.7724L7.07886 29.6545ZM31.5316 25.7599V24.4178H43C42.7669 29.0242 38.9596 32.7144 34.2235 32.9099C28.8023 33.1345 24.3457 28.7228 24.6592 23.445C24.9378 18.7481 29.0644 15.0224 33.8271 15.0224C38.5897 15.0224 42.5049 18.5541 42.966 23.0757H38.7946C38.3633 20.785 36.3034 19.0494 33.8271 19.0494C30.7081 19.0494 28.2492 21.8039 28.8737 24.9535C29.2601 26.9 30.8333 28.4279 32.8327 28.7996C35.3878 29.2739 37.6875 27.8712 38.5342 25.7599H31.5316Z" fill="url(#paint0_linear_11032_807)"/>
<defs>
<linearGradient id="paint0_linear_11032_807" x1="34.4232" y1="14.0219" x2="16.6829" y2="31.7168" gradientUnits="userSpaceOnUse">
<stop stop-color="#FAEA53"/>
<stop offset="0.12" stop-color="#FFAF90"/>
<stop offset="0.25" stop-color="#FE7981"/>
<stop offset="0.56" stop-color="#BC50FF"/>
<stop offset="1" stop-color="#53B7FF"/>
</linearGradient>
</defs>
</svg>
