<svg width="20" height="20" viewBox="0 0 20 20" fill="none" xmlns="http://www.w3.org/2000/svg">
<g clip-path="url(#clip0_29173_20565)">
<path fill-rule="evenodd" clip-rule="evenodd" d="M10.0032 2.05614L6.93338 3.58204L10.0032 4.99056L13.073 3.58204L10.0032 2.05614ZM13.8775 4.86328V8.30305L10.7532 9.85603V6.29679L13.8775 4.86328ZM15.3775 3.85061V8.31011L19.2799 10.2499L19.2938 10.2568C19.353 10.2861 19.4403 10.3294 19.5158 10.3772C19.6122 10.4383 19.7409 10.537 19.8418 10.6999C19.9428 10.8627 19.9739 11.0219 19.9856 11.1354C19.9949 11.2244 19.9948 11.3217 19.9947 11.3878V11.3878V11.3878L19.9947 11.4033V15.9903L19.9947 16.0058V16.0059V16.0059C19.9948 16.072 19.9949 16.1693 19.9856 16.2582C19.9739 16.3717 19.9428 16.5309 19.8418 16.6938C19.7409 16.8567 19.6122 16.9554 19.5158 17.0165C19.4403 17.0643 19.353 17.1075 19.2938 17.1369L19.2938 17.1369L19.2799 17.1438L15.1937 19.1749L15.1762 19.184C15.1005 19.2236 14.8765 19.3409 14.6204 19.3409C14.3643 19.3409 14.1403 19.2236 14.0646 19.184L14.047 19.1749L9.99719 17.1619L5.94766 19.1747L5.93009 19.1838C5.85443 19.2235 5.63042 19.3408 5.37431 19.3408C5.1182 19.3408 4.89419 19.2235 4.81853 19.1838L4.80096 19.1747L0.714783 17.1436L0.700881 17.1367C0.641668 17.1074 0.554442 17.0641 0.478901 17.0163C0.382491 16.9553 0.253783 16.8566 0.152848 16.6937C0.0519133 16.5308 0.0208148 16.3716 0.00905775 16.2581C-0.000154323 16.1691 -5.52006e-05 16.0718 1.21527e-05 16.0057L2.28815e-05 15.9902V11.4032L1.21527e-05 11.3877C-5.52006e-05 11.3216 -0.000154323 11.2242 0.00905781 11.1353C0.0208148 11.0218 0.0519133 10.8626 0.152848 10.6997C0.253783 10.5368 0.382491 10.4381 0.478901 10.3771C0.554434 10.3292 0.641649 10.286 0.700862 10.2566L0.70088 10.2566L0.714783 10.2497L4.62891 8.30414V3.85061L4.6289 3.83509C4.62883 3.769 4.62873 3.67164 4.63794 3.5827C4.6497 3.4692 4.6808 3.31001 4.78173 3.14712C4.88267 2.98423 5.01137 2.88553 5.10778 2.82448C5.18333 2.77664 5.27055 2.73339 5.32976 2.70404L5.34367 2.69714L9.42985 0.666044L9.44741 0.65696C9.52308 0.617329 9.74708 0.5 10.0032 0.5C10.2593 0.5 10.4833 0.617329 10.559 0.65696L10.5765 0.666043L14.6627 2.69714L14.6766 2.70403C14.7358 2.73339 14.8231 2.77664 14.8986 2.82448C14.995 2.88553 15.1237 2.98423 15.2247 3.14712C15.3256 3.31001 15.3567 3.4692 15.3685 3.58271C15.3777 3.67164 15.3776 3.76899 15.3775 3.83508V3.83509L15.3775 3.85061ZM10.7486 15.8603V12.4172L13.8704 13.8495V17.412L10.7486 15.8603ZM9.24609 12.417L6.12431 13.8494V17.4118L9.24609 15.8601V12.417ZM14.6236 9.61049L11.554 11.1363L14.6204 12.5433L17.6902 11.1348L14.6236 9.61049ZM9.2532 6.29679L6.12891 4.86328V8.3063L9.2532 9.85927V6.29679ZM18.4947 12.416V15.859L15.3704 17.412V13.8495L18.4947 12.416ZM2.30449 11.1346L5.37431 9.60872L8.44413 11.1346L5.37431 12.5431L2.30449 11.1346ZM1.50002 12.4159L4.62431 13.8494V17.4118L1.50002 15.8589V12.4159Z" fill="#82899A"/>
</g>
<defs>
<clipPath id="clip0_29173_20565">
<rect width="20" height="20" fill="white"/>
</clipPath>
</defs>
</svg>
