<svg width="104" height="32" viewBox="0 0 104 32" fill="none" xmlns="http://www.w3.org/2000/svg">
  <path fill-rule="evenodd" clip-rule="evenodd"
    d="M15.3438 2.44138L24.3517 7.21689C25.7344 8.04656 27.0283 9.0145 27.0876 11.864V14.1505H23.5467V11.0245L13.5808 5.67115L3.54089 11.0245V14.1505H0V11.864C0.0543248 9.02931 1.33833 8.05643 2.71123 7.23172L11.8128 2.43643C12.9191 1.8537 14.2377 1.8537 15.3438 2.44138ZM15.3488 25.8596L23.5418 21.2718V17.8543H27.0826V20.136C27.0283 22.9855 25.7295 23.9584 24.3467 24.783L15.3438 29.5586C14.2426 30.1463 12.9191 30.1463 11.8128 29.5635L2.71123 24.7683C1.33833 23.9435 0.0592621 22.9657 0 20.136V17.8543H3.54583V21.2718L11.8128 25.8646V22.1558C8.92878 21.4792 7.03734 19.1383 7.03734 15.9975C7.03734 12.1949 9.66461 9.64166 13.5808 9.64166C17.497 9.64166 20.1244 12.1949 20.1244 15.9975C20.1244 19.1334 18.228 21.4792 15.3488 22.1558V25.8596ZM13.5808 12.7677C11.4819 12.7677 10.3264 13.9134 10.3264 15.9975C10.3264 18.0223 11.5412 19.2273 13.5808 19.2273C15.6204 19.2273 16.8353 18.0173 16.8353 15.9975C16.8353 13.9134 15.6797 12.7677 13.5808 12.7677ZM89.0162 8.30831H84.0825L77.7415 14.8073V5.10323H73.6722V24.7534H77.7415V19.8347L79.8354 17.6915L85.3568 24.7534H89.9248L82.3738 15.0987L89.0162 8.30831ZM95.54 10.2489C96.3104 9.47853 98.3796 7.87847 102.286 7.87847H103.037L103.051 11.5181L95.54 11.5478V24.7532H91.4065V8.30318V8.2933H95.54V10.2489ZM64.5262 7.87382C61.405 7.87382 59.4445 9.89365 59.3012 10.0517V8.29359H55.1677V8.29853V24.7536H59.3012V11.1826H62.373C62.531 11.1826 62.6842 11.1875 62.8323 11.1925C63.8645 11.227 64.6497 11.395 65.2324 11.7011C65.4251 11.8098 65.6028 11.9333 65.7657 12.0666C66.6399 12.8468 66.872 14.1754 66.872 16.1557V24.7585H70.9413V14.926C70.9363 10.8517 69.0696 7.87382 64.5262 7.87382ZM46.323 8.84162C47.0242 9.26633 47.6218 9.82931 48.1305 10.5454V8.28851H52.264V24.7484H48.1305V22.3286C47.6563 23.2422 46.7921 24.0521 45.5723 24.5904C45.3007 24.7139 45.0094 24.8176 44.7031 24.9114C44.6341 24.9312 44.5649 24.951 44.4908 24.9707L44.4315 24.9856C43.7352 25.1584 43.0043 25.2522 42.2537 25.2522C41.0586 25.2522 39.9177 25.0151 38.8758 24.5904C35.6756 23.2866 33.4237 20.1804 33.4237 16.5556C33.4237 11.7553 37.3795 7.85886 42.2537 7.85886C43.7205 7.85886 45.1032 8.21444 46.323 8.84162ZM37.6658 16.5605C37.6658 19.6914 39.7498 21.8644 42.9698 21.8644C45.7748 21.8644 48.2737 19.8742 48.2737 16.5605C48.2737 13.1775 45.8588 11.2565 42.9698 11.2565C39.6907 11.2565 37.6658 13.2368 37.6658 16.5605Z"
    fill="#356DF3" />
</svg>