<svg width="24" height="24" viewBox="0 0 24 24" fill="none" xmlns="http://www.w3.org/2000/svg">
  <circle cx="12" cy="12" r="11" fill="#F6851B"/>
  <path
    d="M12.0321 7.28564C11.087 7.28919 10.1815 7.66711 9.51323 8.33701C8.84491 9.00691 8.46789 9.91447 8.46436 10.8618C8.46431 11.2568 8.52779 11.6493 8.65237 12.024C8.69709 12.1466 8.78692 12.2475 8.90344 12.3059C9.01996 12.3643 9.15435 12.3758 9.27907 12.3381C9.40011 12.292 9.49903 12.2013 9.55561 12.0845C9.61218 11.9678 9.62215 11.8338 9.58347 11.7099C9.4775 11.4185 9.43033 11.1089 9.4447 10.799C9.4595 10.2989 9.61909 9.81379 9.90402 9.40291C10.1889 8.99204 10.5869 8.67308 11.0495 8.48489C11.512 8.2967 12.0192 8.24739 12.5092 8.34298C12.9992 8.43857 13.4509 8.67492 13.8093 9.02326C14.1677 9.37159 14.4173 9.81687 14.5277 10.3049C14.6381 10.7929 14.6046 11.3025 14.4312 11.7717C14.2578 12.241 13.952 12.6495 13.5511 12.9477C13.1502 13.2458 12.6714 13.4206 12.1731 13.4509C12.1731 13.4509 11.674 13.4823 11.4233 13.5137C11.3314 13.5267 11.2402 13.5447 11.1502 13.5675C11.1438 13.5724 11.1358 13.5748 11.1277 13.5742C11.1196 13.5736 11.1121 13.5701 11.1063 13.5644C11.1006 13.5587 11.0972 13.5511 11.0966 13.543C11.096 13.5349 11.0984 13.5269 11.1032 13.5204L11.1816 13.0964L11.6516 10.9628C11.6786 10.8358 11.6542 10.7032 11.5836 10.5942C11.5131 10.4852 11.4023 10.4088 11.2756 10.3817C11.1488 10.3547 11.0166 10.3792 10.9078 10.4498C10.7991 10.5205 10.7229 10.6316 10.6959 10.7586C10.6959 10.7586 9.57675 15.9681 9.57675 16.0152C9.56134 16.0781 9.55889 16.1434 9.56955 16.2073C9.58021 16.2711 9.60376 16.3321 9.63875 16.3865C9.67375 16.4409 9.71945 16.4876 9.77306 16.5236C9.82667 16.5597 9.88706 16.5845 9.95054 16.5963C10.0134 16.6114 10.0786 16.6135 10.1423 16.6026C10.206 16.5916 10.2668 16.5678 10.3211 16.5325C10.3753 16.4973 10.4218 16.4513 10.4577 16.3975C10.4937 16.3437 10.5184 16.2831 10.5302 16.2194C10.5459 16.1566 10.6869 15.4656 10.6869 15.4656C10.7389 15.2112 10.8673 14.9789 11.055 14.8C11.2427 14.6211 11.4806 14.5042 11.7366 14.465C11.8441 14.4493 12.2984 14.4178 12.2984 14.4178C13.2064 14.3337 14.0477 13.9041 14.6494 13.2173C15.2511 12.5305 15.5674 11.6387 15.5333 10.7254C15.4992 9.81199 15.1172 8.94643 14.466 8.30664C13.8148 7.66686 12.9438 7.30149 12.0321 7.28564Z"
    fill="white"/>
  <path
    d="M12.9244 15.5212C12.8472 15.5055 12.7677 15.5053 12.6904 15.5205C12.6131 15.5357 12.5396 15.5661 12.4741 15.6099C12.4086 15.6537 12.3523 15.71 12.3086 15.7757C12.2648 15.8413 12.2345 15.915 12.2192 15.9925C12.2026 16.0699 12.2017 16.1499 12.2165 16.2277C12.2313 16.3055 12.2615 16.3795 12.3053 16.4454C12.3491 16.5113 12.4057 16.5677 12.4717 16.6114C12.5376 16.655 12.6116 16.6849 12.6893 16.6993C12.7665 16.7169 12.8465 16.7185 12.9243 16.7041C13.0021 16.6897 13.0762 16.6595 13.142 16.6154C13.2078 16.5713 13.2639 16.5142 13.307 16.4476C13.35 16.381 13.379 16.3063 13.3923 16.2281C13.4187 16.0727 13.3849 15.9131 13.298 15.7817C13.2111 15.6504 13.0775 15.5572 12.9244 15.5212Z"
    fill="white"/>
</svg>
