<svg width="56" height="56" viewBox="0 0 56 56" fill="none" xmlns="http://www.w3.org/2000/svg">
<path d="M25.702 9.67996C26.723 7.97387 29.2757 7.97387 30.2967 9.67996L50.9733 44.2284C51.9944 45.9344 50.718 48.0671 48.6759 48.0671H7.32278C5.28065 48.0671 4.00432 45.9344 5.02538 44.2284L25.702 9.67996Z" stroke="#1F2226" stroke-width="3" stroke-linecap="square" stroke-linejoin="round"/>
<circle cx="27.9993" cy="39.8409" r="2.79989" fill="#1F2226"/>
<path d="M25.2732 20.3991C25.2586 20.2242 25.3966 20.0742 25.5721 20.0742H30.4733C30.6488 20.0742 30.7868 20.2242 30.7723 20.3991L29.6556 33.7991C29.6426 33.9546 29.5127 34.0742 29.3566 34.0742H26.6888C26.5328 34.0742 26.4028 33.9546 26.3898 33.7991L25.2732 20.3991Z" fill="#1F2226"/>
</svg>
