<svg xmlns="http://www.w3.org/2000/svg" xmlns:xlink="http://www.w3.org/1999/xlink" enable-background="new 0 0 45 45" viewBox="0 0 45 45">
  <clipPath id="a">
    <path d="m0 36h36v-36h-36z" />
  </clipPath>
  <g clip-path="url(#a)" transform="matrix(1.25 0 0 -1.25 0 45)">
    <path d="m0 0c0 5.45-4.418 9.868-9.867 9.868-3.308 0-6.227-1.633-8.018-4.129-1.79 2.496-4.71 4.129-8.017 4.129-5.45 0-9.868-4.418-9.868-9.868 0-.772.098-1.52.266-2.241 1.371-8.512 10.835-17.494 17.619-19.96 6.783 2.466 16.249 11.448 17.617 19.96.17.721.268 1.469.268 2.241" fill="#346DF3" transform="translate(35.885 24.167)" />
  </g>
</svg>